<svg xmlns="http://www.w3.org/2000/svg" viewBox="0 0 71 67"><defs><style>.cls-1{fill:#fff;}.cls-2{fill:#fbd072;}</style></defs><title>1Ativo 1</title><g id="Camada_2" data-name="Camada 2"><g id="Camada_1-2" data-name="Camada 1"><path class="cls-1" d="M71,33.51a32,32,0,0,0-4.27-15.95A34.33,34.33,0,0,0,54.91,5.45,37,37,0,0,0,38.41.11a37.53,37.53,0,0,0-17.2,2.72A35.29,35.29,0,0,0,7.46,13,32.66,32.66,0,0,0,.47,28,31.72,31.72,0,0,0,2,44.43a33.43,33.43,0,0,0,9.57,13.75l0,0,1.14.91.23.17c.61.47,1.25.93,1.89,1.37l.63.43c.69.44,1.4.87,2.12,1.27l.48.27c.79.42,1.6.82,2.42,1.18l.19.09a37.39,37.39,0,0,0,8.58,2.56l.24,0c.93.15,1.88.27,2.84.35l.35,0c.95.07,1.91.12,2.89.12s1.92,0,2.87-.12l.36,0c1-.08,1.88-.21,2.81-.35a1.23,1.23,0,0,0,.25-.05A36.22,36.22,0,0,0,50.23,64l.29-.12c.8-.36,1.57-.74,2.34-1.14l.57-.31c.69-.39,1.38-.79,2-1.22.24-.15.47-.32.7-.48.57-.38,1.14-.78,1.67-1.19.12-.09.25-.17.37-.27l1.18-.93,0,0A33.6,33.6,0,0,0,68,47.05a31.85,31.85,0,0,0,3-13.54Zm-68.42,0a29.67,29.67,0,0,1,4-14.85,31.73,31.73,0,0,1,11-11.24A34.36,34.36,0,0,1,33,2.52,34.83,34.83,0,0,1,49,5.16,32.77,32.77,0,0,1,61.71,14.7,30.25,30.25,0,0,1,68,28.8a29.41,29.41,0,0,1-1.59,15.25,31,31,0,0,1-9.12,12.67,10.12,10.12,0,0,0-1.16-.65L45.24,50.91a2.81,2.81,0,0,1-1.16-1,2.56,2.56,0,0,1-.42-1.42V44.88c.25-.29.52-.62.79-1a24.53,24.53,0,0,0,3.38-6.24,4.56,4.56,0,0,0,2-1.63,4.34,4.34,0,0,0,.72-2.38V29.32a4.32,4.32,0,0,0-1.14-2.89V20.75A9.48,9.48,0,0,0,47,13.61a18.9,18.9,0,0,0-22.89,0,9.53,9.53,0,0,0-2.44,7.14v5.68a4.31,4.31,0,0,0-1.13,2.89v4.32a4.24,4.24,0,0,0,.45,1.9,4.45,4.45,0,0,0,1.27,1.53,22.2,22.2,0,0,0,4,7.77v3.53a2.63,2.63,0,0,1-.4,1.38,2.86,2.86,0,0,1-1.1,1L14.49,56a10.36,10.36,0,0,0-1,.58A31,31,0,0,1,5.44,46.14,29.45,29.45,0,0,1,2.58,33.49ZM54.81,58.63q-.68.46-1.38.9l-.64.39c-.61.36-1.23.69-1.87,1l-.41.2A34.46,34.46,0,0,1,46,62.93l-.16,0c-.81.27-1.63.48-2.46.67s-1.69.36-2.54.5h-.07c-.79.12-1.61.21-2.42.27l-.43,0c-.8.05-1.61.09-2.41.09s-1.64,0-2.45-.1c-.14,0-.29,0-.42,0-.82-.06-1.64-.16-2.44-.27h-.11a35.91,35.91,0,0,1-5-1.19l-.15-.05c-.82-.26-1.62-.54-2.41-.87h0c-.75-.3-1.48-.63-2.21-1L20,60.9c-.66-.33-1.3-.69-1.94-1.07l-.57-.34c-.58-.36-1.16-.74-1.72-1.14l-.17-.13.12-.06L26,52.91A5.37,5.37,0,0,0,28,51a4.91,4.91,0,0,0,.76-2.63V44l-.28-.34a19.85,19.85,0,0,1-3.88-7.57l-.11-.48-.45-.27a2,2,0,0,1-.72-.73,1.84,1.84,0,0,1-.27-1V29.33a2,2,0,0,1,.19-.82,2,2,0,0,1,.53-.67l.43-.37V20.7l0-.16A7.06,7.06,0,0,1,26,15.23a16.44,16.44,0,0,1,19,0,7.2,7.2,0,0,1,1.83,5.34v6.94l.43.36a2.09,2.09,0,0,1,.52.67,1.83,1.83,0,0,1,.19.82v4.32a1.89,1.89,0,0,1-.43,1.19,2.12,2.12,0,0,1-1.09.73l-.65.18-.2.61a22.29,22.29,0,0,1-3.22,6.12c-.34.45-.67.85-.95,1.16L41.1,44v4.51a5,5,0,0,0,.81,2.71,5.32,5.32,0,0,0,2.2,1.89L55,58.25l.21.1a4.94,4.94,0,0,1-.42.27Z"/><path class="cls-2" d="M62.59,58.33H59.43V54.65a1.44,1.44,0,1,0-2.86,0v3.68H53.41a1.69,1.69,0,0,0,0,3.34h3.16v3.68a1.44,1.44,0,1,0,2.86,0V61.67h3.16a1.69,1.69,0,0,0,0-3.34Z"/></g></g></svg>