<svg width="17" height="20" viewBox="0 0 17 20" fill="none" xmlns="http://www.w3.org/2000/svg">
<path d="M14.4853 2.47393C12.894 0.8899 10.7357 -1.66905e-08 8.48528 0C6.23484 1.66905e-08 4.07658 0.8899 2.48528 2.47393C0.893982 4.05797 1.67671e-08 6.20638 0 8.44654C-1.67671e-08 10.6867 0.893982 12.8351 2.48528 14.4191L7.75528 19.675C7.84824 19.7683 7.95885 19.8424 8.0807 19.8929C8.20256 19.9435 8.33327 19.9695 8.46528 19.9695C8.59729 19.9695 8.728 19.9435 8.84986 19.8929C8.97172 19.8424 9.08232 19.7683 9.17528 19.675L14.4853 14.3694C16.0699 12.7919 16.9602 10.6525 16.9602 8.42165C16.9602 6.19083 16.0699 4.05138 14.4853 2.47393V2.47393ZM13.0553 12.9459L8.48528 17.5149L3.91528 12.9459C3.01243 12.0463 2.39776 10.9005 2.14898 9.65329C1.90019 8.40606 2.02847 7.1134 2.51759 5.93872C3.0067 4.76404 3.8347 3.76008 4.89691 3.05375C5.95913 2.34742 7.20787 1.97042 8.48528 1.97042C9.7627 1.97042 11.0114 2.34742 12.0737 3.05375C13.1359 3.76008 13.9639 4.76404 14.453 5.93872C14.9421 7.1134 15.0704 8.40606 14.8216 9.65329C14.5728 10.9005 13.9581 12.0463 13.0553 12.9459V12.9459ZM5.48528 5.39055C4.678 6.19663 4.22468 7.28842 4.22468 8.42663C4.22468 9.56484 4.678 10.6566 5.48528 11.4627C6.08504 12.0607 6.84887 12.4692 7.68093 12.6367C8.51299 12.8043 9.37623 12.7235 10.1624 12.4045C10.9485 12.0856 11.6225 11.5426 12.0998 10.8438C12.5771 10.145 12.8364 9.32139 12.8453 8.4764C12.8498 7.91219 12.7406 7.35281 12.5242 6.83133C12.3078 6.30985 11.9885 5.83686 11.5853 5.44033C11.189 5.03676 10.7164 4.71519 10.1947 4.49413C9.67305 4.27307 9.11262 4.15689 8.54568 4.15226C7.97874 4.14764 7.41648 4.25466 6.89125 4.46718C6.36602 4.67969 5.8882 4.99351 5.48528 5.39055V5.39055ZM10.1753 10.0492C9.79632 10.4322 9.29549 10.6722 8.75841 10.7283C8.22133 10.7844 7.68135 10.6531 7.23079 10.3567C6.78023 10.0603 6.44708 9.61741 6.28829 9.1036C6.1295 8.5898 6.15493 8.03705 6.36024 7.53985C6.56555 7.04265 6.93798 6.63188 7.41387 6.37776C7.88975 6.12365 8.43953 6.04197 8.96922 6.1467C9.4989 6.25143 9.97559 6.53606 10.3178 6.95192C10.66 7.36779 10.8464 7.88906 10.8453 8.42663C10.8307 9.04108 10.5718 9.62466 10.1253 10.0492H10.1753Z" fill="#D6A763"/>
</svg>
