<?xml version="1.0" encoding="utf-8"?>
<!-- Generator: Adobe Illustrator 23.0.0, SVG Export Plug-In . SVG Version: 6.00 Build 0)  -->
<svg version="1.1" id="Camada_1" xmlns="http://www.w3.org/2000/svg" xmlns:xlink="http://www.w3.org/1999/xlink" x="0px" y="0px"
	 viewBox="0 0 31 33" style="enable-background:new 0 0 31 33;" xml:space="preserve">
<style type="text/css">
	.st0{fill:#313131;}
</style>
<path class="st0" d="M29.8,1c0,0-1.3,3.7-2.3,6.2c-0.8,1.6-2.1,2.8-3.7,3.4c-4.9-3.7-6.4-3-7.5-2.4c-0.5,0.3-0.7,0.3-0.8,0.7
	c-0.1-0.4-0.3-0.4-0.8-0.7c-1-0.7-2.5-1.5-7.5,2.1c-1.6-0.7-2.9-2-3.6-3.6c-1-2.5-2.1-6.2-2.1-6.2S0.7,7.3,0.7,9s0.7,16.2,3.4,18.6
	c1.4,1.4,3.2,2.5,5,3.3C11,31.7,13,32,15,32c2,0.1,4-0.2,5.9-0.9c1.9-0.7,3.6-1.7,5.1-3.1c2.8-2.3,4-16.7,4-18.4
	C30.2,7.8,29.8,1,29.8,1z M17.8,14.4l-4.9-0.1c-2.1,0-2.6-0.3-3.2-3.1c1.9-0.4,3.8-0.6,5.7-0.4l0,0l0,0c1.9-0.1,3.8,0.1,5.6,0.6
	C20.4,14.2,19.5,14.4,17.8,14.4z"/>
</svg>
