<svg width="23" height="26" viewBox="0 0 23 26" fill="none" xmlns="http://www.w3.org/2000/svg">
<path d="M22.8001 24.6211L20.314 22.0211C21.1009 21.1594 21.5255 20.0275 21.4995 18.8609C21.4735 17.6943 20.999 16.5826 20.1745 15.7569C19.3499 14.9312 18.2388 14.455 17.0722 14.4273C15.9056 14.3996 14.7732 14.8227 13.9104 15.6085C13.0477 16.3942 12.521 17.4822 12.4397 18.6463C12.3585 19.8104 12.7289 20.961 13.4742 21.8589C14.2194 22.7569 15.2821 23.3331 16.4412 23.4678C17.6003 23.6025 18.7668 23.2853 19.698 22.5821L22.198 25.199C22.2763 25.2694 22.3784 25.3075 22.4837 25.3057C22.5889 25.304 22.6896 25.2627 22.7655 25.1898C22.8415 25.1168 22.8871 25.0178 22.8931 24.9127C22.8991 24.8076 22.8651 24.7042 22.798 24.6231L22.8001 24.6211ZM16.99 22.6622C16.2649 22.6622 15.5561 22.4469 14.9532 22.044C14.3502 21.6411 13.8803 21.0685 13.6029 20.3985C13.3255 19.7285 13.2529 18.9913 13.3946 18.2801C13.5362 17.5689 13.8856 16.9158 14.3985 16.4031C14.9114 15.8905 15.5648 15.5414 16.276 15.4002C16.9873 15.259 17.7245 15.3319 18.3943 15.6097C19.0642 15.8875 19.6366 16.3576 20.0392 16.9607C20.4418 17.5639 20.6564 18.2729 20.656 18.9981C20.6547 19.9698 20.268 20.9013 19.5807 21.5882C18.8934 22.2751 17.9617 22.6614 16.99 22.6622Z" fill="white"/>
<path d="M11.251 9.07593H2.91699V21.158H11.251V13.658H18.751V9.07397L11.251 9.07593ZM6.66699 20.324H3.74902V17.4089H6.66699V20.324ZM6.66699 16.575H3.74902V13.6599H6.66699V16.575ZM6.66699 12.825H3.74902V9.90698H6.66699V12.825ZM10.416 20.325H7.5V17.4099H10.417L10.416 20.325ZM10.416 16.5759H7.5V13.6609H10.417L10.416 16.5759ZM10.416 12.8259H7.5V9.90796H10.417L10.416 12.8259ZM14.166 12.8259H11.251V9.90796H14.166V12.8259ZM15 9.90796H17.915V12.8259H15V9.90796Z" fill="white"/>
<path d="M12.083 23.2419H0.833984V6.99194H20.834V12.825C20.834 12.9355 20.878 13.0417 20.9562 13.1199C21.0344 13.1981 21.1404 13.2419 21.251 13.2419C21.3616 13.2419 21.4677 13.1981 21.5459 13.1199C21.6241 13.0417 21.668 12.9355 21.668 12.825V2.40796C21.6677 2.29745 21.6237 2.19167 21.5455 2.11353C21.4674 2.03538 21.3615 1.99123 21.251 1.99097H19.168V0.741945C19.1677 0.63143 19.1237 0.525656 19.0455 0.447511C18.9674 0.369365 18.8615 0.325216 18.751 0.324952H15.833C15.7784 0.325084 15.7242 0.335908 15.6738 0.356935C15.6234 0.377962 15.5777 0.408789 15.5392 0.447511C15.5006 0.486233 15.4701 0.532243 15.4493 0.582765C15.4286 0.633287 15.4178 0.687315 15.418 0.741945V1.99097H6.25098V0.741945C6.25098 0.631349 6.20711 0.525225 6.12891 0.447023C6.0507 0.36882 5.94458 0.324952 5.83398 0.324952H2.91797C2.86317 0.32482 2.80895 0.335537 2.7583 0.356447C2.70765 0.377356 2.66155 0.40803 2.6228 0.446779C2.58405 0.485527 2.55338 0.531624 2.53247 0.582277C2.51156 0.632929 2.50084 0.687146 2.50098 0.741945V1.99097H0.417969C0.307455 1.99123 0.201559 2.03538 0.123413 2.11353C0.0452676 2.19167 0.00124064 2.29745 0.000976562 2.40796V23.6589C0.000976562 23.7695 0.0449663 23.8757 0.123169 23.9539C0.201372 24.0321 0.307373 24.0759 0.417969 24.0759H12.084C12.1946 24.0759 12.3007 24.0321 12.3789 23.9539C12.4571 23.8757 12.501 23.7695 12.501 23.6589C12.501 23.5483 12.4571 23.4425 12.3789 23.3643C12.3007 23.2861 12.1946 23.2419 12.084 23.2419H12.083ZM16.249 2.40796V1.15991H18.333V3.65991H16.249V2.40796ZM3.33203 2.40796V1.15991H5.41504V3.65991H3.33203V2.40796ZM0.832031 2.82593H2.49805V4.07495C2.49792 4.12975 2.50851 4.18397 2.52942 4.23462C2.55033 4.28527 2.58112 4.33137 2.61987 4.37012C2.65862 4.40887 2.7046 4.43954 2.75525 4.46045C2.8059 4.48136 2.86024 4.49208 2.91504 4.49194H5.83105C5.94165 4.49194 6.04765 4.44808 6.12585 4.36987C6.20406 4.29167 6.24805 4.18555 6.24805 4.07495V2.82593H15.415V4.07495C15.4149 4.12958 15.4255 4.18385 15.4463 4.23438C15.4671 4.2849 15.4976 4.33066 15.5361 4.36939C15.5747 4.40811 15.6205 4.43894 15.6709 4.45996C15.7213 4.48099 15.7753 4.49181 15.83 4.49194H18.748C18.8586 4.49168 18.9645 4.44778 19.0426 4.36963C19.1207 4.29148 19.1648 4.18547 19.165 4.07495V2.82593H20.8311V6.15796H0.831055L0.832031 2.82593Z" fill="white"/>
</svg>
