<svg width="24" height="25" viewBox="0 0 24 25" fill="none" xmlns="http://www.w3.org/2000/svg">
<path d="M5.41907 2.08301H7.08801C7.19861 2.08301 7.30473 2.03914 7.38293 1.96094C7.46114 1.88273 7.505 1.77661 7.505 1.66602C7.505 1.55542 7.46114 1.4493 7.38293 1.37109C7.30473 1.29289 7.19861 1.24902 7.08801 1.24902H5.41907C5.30847 1.24902 5.20235 1.29289 5.12415 1.37109C5.04594 1.4493 5.00208 1.55542 5.00208 1.66602C5.00208 1.77661 5.04594 1.88273 5.12415 1.96094C5.20235 2.03914 5.30847 2.08301 5.41907 2.08301Z" fill="white"/>
<path d="M13.3328 18H18.6672C19.0207 18 19.3599 17.9474 19.6098 17.8536C19.8598 17.7599 20 17.6326 20 17.5C20 17.3674 19.8598 17.2401 19.6098 17.1464C19.3599 17.0526 19.0207 17 18.6672 17H13.3328C12.9793 17 12.6401 17.0526 12.3902 17.1464C12.1402 17.2401 12 17.3674 12 17.5C12 17.6326 12.1402 17.7599 12.3902 17.8536C12.6401 17.9474 12.9793 18 13.3328 18Z" fill="white"/>
<path d="M13.3328 20H18.6672C19.0207 20 19.3599 19.9474 19.6098 19.8536C19.8598 19.7599 20 19.6326 20 19.5C20 19.3674 19.8598 19.2401 19.6098 19.1464C19.3599 19.0526 19.0207 19 18.6672 19H13.3328C12.9793 19 12.6401 19.0526 12.3902 19.1464C12.1402 19.2401 12 19.3674 12 19.5C12 19.6326 12.1402 19.7599 12.3902 19.8536C12.6401 19.9474 12.9793 20 13.3328 20Z" fill="white"/>
<path d="M8.33704 2.08301H8.75403C8.86462 2.08301 8.97075 2.03914 9.04895 1.96094C9.12715 1.88273 9.17102 1.77661 9.17102 1.66602C9.17102 1.55542 9.12715 1.4493 9.04895 1.37109C8.97075 1.29289 8.86462 1.24902 8.75403 1.24902H8.33704C8.22644 1.24902 8.12032 1.29289 8.04211 1.37109C7.96391 1.4493 7.92004 1.55542 7.92004 1.66602C7.92004 1.77661 7.96391 1.88273 8.04211 1.96094C8.12032 2.03914 8.22644 2.08301 8.33704 2.08301Z" fill="white"/>
<path d="M5.41907 22.082C5.41887 22.4117 5.51638 22.7341 5.69934 23.0083C5.8823 23.2825 6.14243 23.4962 6.4469 23.6226C6.75137 23.7489 7.08653 23.7823 7.40991 23.7183C7.73329 23.6542 8.03036 23.4958 8.26367 23.2629C8.49699 23.03 8.65608 22.7332 8.7207 22.4099C8.78533 22.0867 8.75267 21.7515 8.62683 21.4468C8.501 21.1421 8.28757 20.8815 8.01367 20.698C7.73978 20.5145 7.41767 20.4164 7.08801 20.416C6.64605 20.4165 6.22234 20.5921 5.90955 20.9043C5.59675 21.2165 5.42039 21.6401 5.41907 22.082ZM7.91907 22.082C7.91946 22.2469 7.87088 22.4081 7.77954 22.5454C7.68821 22.6827 7.55824 22.7899 7.40601 22.8533C7.25377 22.9166 7.08618 22.9331 6.92444 22.9011C6.76269 22.8691 6.61397 22.7899 6.49731 22.6733C6.38066 22.5568 6.30123 22.4083 6.26904 22.2466C6.23685 22.0849 6.25339 21.9174 6.31653 21.7651C6.37967 21.6128 6.48662 21.4826 6.62378 21.3911C6.76094 21.2996 6.92216 21.2508 7.08704 21.251C7.3072 21.252 7.51805 21.34 7.67383 21.4956C7.8296 21.6512 7.91775 21.8619 7.91907 22.082Z" fill="white"/>
<path d="M9.58606 19.167H0.838013V3.33203H13.338V12.5C13.338 12.6103 13.3818 12.7162 13.4598 12.7942C13.5379 12.8722 13.6437 12.916 13.754 12.916C13.8644 12.916 13.9702 12.8722 14.0482 12.7942C14.1262 12.7162 14.17 12.6103 14.17 12.5V1.83496C14.1693 1.34853 13.9757 0.882288 13.6317 0.53833C13.2878 0.194373 12.8215 0.000793307 12.3351 0H1.83508C1.34865 0.000793307 0.882288 0.194373 0.53833 0.53833C0.194373 0.882288 0.000793307 1.34853 0 1.83496V23.165C0.000793307 23.6515 0.194373 24.1177 0.53833 24.4617C0.882288 24.8056 1.34865 24.9992 1.83508 25H9.16699C9.27759 25 9.38371 24.9561 9.46191 24.8779C9.54012 24.7997 9.58398 24.6936 9.58398 24.583C9.58398 24.4724 9.54012 24.3663 9.46191 24.2881C9.38371 24.2099 9.27759 24.166 9.16699 24.166H1.83508C1.56987 24.166 1.31547 24.0606 1.12793 23.873C0.940393 23.6855 0.835083 23.4312 0.835083 23.166V20H9.58301C9.69334 20 9.79918 19.9562 9.8772 19.8782C9.95521 19.8002 9.99902 19.6943 9.99902 19.584C9.99902 19.4737 9.95521 19.3678 9.8772 19.2898C9.79918 19.2118 9.69334 19.168 9.58301 19.168L9.58606 19.167ZM1.83899 0.834961H12.339C12.6042 0.834961 12.8586 0.940393 13.0461 1.12793C13.2337 1.31547 13.339 1.56974 13.339 1.83496V2.50098H0.838989V1.83496C0.838989 1.56974 0.944422 1.31547 1.13196 1.12793C1.31949 0.940393 1.57377 0.834961 1.83899 0.834961Z" fill="white"/>
<path d="M10.5263 21.6284L10.5264 21.6284L10.5218 21.622C8.54603 18.8394 9.5102 15.1656 12.804 13.4073C16.1313 11.6312 20.4673 12.5507 22.479 15.3832L22.4791 15.3832C23.1664 16.3507 23.5168 17.4601 23.4994 18.5822C23.3747 21.8427 20.2425 24.5328 16.3005 24.4997V24.4997H16.2963H10.3189L10.5151 24.2108C11.0664 23.422 11.0707 22.4213 10.5263 21.6284Z" stroke="white"/>
</svg>
