<svg width="18" height="13" viewBox="0 0 18 13" fill="none" xmlns="http://www.w3.org/2000/svg">
<path d="M16.7349 0H1.2651C0.5676 0 0 0.559 0 1.24593V11.7541C0 12.441 0.5676 13 1.2651 13H16.7349C17.4324 13 18 12.441 18 11.7541V1.24593C18 0.559 17.4324 0 16.7349 0ZM17.4 11.7541C17.4 12.1154 17.1018 12.4091 16.7349 12.4091H1.2651C0.8982 12.4091 0.6 12.1154 0.6 11.7541V1.24593C0.6 0.884591 0.8982 0.590909 1.2651 0.590909H16.7349C17.1018 0.590909 17.4 0.884591 17.4 1.24593V11.7541Z" fill="#D6A763"/>
<path d="M6.7914 8.34559L5.7 7.79664V7.6823C6.1884 7.41964 6.5319 6.9871 6.7236 6.39294C7.0143 6.24107 7.2 5.94532 7.2 5.61382V5.31837C7.2 5.04478 7.0707 4.79098 6.8547 4.62435C6.6675 3.50753 5.8761 2.94144 4.5 2.94144C4.4349 2.94144 4.3713 2.9438 4.3092 2.94853C4.05 2.9695 3.6705 2.94735 3.342 2.72989C3.2193 2.64835 3.1266 2.56916 3.0675 2.4956C2.9667 2.36885 2.7972 2.32453 2.6469 2.38539C2.4963 2.44625 2.4078 2.59457 2.4267 2.75382C2.4393 2.86432 2.4582 2.99285 2.4867 3.13378C2.5446 3.42185 2.5446 3.42185 2.4633 3.5941C2.4327 3.65939 2.3949 3.73887 2.3505 3.84612C2.2512 4.08573 2.1807 4.3481 2.1402 4.62819C1.9272 4.79512 1.8 5.04744 1.8 5.31837V5.61382C1.8 5.94532 1.9857 6.24107 2.2764 6.39294C2.4681 6.98739 2.8116 7.41994 3.3 7.6823V7.79339L2.1693 8.34235C1.7565 8.56394 1.5 8.98939 1.5 9.45266V9.84414C1.5 10.0814 1.5 10.6365 4.5 10.6365C7.5 10.6365 7.5 10.0814 7.5 9.84414V9.4763C7.5 8.99441 7.2285 8.56157 6.7914 8.34559ZM6.9 9.77737C6.7128 9.88964 5.9514 10.0456 4.5 10.0456C3.0486 10.0456 2.2872 9.88964 2.1 9.77737V9.45266C2.1 9.20596 2.2365 8.97905 2.4456 8.86707L3.6027 8.30541C3.7833 8.21855 3.8997 8.03448 3.8997 7.83623V7.30353L3.7185 7.22671C3.2634 7.03348 2.9676 6.66505 2.814 6.09985L2.7711 5.94237L2.6133 5.89391C2.4879 5.85521 2.4 5.74028 2.4 5.61382V5.31837C2.4 5.21141 2.4621 5.11214 2.5623 5.05955L2.703 4.98569L2.7195 4.82939C2.7492 4.55225 2.8119 4.29669 2.9061 4.07007C2.946 3.97405 2.9799 3.90225 3.0075 3.84346C3.1092 3.62837 3.1461 3.51728 3.1206 3.28948C3.4734 3.48803 3.8973 3.57253 4.3572 3.53796C4.4037 3.53412 4.4514 3.53235 4.5003 3.53235C5.6235 3.53235 6.1719 3.93298 6.279 4.83175L6.2976 4.98598L6.4371 5.05866C6.5373 5.11125 6.6 5.21082 6.6 5.31837V5.61382C6.6 5.74028 6.5121 5.85521 6.3864 5.89362L6.2286 5.94207L6.1857 6.09955C6.0321 6.66475 5.7363 7.03319 5.2812 7.22641L5.1 7.30353V7.83859C5.1 8.03625 5.211 8.21441 5.3892 8.30394L6.5217 8.87387C6.7551 8.9885 6.9 9.21955 6.9 9.4763V9.77737Z" fill="#D6A763"/>
<path d="M9.0002 4.43173H12.0002C12.1661 4.43173 12.3002 4.29966 12.3002 4.13627C12.3002 3.97289 12.1661 3.84082 12.0002 3.84082H9.0002C8.8343 3.84082 8.7002 3.97289 8.7002 4.13627C8.7002 4.29966 8.8343 4.43173 9.0002 4.43173Z" fill="#D6A763"/>
<path d="M13.1999 4.43173H13.4999C13.6658 4.43173 13.7999 4.29966 13.7999 4.13627C13.7999 3.97289 13.6658 3.84082 13.4999 3.84082H13.1999C13.034 3.84082 12.8999 3.97289 12.8999 4.13627C12.8999 4.29966 13.034 4.43173 13.1999 4.43173Z" fill="#D6A763"/>
<path d="M9.3002 8.86377H9.0002C8.8343 8.86377 8.7002 8.99584 8.7002 9.15922C8.7002 9.32261 8.8343 9.45468 9.0002 9.45468H9.3002C9.4661 9.45468 9.6002 9.32261 9.6002 9.15922C9.6002 8.99584 9.4661 8.86377 9.3002 8.86377Z" fill="#D6A763"/>
<path d="M11.1002 8.86377H10.5002C10.3343 8.86377 10.2002 8.99584 10.2002 9.15922C10.2002 9.32261 10.3343 9.45468 10.5002 9.45468H11.1002C11.2661 9.45468 11.4002 9.32261 11.4002 9.15922C11.4002 8.99584 11.2661 8.86377 11.1002 8.86377Z" fill="#D6A763"/>
<path d="M12.6 8.86377H12.3C12.1341 8.86377 12 8.99584 12 9.15922C12 9.32261 12.1341 9.45468 12.3 9.45468H12.6C12.7659 9.45468 12.9 9.32261 12.9 9.15922C12.9 8.99584 12.7659 8.86377 12.6 8.86377Z" fill="#D6A763"/>
<path d="M14.4 8.86377H13.8C13.6341 8.86377 13.5 8.99584 13.5 9.15922C13.5 9.32261 13.6341 9.45468 13.8 9.45468H14.4C14.5659 9.45468 14.7 9.32261 14.7 9.15922C14.7 8.99584 14.5659 8.86377 14.4 8.86377Z" fill="#D6A763"/>
<path d="M15.3873 8.94918C15.333 9.00502 15.3003 9.08213 15.3003 9.15895C15.3003 9.23577 15.333 9.31258 15.3873 9.36872C15.444 9.4219 15.5223 9.4544 15.6003 9.4544C15.6783 9.4544 15.7563 9.4219 15.8133 9.36872C15.8673 9.31258 15.9003 9.23577 15.9003 9.15895C15.9003 9.08213 15.8673 9.00502 15.8133 8.94918C15.6993 8.83986 15.4983 8.83986 15.3873 8.94918Z" fill="#D6A763"/>
<path d="M15.6002 5.61377H9.0002C8.8343 5.61377 8.7002 5.74584 8.7002 5.90922C8.7002 6.07261 8.8343 6.20468 9.0002 6.20468H15.6002C15.7661 6.20468 15.9002 6.07261 15.9002 5.90922C15.9002 5.74584 15.7661 5.61377 15.6002 5.61377Z" fill="#D6A763"/>
<path d="M15.6002 7.38623H9.0002C8.8343 7.38623 8.7002 7.5183 8.7002 7.68169C8.7002 7.84507 8.8343 7.97714 9.0002 7.97714H15.6002C15.7661 7.97714 15.9002 7.84507 15.9002 7.68169C15.9002 7.5183 15.7661 7.38623 15.6002 7.38623Z" fill="#D6A763"/>
</svg>
