<svg width="63" height="75" viewBox="0 0 63 75" fill="none" xmlns="http://www.w3.org/2000/svg">
<mask id="path-1-inside-1" fill="white">
<path d="M62.9949 68.8459L62.9306 5.20451C62.9277 2.33506 60.2195 0.00273393 56.8945 0.00609355L6.03093 0.0574863C2.7059 0.0608459 0.00248084 2.39864 0.00538015 5.26809L0.0696837 68.9095C0.072583 71.779 2.78072 74.1113 6.10575 74.1079L56.9693 74.0565C60.2943 74.0532 62.9978 71.7154 62.9949 68.8459ZM6.10325 71.6396C4.35422 71.6414 2.93144 70.416 2.92992 68.9066L2.86562 5.2652C2.86409 3.75581 4.28439 2.5276 6.03342 2.52583L56.897 2.47444C58.646 2.47267 60.0688 3.69801 60.0703 5.2074L60.1346 68.8488C60.1361 70.3582 58.7158 71.5864 56.9668 71.5882L6.10325 71.6396Z"/>
</mask>
<path d="M62.9949 68.8459L62.9306 5.20451C62.9277 2.33506 60.2195 0.00273393 56.8945 0.00609355L6.03093 0.0574863C2.7059 0.0608459 0.00248084 2.39864 0.00538015 5.26809L0.0696837 68.9095C0.072583 71.779 2.78072 74.1113 6.10575 74.1079L56.9693 74.0565C60.2943 74.0532 62.9978 71.7154 62.9949 68.8459ZM6.10325 71.6396C4.35422 71.6414 2.93144 70.416 2.92992 68.9066L2.86562 5.2652C2.86409 3.75581 4.28439 2.5276 6.03342 2.52583L56.897 2.47444C58.646 2.47267 60.0688 3.69801 60.0703 5.2074L60.1346 68.8488C60.1361 70.3582 58.7158 71.5864 56.9668 71.5882L6.10325 71.6396Z" fill="#DDAF66"/>
<path d="M67.9949 68.8409L67.9305 5.19946L57.9306 5.20956L57.9949 68.851L67.9949 68.8409ZM67.9305 5.19946C67.9242 -1.09754 62.259 -4.99933 56.8894 -4.9939L56.8995 5.00609C57.4015 5.00558 57.7402 5.1829 57.8954 5.31663C58.0415 5.44241 57.9308 5.42089 57.9306 5.20956L67.9305 5.19946ZM56.8894 -4.9939L6.02587 -4.94251L6.03598 5.05748L56.8995 5.00609L56.8894 -4.9939ZM6.02587 -4.94251C0.656335 -4.93709 -5.00098 -1.02385 -4.99462 5.27314L5.00538 5.26304C5.00559 5.47437 4.8949 5.49611 5.0407 5.37003C5.1957 5.23599 5.53399 5.05799 6.03598 5.05748L6.02587 -4.94251ZM-4.99462 5.27314L-4.93032 68.9146L5.06968 68.9045L5.00538 5.26304L-4.99462 5.27314ZM-4.93032 68.9146C-4.92395 75.2116 0.74126 79.1134 6.1108 79.1079L6.10069 69.1079C5.5987 69.1084 5.26006 68.9311 5.10478 68.7974C4.95874 68.6716 5.06947 68.6931 5.06968 68.9045L-4.93032 68.9146ZM6.1108 79.1079L56.9744 79.0565L56.9643 69.0565L6.10069 69.1079L6.1108 79.1079ZM56.9744 79.0565C62.3439 79.0511 68.0012 75.1379 67.9949 68.8409L57.9949 68.851C57.9946 68.6397 58.1053 68.6179 57.9595 68.744C57.8045 68.878 57.4662 69.056 56.9643 69.0565L56.9744 79.0565ZM6.0982 66.6396C6.38283 66.6393 6.75988 66.7375 7.12414 67.0512C7.49798 67.3731 7.92902 68.0118 7.92992 68.9016L-2.07008 68.9117C-2.06509 73.8486 2.31476 76.6434 6.1083 76.6396L6.0982 66.6396ZM7.92992 68.9016L7.86561 5.26015L-2.13439 5.27025L-2.07008 68.9117L7.92992 68.9016ZM7.86561 5.26015C7.86651 6.14989 7.43676 6.78947 7.06357 7.11218C6.69995 7.42662 6.3231 7.52554 6.03847 7.52583L6.02837 -2.47416C2.23482 -2.47033 -2.13937 0.333319 -2.13439 5.27025L7.86561 5.26015ZM6.03847 7.52583L56.902 7.47444L56.8919 -2.52556L6.02837 -2.47416L6.03847 7.52583ZM56.902 7.47444C56.6174 7.47473 56.2404 7.37657 55.8761 7.06286C55.5023 6.7409 55.0712 6.10219 55.0703 5.21245L65.0703 5.20235C65.0653 0.265413 60.6855 -2.52939 56.8919 -2.52556L56.902 7.47444ZM55.0703 5.21245L55.1346 68.8539L65.1346 68.8438L65.0703 5.20235L55.0703 5.21245ZM55.1346 68.8539C55.1337 67.9641 55.5635 67.3246 55.9367 67.0018C56.3003 66.6874 56.6771 66.5885 56.9618 66.5882L56.9719 76.5882C60.7654 76.5844 65.1396 73.7807 65.1346 68.8438L55.1346 68.8539ZM56.9618 66.5882L6.0982 66.6396L6.1083 76.6396L56.9719 76.5882L56.9618 66.5882Z" fill="#DDAF66" mask="url(#path-1-inside-1)"/>
<path d="M9.66667 48H26.3333C27.255 48 28 47.553 28 47C28 46.447 27.255 46 26.3333 46H9.66667C8.745 46 8 46.447 8 47C8 47.553 8.745 48 9.66667 48Z" fill="#DDAF66"/>
<path d="M33.6667 48H35.3333C36.255 48 37 47.553 37 47C37 46.447 36.255 46 35.3333 46H33.6667C32.745 46 32 46.447 32 47C32 47.553 32.745 48 33.6667 48Z" fill="#DDAF66"/>
<path d="M11.3333 67H9.66667C8.745 67 8 67.447 8 68C8 68.553 8.745 69 9.66667 69H11.3333C12.255 69 13 68.553 13 68C13 67.447 12.255 67 11.3333 67Z" fill="#DDAF66"/>
<path d="M21.5 67H18.5C17.6705 67 17 67.447 17 68C17 68.553 17.6705 69 18.5 69H21.5C22.3295 69 23 68.553 23 68C23 67.447 22.3295 67 21.5 67Z" fill="#DDAF66"/>
<path d="M30.3333 67H28.6667C27.745 67 27 67.447 27 68C27 68.553 27.745 69 28.6667 69H30.3333C31.255 69 32 68.553 32 68C32 67.447 31.255 67 30.3333 67Z" fill="#DDAF66"/>
<path d="M40.5 67H37.5C36.6705 67 36 67.447 36 68C36 68.553 36.6705 69 37.5 69H40.5C41.3295 69 42 68.553 42 68C42 67.447 41.3295 67 40.5 67Z" fill="#DDAF66"/>
<path d="M46.58 67.2792C46.218 67.4694 46 67.7321 46 67.9937C46 68.2553 46.218 68.517 46.58 68.7082C46.958 68.8893 47.48 69 48 69C48.52 69 49.04 68.8893 49.42 68.7082C49.78 68.517 50 68.2553 50 67.9937C50 67.7321 49.78 67.4694 49.42 67.2792C48.66 66.9069 47.32 66.9069 46.58 67.2792Z" fill="#DDAF66"/>
<path d="M48.25 54H9.75C8.78225 54 8 54.447 8 55C8 55.553 8.78225 56 9.75 56H48.25C49.2178 56 50 55.553 50 55C50 54.447 49.2178 54 48.25 54Z" fill="#DDAF66"/>
<path d="M48.25 60H9.75C8.78225 60 8 60.447 8 61C8 61.553 8.78225 62 9.75 62H48.25C49.2178 62 50 61.553 50 61C50 60.447 49.2178 60 48.25 60Z" fill="#DDAF66"/>
</svg>
