<svg width="63" height="75" viewBox="0 0 63 75" fill="none" xmlns="http://www.w3.org/2000/svg">
<mask id="path-1-inside-1" fill="white">
<path d="M62.9949 68.8459L62.9306 5.20451C62.9277 2.33506 60.2195 0.00273393 56.8945 0.00609355L6.03093 0.0574863C2.7059 0.0608459 0.00248084 2.39864 0.00538015 5.26809L0.0696837 68.9095C0.072583 71.779 2.78072 74.1113 6.10575 74.1079L56.9693 74.0565C60.2943 74.0532 62.9978 71.7154 62.9949 68.8459ZM6.10325 71.6396C4.35422 71.6414 2.93144 70.416 2.92992 68.9066L2.86562 5.2652C2.86409 3.75581 4.28439 2.5276 6.03342 2.52583L56.897 2.47444C58.646 2.47267 60.0688 3.69801 60.0703 5.2074L60.1346 68.8488C60.1361 70.3582 58.7158 71.5864 56.9668 71.5882L6.10325 71.6396Z"/>
</mask>
<path d="M62.9949 68.8459L62.9306 5.20451C62.9277 2.33506 60.2195 0.00273393 56.8945 0.00609355L6.03093 0.0574863C2.7059 0.0608459 0.00248084 2.39864 0.00538015 5.26809L0.0696837 68.9095C0.072583 71.779 2.78072 74.1113 6.10575 74.1079L56.9693 74.0565C60.2943 74.0532 62.9978 71.7154 62.9949 68.8459ZM6.10325 71.6396C4.35422 71.6414 2.93144 70.416 2.92992 68.9066L2.86562 5.2652C2.86409 3.75581 4.28439 2.5276 6.03342 2.52583L56.897 2.47444C58.646 2.47267 60.0688 3.69801 60.0703 5.2074L60.1346 68.8488C60.1361 70.3582 58.7158 71.5864 56.9668 71.5882L6.10325 71.6396Z" fill="#DDAF66"/>
<path d="M67.9949 68.8409L67.9305 5.19946L57.9306 5.20956L57.9949 68.851L67.9949 68.8409ZM67.9305 5.19946C67.9242 -1.09754 62.259 -4.99933 56.8894 -4.9939L56.8995 5.00609C57.4015 5.00558 57.7402 5.1829 57.8954 5.31663C58.0415 5.44241 57.9308 5.42089 57.9306 5.20956L67.9305 5.19946ZM56.8894 -4.9939L6.02587 -4.94251L6.03598 5.05748L56.8995 5.00609L56.8894 -4.9939ZM6.02587 -4.94251C0.656335 -4.93709 -5.00098 -1.02385 -4.99462 5.27314L5.00538 5.26304C5.00559 5.47437 4.8949 5.49611 5.0407 5.37003C5.1957 5.23599 5.53399 5.05799 6.03598 5.05748L6.02587 -4.94251ZM-4.99462 5.27314L-4.93032 68.9146L5.06968 68.9045L5.00538 5.26304L-4.99462 5.27314ZM-4.93032 68.9146C-4.92395 75.2116 0.74126 79.1134 6.1108 79.1079L6.10069 69.1079C5.5987 69.1084 5.26006 68.9311 5.10478 68.7974C4.95874 68.6716 5.06947 68.6931 5.06968 68.9045L-4.93032 68.9146ZM6.1108 79.1079L56.9744 79.0565L56.9643 69.0565L6.10069 69.1079L6.1108 79.1079ZM56.9744 79.0565C62.3439 79.0511 68.0012 75.1379 67.9949 68.8409L57.9949 68.851C57.9946 68.6397 58.1053 68.6179 57.9595 68.744C57.8045 68.878 57.4662 69.056 56.9643 69.0565L56.9744 79.0565ZM6.0982 66.6396C6.38283 66.6393 6.75988 66.7375 7.12414 67.0512C7.49798 67.3731 7.92902 68.0118 7.92992 68.9016L-2.07008 68.9117C-2.06509 73.8486 2.31476 76.6434 6.1083 76.6396L6.0982 66.6396ZM7.92992 68.9016L7.86561 5.26015L-2.13439 5.27025L-2.07008 68.9117L7.92992 68.9016ZM7.86561 5.26015C7.86651 6.14989 7.43676 6.78947 7.06357 7.11218C6.69995 7.42662 6.3231 7.52554 6.03847 7.52583L6.02837 -2.47416C2.23482 -2.47033 -2.13937 0.333319 -2.13439 5.27025L7.86561 5.26015ZM6.03847 7.52583L56.902 7.47444L56.8919 -2.52556L6.02837 -2.47416L6.03847 7.52583ZM56.902 7.47444C56.6174 7.47473 56.2404 7.37657 55.8761 7.06286C55.5023 6.7409 55.0712 6.10219 55.0703 5.21245L65.0703 5.20235C65.0653 0.265413 60.6855 -2.52939 56.8919 -2.52556L56.902 7.47444ZM55.0703 5.21245L55.1346 68.8539L65.1346 68.8438L65.0703 5.20235L55.0703 5.21245ZM55.1346 68.8539C55.1337 67.9641 55.5635 67.3246 55.9367 67.0018C56.3003 66.6874 56.6771 66.5885 56.9618 66.5882L56.9719 76.5882C60.7654 76.5844 65.1396 73.7807 65.1346 68.8438L55.1346 68.8539ZM56.9618 66.5882L6.0982 66.6396L6.1083 76.6396L56.9719 76.5882L56.9618 66.5882Z" fill="#DDAF66" mask="url(#path-1-inside-1)"/>
<mask id="path-3-inside-2" fill="white">
<path d="M46.7571 54.5763L14.8105 54.632C14.0075 54.6334 13.3595 55.1778 13.3609 55.85C13.3622 56.5222 14.0124 57.0643 14.8154 57.0629L46.762 57.0072C47.5651 57.0058 48.2131 56.4613 48.2117 55.7892C48.2103 55.117 47.5601 54.5749 46.7571 54.5763Z"/>
</mask>
<path d="M46.7571 54.5763L14.8105 54.632C14.0075 54.6334 13.3595 55.1778 13.3609 55.85C13.3622 56.5222 14.0124 57.0643 14.8154 57.0629L46.762 57.0072C47.5651 57.0058 48.2131 56.4613 48.2117 55.7892C48.2103 55.117 47.5601 54.5749 46.7571 54.5763Z" fill="#DDAF66"/>
<path d="M46.747 49.5763L14.8004 49.632L14.8207 59.632L46.7672 59.5762L46.747 49.5763ZM14.8004 49.632C12.1059 49.6367 8.3523 51.6289 8.36087 55.8587L18.3609 55.8413C18.3636 57.2016 17.6952 58.2348 17.0011 58.818C16.3187 59.3913 15.5306 59.6307 14.8207 59.632L14.8004 49.632ZM8.36087 55.8587C8.36944 60.0885 12.1311 62.0676 14.8256 62.0629L14.8053 52.0629C15.5153 52.0617 16.3043 52.2984 16.989 52.8693C17.6855 53.4501 18.3581 54.481 18.3609 55.8413L8.36087 55.8587ZM14.8256 62.0629L46.7722 62.0072L46.7519 52.0072L14.8053 52.0629L14.8256 62.0629ZM46.7722 62.0072C49.4666 62.0025 53.2203 60.0103 53.2117 55.7805L43.2117 55.7979C43.2089 54.4376 43.8774 53.4044 44.5714 52.8212C45.2538 52.2479 46.0419 52.0084 46.7519 52.0072L46.7722 62.0072ZM53.2117 55.7805C53.2031 51.5507 49.4414 49.5716 46.747 49.5763L46.7672 59.5762C46.0573 59.5775 45.2682 59.3408 44.5835 58.7698C43.8871 58.1891 43.2145 57.1582 43.2117 55.7979L53.2117 55.7805Z" fill="#DDAF66" mask="url(#path-3-inside-2)"/>
<mask id="path-5-inside-3" fill="white">
<path d="M46.7708 61.868L14.8242 61.9237C14.0212 61.9251 13.3732 62.4696 13.3745 63.1417C13.3759 63.8139 14.0261 64.3561 14.8291 64.3547L46.7757 64.2989C47.5787 64.2975 48.2267 63.7531 48.2254 63.0809C48.224 62.4088 47.5738 61.8666 46.7708 61.868Z"/>
</mask>
<path d="M46.7708 61.868L14.8242 61.9237C14.0212 61.9251 13.3732 62.4696 13.3745 63.1417C13.3759 63.8139 14.0261 64.3561 14.8291 64.3547L46.7757 64.2989C47.5787 64.2975 48.2267 63.7531 48.2254 63.0809C48.224 62.4088 47.5738 61.8666 46.7708 61.868Z" fill="#DDAF66"/>
<path d="M46.7606 56.868L14.8141 56.9237L14.8343 66.9237L46.7809 66.868L46.7606 56.868ZM14.8141 56.9237C12.1196 56.9284 8.36597 58.9207 8.37454 63.1505L18.3745 63.133C18.3773 64.4933 17.7089 65.5265 17.0148 66.1097C16.3324 66.6831 15.5443 66.9225 14.8343 66.9237L14.8141 56.9237ZM8.37454 63.1505C8.38311 67.3803 12.1448 69.3594 14.8392 69.3547L14.819 59.3547C15.529 59.3535 16.318 59.5901 17.0027 60.1611C17.6992 60.7418 18.3718 61.7727 18.3745 63.133L8.37454 63.1505ZM14.8392 69.3547L46.7858 69.2989L46.7656 59.299L14.819 59.3547L14.8392 69.3547ZM46.7858 69.2989C49.4803 69.2942 53.2339 67.302 53.2254 63.0722L43.2254 63.0897C43.2226 61.7293 43.891 60.6961 44.5851 60.113C45.2675 59.5396 46.0556 59.3002 46.7656 59.299L46.7858 69.2989ZM53.2254 63.0722C53.2168 58.8424 49.4551 56.8633 46.7606 56.868L46.7809 66.868C46.0709 66.8692 45.2819 66.6325 44.5972 66.0616C43.9007 65.4808 43.2281 64.45 43.2254 63.0897L53.2254 63.0722Z" fill="#DDAF66" mask="url(#path-5-inside-3)"/>
<path d="M30.3509 30.9366C30.3935 30.9366 30.4361 30.9366 30.4873 30.9366C30.5043 30.9366 30.5213 30.9366 30.5384 30.9366C30.564 30.9366 30.598 30.9366 30.6236 30.9366C33.1202 30.8983 35.1397 30.1091 36.6308 28.5997C39.9114 25.2744 39.366 19.5738 39.3064 19.0298C39.0934 14.946 36.9461 12.9921 35.1738 12.0803C33.853 11.3984 32.3107 11.0306 30.5895 11H30.5299C30.5213 11 30.5043 11 30.4958 11H30.4447C29.4988 11 27.6413 11.1379 25.8604 12.0497C24.071 12.9615 21.8897 14.9153 21.6767 19.0298C21.617 19.5738 21.0717 25.2744 24.3522 28.5997C25.8349 30.1091 27.8543 30.8983 30.3509 30.9366ZM23.9517 19.2214C23.9517 19.1984 23.9603 19.1754 23.9603 19.1601C24.2415 13.6664 28.5786 13.0764 30.4361 13.0764H30.4702C30.4873 13.0764 30.5128 13.0764 30.5384 13.0764C32.839 13.1224 36.7501 13.9652 37.0143 19.1601C37.0143 19.1831 37.0143 19.206 37.0228 19.2214C37.0313 19.275 37.6278 24.4852 34.9181 27.2282C33.8445 28.3162 32.413 28.8526 30.5299 28.8679C30.5128 28.8679 30.5043 28.8679 30.4873 28.8679C30.4702 28.8679 30.4617 28.8679 30.4447 28.8679C28.5701 28.8526 27.13 28.3162 26.0649 27.2282C23.3638 24.5005 23.9432 19.2673 23.9517 19.2214Z" fill="#DDAF66"/>
<path d="M47.9976 40.3915C47.9976 40.3838 47.9976 40.3762 47.9976 40.3685C47.9976 40.3072 47.9891 40.2459 47.9891 40.1769C47.938 38.6599 47.8272 35.1123 44.1291 33.9784C44.1036 33.9707 44.0695 33.963 44.0439 33.9554C40.201 33.0742 37.0057 31.0821 36.9716 31.0591C36.4518 30.7296 35.7361 30.8446 35.3697 31.312C35.0033 31.7793 35.1311 32.423 35.6508 32.7524C35.7957 32.8444 39.187 34.9668 43.4304 35.9475C45.4158 36.5834 45.6373 38.4913 45.697 40.2382C45.697 40.3072 45.697 40.3685 45.7055 40.4298C45.714 41.1194 45.6629 42.1844 45.5266 42.7974C44.1462 43.5023 38.7354 45.9388 30.5042 45.9388C22.3071 45.9388 16.8623 43.4946 15.4734 42.7897C15.337 42.1767 15.2774 41.1117 15.2944 40.4221C15.2944 40.3608 15.303 40.2995 15.303 40.2306C15.3626 38.4836 15.5841 36.5758 17.5695 35.9398C21.8129 34.9591 25.2042 32.829 25.3491 32.7448C25.8689 32.4153 25.9967 31.7717 25.6303 31.3043C25.2639 30.8369 24.5481 30.722 24.0284 31.0515C23.9943 31.0744 20.816 33.0666 16.956 33.9477C16.9219 33.9554 16.8964 33.963 16.8708 33.9707C13.1727 35.1123 13.062 38.6599 13.0108 40.1693C13.0108 40.2382 13.0108 40.2995 13.0023 40.3608C13.0023 40.3685 13.0023 40.3762 13.0023 40.3838C12.9938 40.7822 12.9853 42.828 13.4369 43.8547C13.5221 44.0539 13.6755 44.2225 13.88 44.3374C14.1356 44.4907 20.2621 47.9999 30.5127 47.9999C40.7634 47.9999 46.8899 44.483 47.1455 44.3374C47.3415 44.2225 47.5034 44.0539 47.5886 43.8547C48.0147 42.8357 48.0061 40.7899 47.9976 40.3915Z" fill="#DDAF66"/>
</svg>
