<svg width="68" height="69" viewBox="0 0 68 69" fill="none" xmlns="http://www.w3.org/2000/svg">
<path d="M67.3173 32.1429H64.0548V16.9143C64.0548 13.2634 61.1276 10.2932 57.5296 10.2932H53.1109L48.5889 2.04336C47.8997 0.782562 46.5882 0 45.1657 0C44.5028 0 43.845 0.173491 43.2643 0.500485L25.91 10.293H6.52512C2.9271 10.293 0 13.2632 0 16.9141V62.3787C0 66.0296 2.9271 68.9998 6.52512 68.9998H57.5296C61.1276 68.9998 64.0548 66.0296 64.0548 62.3787V49.0265H67.3173V32.1429ZM57.5296 12.9415C59.5393 12.9415 61.1811 14.4908 61.4016 16.4732H56.4973L54.5631 12.9415H57.5296ZM44.534 2.8152C45.146 2.46699 45.9697 2.71053 46.3075 3.32908L53.5113 16.4719H20.3297L44.534 2.8152ZM61.4446 62.3787C61.4446 64.569 59.688 66.3515 57.5294 66.3515H6.52512C4.36659 66.3515 2.60993 64.569 2.60993 62.3787V16.9143C2.60993 14.724 4.36659 12.9415 6.52512 12.9415H21.2171L14.9582 16.4734H7.34081C6.61913 16.4734 6.03574 17.0666 6.03574 17.7976C6.03574 18.5287 6.61913 19.1219 7.34081 19.1219H10.2641H57.9486H61.4446V32.1442H51.901C47.469 32.1442 43.8621 35.8044 43.8621 40.3013V40.8708C43.8621 45.368 47.4692 49.028 51.901 49.028H61.4446V62.3787ZM64.7072 46.3782H64.0548H51.901C48.9073 46.3782 46.472 43.9073 46.472 40.8694V40.2999C46.472 37.2621 48.9071 34.791 51.901 34.791H64.0548H64.7072V46.3782ZM55.8983 40.6934C55.8983 42.309 54.6088 43.6172 53.0168 43.6172C51.4246 43.6172 50.1354 42.3088 50.1354 40.6934C50.1354 39.078 51.4249 37.7696 53.0168 37.7696C54.609 37.7694 55.8983 39.0791 55.8983 40.6934Z" fill="white"/>
</svg>
