<svg width="23" height="22" viewBox="0 0 23 22" fill="none" xmlns="http://www.w3.org/2000/svg">
<path d="M10.8322 1.79598C11.0375 1.14233 11.9625 1.14232 12.1678 1.79598L13.6623 6.55395C13.9633 7.51254 14.8518 8.16475 15.8566 8.16475H20.798C21.4703 8.16475 21.756 9.02036 21.2185 9.42432L17.1343 12.494C16.3554 13.0794 16.0299 14.0921 16.3219 15.0218L17.8611 19.9223C18.065 20.5715 17.3166 21.1005 16.7727 20.6917L12.8819 17.7673C12.0633 17.1521 10.9367 17.1521 10.1181 17.7673L6.22728 20.6917C5.68339 21.1005 4.93499 20.5715 5.13887 19.9223L6.67809 15.0218C6.97008 14.0921 6.64458 13.0794 5.86566 12.494L1.78147 9.42432C1.244 9.02036 1.52969 8.16475 2.20204 8.16475H7.14343C8.14819 8.16475 9.03666 7.51254 9.33774 6.55395L10.8322 1.79598Z" stroke="#B9B9B9" stroke-width="1.6"/>
</svg>
