<svg width="25" height="26" viewBox="0 0 25 26" fill="none" xmlns="http://www.w3.org/2000/svg">
<path d="M5.85901 8.43091C5.92318 8.43091 5.98675 8.41839 6.04602 8.3938C6.10529 8.36921 6.15914 8.33302 6.20447 8.2876C6.2498 8.24218 6.28572 8.18847 6.31018 8.12915C6.33465 8.06983 6.34718 8.00606 6.34705 7.94189V5.98901C6.34705 5.85959 6.29562 5.73556 6.2041 5.64404C6.11258 5.55253 5.98843 5.50098 5.85901 5.50098C5.72958 5.50098 5.60543 5.55253 5.51392 5.64404C5.4224 5.73556 5.37097 5.85959 5.37097 5.98901V7.94189C5.37097 8.07141 5.42243 8.19568 5.51392 8.28735C5.60541 8.37903 5.72949 8.43064 5.85901 8.43091Z" fill="white"/>
<path d="M23.047 11.8491V7.94189C23.0459 7.29465 22.7883 6.67437 22.3306 6.2168C21.8728 5.75922 21.2522 5.50177 20.605 5.50098H17.871V1.79004C17.8707 1.40158 17.7163 1.02908 17.4417 0.754395C17.167 0.479711 16.7945 0.325216 16.406 0.324951H7.32397C6.93551 0.325216 6.56301 0.479711 6.28833 0.754395C6.01365 1.02908 5.85927 1.40158 5.85901 1.79004V3.5481H4.39404C4.00566 3.54862 3.63327 3.70316 3.35864 3.97778C3.08402 4.25241 2.92948 4.62456 2.92896 5.01294V5.50098H2.44104C1.79389 5.50177 1.17342 5.75919 0.71582 6.2168C0.258216 6.6744 0.000793887 7.29474 0 7.94189V22.884C0.000793887 23.5312 0.258216 24.1515 0.71582 24.6091C1.17342 25.0667 1.79389 25.3242 2.44104 25.325H17.382C17.9446 25.3243 18.4899 25.1297 18.9258 24.7739C19.3617 24.4182 19.6616 23.9232 19.775 23.3721H20.605C21.2522 23.3713 21.8728 23.1138 22.3306 22.6562C22.7883 22.1987 23.0459 21.5781 23.047 20.9309V19.6609H23.535C23.9228 19.6606 24.2946 19.507 24.5692 19.2332C24.8438 18.9593 24.9987 18.5877 25 18.2V13.8C24.9992 13.2823 24.7932 12.786 24.4271 12.4199C24.061 12.0538 23.5647 11.8477 23.047 11.8469V11.8491ZM24.0229 13.802C24.0229 14.0609 23.9202 14.3092 23.7372 14.4922C23.5541 14.6752 23.3058 14.7781 23.047 14.7781V12.825C23.3059 12.8255 23.554 12.9287 23.7369 13.1118C23.9199 13.295 24.0227 13.5431 24.0229 13.802ZM20.605 6.47803C20.9933 6.47829 21.3656 6.63251 21.6403 6.90698C21.9149 7.18145 22.0694 7.55361 22.0699 7.94189V14.7781H19.824V11.8491C19.8233 11.2865 19.6287 10.7411 19.2729 10.3052C18.9172 9.86927 18.4221 9.56946 17.871 9.45605V6.47803H20.605ZM6.83606 1.79004C6.83632 1.66069 6.88779 1.53677 6.97925 1.44531C7.07071 1.35385 7.19463 1.30227 7.32397 1.302H16.406C16.5354 1.30227 16.6593 1.35385 16.7507 1.44531C16.8422 1.53677 16.8938 1.66069 16.894 1.79004V9.40698H14.6479V5.01294C14.6477 4.62448 14.4933 4.25198 14.2186 3.97729C13.9439 3.70261 13.5714 3.54836 13.183 3.5481H6.83606V1.79004ZM11.718 9.40698V4.52393H13.183C13.3127 4.52393 13.4371 4.57553 13.5288 4.66724C13.6205 4.75894 13.672 4.88325 13.672 5.01294V9.40698H11.718ZM8.78894 9.40698V4.52393H10.7419V9.40698H8.78894ZM3.90601 5.01294C3.90601 4.88342 3.95734 4.75916 4.04883 4.66748C4.14032 4.5758 4.26453 4.52419 4.39404 4.52393H7.81201V9.40698H3.90601V5.01294ZM2.44104 6.47803H2.92896V9.40698H2.54602C2.3465 9.41487 2.14739 9.38325 1.96021 9.31372C1.77302 9.24419 1.60143 9.13818 1.45544 9.00195C1.30945 8.86573 1.19192 8.70195 1.10962 8.52002C1.02732 8.33809 0.981875 8.14148 0.975952 7.94189C0.976482 7.55361 1.13111 7.18145 1.40576 6.90698C1.68042 6.63251 2.05275 6.47829 2.44104 6.47803ZM17.382 24.3491H2.44104C2.05266 24.3486 1.68027 24.1941 1.40564 23.9194C1.13101 23.6448 0.976481 23.2724 0.975952 22.884V9.86499C1.43001 10.202 1.98054 10.384 2.54602 10.384H17.382C17.7703 10.3846 18.1427 10.5391 18.4174 10.8137C18.692 11.0883 18.8465 11.4607 18.847 11.8491V14.7781H15.429C15.0407 14.7786 14.6685 14.9331 14.394 15.2078C14.1196 15.4824 13.9652 15.8546 13.965 16.2429V18.196C13.9652 18.5843 14.1196 18.9565 14.394 19.2312C14.6685 19.5059 15.0407 19.6604 15.429 19.6609H18.847V22.884C18.8465 23.2724 18.692 23.6448 18.4174 23.9194C18.1427 24.1941 17.7703 24.3486 17.382 24.3491ZM22.0699 20.9309C22.0694 21.3193 21.915 21.6917 21.6404 21.9663C21.3658 22.2409 20.9934 22.3955 20.605 22.396H19.824V19.6609H22.0699V20.9309ZM23.535 18.6841H15.429C15.2996 18.6838 15.1757 18.6322 15.0842 18.5408C14.9928 18.4493 14.9413 18.3254 14.941 18.196V16.2429C14.9413 16.1136 14.9928 15.9897 15.0842 15.8982C15.1757 15.8067 15.2996 15.7551 15.429 15.7549H23.047C23.3898 15.7557 23.7266 15.6653 24.0229 15.4929V18.1931C24.0227 18.3225 23.9712 18.4464 23.8798 18.5378C23.7883 18.6293 23.6644 18.6806 23.535 18.6809V18.6841Z" fill="white"/>
<path d="M20.6 16.731H18.354C18.2283 16.7367 18.1095 16.7906 18.0226 16.8816C17.9356 16.9726 17.8871 17.0936 17.8871 17.2195C17.8871 17.3454 17.9356 17.4664 18.0226 17.5574C18.1095 17.6484 18.2283 17.7023 18.354 17.708H20.6C20.666 17.711 20.732 17.7005 20.7938 17.6773C20.8557 17.6541 20.9122 17.6187 20.96 17.573C21.0077 17.5273 21.0458 17.4724 21.0718 17.4116C21.0978 17.3509 21.1111 17.2856 21.1111 17.2195C21.1111 17.1534 21.0978 17.0881 21.0718 17.0274C21.0458 16.9666 21.0077 16.9116 20.96 16.866C20.9122 16.8203 20.8557 16.7849 20.7938 16.7617C20.732 16.7385 20.666 16.728 20.6 16.731Z" fill="white"/>
</svg>
