<svg width="33" height="28" viewBox="0 0 33 28" fill="none" xmlns="http://www.w3.org/2000/svg">
<path d="M2.88861 26.8222C1.70277 25.9688 1.2164 19.9808 1.2164 19.9808C0.827218 17.4032 0.584834 14.8054 0.490422 12.2002C0.659913 10.8797 2.84458 9.05335 3.55548 9.18947C2.14585 7.08391 5.09818 6.34987 5.09818 6.34987C5.09818 6.34987 7.93307 3.87433 14.4234 2.61227C15.0362 2.57368 13.5512 1.96026 12.2731 1.76948C12.7371 0.892116 15.5297 2.43402 15.5297 2.43402C14.8649 1.71985 14.0436 1.16939 13.1304 0.82578C13.5119 0.450155 15.2042 1.57524 17.1238 2.33809C20.6202 3.72991 23.7814 3.65661 24.8094 5.14451C25.3144 5.74127 24.8401 6.80652 25.5724 6.91799C27.0065 7.23487 28.3358 7.91291 29.4342 8.88777C30.5326 9.86264 31.3637 11.102 31.8486 12.4883C30.2864 10.6492 29.1581 10.704 29.1581 10.704C29.1581 10.704 31.5852 13.5631 31.5013 15.6203C31.4688 16.4099 30.6774 17.0127 30.0364 18.1191C29.0687 19.7303 28.3005 21.4531 27.7485 23.2497C27.4202 24.9106 27.0355 27.6489 26.3229 27.7348C25.6102 27.8207 25.9183 16.9958 26.0279 16.3104C26.2899 15.3146 21.753 14.0581 21.753 14.0581C21.753 14.0581 25.0478 16.2458 24.2042 18.265C23.3612 15.897 22.1386 15.8522 22.1386 15.8522C22.1386 15.8522 24.6265 20.8439 23.0913 21.7701C22.3028 16.1951 20.0704 15.0038 18.2716 14.142C16.4727 13.2802 12.5229 13.5531 10.2053 14.372C8.68555 14.8494 7.06083 14.8815 5.5234 14.4644L5.88058 16.5781L4.79559 15.6764L4.55267 17.0207C4.89958 17.6398 5.09743 18.3312 5.13052 19.0401C4.43551 18.146 4.11651 18.1406 4.11651 18.1406C4.11651 18.1406 4.71251 19.151 4.43328 19.6894C4.40528 19.5966 4.35898 19.5103 4.29711 19.4356C4.23525 19.3609 4.15907 19.2993 4.07305 19.2545C3.98703 19.2097 3.89292 19.1826 3.79626 19.1747C3.69959 19.1668 3.60233 19.1783 3.51019 19.2086C3.51019 19.2086 3.62885 26.7618 2.88861 26.8222Z" fill="#313131"/>
</svg>
