<svg width="29" height="26" viewBox="0 0 29 26" fill="none" xmlns="http://www.w3.org/2000/svg">
<path d="M29 12.9997C29 20.1795 22.5079 26 14.4996 26C6.49206 26 0 20.1795 0 12.9997C0 5.82047 6.49206 0 14.4996 0C22.5079 0 29 5.82047 29 12.9997Z" fill="#FBD072"/>
<path d="M29 12.9565C29 20.1602 22.4024 26 14.2631 26C10.7537 26 7.53089 24.9145 5 23.1008C6.71045 23.7152 8.5797 24.0538 10.5389 24.0538C18.6783 24.0538 25.2759 18.2147 25.2759 11.011C25.2759 6.91323 23.1412 3.25583 19.8012 0.866638C25.1957 2.80342 29 7.48677 29 12.9565Z" fill="#FBD072"/>
<path d="M10.8509 8.41656C10.0371 8.41656 9.37793 9.00888 9.37793 9.73861V11.3955C9.37793 12.1259 10.0371 12.7175 10.8509 12.7175C11.664 12.7175 12.3239 12.1259 12.3239 11.3955V9.73861C12.3239 9.00888 11.664 8.41656 10.8509 8.41656Z" fill="#838383"/>
<path d="M19.59 11.3955V9.73861C19.59 9.00888 18.9308 8.41656 18.117 8.41656C17.304 8.41656 16.644 9.00888 16.644 9.73861V11.3955C16.644 12.1259 17.304 12.7175 18.117 12.7175C18.9308 12.7175 19.59 12.1259 19.59 11.3955Z" fill="#838383"/>
<path d="M15.7732 16.8338C15.542 17.268 15.0471 17.5488 14.5112 17.5488C13.9479 17.5488 13.4418 17.248 13.2226 16.7824C12.906 16.1101 12.0409 15.7952 11.2918 16.0794C10.5427 16.3642 10.1926 17.1399 10.5092 17.8123C11.1907 19.2584 12.7618 20.1929 14.5112 20.1929C16.1752 20.1929 17.7136 19.3218 18.4315 17.9737C18.7823 17.3147 18.4717 16.5256 17.7374 16.2108C17.0031 15.8959 16.1239 16.1748 15.7732 16.8338Z" fill="#838383"/>
</svg>
