<svg width="25" height="25" viewBox="0 0 25 25" fill="none" xmlns="http://www.w3.org/2000/svg">
<path d="M18.634 14.092C17.5552 14.0916 16.5006 14.4112 15.6034 15.0103C14.7062 15.6094 14.0068 16.4612 13.5938 17.4578C13.1807 18.4544 13.0724 19.551 13.2827 20.6091C13.493 21.6673 14.0124 22.6394 14.7752 23.4023C15.5379 24.1653 16.5098 24.6848 17.5679 24.8953C18.626 25.1058 19.7228 24.9976 20.7195 24.5847C21.7162 24.1718 22.568 23.4728 23.1672 22.5757C23.7665 21.6786 24.0863 20.624 24.0861 19.5452C24.0842 18.0997 23.5092 16.7139 22.4872 15.6917C21.4652 14.6694 20.0795 14.0942 18.634 14.092ZM18.634 24.092C17.7348 24.0922 16.8558 23.8259 16.108 23.3264C15.3603 22.827 14.7776 22.1168 14.4334 21.2861C14.0892 20.4554 13.9989 19.5414 14.1743 18.6594C14.3497 17.7775 14.7828 16.9674 15.4186 16.3315C16.0544 15.6957 16.8645 15.2628 17.7465 15.0874C18.6284 14.912 19.5425 15.002 20.3732 15.3462C21.2039 15.6904 21.9139 16.2733 22.4133 17.021C22.9128 17.7687 23.1793 18.6479 23.1791 19.5471C23.1778 20.7521 22.6985 21.9072 21.8464 22.7593C20.9944 23.6113 19.839 24.0907 18.634 24.092Z" fill="white"/>
<path d="M21.3611 19.092H19.0891V16.8201C19.092 16.7585 19.0823 16.6969 19.0607 16.6392C19.0391 16.5814 19.0061 16.5285 18.9635 16.4839C18.9209 16.4393 18.8697 16.4037 18.813 16.3794C18.7563 16.3551 18.6952 16.3428 18.6336 16.3428C18.5719 16.3428 18.5108 16.3551 18.4541 16.3794C18.3974 16.4037 18.3463 16.4393 18.3037 16.4839C18.2611 16.5285 18.228 16.5814 18.2064 16.6392C18.1848 16.6969 18.1752 16.7585 18.1781 16.8201V19.5452C18.178 19.605 18.1897 19.6642 18.2125 19.7195C18.2354 19.7748 18.269 19.8251 18.3114 19.8674C18.3538 19.9097 18.4041 19.9433 18.4595 19.9661C18.5149 19.9888 18.5742 20.0003 18.634 20H21.3611C21.4815 20 21.597 19.9523 21.6821 19.8672C21.7673 19.782 21.8151 19.6666 21.8151 19.5461C21.8151 19.4257 21.7673 19.3102 21.6821 19.2251C21.597 19.14 21.4815 19.092 21.3611 19.092Z" fill="white"/>
<path d="M8.79716 5.45605C8.16769 5.45586 7.5523 5.64233 7.02885 5.99194C6.5054 6.34155 6.0973 6.83863 5.85636 7.42017C5.61543 8.0017 5.55251 8.64167 5.67533 9.25903C5.79816 9.8764 6.10126 10.4434 6.54643 10.8884C6.9916 11.3335 7.55878 11.6364 8.17619 11.759C8.79359 11.8817 9.43347 11.8185 10.0149 11.5774C10.5964 11.3363 11.0933 10.9281 11.4428 10.4045C11.7922 9.88098 11.9785 9.26545 11.9781 8.63599C11.9767 7.79283 11.6411 6.98478 11.0448 6.38867C10.4485 5.79256 9.64031 5.45711 8.79716 5.45605ZM8.79716 10.9089C8.3476 10.9089 7.90813 10.7756 7.53434 10.5259C7.16055 10.2761 6.86922 9.9212 6.69718 9.50586C6.52515 9.09052 6.48008 8.63355 6.56779 8.19263C6.65549 7.75171 6.87197 7.34669 7.18986 7.02881C7.50774 6.71092 7.91276 6.49444 8.35368 6.40674C8.7946 6.31903 9.25157 6.36409 9.66691 6.53613C10.0822 6.70817 10.4373 6.9995 10.6871 7.37329C10.9368 7.74708 11.0701 8.18643 11.0701 8.63599C11.0698 9.23874 10.8303 9.81671 10.4041 10.2429C9.97788 10.6691 9.39991 10.9087 8.79716 10.9089Z" fill="white"/>
<path d="M10.0911 21.542L8.73208 23.3201L2.46707 14.2742C1.32717 12.6141 0.778985 10.6188 0.910674 8.60938C1.04236 6.59994 1.84634 4.69313 3.19314 3.19604C4.65768 1.73231 6.64354 0.910156 8.71414 0.910156C10.7847 0.910156 12.7706 1.73231 14.2351 3.19604C15.4522 4.57576 16.2236 6.29114 16.4481 8.11719C16.6727 9.94324 16.3397 11.7945 15.4931 13.428C15.4645 13.4805 15.4466 13.5382 15.4403 13.5977C15.434 13.6571 15.4395 13.7173 15.4564 13.7747C15.4734 13.832 15.5015 13.8854 15.5391 13.9319C15.5767 13.9784 15.623 14.0171 15.6756 14.0457C15.7281 14.0742 15.7858 14.0921 15.8452 14.0984C15.9047 14.1047 15.9648 14.0992 16.0221 14.0823C16.0795 14.0653 16.133 14.0371 16.1795 13.9995C16.226 13.9619 16.2646 13.9156 16.2931 13.863C17.2453 12.0604 17.6204 10.0088 17.3678 7.98584C17.1153 5.96288 16.2472 4.06622 14.8811 2.55298C13.2461 0.918316 11.0286 0 8.71658 0C6.40453 0 4.18722 0.918316 2.55215 2.55298C1.06177 4.20747 0.170657 6.31504 0.0221238 8.53687C-0.126409 10.7587 0.476172 12.9658 1.73306 14.804L8.69815 24.863L10.8151 22.095C10.8884 21.9994 10.9208 21.8785 10.9051 21.759C10.8893 21.6396 10.8267 21.5313 10.7311 21.458C10.6355 21.3847 10.5146 21.3524 10.3952 21.3682C10.2757 21.3839 10.1675 21.4464 10.0941 21.542H10.0911Z" fill="white"/>
</svg>
