<svg width="15" height="15" viewBox="0 0 15 15" fill="none" xmlns="http://www.w3.org/2000/svg">
<path fill-rule="evenodd" clip-rule="evenodd" d="M4.25 4.95833C4.25 2.21992 6.46992 0 9.20833 0C11.9467 0 14.1667 2.21992 14.1667 4.95833C14.1667 7.69675 11.9467 9.91667 9.20833 9.91667H7.79167V11.3333H6.375V12.75H4.95833V14.1667H0V10.3316L4.35484 5.97676C4.28538 5.64433 4.25 5.30351 4.25 4.95833ZM6.375 8.5H9.20833C11.1643 8.5 12.75 6.91434 12.75 4.95833C12.75 3.00232 11.1643 1.41667 9.20833 1.41667C7.25232 1.41667 5.66667 3.00232 5.66667 4.95833C5.66667 5.31153 5.71815 5.65702 5.81831 5.98745L5.94142 6.39365L1.41667 10.9184V12.75H3.54167V11.3333H4.95833V9.91667H6.375V8.5ZM7.79167 4.95833C7.79167 5.74074 8.42593 6.375 9.20833 6.375C9.99074 6.375 10.625 5.74074 10.625 4.95833C10.625 4.17593 9.99074 3.54167 9.20833 3.54167C8.42593 3.54167 7.79167 4.17593 7.79167 4.95833Z" fill="#E0E0E0"/>
</svg>
