<svg width="15" height="14" viewBox="0 0 15 14" fill="none" xmlns="http://www.w3.org/2000/svg">
<path fill-rule="evenodd" clip-rule="evenodd" d="M1.20105 0L0.304319 0.905229L2.88176 3.50709C2.64165 3.70796 2.40404 3.92368 2.16904 4.15309C1.64325 4.66638 1.16757 5.21437 0.748818 5.76259C0.496134 6.0934 0.316731 6.35364 0.218505 6.50867L0 6.85355L0.218505 7.19843C0.316731 7.35347 0.496134 7.6137 0.748818 7.94451C1.16757 8.49273 1.64325 9.04072 2.16904 9.55401C3.71025 11.0586 5.36403 11.9743 7.09352 11.9743C8.18473 11.9743 9.24579 11.6098 10.2675 10.9628L12.986 13.7071L13.8827 12.8019L1.20105 0ZM9.34112 10.0277L8.38196 9.05943C8.00436 9.28467 7.5639 9.41393 7.09353 9.41393C5.69275 9.41393 4.55719 8.26761 4.55719 6.85355C4.55719 6.37873 4.68523 5.93409 4.90836 5.5529L3.78343 4.41731C3.53778 4.61728 3.29332 4.83644 3.05063 5.07336C2.5724 5.54021 2.1365 6.04237 1.7531 6.54431C1.6703 6.65271 1.59379 6.75615 1.52383 6.85355C1.59379 6.95096 1.6703 7.05439 1.7531 7.1628C2.1365 7.66473 2.5724 8.1669 3.05063 8.63375C4.37805 9.9296 5.75873 10.6941 7.09352 10.6941C7.83424 10.6941 8.58908 10.4587 9.34112 10.0277ZM5.86831 6.52196C5.8403 6.62772 5.82536 6.73887 5.82536 6.85355C5.82536 7.56058 6.39314 8.13374 7.09353 8.13374C7.20713 8.13374 7.31724 8.11866 7.42201 8.09038L5.86831 6.52196ZM12.2284 9.34413L11.3316 8.43888C11.7338 8.02854 12.1034 7.59558 12.4339 7.1628C12.5167 7.05439 12.5933 6.95096 12.6632 6.85355C12.5933 6.75615 12.5167 6.65271 12.4339 6.54431C12.0505 6.04237 11.6146 5.54021 11.1364 5.07336C9.809 3.7775 8.42832 3.01299 7.09353 3.01299C6.76234 3.01299 6.42834 3.06005 6.09302 3.15062L5.08991 2.13801C5.74457 1.8745 6.41319 1.7328 7.09353 1.7328C8.82302 1.7328 10.4768 2.64854 12.018 4.15309C12.5438 4.66638 13.0195 5.21437 13.4382 5.76259C13.6909 6.0934 13.8703 6.35364 13.9685 6.50867L14.187 6.85355L13.9685 7.19843C13.8703 7.35347 13.6909 7.6137 13.4382 7.94451C13.0761 8.41866 12.6713 8.89263 12.2284 9.34413Z" fill="#E0E0E0"/>
</svg>
