<svg width="28" height="31" viewBox="0 0 28 31" fill="none" xmlns="http://www.w3.org/2000/svg">
<path d="M6.41685 9.04159H19.2502C19.5726 9.04159 19.8335 8.75272 19.8335 8.39574C19.8335 8.03875 19.5726 7.74988 19.2502 7.74988H6.41685C6.09441 7.74988 5.8335 8.03875 5.8335 8.39574C5.83355 8.75278 6.09446 9.04159 6.41685 9.04159Z" fill="#80828B"/>
<path d="M13.4169 15.5H6.41685C6.09441 15.5 5.8335 15.7889 5.8335 16.1459C5.8335 16.5028 6.09441 16.7917 6.41685 16.7917H13.4169C13.7393 16.7917 14.0002 16.5028 14.0002 16.1459C14.0002 15.7889 13.7393 15.5 13.4169 15.5Z" fill="#80828B"/>
<path d="M25.7669 3.87498C25.7331 3.87498 25.7004 3.88436 25.6667 3.88612V3.87498C25.6667 2.45025 24.6197 1.29163 23.3334 1.29163H2.33335C1.04705 1.29163 0 2.45025 0 3.87498V29.0625C0 29.3236 0.142406 29.5594 0.360008 29.6591C0.431813 29.6925 0.508102 29.7083 0.583297 29.7083C0.734836 29.7083 0.884078 29.6428 0.99575 29.5191L6.6582 23.25H23.3334C24.6197 23.25 25.6667 22.0914 25.6667 20.6666V9.95455L27.346 8.09558C27.346 8.09558 27.346 8.09558 27.346 8.09498C27.7619 7.63458 28 6.99756 28 6.34729C28 4.98377 26.9986 3.87498 25.7669 3.87498ZM24.5 20.6666C24.5 21.3787 23.977 21.9583 23.3334 21.9583H6.41665C6.26172 21.9583 6.11357 22.0264 6.0042 22.1475L1.16665 27.5034V3.87498C1.16665 3.16295 1.68962 2.58333 2.3333 2.58333H23.3333C23.9771 2.58333 24.5 3.16295 24.5 3.87498V4.31612C24.3893 4.40041 24.2833 4.4931 24.1878 4.599L17.8408 11.625H6.41665C6.09421 11.625 5.8333 11.9138 5.8333 12.2708C5.8333 12.6278 6.09421 12.9167 6.41665 12.9167H16.9049L16.3447 16.0191C16.306 16.231 16.3664 16.4499 16.5042 16.6025C16.6148 16.7248 16.764 16.7917 16.9167 16.7917C16.9543 16.7917 16.993 16.7873 17.0306 16.7791L19.9462 16.1332C20.0601 16.108 20.1638 16.0468 20.2447 15.9566L24.5 11.2461V20.6666ZM19.5451 14.9052L17.6607 15.3228L18.0378 13.2339L23.3331 7.37126L24.8417 9.04157L19.5451 14.9052ZM26.5211 7.18235L25.6666 8.1284L24.1579 6.45797L25.0126 5.51162C25.2109 5.29274 25.4855 5.16663 25.7669 5.16663C26.3548 5.16663 26.8333 5.69641 26.8333 6.34729C26.8334 6.65759 26.7194 6.96226 26.5211 7.18235Z" fill="#80828B"/>
</svg>
