<svg width="168" height="136" viewBox="0 0 168 136" fill="none" xmlns="http://www.w3.org/2000/svg">
<g clip-path="url(#clip0)">
<g filter="url(#filter0_d)">
<path d="M26.9939 75.3111C26.4696 72.3277 26.1993 69.3052 26.1859 66.2761C26.1859 59.0634 27.6065 51.9214 30.3667 45.2578C33.1269 38.5941 37.1725 32.5394 42.2726 27.4393C47.3727 22.3392 53.4275 18.2936 60.0911 15.5334C66.7547 12.7732 73.8968 11.3526 81.1094 11.3526C88.3221 11.3526 95.4641 12.7732 102.128 15.5334C108.791 18.2936 114.846 22.3392 119.946 27.4393C125.046 32.5394 129.092 38.5941 131.852 45.2578C134.612 51.9214 136.033 59.0634 136.033 66.2761C136.007 69.3046 135.736 72.326 135.225 75.3111H26.9939ZM120.88 116.436C120.628 118.814 119.542 120.152 117.571 120.527C116.896 120.639 116.212 120.682 115.529 120.656C114.921 120.656 114.269 120.656 113.584 120.63C113.184 120.604 112.724 120.604 112.324 120.604C112.395 120.141 112.506 119.685 112.654 119.24C113.992 118.432 115.304 117.598 116.564 116.713C117.964 116.167 119.435 115.827 120.933 115.705C120.941 115.95 120.924 116.194 120.881 116.435L120.88 116.436ZM81.0939 121.185C68.1753 121.185 55.6731 116.615 45.7989 108.285H116.415C106.535 116.623 94.0218 121.193 81.0939 121.185ZM102.5 126.711C101.518 128.605 100.18 129.511 98.4349 129.511H98.0099C97.0507 129.294 96.1134 128.989 95.2099 128.6C94.5569 128.348 93.7749 128.07 92.9929 127.818C93.2449 127.391 93.4929 126.984 93.7229 126.681C95.3331 126.352 96.9252 125.94 98.4929 125.447C99.9369 125.486 101.374 125.664 102.784 125.977C102.684 126.203 102.61 126.455 102.506 126.707L102.5 126.711ZM81.7299 130.299C80.855 131.275 79.6469 131.888 78.3429 132.018C77.7231 132.01 77.1157 131.843 76.5789 131.533C75.7318 131.012 74.9291 130.422 74.1789 129.769C73.6229 129.317 72.9899 128.806 72.3309 128.302C72.7379 128.002 73.1129 127.675 73.4429 127.468C75.0329 127.675 76.6229 127.768 78.2639 127.849C79.6396 128.363 80.9674 128.997 82.2319 129.743C82.0748 129.937 81.9079 130.122 81.7319 130.299H81.7299ZM60.9009 127.042C60.0936 127.487 59.197 127.745 58.2769 127.798C57.2787 127.703 56.3467 127.256 55.6469 126.538C54.8057 125.504 54.0476 124.404 53.3799 123.25C53.1799 122.895 52.9279 122.494 52.6689 122.112C53.1539 121.937 53.6059 121.737 54.0069 121.634C55.4479 122.334 56.9149 123.024 58.4019 123.605C59.5785 124.487 60.6328 125.521 61.5369 126.681C61.334 126.813 61.1225 126.932 60.9039 127.036L60.9009 127.042ZM42.2399 117.27C41.9619 117.296 41.6839 117.296 41.4059 117.296C40.5955 117.35 39.7874 117.163 39.0827 116.759C38.3779 116.356 37.8079 115.753 37.4439 115.027C37.0905 114.103 36.8286 113.146 36.6619 112.17C36.5069 111.47 36.3069 110.658 36.1059 109.876C36.5602 109.85 37.0156 109.85 37.4699 109.876C38.6079 111.013 39.8159 112.099 41.0309 113.133C41.8348 114.378 42.5023 115.707 43.0219 117.095C42.7439 117.147 42.4919 117.218 42.2399 117.27ZM22.4959 41.7611C22.3913 41.5651 22.3007 41.3619 22.2249 41.1531C21.3399 38.8071 21.6169 37.2171 23.1819 35.9761C23.9083 35.4385 24.6853 34.973 25.5019 34.5861C25.8829 34.3861 26.2579 34.1861 26.6649 33.9861L27.0919 33.7531C27.3249 33.6301 27.5769 33.4751 27.8289 33.3531C27.9519 33.8531 28.0809 34.3101 28.1519 34.7171C27.3249 36.0811 26.5619 37.4701 25.8579 38.9051C24.8557 39.9883 23.7273 40.9474 22.4969 41.7621L22.4959 41.7611ZM36.2099 18.7851C37.1882 18.4585 38.2053 18.2628 39.2349 18.2031C39.8939 18.1031 40.6249 18.0031 41.3549 17.8731C41.3544 18.3143 41.321 18.7549 41.2549 19.1911C40.0139 20.2511 38.7799 21.3371 37.6159 22.4911C36.3505 23.1885 35.0017 23.7228 33.6019 24.0811C33.4019 21.9871 33.6019 19.8671 36.2019 18.7811L36.2099 18.7851ZM50.0589 10.3011C50.8409 7.92309 52.0589 6.81109 54.0979 6.76609C55.0573 6.83618 56.0101 6.97893 56.9479 7.19309C57.6329 7.32209 58.4409 7.47109 59.2229 7.60009C59.0754 8.00685 58.8983 8.40224 58.6929 8.78309C57.2059 9.36509 55.7649 10.0241 54.3239 10.7031C52.8644 10.9315 51.3851 11.0073 49.9099 10.9291C49.9471 10.7173 49.9969 10.508 50.0589 10.3021V10.3011ZM69.9599 3.23509C70.311 2.59047 70.8241 2.04852 71.4486 1.66272C72.0731 1.27692 72.7873 1.06059 73.5209 1.03509C73.9733 1.04835 74.4224 1.11549 74.8589 1.23509C75.8326 1.57795 76.7579 2.04515 77.6119 2.62509C78.1679 2.95509 78.8209 3.32509 79.4799 3.68509C79.2024 4.02234 78.9069 4.34446 78.5949 4.65009C76.9789 4.72109 75.3379 4.82409 73.7479 4.99909C72.316 4.78281 70.9175 4.38528 69.5859 3.81609C69.7002 3.61539 69.8254 3.4211 69.9609 3.23409L69.9599 3.23509ZM91.0179 3.00809C92.9119 1.71509 94.6309 1.59309 96.2919 2.70809C97.0742 3.33803 97.7791 4.05837 98.3919 4.85409C98.8189 5.38409 99.3229 5.96609 99.8529 6.52109C99.4936 6.74152 99.1224 6.94183 98.7409 7.12109C97.1509 6.64309 95.5349 6.22109 93.8939 5.88709C92.6616 5.21204 91.5101 4.3988 90.4619 3.46309C90.6619 3.30809 90.8169 3.16309 91.0179 3.01109V3.00809ZM111.018 9.70009C113.493 9.04109 115.006 9.47409 116.118 11.0641C116.615 11.9261 117.037 12.8294 117.378 13.7641C117.63 14.4171 117.96 15.1541 118.289 15.8841C117.847 15.978 117.401 16.0448 116.951 16.0841C115.665 15.1731 114.327 14.3201 112.983 13.4841C111.993 12.3865 111.114 11.1937 110.359 9.92309C110.574 9.83625 110.794 9.76081 111.018 9.69709V9.70009ZM132.146 25.4971C132.394 26.4879 132.513 27.5067 132.501 28.5281C132.527 29.1811 132.579 29.9181 132.63 30.6481C132.119 30.5701 131.667 30.5191 131.266 30.4221C130.355 29.1361 129.418 27.8691 128.409 26.6601C127.77 25.3308 127.32 23.9188 127.071 22.4651C129.094 22.4201 131.285 22.7171 132.145 25.4961L132.146 25.4971ZM19.9489 58.3721C19.3152 59.6998 18.5625 60.9673 17.6999 62.1591C16.3099 60.6501 15.1529 58.8241 16.4139 56.4501C16.9793 55.7108 17.5948 55.0112 18.2559 54.3561C18.8119 53.7741 19.4189 53.1411 20.0009 52.4881C20.2637 52.821 20.4979 53.1756 20.7009 53.5481C20.3709 55.1381 20.1449 56.7541 19.9449 58.3691L19.9489 58.3721ZM20.0449 81.9981H18.3069C17.6618 81.5507 17.1672 80.9186 16.8881 80.1849C16.609 79.4511 16.5583 78.6501 16.7429 77.8871C17.0051 76.877 17.4031 75.9072 17.9259 75.0041C18.2259 74.3771 18.5339 73.7181 18.8369 73.0391C19.2439 73.3391 19.6189 73.6141 19.8969 73.8661C20.0969 75.5331 20.3299 77.2011 20.6789 78.8171C20.5863 79.8968 20.3761 80.9631 20.0519 81.9971L20.0449 81.9981ZM138.812 39.7641C140.751 40.4231 142.645 41.4831 142.67 44.2111C142.546 45.1208 142.336 46.0168 142.043 46.8871C141.943 47.2871 141.81 47.7211 141.662 48.2511C141.584 48.6001 141.513 48.9811 141.436 49.3371C141.003 49.1301 140.576 48.9041 140.247 48.7041C139.795 47.1661 139.265 45.6991 138.709 44.2381C138.604 42.7475 138.637 41.2504 138.809 39.7661L138.812 39.7641ZM142.894 80.7941C143.165 81.1809 143.411 81.5847 143.631 82.0031H141.789C142.138 81.6031 142.519 81.1951 142.894 80.7941ZM142.722 63.9501C143.081 62.5712 143.607 61.2408 144.286 59.9881C144.467 60.1171 144.641 60.2401 144.842 60.3951C146.71 61.9591 147.214 63.5491 146.458 65.4171C146.081 66.2311 145.615 67.0005 145.068 67.7111C144.842 68.0661 144.59 68.4481 144.368 68.7971C144.116 69.1521 143.89 69.5081 143.668 69.8571C143.325 69.543 143.003 69.2063 142.705 68.8491C142.757 67.9891 142.86 67.1301 142.86 66.2771C142.86 65.4951 142.76 64.7321 142.731 63.9501H142.722ZM165.481 108.287L151.609 95.4051L164.483 82.0051H144.745C144.447 81.3231 144.083 80.6717 143.659 80.0601C144.567 79.2893 145.365 78.3977 146.031 77.4101C147.744 74.4821 146.031 72.3101 144.389 70.6241C144.667 70.2171 144.919 69.8161 145.223 69.3831C145.449 69.0081 145.701 68.6531 145.923 68.2971C146.5 67.5136 147 66.6764 147.416 65.7971C148.347 63.5541 147.716 61.4601 145.496 59.6381C145.244 59.4121 144.996 59.2381 144.74 59.0381C145.292 57.9845 145.755 56.8863 146.123 55.7551C146.756 53.1051 145.244 51.5151 143.523 50.4751C143.142 50.2491 142.767 50.0481 142.36 49.8481C142.489 49.3891 142.567 48.9111 142.69 48.4331C142.819 48.0061 142.916 47.5731 143.045 47.1991C143.361 46.2373 143.588 45.2484 143.724 44.2451C143.672 40.7361 141.124 39.4451 138.903 38.7381C139.118 37.5632 139.229 36.3715 139.233 35.1771C138.703 31.8491 136.001 31.1631 133.655 30.8081C133.603 30.0261 133.555 29.2181 133.526 28.5141C133.547 27.3807 133.413 26.2498 133.126 25.1531C132.092 21.8531 129.313 21.4691 127.29 21.4691H126.863C126.72 20.2883 126.414 19.1332 125.952 18.0371C124.465 14.9541 121.635 15.2371 119.314 15.6911C118.959 14.9031 118.629 14.0911 118.332 13.3911C117.966 12.3851 117.51 11.4144 116.968 10.4911C116.532 9.82925 115.935 9.28954 115.233 8.9231C114.53 8.55665 113.746 8.3756 112.954 8.39709C112.209 8.40364 111.469 8.51232 110.754 8.72009C110.424 8.79809 110.146 8.95309 109.817 9.05009C109.269 7.99279 108.621 6.9911 107.88 6.05909C106.012 4.09409 103.795 4.59809 102.05 5.35909C101.598 5.55909 101.216 5.78609 100.79 6.01209C100.234 5.41209 99.6779 4.77809 99.1739 4.19609C98.5118 3.31802 97.7387 2.52946 96.8739 1.85009C94.8579 0.538087 92.7379 0.616087 90.4369 2.18009C90.1735 2.37492 89.9211 2.58424 89.6809 2.80709C88.8287 1.98416 87.8899 1.25592 86.8809 0.635087C84.4569 -0.469913 82.5439 0.512087 81.1289 1.82409C80.7873 2.16726 80.4657 2.52986 80.1659 2.91009C79.4869 2.52909 78.8019 2.12809 78.1499 1.74709C77.2068 1.10233 76.1777 0.593347 75.0929 0.235087C73.9692 -0.121949 72.7561 -0.0761388 71.6625 0.364635C70.5688 0.80541 69.663 1.61358 69.1009 2.65009C68.9269 2.92809 68.7779 3.18009 68.6009 3.43209C67.5385 2.91333 66.4074 2.54898 65.2419 2.35009C64.1892 2.19375 63.1147 2.40454 62.1991 2.94703C61.2835 3.48953 60.5825 4.33066 60.2139 5.32909C59.9879 5.78109 59.8389 6.21409 59.6579 6.61509C58.8049 6.49209 57.9449 6.33709 57.1629 6.18809C56.1589 5.94808 55.1361 5.79452 54.1059 5.72909H53.9569C50.4219 5.85809 49.4329 8.96109 49.0839 9.97509C48.9839 10.3051 48.9289 10.6021 48.8579 10.9061C47.6894 10.8223 46.5161 10.831 45.3489 10.9321C42.6729 11.4101 41.8849 13.5561 41.5869 15.4241C41.4988 15.891 41.4469 16.3641 41.4319 16.8391C40.6499 16.9681 39.8679 17.0911 39.1119 17.1691C37.9722 17.2187 36.8476 17.4485 35.7799 17.8501C32.5229 19.2141 32.3739 22.0701 32.5999 24.3911C31.4564 24.6241 30.3506 25.0142 29.3139 25.5501C26.4139 27.3141 26.8899 30.0681 27.5239 32.3431C27.2239 32.5181 26.9159 32.6661 26.6129 32.8431L26.1609 33.0691C25.7799 33.2691 25.4049 33.4961 25.0229 33.6771C24.1411 34.1023 23.2959 34.5997 22.4959 35.1641C19.6959 37.4131 20.8799 40.5151 21.2619 41.5301C21.3619 41.8301 21.5139 42.0791 21.6429 42.3831C20.6773 43.0331 19.7654 43.7594 18.9159 44.5551C17.0479 46.5781 17.7529 48.7501 18.6899 50.4361C18.9419 50.8431 19.1899 51.1991 19.4459 51.5741C18.7869 52.3111 18.1339 53.0151 17.5259 53.6231C16.799 54.3397 16.123 55.1062 15.5029 55.9171C13.9129 59.0261 15.5289 61.3461 17.1189 63.0391C16.4192 63.9634 15.7802 64.9321 15.2059 65.9391C14.1199 69.1191 16.1369 71.0131 17.9789 72.4281C17.6789 73.1281 17.3259 73.8631 16.9969 74.5481C16.4143 75.5362 15.9892 76.6091 15.7369 77.7281C15.5568 78.4719 15.5591 79.2483 15.7436 79.9911C15.9282 80.7339 16.2895 81.4211 16.7969 81.9941H0.985906L13.8669 95.3941L0.00390625 108.286H29.9219C30.9396 109.286 32.3083 109.847 33.7349 109.85C34.1719 109.876 34.61 109.876 35.0469 109.85C35.2989 110.735 35.4739 111.614 35.6549 112.396C35.8279 113.463 36.1229 114.506 36.5339 115.505C37.6719 117.651 39.7199 118.562 42.3439 118.284C42.7189 118.232 43.0439 118.155 43.4039 118.077C43.7644 119.179 44.2298 120.244 44.7939 121.257C45.4285 122.103 46.3173 122.724 47.3302 123.029C48.343 123.333 49.4268 123.306 50.4229 122.95C50.8499 122.801 51.2829 122.62 51.6829 122.472C51.9609 122.924 52.2649 123.383 52.4909 123.758C53.1856 124.994 53.9973 126.161 54.9149 127.242C55.7929 128.161 56.9822 128.718 58.2499 128.806C59.3335 128.775 60.3949 128.492 61.3499 127.979C61.6499 127.824 61.9059 127.649 62.2099 127.494C62.9338 128.413 63.7456 129.26 64.6339 130.021C65.5252 130.71 66.6375 131.051 67.7619 130.978C68.7514 130.789 69.6843 130.375 70.4889 129.769C70.8505 129.522 71.1959 129.252 71.5229 128.961C72.2339 129.517 72.9129 130.073 73.5459 130.577C74.3472 131.281 75.2077 131.915 76.1179 132.471C76.8017 132.84 77.564 133.04 78.3409 133.053C79.9089 132.929 81.3713 132.215 82.4319 131.053C82.6793 130.805 82.913 130.544 83.1319 130.271C84.1136 130.923 85.1545 131.481 86.2409 131.938C88.8129 132.838 90.5069 131.279 91.6959 129.766C91.9669 129.411 92.1739 129.066 92.4259 128.706C93.2599 128.984 94.1129 129.288 94.8499 129.566C95.835 130.002 96.8671 130.324 97.9259 130.523C100.35 130.697 102.172 129.592 103.433 127.169C103.582 126.839 103.685 126.51 103.808 126.18C104.952 126.478 106.12 126.672 107.298 126.762C109.948 126.562 111.156 124.791 111.79 122.975C111.913 122.497 111.99 122.064 112.09 121.611C112.568 121.637 113.072 121.637 113.551 121.663C114.288 121.689 114.941 121.689 115.551 121.689C116.303 121.706 117.055 121.663 117.8 121.56C120.243 121.082 121.633 119.388 121.936 116.56C121.962 116.23 121.962 115.901 121.988 115.578C123.168 115.473 124.335 115.252 125.472 114.919C128.025 114.008 128.555 111.888 128.477 109.897C128.451 109.438 128.399 109.037 128.377 108.604C128.655 108.504 128.959 108.378 129.237 108.281L165.481 108.287Z" fill="#DDAF66"/>
</g>
<g filter="url(#filter1_d)">
<path d="M83.787 44.1601C83.6827 44.0548 83.6006 43.9298 83.5454 43.7923C83.4902 43.6548 83.463 43.5077 83.4654 43.3596C83.4678 43.2115 83.4998 43.0654 83.5595 42.9298C83.6192 42.7942 83.7054 42.6719 83.813 42.5701C83.9157 42.4661 84.0385 42.384 84.1738 42.3288C84.3092 42.2736 84.4543 42.2464 84.6005 42.2488C84.7467 42.2513 84.8908 42.2833 85.0243 42.343C85.1577 42.4027 85.2777 42.4888 85.377 42.5961C85.5844 42.8069 85.6995 43.0915 85.6971 43.3873C85.6946 43.683 85.5748 43.9657 85.364 44.1731C85.1531 44.3805 84.8685 44.4956 84.5728 44.4932C84.277 44.4908 83.9944 44.3709 83.787 44.1601ZM76.109 69.0041C74.041 71.0461 70.958 71.2731 69.245 69.5041C67.526 67.7591 67.804 64.6831 69.853 62.6601C71.921 60.6441 74.998 60.4111 76.717 62.1601C78.436 63.9091 78.184 66.9811 76.109 69.0041ZM78.938 44.7421C78.2832 45.1682 77.5984 45.5462 76.889 45.8731L78.912 43.8051L79.412 44.2831L78.938 44.7421ZM73.864 46.9331L77.929 42.8221L78.329 43.2221L75.02 46.5831C74.62 46.7061 74.264 46.8351 73.863 46.9321L73.864 46.9331ZM65.632 57.4871C63.564 59.5361 60.481 59.7621 58.768 57.9871C57.049 56.2481 57.327 53.1661 59.376 51.1491C61.444 49.1001 64.495 48.8741 66.24 50.6491C67.959 52.3881 67.681 55.4701 65.632 57.4871ZM85.351 45.9251C90.024 39.1581 100.371 23.8601 100.371 23.8601L100.649 22.4961L82.249 42.4411L82.268 42.8481C72.276 32.9731 62.838 23.6591 62.607 23.4331C62.096 22.9331 61.392 23.3811 60.914 23.8601C60.384 24.3901 55.66 29.3671 54.981 30.0711C55.711 30.9561 56.371 30.8011 56.901 30.2711C57.431 29.7411 61.011 26.1091 61.011 26.1091C61.011 26.1091 61.192 26.2841 61.496 26.5871L57.204 30.9301L57.779 31.5121L62.071 27.1691C62.226 27.3181 62.401 27.4691 62.556 27.6471L58.264 31.9901L58.839 32.5721L63.138 28.2291C63.313 28.3781 63.461 28.5591 63.638 28.7291L59.35 33.0761L59.925 33.6321L64.225 29.2891C64.374 29.4381 64.548 29.6191 64.725 29.7671L60.438 34.1101L61.013 34.6921L65.283 30.3481C65.432 30.4771 65.561 30.6261 65.71 30.7551L61.418 35.0931L62 35.6751L66.291 31.3311C66.44 31.4861 66.591 31.6311 66.769 31.8161L62.478 36.1591L63.06 36.7081L67.351 32.3721C67.5 32.5471 67.681 32.6951 67.851 32.8721L63.564 37.2381L64.146 37.7941L68.438 33.4571C68.613 33.6061 68.768 33.7801 68.938 33.9351L64.65 38.2791L65.232 38.8541L69.498 34.5171C69.673 34.6921 69.853 34.8401 69.998 35.0171L65.738 39.3651L66.32 39.9401L70.586 35.5771C70.761 35.7261 70.916 35.9001 71.086 36.0551L66.796 40.3991L67.378 40.9811L71.669 36.6381L72.069 37.0381L67.778 41.4071L68.36 41.9631L72.651 37.6201L73.129 38.0981L68.838 42.4411L69.42 43.0231L73.711 38.6801C73.8592 38.8025 73.9955 38.9388 74.118 39.0871L69.827 43.4301L70.409 43.9791L74.7 39.6421C74.875 39.7911 75.023 39.9651 75.2 40.1201L70.909 44.4631L71.484 45.0451L75.784 40.7021L76.284 41.2021L71.998 45.5481L72.573 46.1231L76.873 41.7861L77.351 42.2641L73.058 46.6101L73.51 47.0371C70.7357 47.7198 67.8616 47.8993 65.024 47.5671C63.7578 47.2645 62.435 47.2941 61.1837 47.6531C59.9324 48.0121 58.7951 48.6883 57.882 49.6161C54.982 52.4661 54.676 56.9061 57.223 59.5111C59.776 62.0831 64.223 61.8831 67.123 59.0111L67.149 58.9851C67.1463 59.0048 67.1371 59.0231 67.123 59.0371L81.208 46.0801C81.286 46.1511 81.389 46.2291 81.46 46.3061L77.169 50.6481L77.725 51.2301L78.003 50.9711L68.638 60.8741C68.538 60.9451 68.463 61.0491 68.36 61.1261C65.46 64.0021 65.18 68.4261 67.707 70.9951C70.253 73.5951 74.7 73.3671 77.602 70.5171C78.5697 69.6029 79.2762 68.4473 79.6489 67.1693C80.0215 65.8913 80.0467 64.5371 79.722 63.2461C79.3337 59.1068 80.0645 54.9393 81.838 51.1791L84.087 48.9301C93.982 58.7021 103.399 67.9901 103.677 68.2681C104.259 68.8501 106.631 66.9301 105.797 66.1221C105.397 65.7471 95.547 56.0011 85.348 45.9221" fill="#DDAF66"/>
</g>
<path d="M88.3892 43.0252L105.936 26.8892L104.521 27.2192C104.521 27.2192 99.8212 30.3992 94.4972 34.0312C92.4542 37.0892 90.2312 40.3492 88.3892 43.0252Z" fill="#FBD072"/>
<path d="M20.501 86.548H25.745C26.2517 86.548 26.752 86.6113 27.246 86.738C27.74 86.852 28.177 87.0483 28.557 87.327C28.9497 87.593 29.2663 87.9413 29.507 88.372C29.7477 88.8027 29.868 89.322 29.868 89.93C29.868 90.69 29.6527 91.317 29.222 91.811C28.7913 92.305 28.2277 92.6597 27.531 92.875V92.913C27.949 92.9637 28.3353 93.084 28.69 93.274C29.0573 93.4513 29.3677 93.6857 29.621 93.977C29.8743 94.2557 30.0707 94.585 30.21 94.965C30.362 95.3323 30.438 95.7313 30.438 96.162C30.438 96.8967 30.2923 97.511 30.001 98.005C29.7097 98.4863 29.3233 98.879 28.842 99.183C28.3733 99.4743 27.8287 99.6833 27.208 99.81C26.6 99.9367 25.9793 100 25.346 100H20.501V86.548ZM22.895 92.02H25.08C25.878 92.02 26.4733 91.868 26.866 91.564C27.2713 91.2473 27.474 90.8357 27.474 90.329C27.474 89.7463 27.265 89.3157 26.847 89.037C26.4417 88.7457 25.783 88.6 24.871 88.6H22.895V92.02ZM22.895 97.948H25.099C25.403 97.948 25.726 97.929 26.068 97.891C26.4227 97.853 26.7457 97.7643 27.037 97.625C27.3283 97.4857 27.569 97.2893 27.759 97.036C27.949 96.77 28.044 96.4153 28.044 95.972C28.044 95.2627 27.8097 94.7687 27.341 94.49C26.885 94.2113 26.1693 94.072 25.194 94.072H22.895V97.948ZM37.1723 86.548H39.2433L45.0383 100H42.3023L41.0483 96.922H35.2153L33.9993 100H31.3203L37.1723 86.548ZM40.2123 94.87L38.1413 89.398L36.0323 94.87H40.2123ZM46.5332 86.548H51.2072C51.8532 86.548 52.4739 86.6113 53.0692 86.738C53.6772 86.852 54.2156 87.0547 54.6842 87.346C55.1529 87.6373 55.5266 88.03 55.8052 88.524C56.0839 89.018 56.2232 89.645 56.2232 90.405C56.2232 91.3803 55.9509 92.1973 55.4062 92.856C54.8742 93.5147 54.1079 93.9137 53.1072 94.053L56.6792 100H53.7912L50.6752 94.3H48.9272V100H46.5332V86.548ZM50.7892 92.248C51.1312 92.248 51.4732 92.2353 51.8152 92.21C52.1572 92.172 52.4676 92.096 52.7462 91.982C53.0376 91.8553 53.2719 91.6717 53.4492 91.431C53.6266 91.1777 53.7152 90.8293 53.7152 90.386C53.7152 89.9933 53.6329 89.6767 53.4682 89.436C53.3036 89.1953 53.0882 89.018 52.8222 88.904C52.5562 88.7773 52.2586 88.695 51.9292 88.657C51.6126 88.619 51.3022 88.6 50.9982 88.6H48.9272V92.248H50.7892ZM58.501 86.548H63.745C64.2517 86.548 64.752 86.6113 65.246 86.738C65.74 86.852 66.177 87.0483 66.557 87.327C66.9497 87.593 67.2663 87.9413 67.507 88.372C67.7477 88.8027 67.868 89.322 67.868 89.93C67.868 90.69 67.6527 91.317 67.222 91.811C66.7913 92.305 66.2277 92.6597 65.531 92.875V92.913C65.949 92.9637 66.3353 93.084 66.69 93.274C67.0573 93.4513 67.3677 93.6857 67.621 93.977C67.8743 94.2557 68.0707 94.585 68.21 94.965C68.362 95.3323 68.438 95.7313 68.438 96.162C68.438 96.8967 68.2923 97.511 68.001 98.005C67.7097 98.4863 67.3233 98.879 66.842 99.183C66.3733 99.4743 65.8287 99.6833 65.208 99.81C64.6 99.9367 63.9793 100 63.346 100H58.501V86.548ZM60.895 92.02H63.08C63.878 92.02 64.4733 91.868 64.866 91.564C65.2713 91.2473 65.474 90.8357 65.474 90.329C65.474 89.7463 65.265 89.3157 64.847 89.037C64.4417 88.7457 63.783 88.6 62.871 88.6H60.895V92.02ZM60.895 97.948H63.099C63.403 97.948 63.726 97.929 64.068 97.891C64.4227 97.853 64.7457 97.7643 65.037 97.625C65.3283 97.4857 65.569 97.2893 65.759 97.036C65.949 96.77 66.044 96.4153 66.044 95.972C66.044 95.2627 65.8097 94.7687 65.341 94.49C64.885 94.2113 64.1693 94.072 63.194 94.072H60.895V97.948ZM70.8213 86.548H79.7323V88.714H73.2153V92.02H79.3903V94.186H73.2153V97.834H80.0743V100H70.8213V86.548ZM82.4365 86.548H87.1105C87.7565 86.548 88.3772 86.6113 88.9725 86.738C89.5805 86.852 90.1189 87.0547 90.5875 87.346C91.0562 87.6373 91.4299 88.03 91.7085 88.524C91.9872 89.018 92.1265 89.645 92.1265 90.405C92.1265 91.3803 91.8542 92.1973 91.3095 92.856C90.7775 93.5147 90.0112 93.9137 89.0105 94.053L92.5825 100H89.6945L86.5785 94.3H84.8305V100H82.4365V86.548ZM86.6925 92.248C87.0345 92.248 87.3765 92.2353 87.7185 92.21C88.0605 92.172 88.3709 92.096 88.6495 91.982C88.9409 91.8553 89.1752 91.6717 89.3525 91.431C89.5299 91.1777 89.6185 90.8293 89.6185 90.386C89.6185 89.9933 89.5362 89.6767 89.3715 89.436C89.2069 89.1953 88.9915 89.018 88.7255 88.904C88.4595 88.7773 88.1619 88.695 87.8325 88.657C87.5159 88.619 87.2055 88.6 86.9015 88.6H84.8305V92.248H86.6925ZM100.083 86.548H103.731L107.322 95.972L110.951 86.548H114.561V100H112.281V88.828H112.243L108.158 100H106.486L102.401 88.828H102.363V100H100.083V86.548ZM121.967 86.548H124.038L129.833 100H127.097L125.843 96.922H120.01L118.794 100H116.115L121.967 86.548ZM125.007 94.87L122.936 89.398L120.827 94.87H125.007ZM131.328 86.548H134.501L141.018 96.542H141.056V86.548H143.45V100H140.41L133.76 89.683H133.722V100H131.328V86.548Z" fill="white"/>
</g>
<defs>
<filter id="filter0_d" x="-5.99609" y="-3.00293" width="177.477" height="145.056" filterUnits="userSpaceOnUse" color-interpolation-filters="sRGB">
<feFlood flood-opacity="0" result="BackgroundImageFix"/>
<feColorMatrix in="SourceAlpha" type="matrix" values="0 0 0 0 0 0 0 0 0 0 0 0 0 0 0 0 0 0 127 0"/>
<feOffset dy="3"/>
<feGaussianBlur stdDeviation="3"/>
<feColorMatrix type="matrix" values="0 0 0 0 0 0 0 0 0 0 0 0 0 0 0 0 0 0 0.412 0"/>
<feBlend mode="normal" in2="BackgroundImageFix" result="effect1_dropShadow"/>
<feBlend mode="normal" in="SourceGraphic" in2="effect1_dropShadow" result="shape"/>
</filter>
<filter id="filter1_d" x="48.981" y="19.4961" width="62.9918" height="62.3123" filterUnits="userSpaceOnUse" color-interpolation-filters="sRGB">
<feFlood flood-opacity="0" result="BackgroundImageFix"/>
<feColorMatrix in="SourceAlpha" type="matrix" values="0 0 0 0 0 0 0 0 0 0 0 0 0 0 0 0 0 0 127 0"/>
<feOffset dy="3"/>
<feGaussianBlur stdDeviation="3"/>
<feColorMatrix type="matrix" values="0 0 0 0 0 0 0 0 0 0 0 0 0 0 0 0 0 0 0.424 0"/>
<feBlend mode="normal" in2="BackgroundImageFix" result="effect1_dropShadow"/>
<feBlend mode="normal" in="SourceGraphic" in2="effect1_dropShadow" result="shape"/>
</filter>
<clipPath id="clip0">
<rect width="167.523" height="135.731" fill="white"/>
</clipPath>
</defs>
</svg>
