<svg width="118" height="100" viewBox="0 0 118 100" fill="none" xmlns="http://www.w3.org/2000/svg">
<g filter="url(#filter0_d)">
<path d="M23.289 52.8109C22.9532 50.8377 22.78 48.8387 22.7715 46.8353C22.7715 42.065 23.6815 37.3415 25.4496 32.9343C27.2177 28.5272 29.8092 24.5227 33.0762 21.1496C36.3432 17.7765 40.2217 15.1008 44.4902 13.2753C48.7587 11.4498 53.3337 10.5103 57.9539 10.5103C62.5742 10.5103 67.1492 11.4498 71.4177 13.2753C75.6862 15.1008 79.5647 17.7765 82.8317 21.1496C86.0987 24.5227 88.6902 28.5272 90.4583 32.9343C92.2264 37.3415 93.1364 42.065 93.1364 46.8353C93.1196 48.8383 92.9465 50.8366 92.6188 52.8109H23.289ZM83.4298 80.0099C83.2684 81.5827 82.5727 82.4676 81.3102 82.7156C80.878 82.7893 80.4398 82.8179 80.0021 82.8009C79.6127 82.8009 79.195 82.8009 78.7562 82.7837C78.5 82.7665 78.2053 82.7665 77.9491 82.7665C77.9947 82.4602 78.0654 82.1584 78.1605 81.8644C79.0176 81.33 79.858 80.7784 80.6651 80.1931C81.5617 79.8317 82.5045 79.6071 83.4638 79.5265C83.4692 79.6882 83.458 79.85 83.4305 80.0093L83.4298 80.0099ZM57.944 83.1508C49.6687 83.1505 41.6601 80.1284 35.335 74.619H80.5697C74.2408 80.1333 66.2253 83.1559 57.944 83.1508ZM71.6561 86.8056C71.0271 88.0582 70.17 88.6574 69.0522 88.6574H68.7799C68.1655 88.5136 67.5651 88.3119 66.9863 88.0549C66.568 87.8882 66.0671 87.7044 65.5662 87.5377C65.7276 87.2553 65.8865 86.9861 66.0338 86.7857C67.0652 86.5681 68.0851 86.2957 69.0893 85.9696C70.0143 85.9954 70.9348 86.1128 71.838 86.3201C71.774 86.4696 71.7266 86.6362 71.66 86.8029L71.6561 86.8056ZM58.3514 89.1786C57.791 89.8238 57.0171 90.2293 56.1818 90.3155C55.7848 90.3102 55.3957 90.1997 55.0518 89.9947C54.5092 89.6501 53.995 89.2599 53.5145 88.828C53.1583 88.5291 52.7528 88.1911 52.3307 87.8578C52.5914 87.6594 52.8316 87.4431 53.043 87.3062C54.0615 87.4431 55.08 87.5046 56.1312 87.5582C57.0124 87.8979 57.863 88.3171 58.673 88.8108C58.5724 88.939 58.4655 89.0617 58.3527 89.1786H58.3514ZM45.0089 87.0245C44.4918 87.3185 43.9175 87.4893 43.3281 87.5245C42.6886 87.4614 42.0916 87.1661 41.6434 86.6911C41.1045 86.007 40.6189 85.2798 40.1912 84.5165C40.0631 84.2817 39.9017 84.0165 39.7357 83.7639C40.0464 83.6481 40.336 83.5159 40.5928 83.4478C41.5159 83.9107 42.4556 84.3671 43.4081 84.7513C44.1619 85.3346 44.8372 86.0187 45.4163 86.7857C45.2863 86.8731 45.1509 86.9515 45.0109 87.0205L45.0089 87.0245ZM33.0552 80.5615C32.8771 80.5787 32.6991 80.5787 32.521 80.5787C32.0019 80.6141 31.4842 80.4906 31.0328 80.2236C30.5813 79.9567 30.2162 79.5582 29.983 79.078C29.7567 78.4666 29.5889 77.8337 29.4821 77.1885C29.3828 76.7255 29.2547 76.1885 29.1259 75.6713C29.417 75.6542 29.7087 75.6542 29.9997 75.6713C30.7287 76.4233 31.5025 77.1415 32.2808 77.8254C32.7957 78.6491 33.2233 79.5276 33.5561 80.4458C33.3781 80.4802 33.2166 80.5271 33.0552 80.5615ZM20.4078 30.6217C20.3407 30.4921 20.2827 30.3577 20.2342 30.2196C19.6673 28.668 19.8447 27.6164 20.8472 26.7956C21.3125 26.4401 21.8102 26.1322 22.3333 25.8763C22.5774 25.7441 22.8176 25.6118 23.0783 25.4795L23.3518 25.3254C23.5011 25.2441 23.6625 25.1415 23.8239 25.0609C23.9027 25.3915 23.9854 25.6938 24.0308 25.963C23.5011 26.8651 23.0123 27.7837 22.5614 28.7328C21.9194 29.4492 21.1966 30.0836 20.4084 30.6224L20.4078 30.6217ZM29.1926 15.4259C29.8192 15.2099 30.4708 15.0805 31.1303 15.041C31.5524 14.9749 32.0207 14.9087 32.4883 14.8228C32.488 15.1146 32.4666 15.4059 32.4243 15.6945C31.6293 16.3955 30.8388 17.1138 30.0932 17.877C29.2826 18.3383 28.4186 18.6916 27.522 18.9286C27.3938 17.5437 27.522 16.1415 29.1874 15.4233L29.1926 15.4259ZM38.0639 9.81483C38.5648 8.24207 39.345 7.50662 40.6511 7.47686C41.2657 7.52322 41.876 7.61763 42.4768 7.75927C42.9156 7.84459 43.4331 7.94313 43.9341 8.02845C43.8396 8.29747 43.7261 8.55897 43.5946 8.81086C42.642 9.19578 41.719 9.63162 40.7959 10.0807C39.861 10.2318 38.9134 10.2819 37.9684 10.2302C37.9922 10.0901 38.0241 9.95164 38.0639 9.81549V9.81483ZM50.8119 5.14155C51.0368 4.71521 51.3655 4.35678 51.7655 4.10162C52.1655 3.84646 52.623 3.70339 53.093 3.68652C53.3827 3.69529 53.6705 3.73969 53.9501 3.81879C54.5738 4.04555 55.1665 4.35455 55.7135 4.73811C56.0697 4.95636 56.488 5.20107 56.9101 5.43916C56.7323 5.66221 56.5431 5.87526 56.3432 6.07739C55.3081 6.12435 54.2569 6.19247 53.2384 6.30821C52.3212 6.16517 51.4253 5.90226 50.5723 5.5258C50.6455 5.39307 50.7257 5.26457 50.8125 5.14088L50.8119 5.14155ZM64.3011 4.99141C65.5143 4.13625 66.6154 4.05557 67.6794 4.793C68.1805 5.20963 68.6321 5.68605 69.0246 6.21231C69.2982 6.56284 69.621 6.94776 69.9605 7.31483C69.7304 7.46061 69.4926 7.59309 69.2482 7.71165C68.2297 7.39551 67.1945 7.11641 66.1433 6.89551C65.3539 6.44906 64.6164 5.9112 63.9449 5.29234C64.073 5.18983 64.1723 5.09393 64.3011 4.9934V4.99141ZM77.1125 9.41734C78.6979 8.98149 79.6671 9.26787 80.3794 10.3195C80.6978 10.8896 80.9679 11.487 81.1865 12.1052C81.348 12.537 81.5594 13.0245 81.7701 13.5073C81.4873 13.5694 81.2011 13.6136 80.913 13.6396C80.0892 13.037 79.2322 12.4729 78.3712 11.92C77.7371 11.1941 77.1741 10.4052 76.6904 9.56483C76.8284 9.50739 76.9694 9.4575 77.1125 9.41535V9.41734ZM90.6465 19.8651C90.8056 20.5204 90.882 21.1942 90.8739 21.8697C90.8906 22.3016 90.9239 22.789 90.9566 23.2718C90.6292 23.2202 90.3397 23.1865 90.0828 23.1224C89.4993 22.2718 88.899 21.4339 88.2527 20.6343C87.8435 19.7551 87.555 18.8213 87.3956 17.8598C88.6915 17.83 90.095 18.0265 90.6459 19.8644L90.6465 19.8651ZM18.7762 41.6078C18.3703 42.4859 17.8881 43.3242 17.3356 44.1124C16.4452 43.1144 15.704 41.9067 16.5118 40.3366C16.874 39.8477 17.2682 39.385 17.6917 38.9517C18.0479 38.5668 18.4367 38.1482 18.8095 37.7163C18.9779 37.9365 19.1279 38.171 19.2579 38.4173C19.0465 39.4689 18.9018 40.5377 18.7737 41.6058L18.7762 41.6078ZM18.8377 57.2335H17.7244C17.3112 56.9376 16.9944 56.5195 16.8155 56.0342C16.6367 55.549 16.6043 55.0192 16.7225 54.5146C16.8905 53.8465 17.1454 53.2051 17.4803 52.6078C17.6725 52.1931 17.8698 51.7573 18.0639 51.3082C18.3246 51.5066 18.5648 51.6885 18.7429 51.8552C18.871 52.9577 19.0203 54.0609 19.2438 55.1296C19.1845 55.8437 19.0499 56.5489 18.8422 57.2328L18.8377 57.2335ZM94.9166 29.3009C96.1586 29.7368 97.3719 30.4378 97.3879 32.2421C97.3083 32.8438 97.1738 33.4363 96.9863 34.0119C96.9222 34.2765 96.837 34.5635 96.7422 34.914C96.6922 35.1448 96.6468 35.3968 96.5974 35.6323C96.3201 35.4954 96.0465 35.3459 95.8358 35.2136C95.5463 34.1964 95.2068 33.2262 94.8506 32.2599C94.7831 31.2741 94.8046 30.284 94.9146 29.3023L94.9166 29.3009ZM97.5314 56.4372C97.7052 56.693 97.8629 56.9601 98.0035 57.2368H96.8236C97.0471 56.9722 97.2912 56.7024 97.5314 56.4372ZM97.4212 45.297C97.6516 44.385 97.9879 43.5051 98.4231 42.6766C98.539 42.7619 98.6505 42.8433 98.7792 42.9458C99.9758 43.9802 100.299 45.0317 99.8144 46.2672C99.5732 46.8056 99.2745 47.3144 98.924 47.7844C98.7792 48.0192 98.6178 48.2718 98.4756 48.5027C98.3142 48.7374 98.1694 48.9729 98.0272 49.2037C97.8073 48.996 97.6012 48.7733 97.4103 48.537C97.4436 47.9683 97.5096 47.4001 97.5096 46.836C97.5096 46.3188 97.4455 45.8142 97.427 45.297H97.4212ZM112 74.6204L103.114 66.1005L111.361 57.2381H98.7171C98.5262 56.787 98.2932 56.3562 98.0214 55.9517C98.6031 55.442 99.1144 54.8523 99.5409 54.1991C100.638 52.2626 99.5409 50.8261 98.489 49.711C98.6671 49.4418 98.8286 49.1766 99.0233 48.8902C99.1681 48.6422 99.3295 48.4074 99.4717 48.172C99.8412 47.6538 100.161 47.1001 100.428 46.5185C101.024 45.0351 100.62 43.6501 99.1982 42.4451C99.0367 42.2956 98.8779 42.1806 98.7139 42.0483C99.0677 41.3515 99.3641 40.6252 99.5998 39.877C100.005 38.1243 99.0367 37.0728 97.9343 36.3849C97.6903 36.2355 97.45 36.1025 97.1893 35.9702C97.272 35.6667 97.3219 35.3505 97.4007 35.0344C97.4833 34.752 97.5455 34.4656 97.6281 34.2183C97.8307 33.5821 97.9763 32.9282 98.0631 32.2646C98.0298 29.9438 96.3976 29.09 94.9749 28.6224C95.1128 27.8453 95.1836 27.0572 95.1862 26.2672C94.8467 24.0661 93.1159 23.6124 91.6131 23.3777C91.5798 22.8605 91.5491 22.3261 91.5305 21.8605C91.5442 21.1109 91.458 20.3629 91.2743 19.6376C90.6119 17.455 88.8318 17.2011 87.5359 17.2011H87.2624C87.1709 16.4201 86.9745 15.6562 86.6788 14.9312C85.7263 12.8922 83.9135 13.0794 82.4267 13.3796C82.1993 12.8585 81.9879 12.3214 81.7977 11.8585C81.5633 11.1931 81.2709 10.5512 80.9239 9.94049C80.6449 9.50276 80.2624 9.14582 79.8124 8.90346C79.3624 8.6611 78.86 8.54136 78.3527 8.55557C77.8757 8.5599 77.4015 8.63178 76.9434 8.76919C76.732 8.82078 76.5539 8.92329 76.3432 8.98744C75.9925 8.28817 75.577 7.62568 75.1024 7.00927C73.9058 5.70967 72.4857 6.043 71.3679 6.54631C71.0783 6.67858 70.8336 6.82871 70.5607 6.97819C70.2046 6.58136 69.8484 6.16205 69.5256 5.77713C69.1014 5.1964 68.6062 4.67486 68.0523 4.22554C66.7609 3.35782 65.4028 3.4094 63.9289 4.44379C63.7601 4.57265 63.5985 4.71109 63.4446 4.85848C62.8987 4.31421 62.2973 3.83257 61.651 3.42197C60.0983 2.69115 58.8728 3.34062 57.9664 4.20834C57.7476 4.43531 57.5416 4.67513 57.3496 4.9266C56.9146 4.67461 56.4758 4.4094 56.0582 4.15742C55.454 3.73099 54.7948 3.39436 54.0999 3.15742C53.3801 2.92128 52.603 2.95158 51.9025 3.2431C51.2019 3.53462 50.6217 4.06912 50.2616 4.75464C50.1502 4.9385 50.0547 5.10517 49.9413 5.27184C49.2608 4.92874 48.5362 4.68777 47.7897 4.55623C47.1153 4.45283 46.427 4.59224 45.8405 4.95103C45.254 5.30983 44.805 5.86613 44.5689 6.52647C44.4241 6.82541 44.3287 7.11178 44.2127 7.377C43.6663 7.29565 43.1154 7.19313 42.6145 7.09459C41.9713 6.93585 41.3162 6.83429 40.6562 6.79102H40.5608C38.2964 6.87633 37.6629 8.92858 37.4393 9.59922C37.3752 9.81747 37.34 10.0139 37.2945 10.215C36.546 10.1595 35.7944 10.1653 35.0468 10.2322C33.3326 10.5483 32.8278 11.9676 32.6369 13.2031C32.5805 13.5119 32.5473 13.8248 32.5376 14.1389C32.0367 14.2242 31.5358 14.3056 31.0515 14.3572C30.3215 14.39 29.6011 14.542 28.9171 14.8075C26.8308 15.7097 26.7353 17.5986 26.8801 19.1336C26.1476 19.2877 25.4392 19.5457 24.7752 19.9001C22.9175 21.0668 23.2224 22.8882 23.6286 24.3929C23.4364 24.5086 23.2391 24.6065 23.045 24.7236L22.7555 24.873C22.5114 25.0053 22.2712 25.1554 22.0265 25.2751C21.4616 25.5564 20.9202 25.8853 20.4078 26.2586C18.6142 27.746 19.3726 29.7976 19.6173 30.4689C19.6813 30.6673 19.7787 30.832 19.8613 31.0331C19.2428 31.4629 18.6587 31.9433 18.1145 32.4696C16.9179 33.8075 17.3695 35.2441 17.9697 36.3591C18.1312 36.6283 18.29 36.8638 18.454 37.1118C18.0319 37.5992 17.6136 38.0648 17.2241 38.4669C16.7585 38.9409 16.3254 39.4479 15.9282 39.9841C14.9097 42.0403 15.9449 43.5747 16.9634 44.6945C16.5152 45.3058 16.1059 45.9464 15.738 46.6124C15.0423 48.7156 16.3344 49.9683 17.5143 50.9041C17.3221 51.3671 17.096 51.8532 16.8852 52.3062C16.512 52.9597 16.2397 53.6693 16.0781 54.4094C15.9627 54.9014 15.9642 55.4148 16.0824 55.9061C16.2007 56.3974 16.4321 56.8518 16.7571 57.2308H6.62904L14.8803 66.0933L6 74.6197H25.1646C25.8166 75.2809 26.6933 75.6522 27.6071 75.6541C27.887 75.6712 28.1677 75.6712 28.4476 75.6541C28.609 76.2394 28.7211 76.8208 28.837 77.338C28.9479 78.0434 29.1368 78.7333 29.4001 79.3942C30.1291 80.8135 31.441 81.416 33.1218 81.2321C33.3621 81.1978 33.5702 81.1468 33.8008 81.0952C34.0317 81.8241 34.3299 82.5284 34.6912 83.1984C35.0978 83.758 35.6671 84.1686 36.3159 84.3701C36.9647 84.5716 37.659 84.5534 38.297 84.3181C38.5705 84.2196 38.8479 84.0999 39.1041 84.002C39.2822 84.3009 39.477 84.6045 39.6217 84.8525C40.0667 85.6701 40.5867 86.4417 41.1745 87.1567C41.7369 87.7643 42.4987 88.1332 43.3108 88.1911C44.0049 88.1706 44.6848 87.9834 45.2966 87.6442C45.4887 87.5417 45.6527 87.4259 45.8474 87.3234C46.3111 87.9313 46.8312 88.4911 47.4002 88.9947C47.9711 89.4506 48.6836 89.6757 49.4039 89.6276C50.0377 89.5025 50.6353 89.2289 51.1507 88.828C51.3824 88.6647 51.6036 88.4862 51.8131 88.2937C52.2686 88.6614 52.7035 89.0291 53.109 89.3624C53.6223 89.8281 54.1735 90.2472 54.7565 90.6151C55.1945 90.8592 55.6829 90.9912 56.1805 91C57.1849 90.9182 58.1217 90.4454 58.8011 89.6772C58.9596 89.5134 59.1093 89.3408 59.2495 89.1601C59.8783 89.5913 60.5451 89.9605 61.241 90.2626C62.8886 90.8578 63.9737 89.8267 64.7354 88.8261C64.909 88.5913 65.0416 88.3631 65.203 88.125C65.7372 88.3089 66.2836 88.5099 66.7557 88.6938C67.3867 88.9824 68.0479 89.1948 68.7261 89.3267C70.2789 89.4418 71.446 88.711 72.2538 87.1085C72.3492 86.8902 72.4152 86.6726 72.494 86.4544C73.2266 86.6512 73.9748 86.78 74.7296 86.8393C76.4271 86.707 77.2009 85.5357 77.607 84.3347C77.6858 84.0185 77.7351 83.7321 77.7992 83.4325C78.1054 83.4497 78.4282 83.4497 78.7351 83.4669C79.2072 83.4841 79.6255 83.4841 80.0162 83.4841C80.4979 83.4955 80.9796 83.467 81.4569 83.3988C83.0218 83.0827 83.9122 81.9623 84.1063 80.0919C84.1229 79.8737 84.1229 79.6561 84.1396 79.4425C84.8955 79.3728 85.643 79.2268 86.3713 79.0066C88.0067 78.4041 88.3462 77.002 88.2963 75.6852C88.2796 75.3816 88.2463 75.1164 88.2322 74.83C88.4103 74.7639 88.605 74.6806 88.7831 74.6164L112 74.6204Z" fill="#D6A763"/>
</g>
<path d="M24.3888 63.624C24.8608 63.712 25.2488 63.948 25.5528 64.332C25.8568 64.716 26.0088 65.156 26.0088 65.652C26.0088 66.1 25.8968 66.496 25.6728 66.84C25.4568 67.176 25.1408 67.44 24.7248 67.632C24.3088 67.824 23.8168 67.92 23.2488 67.92H19.6368V59.544H23.0928C23.6608 59.544 24.1488 59.636 24.5568 59.82C24.9728 60.004 25.2848 60.26 25.4928 60.588C25.7088 60.916 25.8168 61.288 25.8168 61.704C25.8168 62.192 25.6848 62.6 25.4208 62.928C25.1648 63.256 24.8208 63.488 24.3888 63.624ZM21.3168 63H22.8528C23.2528 63 23.5608 62.912 23.7768 62.736C23.9928 62.552 24.1008 62.292 24.1008 61.956C24.1008 61.62 23.9928 61.36 23.7768 61.176C23.5608 60.992 23.2528 60.9 22.8528 60.9H21.3168V63ZM23.0088 66.552C23.4168 66.552 23.7328 66.456 23.9568 66.264C24.1888 66.072 24.3048 65.8 24.3048 65.448C24.3048 65.088 24.1848 64.808 23.9448 64.608C23.7048 64.4 23.3808 64.296 22.9728 64.296H21.3168V66.552H23.0088ZM26.9158 64.572C26.9158 63.9 27.0478 63.304 27.3118 62.784C27.5838 62.264 27.9478 61.864 28.4038 61.584C28.8678 61.304 29.3838 61.164 29.9518 61.164C30.4478 61.164 30.8798 61.264 31.2478 61.464C31.6238 61.664 31.9238 61.916 32.1478 62.22V61.272H33.8398V67.92H32.1478V66.948C31.9318 67.26 31.6318 67.52 31.2478 67.728C30.8718 67.928 30.4358 68.028 29.9398 68.028C29.3798 68.028 28.8678 67.884 28.4038 67.596C27.9478 67.308 27.5838 66.904 27.3118 66.384C27.0478 65.856 26.9158 65.252 26.9158 64.572ZM32.1478 64.596C32.1478 64.188 32.0678 63.84 31.9078 63.552C31.7478 63.256 31.5318 63.032 31.2598 62.88C30.9878 62.72 30.6958 62.64 30.3838 62.64C30.0718 62.64 29.7838 62.716 29.5198 62.868C29.2558 63.02 29.0398 63.244 28.8718 63.54C28.7118 63.828 28.6318 64.172 28.6318 64.572C28.6318 64.972 28.7118 65.324 28.8718 65.628C29.0398 65.924 29.2558 66.152 29.5198 66.312C29.7918 66.472 30.0798 66.552 30.3838 66.552C30.6958 66.552 30.9878 66.476 31.2598 66.324C31.5318 66.164 31.7478 65.94 31.9078 65.652C32.0678 65.356 32.1478 65.004 32.1478 64.596ZM37.1606 62.304C37.3766 61.952 37.6566 61.676 38.0006 61.476C38.3526 61.276 38.7526 61.176 39.2006 61.176V62.94H38.7566C38.2286 62.94 37.8286 63.064 37.5566 63.312C37.2926 63.56 37.1606 63.992 37.1606 64.608V67.92H35.4806V61.272H37.1606V62.304ZM42.0122 62.244C42.2282 61.924 42.5242 61.664 42.9002 61.464C43.2842 61.264 43.7202 61.164 44.2082 61.164C44.7762 61.164 45.2882 61.304 45.7442 61.584C46.2082 61.864 46.5722 62.264 46.8362 62.784C47.1082 63.296 47.2442 63.892 47.2442 64.572C47.2442 65.252 47.1082 65.856 46.8362 66.384C46.5722 66.904 46.2082 67.308 45.7442 67.596C45.2882 67.884 44.7762 68.028 44.2082 68.028C43.7122 68.028 43.2762 67.932 42.9002 67.74C42.5322 67.54 42.2362 67.284 42.0122 66.972V67.92H40.3322V59.04H42.0122V62.244ZM45.5282 64.572C45.5282 64.172 45.4442 63.828 45.2762 63.54C45.1162 63.244 44.9002 63.02 44.6282 62.868C44.3642 62.716 44.0762 62.64 43.7642 62.64C43.4602 62.64 43.1722 62.72 42.9002 62.88C42.6362 63.032 42.4202 63.256 42.2522 63.552C42.0922 63.848 42.0122 64.196 42.0122 64.596C42.0122 64.996 42.0922 65.344 42.2522 65.64C42.4202 65.936 42.6362 66.164 42.9002 66.324C43.1722 66.476 43.4602 66.552 43.7642 66.552C44.0762 66.552 44.3642 66.472 44.6282 66.312C44.9002 66.152 45.1162 65.924 45.2762 65.628C45.4442 65.332 45.5282 64.98 45.5282 64.572ZM54.645 64.452C54.645 64.692 54.629 64.908 54.597 65.1H49.737C49.777 65.58 49.945 65.956 50.241 66.228C50.537 66.5 50.901 66.636 51.333 66.636C51.957 66.636 52.401 66.368 52.665 65.832H54.477C54.285 66.472 53.917 67 53.373 67.416C52.829 67.824 52.161 68.028 51.369 68.028C50.729 68.028 50.153 67.888 49.641 67.608C49.137 67.32 48.741 66.916 48.453 66.396C48.173 65.876 48.033 65.276 48.033 64.596C48.033 63.908 48.173 63.304 48.453 62.784C48.733 62.264 49.125 61.864 49.629 61.584C50.133 61.304 50.713 61.164 51.369 61.164C52.001 61.164 52.565 61.3 53.061 61.572C53.565 61.844 53.953 62.232 54.225 62.736C54.505 63.232 54.645 63.804 54.645 64.452ZM52.905 63.972C52.897 63.54 52.741 63.196 52.437 62.94C52.133 62.676 51.761 62.544 51.321 62.544C50.905 62.544 50.553 62.672 50.265 62.928C49.985 63.176 49.813 63.524 49.749 63.972H52.905ZM57.5512 62.304C57.7672 61.952 58.0472 61.676 58.3912 61.476C58.7432 61.276 59.1432 61.176 59.5912 61.176V62.94H59.1472C58.6192 62.94 58.2192 63.064 57.9472 63.312C57.6832 63.56 57.5512 63.992 57.5512 64.608V67.92H55.8712V61.272H57.5512V62.304ZM70.5302 59.544V67.92H68.8502V64.356H65.2622V67.92H63.5822V59.544H65.2622V62.988H68.8502V59.544H70.5302ZM75.1357 68.028C74.4957 68.028 73.9197 67.888 73.4077 67.608C72.8957 67.32 72.4917 66.916 72.1957 66.396C71.9077 65.876 71.7637 65.276 71.7637 64.596C71.7637 63.916 71.9117 63.316 72.2077 62.796C72.5117 62.276 72.9237 61.876 73.4437 61.596C73.9637 61.308 74.5437 61.164 75.1837 61.164C75.8237 61.164 76.4037 61.308 76.9237 61.596C77.4437 61.876 77.8517 62.276 78.1477 62.796C78.4517 63.316 78.6037 63.916 78.6037 64.596C78.6037 65.276 78.4477 65.876 78.1357 66.396C77.8317 66.916 77.4157 67.32 76.8877 67.608C76.3677 67.888 75.7837 68.028 75.1357 68.028ZM75.1357 66.564C75.4397 66.564 75.7237 66.492 75.9877 66.348C76.2597 66.196 76.4757 65.972 76.6357 65.676C76.7957 65.38 76.8757 65.02 76.8757 64.596C76.8757 63.964 76.7077 63.48 76.3717 63.144C76.0437 62.8 75.6397 62.628 75.1597 62.628C74.6797 62.628 74.2757 62.8 73.9477 63.144C73.6277 63.48 73.4677 63.964 73.4677 64.596C73.4677 65.228 73.6237 65.716 73.9357 66.06C74.2557 66.396 74.6557 66.564 75.1357 66.564ZM86.1121 61.272V67.92H84.4201V67.08C84.2041 67.368 83.9201 67.596 83.5681 67.764C83.2241 67.924 82.8481 68.004 82.4401 68.004C81.9201 68.004 81.4601 67.896 81.0601 67.68C80.6601 67.456 80.3441 67.132 80.1121 66.708C79.8881 66.276 79.7761 65.764 79.7761 65.172V61.272H81.4561V64.932C81.4561 65.46 81.5881 65.868 81.8521 66.156C82.1161 66.436 82.4761 66.576 82.9321 66.576C83.3961 66.576 83.7601 66.436 84.0241 66.156C84.2881 65.868 84.4201 65.46 84.4201 64.932V61.272H86.1121ZM90.3137 68.028C89.7697 68.028 89.2817 67.932 88.8497 67.74C88.4177 67.54 88.0737 67.272 87.8177 66.936C87.5697 66.6 87.4337 66.228 87.4097 65.82H89.1017C89.1337 66.076 89.2577 66.288 89.4737 66.456C89.6977 66.624 89.9737 66.708 90.3017 66.708C90.6217 66.708 90.8697 66.644 91.0457 66.516C91.2297 66.388 91.3217 66.224 91.3217 66.024C91.3217 65.808 91.2097 65.648 90.9857 65.544C90.7697 65.432 90.4217 65.312 89.9417 65.184C89.4457 65.064 89.0377 64.94 88.7177 64.812C88.4057 64.684 88.1337 64.488 87.9017 64.224C87.6777 63.96 87.5657 63.604 87.5657 63.156C87.5657 62.788 87.6697 62.452 87.8777 62.148C88.0937 61.844 88.3977 61.604 88.7897 61.428C89.1897 61.252 89.6577 61.164 90.1937 61.164C90.9857 61.164 91.6177 61.364 92.0897 61.764C92.5617 62.156 92.8217 62.688 92.8697 63.36H91.2617C91.2377 63.096 91.1257 62.888 90.9257 62.736C90.7337 62.576 90.4737 62.496 90.1457 62.496C89.8417 62.496 89.6057 62.552 89.4377 62.664C89.2777 62.776 89.1977 62.932 89.1977 63.132C89.1977 63.356 89.3097 63.528 89.5337 63.648C89.7577 63.76 90.1057 63.876 90.5777 63.996C91.0577 64.116 91.4537 64.24 91.7657 64.368C92.0777 64.496 92.3457 64.696 92.5697 64.968C92.8017 65.232 92.9217 65.584 92.9297 66.024C92.9297 66.408 92.8217 66.752 92.6057 67.056C92.3977 67.36 92.0937 67.6 91.6937 67.776C91.3017 67.944 90.8417 68.028 90.3137 68.028ZM100.489 64.452C100.489 64.692 100.473 64.908 100.441 65.1H95.5807C95.6207 65.58 95.7887 65.956 96.0847 66.228C96.3807 66.5 96.7447 66.636 97.1767 66.636C97.8007 66.636 98.2447 66.368 98.5087 65.832H100.321C100.129 66.472 99.7607 67 99.2167 67.416C98.6727 67.824 98.0047 68.028 97.2127 68.028C96.5727 68.028 95.9967 67.888 95.4847 67.608C94.9807 67.32 94.5847 66.916 94.2967 66.396C94.0167 65.876 93.8767 65.276 93.8767 64.596C93.8767 63.908 94.0167 63.304 94.2967 62.784C94.5767 62.264 94.9687 61.864 95.4727 61.584C95.9767 61.304 96.5567 61.164 97.2127 61.164C97.8447 61.164 98.4087 61.3 98.9047 61.572C99.4087 61.844 99.7967 62.232 100.069 62.736C100.349 63.232 100.489 63.804 100.489 64.452ZM98.7487 63.972C98.7407 63.54 98.5847 63.196 98.2807 62.94C97.9767 62.676 97.6047 62.544 97.1647 62.544C96.7487 62.544 96.3967 62.672 96.1087 62.928C95.8287 63.176 95.6567 63.524 95.5927 63.972H98.7487Z" fill="white"/>
<path d="M77.5679 28.4114C80.3044 31.3499 80.2301 32.5734 80.2666 33.9213C80.3948 38.5781 74.2542 35.2269 72.6438 33.9213C62.6483 25.8016 61.8745 26.1502 58.2687 27.676L58.1406 27.7421L58.0125 27.676C54.4099 26.1508 53.6329 25.8023 43.6374 33.9246C42.0309 35.2302 35.8865 38.5814 36.0146 33.9246C36.0531 32.5734 35.9845 31.3499 38.7172 28.4114C38.7172 28.4114 30.8695 28.7785 33.41 39.0715C34.638 44.0443 38.1548 53.0265 58.1406 40.8373C78.1265 53.0298 81.6407 44.0443 82.8667 39.0715C85.4156 28.7765 77.5679 28.4114 77.5679 28.4114Z" fill="#DDAF66"/>
<defs>
<filter id="filter0_d" x="0" y="0" width="118" height="100" filterUnits="userSpaceOnUse" color-interpolation-filters="sRGB">
<feFlood flood-opacity="0" result="BackgroundImageFix"/>
<feColorMatrix in="SourceAlpha" type="matrix" values="0 0 0 0 0 0 0 0 0 0 0 0 0 0 0 0 0 0 127 0"/>
<feOffset dy="3"/>
<feGaussianBlur stdDeviation="3"/>
<feColorMatrix type="matrix" values="0 0 0 0 0 0 0 0 0 0 0 0 0 0 0 0 0 0 0.412 0"/>
<feBlend mode="normal" in2="BackgroundImageFix" result="effect1_dropShadow"/>
<feBlend mode="normal" in="SourceGraphic" in2="effect1_dropShadow" result="shape"/>
</filter>
</defs>
</svg>
