<svg width="24" height="16" viewBox="0 0 24 16" fill="none" xmlns="http://www.w3.org/2000/svg">
<path d="M22 6.5H2C1.60218 6.5 1.22076 6.65804 0.939453 6.93935C0.658149 7.22065 0.5 7.60218 0.5 8C0.5 8.39782 0.658149 8.77936 0.939453 9.06066C1.22076 9.34197 1.60218 9.5 2 9.5H22C22.3978 9.5 22.7792 9.34197 23.0605 9.06066C23.3419 8.77936 23.5 8.39782 23.5 8C23.5 7.60218 23.3419 7.22065 23.0605 6.93935C22.7792 6.65804 22.3978 6.5 22 6.5Z" fill="#FBD072"/>
<path d="M2 3.62799H22C22.3978 3.62799 22.7792 3.46996 23.0605 3.18865C23.3419 2.90735 23.5 2.52582 23.5 2.12799C23.5 1.73017 23.3419 1.34863 23.0605 1.06733C22.7792 0.786025 22.3978 0.627991 22 0.627991H2C1.60218 0.627991 1.22076 0.786025 0.939453 1.06733C0.658149 1.34863 0.5 1.73017 0.5 2.12799C0.5 2.52582 0.658149 2.90735 0.939453 3.18865C1.22076 3.46996 1.60218 3.62799 2 3.62799Z" fill="#FBD072"/>
<path d="M22 12.278H2C1.60218 12.278 1.22076 12.436 0.939453 12.7173C0.658149 12.9986 0.5 13.3802 0.5 13.778C0.5 14.1758 0.658149 14.5573 0.939453 14.8386C1.22076 15.12 1.60218 15.278 2 15.278H22C22.3978 15.278 22.7792 15.12 23.0605 14.8386C23.3419 14.5573 23.5 14.1758 23.5 13.778C23.5 13.3802 23.3419 12.9986 23.0605 12.7173C22.7792 12.436 22.3978 12.278 22 12.278Z" fill="#FBD072"/>
</svg>
