<svg width="49" height="58" viewBox="0 0 49 58" fill="none" xmlns="http://www.w3.org/2000/svg">
<path fill-rule="evenodd" clip-rule="evenodd" d="M8.24641 42.8326C3.18786 38.3444 2.27745e-06 31.7945 2.91516e-06 24.5C4.09807e-06 10.969 10.969 4.89924e-07 24.5 1.67284e-06C38.031 2.85575e-06 49 10.969 49 24.5C49 31.7776 45.8269 38.3141 40.7887 42.8014L26.6233 56.9668C25.4517 58.1384 23.5522 58.1384 22.3806 56.9668L8.24641 42.8326Z" fill="#FBD072"/>
<path fill-rule="evenodd" clip-rule="evenodd" d="M8.24641 42.8326C3.18786 38.3444 2.27745e-06 31.7945 2.91516e-06 24.5C4.09807e-06 10.969 10.969 4.89924e-07 24.5 1.67284e-06C38.031 2.85575e-06 49 10.969 49 24.5C49 31.7776 45.8269 38.3141 40.7887 42.8014L26.6233 56.9668C25.4517 58.1384 23.5522 58.1384 22.3806 56.9668L8.24641 42.8326Z" fill="url(#paint0_linear)" fill-opacity="0.5" style="mix-blend-mode:overlay"/>
<path d="M34.7779 20.9533C36.296 22.7044 36.2548 23.4335 36.2751 24.2367C36.3461 27.0116 32.9396 25.0147 32.0462 24.2367C26.5011 19.3982 26.0718 19.6059 24.0715 20.5151L24.0004 20.5545L23.9294 20.5151C21.9308 19.6062 21.4997 19.3985 15.9546 24.2387C15.0634 25.0166 11.6547 27.0136 11.7258 24.2387C11.7471 23.4335 11.7091 22.7044 13.225 20.9533C13.225 20.9533 8.87147 21.1721 10.2808 27.3056C10.9621 30.269 12.9131 35.6214 24.0004 28.3579C35.0878 35.6234 37.0373 30.269 37.7175 27.3056C39.1315 21.1709 34.7779 20.9533 34.7779 20.9533Z" fill="white"/>
<defs>
<linearGradient id="paint0_linear" x1="24.5" y1="57.8455" x2="24.5" y2="10.5" gradientUnits="userSpaceOnUse">
<stop/>
<stop offset="1" stop-opacity="0"/>
</linearGradient>
</defs>
</svg>
