<?xml version="1.0" encoding="utf-8"?>
<!-- Generator: Adobe Illustrator 23.0.0, SVG Export Plug-In . SVG Version: 6.00 Build 0)  -->
<svg version="1.1" id="Camada_1" xmlns="http://www.w3.org/2000/svg" xmlns:xlink="http://www.w3.org/1999/xlink" x="0px" y="0px"
	 viewBox="0 0 32 14" style="enable-background:new 0 0 32 14;" xml:space="preserve">
<style type="text/css">
	.st0{fill:#313131;}
</style>
<path class="st0" d="M27.9,1.5c1.7,2,1.7,2.8,1.7,3.7c0.1,3.1-3.7,0.9-4.7,0C18.6-0.2,18.1,0,15.9,1l-0.1,0l-0.1,0
	C13.5,0,13-0.2,6.8,5.2C5.8,6.1,2,8.3,2,5.2c0-0.9,0-1.7,1.7-3.7c0,0-4.9,0.2-3.3,7.1c0.8,3.3,3,9.3,15.4,1.2
	c12.4,8.1,14.6,2.1,15.4-1.2C32.7,1.8,27.9,1.5,27.9,1.5z"/>
</svg>
