<svg width="121" height="110" viewBox="0 0 121 110" fill="none" xmlns="http://www.w3.org/2000/svg">
<path fill-rule="evenodd" clip-rule="evenodd" d="M35.9566 89.7421L37.25 89.6971V108C37.25 108.414 37.5858 108.75 38 108.75H83C83.4142 108.75 83.75 108.414 83.75 108V47C83.75 45.4812 82.5188 44.25 81 44.25H40C38.4812 44.25 37.25 45.4812 37.25 47V58.3029L35.9566 58.2579C35.8047 58.2526 35.6525 58.25 35.5 58.25C27.657 58.25 21.25 65.2771 21.25 74C21.25 82.7229 27.657 89.75 35.5 89.75C35.6525 89.75 35.8047 89.7474 35.9566 89.7421ZM36.1 83.726C35.9009 83.742 35.7008 83.75 35.5 83.75C30.766 83.75 27.0167 79.3441 27.0167 74C27.0167 68.6559 30.766 64.25 35.5 64.25C35.7008 64.25 35.9009 64.258 36.1 64.274L37.25 64.3663V83.6337L36.1 83.726Z" fill="white" stroke="#FBD072" stroke-width="2.5"/>
<path fill-rule="evenodd" clip-rule="evenodd" d="M76 76.1816V80.9248V76.1816ZM76 52.1816V70.5V52.1816Z" stroke="#FBD072" stroke-width="2.5" stroke-linecap="round" stroke-linejoin="round"/>
<path fill-rule="evenodd" clip-rule="evenodd" d="M2.12793 102.5H9H2.12793ZM116.128 102.5H119H116.128ZM89 102.5H111.428H89ZM15 102.5H36.4541H15Z" stroke="#FBD072" stroke-opacity="0.52" stroke-width="2.5" stroke-linecap="round" stroke-linejoin="round"/>
<path d="M63 2C60.3333 6.21354 59 9.88021 59 13C59 18.5562 63.6538 21.0444 63.6538 27.063C63.6538 30.1177 62.1025 33.1507 59 36.1621" stroke="#FBD072" stroke-width="2.5" stroke-linecap="round"/>
<path d="M51.0001 13C50.1276 18.5127 54.0001 19.5322 54.0001 24.4746C54.0001 26.9831 53.0001 29.4915 51.0001 32" stroke="#FBD072" stroke-width="2.5" stroke-linecap="round"/>
<path d="M69.7952 10.4741C68.4742 13.8933 69.2164 15.9774 69.7952 17.2041C71.0326 19.8262 73.0001 22.0896 73.0001 24.7578C73.0001 27.8568 71.9318 30.8392 69.7952 33.7051" stroke="#FBD072" stroke-width="2.5" stroke-linecap="round"/>
</svg>
