<svg width="59" height="37" viewBox="0 0 59 37" fill="none" xmlns="http://www.w3.org/2000/svg">
<path fill-rule="evenodd" clip-rule="evenodd" d="M14.8223 35C9.74833 35 5.63507 31.1728 5.63507 26.4518C5.63507 21.7308 9.74833 17.9036 14.8223 17.9036C15.0381 17.9036 15.2521 17.9105 15.4641 17.9242C15.3168 17.1433 15.2399 16.3393 15.2399 15.5181C15.2399 8.05225 21.5967 2 29.4383 2C35.6986 2 41.0126 5.85741 42.9012 11.212C43.3487 11.1674 43.8031 11.1446 44.2631 11.1446C51.2975 11.1446 57 16.4848 57 23.0723C57 29.3306 51.8532 34.494 45.3071 34.9913V35H21.716H14.8223ZM19.8318 35H16.9234H19.8318Z" fill="white"/>
<path d="M19.8318 35H16.9234M14.8223 35C9.74833 35 5.63507 31.1728 5.63507 26.4518C5.63507 21.7308 9.74833 17.9036 14.8223 17.9036C15.0381 17.9036 15.2521 17.9105 15.4641 17.9242C15.3168 17.1433 15.2399 16.3393 15.2399 15.5181C15.2399 8.05225 21.5967 2 29.4383 2C35.6986 2 41.0126 5.85741 42.9012 11.212C43.3487 11.1674 43.8031 11.1446 44.2631 11.1446C51.2975 11.1446 57 16.4848 57 23.0723C57 29.3306 51.8532 34.494 45.3071 34.9913V35H21.716H14.8223Z" stroke="#FBD072" stroke-width="2.5" stroke-linecap="round"/>
<path d="M33.6143 6.77112C36.3324 7.456 38.4786 9.47984 39.2269 12.0564" stroke="#FBD072" stroke-width="2.5" stroke-linecap="round"/>
<path d="M21.5039 19.4939C21.5039 21.031 22.8127 22.2771 24.4271 22.2771C26.0416 22.2771 27.3503 21.031 27.3503 19.4939" stroke="#FBD072" stroke-width="2.5" stroke-linecap="round"/>
<path d="M33.6144 19.4939C33.6144 21.031 34.9232 22.2771 36.5376 22.2771C38.1521 22.2771 39.4608 21.031 39.4608 19.4939" stroke="#FBD072" stroke-width="2.5" stroke-linecap="round"/>
<path d="M27.3503 27.0482H33.4056" stroke="#FBD072" stroke-width="2.5" stroke-linecap="round"/>
<path d="M0.29399 3.30884H5.28265V4.1398L1.46077 8.60951H5.37452V9.55419H0V8.66199L3.82188 4.25351H0.29399V3.30884ZM7.25539 9.38561H10.8835V9.98995L8.10396 13.2406H10.9503V13.9277H7.04158V13.2788L9.82114 10.0726H7.25539V9.38561Z" fill="#FBD072"/>
</svg>
