<svg width="42" height="49" viewBox="0 0 42 49" fill="none" xmlns="http://www.w3.org/2000/svg">
<path fill-rule="evenodd" clip-rule="evenodd" d="M31.5553 7.76433L35.7447 38.4363L36.1211 41.5135C36.2424 42.5048 35.5401 43.4071 34.5526 43.5288L8.17799 46.7796C7.19045 46.9013 6.29159 46.1964 6.17033 45.2051L2.10978 12.0081C2.04915 11.5125 2.40028 11.0613 2.89405 11.0005C2.89717 11.0001 2.90029 10.9997 2.90342 10.9994L5.09155 10.753L31.5553 7.76433ZM6.86089 10.5537L8.92682 10.3211L6.86089 10.5537Z" fill="white"/>
<path d="M6.86089 10.5537L8.92682 10.3211M31.5553 7.76433L35.7447 38.4363L36.1211 41.5135C36.2424 42.5048 35.5401 43.4071 34.5526 43.5288L8.17799 46.7796C7.19045 46.9013 6.29159 46.1964 6.17033 45.2051L2.10978 12.0081C2.04915 11.5125 2.40028 11.0613 2.89405 11.0005C2.89717 11.0001 2.90029 10.9997 2.90342 10.9994L5.09155 10.753L31.5553 7.76433Z" stroke="#FBD072" stroke-width="2.5" stroke-linecap="round"/>
<path fill-rule="evenodd" clip-rule="evenodd" d="M30.415 9.69448L34.207 37.4916L34.5481 40.2803C34.658 41.1786 34.0302 41.9953 33.1458 42.1043L9.52679 45.0154C8.64242 45.1244 7.83642 44.4845 7.72653 43.5861L4.0559 13.577C3.99527 13.0813 4.3464 12.6302 4.84017 12.5693L7.76209 12.2092" fill="#FBD072" fill-opacity="0.5"/>
<path fill-rule="evenodd" clip-rule="evenodd" d="M12.1888 2C11.5048 2 10.9503 2.55664 10.9503 3.24329V37.6032C10.9503 38.2899 11.5048 38.8465 12.1888 38.8465H38.7615C39.4455 38.8465 40 38.2899 40 37.6032V9.31728C40 8.9874 39.8694 8.67105 39.637 8.43787L33.5824 2.36388C33.3501 2.13088 33.0352 2 32.7068 2H12.1888Z" fill="white" stroke="#FBD072" stroke-width="2.5"/>
<path d="M32.9064 2.52118V7.76431C32.9064 8.51338 33.5114 9.12063 34.2576 9.12063H37.8308" stroke="#FBD072" stroke-width="2.5" stroke-linecap="round" stroke-linejoin="round"/>
<path fill-rule="evenodd" clip-rule="evenodd" d="M15.7919 9.12067H27.5018H15.7919ZM15.7919 14.5459H35.1584H15.7919ZM15.7919 20.4233H35.1584H15.7919ZM15.7919 26.3006H35.1584H15.7919ZM15.7919 32.178H27.5018H15.7919Z" stroke="#FBD072" stroke-opacity="0.5" stroke-width="2.5" stroke-linecap="round" stroke-linejoin="round"/>
</svg>
