<svg width="112" height="136" viewBox="0 0 112 136" fill="none" xmlns="http://www.w3.org/2000/svg">
<path fill-rule="evenodd" clip-rule="evenodd" d="M86.0668 18.9771L98.1249 109.313L99.2082 118.376C99.5572 121.295 97.5359 123.953 94.6935 124.311L18.7816 133.885C15.9393 134.244 13.3521 132.168 13.0031 129.248L1.31596 31.476C1.14146 30.0162 2.1521 28.6875 3.57329 28.5082C3.58226 28.5071 3.59125 28.506 3.60024 28.505L9.89816 27.7793L86.0668 18.9771ZM14.9907 27.1925L20.9369 26.5074L14.9907 27.1925Z" fill="white"/>
<path d="M14.9907 27.1925L20.9369 26.5074M86.0668 18.9771L98.1249 109.313L99.2082 118.376C99.5572 121.295 97.5359 123.953 94.6935 124.311L18.7816 133.885C15.9393 134.244 13.3521 132.168 13.0031 129.248L1.31596 31.476C1.14146 30.0162 2.1521 28.6875 3.57329 28.5082C3.58226 28.5071 3.59125 28.506 3.60024 28.505L9.89816 27.7793L86.0668 18.9771Z" stroke="#FBD072" stroke-width="2.5" stroke-linecap="round"/>
<path fill-rule="evenodd" clip-rule="evenodd" d="M82.7847 24.6619L93.699 106.53L94.6808 114.743C94.9971 117.389 93.19 119.794 90.6446 120.116L22.6638 128.689C20.1184 129.01 17.7985 127.126 17.4823 124.48L6.91735 36.0966C6.74285 34.6368 7.75349 33.3081 9.17468 33.1288L17.5846 32.0681" fill="#FBD072" fill-opacity="0.5"/>
<path fill-rule="evenodd" clip-rule="evenodd" d="M30.3257 2C28.3569 2 26.7608 3.63942 26.7608 5.66174V106.859C26.7608 108.881 28.3569 110.521 30.3257 110.521H106.808C108.776 110.521 110.372 108.881 110.372 106.859V23.5509C110.372 22.5794 109.997 21.6477 109.328 20.9609L91.9011 3.0717C91.2326 2.38548 90.3262 2 89.3811 2H30.3257Z" fill="white" stroke="#FBD072" stroke-width="2.5"/>
<path d="M89.9557 3.53503V18.9772C89.9557 21.1833 91.6968 22.9718 93.8446 22.9718H104.129" stroke="#FBD072" stroke-width="2.5" stroke-linecap="round" stroke-linejoin="round"/>
<path fill-rule="evenodd" clip-rule="evenodd" d="M40.6961 22.9718H74.4H40.6961ZM40.6961 38.9503H96.4372H40.6961ZM40.6961 56.2604H96.4372H40.6961ZM40.6961 73.5705H96.4372H40.6961ZM40.6961 90.8805H74.4H40.6961Z" stroke="#FBD072" stroke-width="2.5" stroke-linecap="round" stroke-linejoin="round"/>
</svg>
