<svg width="137" height="127" viewBox="0 0 137 127" fill="none" xmlns="http://www.w3.org/2000/svg">
<path fill-rule="evenodd" clip-rule="evenodd" d="M115.559 98.6408C112.596 101.098 109.362 103.324 105.9 105.285L106.1 122.943C106.116 124.328 105.039 125.464 103.694 125.48C103.147 125.487 102.614 125.304 102.18 124.96L86.7623 112.745C80.983 114.114 74.887 114.847 68.588 114.847C31.6028 114.847 1.62036 89.5855 1.62036 58.4236C1.62036 27.2617 31.6028 2 68.588 2C105.573 2 135.556 27.2617 135.556 58.4236C135.556 67.0486 133.259 75.2215 129.152 82.532C128.395 83.8802 127.576 85.1992 126.699 86.4862L115.559 98.6408ZM123.615 90.5902C122.502 91.9389 121.321 93.2448 120.076 94.5042L123.615 90.5902Z" fill="white"/>
<path d="M123.615 90.5902C122.502 91.9389 121.321 93.2448 120.076 94.5042M115.559 98.6408C112.596 101.098 109.362 103.324 105.9 105.285L106.1 122.943C106.116 124.328 105.039 125.464 103.694 125.48C103.147 125.487 102.614 125.304 102.18 124.96L86.7623 112.745C80.983 114.114 74.887 114.847 68.588 114.847C31.6028 114.847 1.62036 89.5855 1.62036 58.4236C1.62036 27.2617 31.6028 2 68.588 2C105.573 2 135.556 27.2617 135.556 58.4236C135.556 67.0486 133.259 75.2215 129.152 82.532C128.395 83.8802 127.576 85.1992 126.699 86.4862L115.559 98.6408Z" stroke="#FBD072" stroke-width="2.5" stroke-linecap="round"/>
<path fill-rule="evenodd" clip-rule="evenodd" d="M44.2361 65.9467C40.2014 65.9467 36.9305 62.5785 36.9305 58.4235C36.9305 54.2686 40.2014 50.9004 44.2361 50.9004C48.2708 50.9004 51.5417 54.2686 51.5417 58.4235C51.5417 62.5785 48.2708 65.9467 44.2361 65.9467ZM67.3704 65.9467C63.3356 65.9467 60.0648 62.5785 60.0648 58.4235C60.0648 54.2686 63.3356 50.9004 67.3704 50.9004C71.4051 50.9004 74.6759 54.2686 74.6759 58.4235C74.6759 62.5785 71.4051 65.9467 67.3704 65.9467ZM90.5046 65.9467C86.4699 65.9467 83.1991 62.5785 83.1991 58.4235C83.1991 54.2686 86.4699 50.9004 90.5046 50.9004C94.5394 50.9004 97.8102 54.2686 97.8102 58.4235C97.8102 62.5785 94.5394 65.9467 90.5046 65.9467Z" fill="#FBD072" fill-opacity="0.35" stroke="#FBD072" stroke-width="2.5"/>
<path d="M19.4728 40.0059C18.3673 41.9267 17.4092 43.9201 16.6111 45.9755" stroke="#FBD072" stroke-width="2.5" stroke-linecap="round"/>
<path d="M41.8276 19.6459C33.849 23.5671 27.1131 29.1139 22.2454 35.7542" stroke="#FBD072" stroke-width="2.5" stroke-linecap="round"/>
</svg>
