<svg width="15" height="16" viewBox="0 0 15 16" fill="none" xmlns="http://www.w3.org/2000/svg">
<path d="M12.4385 10.6851C13.6548 11.9825 14.3736 13.6751 14.4848 15.5H14.312C14.07 11.7607 11.1347 8.75 7.5 8.75C3.86529 8.75 0.930034 11.7607 0.68801 15.5H0.515183C0.626394 13.6752 1.3452 11.9825 2.56147 10.6851C3.32677 9.86881 4.23389 9.2683 5.21945 8.90554L6.09253 8.58418L5.34276 8.03336C4.33545 7.29335 3.66406 6.04634 3.66406 4.625C3.66406 2.32004 5.41522 0.5 7.5 0.5C9.58478 0.5 11.3359 2.32004 11.3359 4.625C11.3359 6.04634 10.6645 7.29335 9.65726 8.03337L8.90751 8.58418L9.78058 8.90554C10.7661 9.2683 11.6732 9.8688 12.4385 10.6851ZM12.4385 10.6851L12.8033 10.3431L12.4385 10.6851ZM3.83594 4.625C3.83594 6.73126 5.4493 8.5 7.5 8.5C9.5507 8.5 11.1641 6.73126 11.1641 4.625C11.1641 2.51874 9.5507 0.75 7.5 0.75C5.4493 0.75 3.83594 2.51874 3.83594 4.625Z" fill="#D6A763" stroke="#D6A763"/>
</svg>
