<svg width="25" height="26" viewBox="0 0 25 26" fill="none" xmlns="http://www.w3.org/2000/svg">
<path d="M25 12.8249C25.0015 10.7457 24.4843 8.69893 23.4953 6.87005C22.5062 5.04116 21.0766 3.48803 19.3358 2.351C17.5951 1.21398 15.5982 0.528983 13.526 0.358328C11.4538 0.187672 9.37184 0.53679 7.46853 1.37371C5.56522 2.21063 3.90068 3.50911 2.62575 5.15154C1.35083 6.79397 0.505746 8.7283 0.167013 10.7797C-0.171721 12.8311 0.00657099 14.9347 0.685811 16.8998C1.36505 18.8649 2.5238 20.6295 4.05703 22.0339L4.04604 22.0449L4.44607 22.3869C4.47207 22.4089 4.50097 22.4259 4.52797 22.4489C4.74297 22.6259 4.96699 22.7949 5.19399 22.9589C5.26699 23.0129 5.34004 23.0658 5.41604 23.1188C5.66004 23.2848 5.90798 23.4449 6.16298 23.5939C6.21898 23.6279 6.27498 23.658 6.32998 23.694C6.60798 23.851 6.89398 24.0019 7.18398 24.1369C7.20698 24.1489 7.22704 24.1569 7.24904 24.1689C8.21238 24.6137 9.22806 24.935 10.272 25.1249L10.356 25.1388C10.684 25.1962 11.0173 25.2406 11.356 25.2719C11.396 25.2719 11.438 25.2779 11.478 25.2829C11.813 25.3099 12.153 25.3268 12.497 25.3268C12.841 25.3268 13.173 25.3099 13.506 25.2829C13.549 25.2779 13.5911 25.2759 13.6331 25.2739C13.9681 25.2429 14.2971 25.198 14.6231 25.143C14.6521 25.143 14.681 25.1319 14.71 25.1269C15.7383 24.9434 16.7391 24.6297 17.688 24.193L17.788 24.1469C18.07 24.0139 18.3431 23.8719 18.6121 23.7199C18.6781 23.6819 18.745 23.6449 18.812 23.6049C19.056 23.4609 19.298 23.3118 19.531 23.1498C19.615 23.0938 19.6971 23.0319 19.7791 22.9719C19.9791 22.8299 20.179 22.6818 20.365 22.5258C20.407 22.4928 20.454 22.462 20.496 22.426L20.911 22.0778L20.898 22.0668C22.1885 20.898 23.2197 19.4717 23.9251 17.8798C24.6304 16.288 24.9942 14.566 24.9931 12.8249H25ZM0.910055 12.8249C0.908257 10.8888 1.39152 8.9832 2.31569 7.28191C3.23987 5.58062 4.57542 4.13793 6.20058 3.08562C7.82574 2.03331 9.68866 1.40489 11.6192 1.25774C13.5497 1.1106 15.4862 1.44925 17.2521 2.24309C19.018 3.03693 20.5569 4.26061 21.7283 5.80218C22.8996 7.34374 23.6661 9.15428 23.9578 11.0683C24.2494 12.9823 24.057 14.9387 23.398 16.7592C22.7389 18.5797 21.6344 20.2061 20.1851 21.4899C20.0563 21.3982 19.9205 21.3167 19.7791 21.246L15.9311 19.322C15.7628 19.238 15.6212 19.1087 15.5225 18.9487C15.4237 18.7886 15.3715 18.604 15.372 18.4159V17.071C15.461 16.962 15.556 16.8379 15.651 16.6999C16.1565 15.9845 16.5571 15.2007 16.841 14.372C17.1255 14.2384 17.366 14.0262 17.534 13.7604C17.7019 13.4947 17.7904 13.1864 17.789 12.872V11.2609C17.7878 10.8658 17.6461 10.4841 17.3891 10.184V8.06292C17.4663 7.09599 17.1582 6.13769 16.532 5.3969C15.3954 4.46526 13.9711 3.95623 12.5015 3.95623C11.0318 3.95623 9.60758 4.46526 8.47097 5.3969C7.84513 6.1379 7.5372 7.09604 7.61403 8.06292V10.184C7.35691 10.484 7.21508 10.8658 7.21401 11.2609V12.872C7.21368 13.1176 7.26814 13.36 7.37331 13.582C7.47848 13.8039 7.63175 13.9997 7.82204 14.155C8.10085 15.2029 8.5785 16.1873 9.22902 17.0549V18.371C9.22882 18.5531 9.1797 18.7315 9.08681 18.8881C8.99393 19.0447 8.86074 19.1735 8.70107 19.2609L5.10097 21.2209C4.98266 21.286 4.86881 21.3589 4.76003 21.4389C3.54787 20.3536 2.57828 19.0248 1.91469 17.5392C1.25111 16.0537 0.908503 14.4451 0.909078 12.818L0.910055 12.8249ZM19.3001 22.2018C19.1411 22.3178 18.978 22.431 18.814 22.538C18.738 22.586 18.663 22.638 18.588 22.684C18.373 22.817 18.1551 22.9419 17.9311 23.0619C17.8821 23.0859 17.8311 23.1099 17.7841 23.1369C17.2726 23.3988 16.7424 23.6227 16.198 23.8068L16.14 23.8268C15.855 23.9268 15.5671 24.0048 15.2741 24.0778C14.9741 24.1508 14.681 24.2109 14.382 24.2619C14.3734 24.2618 14.365 24.2637 14.3571 24.267C14.0761 24.311 13.789 24.3439 13.505 24.3669L13.3521 24.3779C13.0701 24.3979 12.786 24.4108 12.502 24.4108C12.218 24.4108 11.927 24.3979 11.64 24.3759C11.592 24.3759 11.54 24.3689 11.492 24.3639C11.204 24.3399 10.9171 24.3048 10.6331 24.2638L10.596 24.258C9.99552 24.1562 9.40388 24.0083 8.82607 23.8158L8.77297 23.7958C8.48697 23.7008 8.20502 23.5959 7.92702 23.4719H7.92104C7.65904 23.3589 7.40102 23.235 7.14602 23.102C7.11302 23.084 7.08004 23.069 7.04604 23.051C6.81304 22.927 6.58706 22.7928 6.36306 22.6508C6.29606 22.6088 6.22998 22.5669 6.16298 22.5219C5.95698 22.3889 5.75307 22.2468 5.55507 22.0978L5.49502 22.051L5.53701 22.027L9.13698 20.0668C9.43991 19.901 9.6926 19.6567 9.86855 19.3595C10.0445 19.0624 10.1372 18.7232 10.137 18.3779V16.7409L10.037 16.6139C9.3901 15.7773 8.92517 14.8148 8.67202 13.788L8.63308 13.6088L8.47707 13.509C8.37035 13.4412 8.28237 13.3478 8.22121 13.2372C8.16005 13.1266 8.12758 13.0023 8.12697 12.8759V11.2648C8.12763 11.1595 8.15046 11.0556 8.19387 10.9596C8.23728 10.8637 8.30038 10.778 8.37905 10.7079L8.53103 10.572V8.04192L8.52602 7.98284C8.46937 7.26413 8.69744 6.55204 9.16103 5.99993C10.1217 5.26906 11.2951 4.87271 12.5022 4.87127C13.7093 4.86982 14.8836 5.2633 15.846 5.99187C16.3111 6.5467 16.5421 7.26072 16.49 7.98284L16.485 10.5749L16.636 10.7099C16.7149 10.7793 16.7783 10.8647 16.8219 10.9604C16.8655 11.056 16.8884 11.1597 16.8891 11.2648V12.8759C16.8867 13.0368 16.8334 13.1929 16.737 13.3217C16.6405 13.4505 16.5058 13.5454 16.3521 13.5929L16.125 13.662L16.052 13.8879C15.7926 14.7035 15.4101 15.4748 14.918 16.175C14.798 16.343 14.683 16.4919 14.583 16.6069L14.4721 16.7338V18.4159C14.4707 18.7731 14.5693 19.1234 14.7569 19.4274C14.9444 19.7314 15.2132 19.9768 15.533 20.1359L19.382 22.06C19.406 22.071 19.431 22.0848 19.455 22.0978C19.406 22.1338 19.355 22.1669 19.308 22.1979L19.3001 22.2018Z" fill="white"/>
</svg>
