<svg width="21" height="21" viewBox="0 0 21 21" fill="none" xmlns="http://www.w3.org/2000/svg">
<path d="M13.843 10.6353L13.6881 10.7463L13.8674 10.8107C15.2339 11.3014 16.4869 12.1121 17.5401 13.208C19.3435 15.0849 20.3473 17.5728 20.3719 20.2245H19.046C18.9943 15.491 15.2771 11.6502 10.7069 11.6502C6.13673 11.6502 2.41951 15.491 2.36781 20.2245H1.04187C1.0665 17.5728 2.07025 15.0849 3.87377 13.208C4.92694 12.1121 6.1799 11.3014 7.54638 10.8107L7.72572 10.7463L7.57084 10.6353C6.11724 9.59348 5.16122 7.84902 5.16122 5.87515C5.16122 2.6871 7.65282 0.100122 10.7069 0.100122C13.761 0.100122 16.2526 2.6871 16.2526 5.87515C16.2526 7.84902 15.2965 9.59348 13.843 10.6353ZM6.48708 5.87515C6.48708 8.29057 8.37629 10.2623 10.7069 10.2623C13.0375 10.2623 14.9267 8.29057 14.9267 5.87515C14.9267 3.45973 13.0375 1.48797 10.7069 1.48797C8.37629 1.48797 6.48708 3.45973 6.48708 5.87515Z" fill="#D6A763" stroke="white" stroke-width="0.2"/>
</svg>
