<svg width="290" height="337" viewBox="0 0 290 337" fill="none" xmlns="http://www.w3.org/2000/svg">
<path d="M64.3263 295.922H39.0249C29.5948 295.922 21.9229 287.007 21.9229 276.048V246.646C21.9229 243.92 20.0209 241.71 17.6748 241.71C15.3287 241.71 13.4268 243.92 13.4268 246.646V276.048C13.4268 292.451 24.9101 305.795 39.0249 305.795H64.3263C66.6723 305.795 68.5743 303.585 68.5743 300.859C68.5743 298.132 66.6723 295.922 64.3263 295.922Z" fill="#DCE5E5"/>
<path d="M250.975 0H225.674C223.328 0 221.426 2.21025 221.426 4.93652C221.426 7.6628 223.328 9.87305 225.674 9.87305H250.975C260.405 9.87305 268.077 18.7884 268.077 29.7468V59.1494C268.077 61.8757 269.979 64.0859 272.325 64.0859C274.671 64.0859 276.573 61.8757 276.573 59.1494V29.7468C276.573 13.3444 265.09 0 250.975 0V0Z" fill="#DCE5E5"/>
<path d="M64.3263 0H39.0249C24.9101 0 13.4268 13.3444 13.4268 29.7468V59.1494C13.4268 61.8757 15.3287 64.0859 17.6748 64.0859C20.0209 64.0859 21.9229 61.8757 21.9229 59.1494V29.7468C21.9229 18.7884 29.5948 9.87305 39.0249 9.87305H64.3263C66.6723 9.87305 68.5743 7.6628 68.5743 4.93652C68.5743 2.21025 66.6723 0 64.3263 0V0Z" fill="#DCE5E5"/>
<path d="M272.325 241.709C269.979 241.709 268.077 243.919 268.077 246.646V276.048C268.077 287.006 260.405 295.921 250.975 295.921H225.674C223.328 295.921 221.426 298.132 221.426 300.858C221.426 303.584 223.328 305.794 225.674 305.794H250.975C265.09 305.794 276.573 292.45 276.573 276.048V246.646C276.573 243.919 274.672 241.709 272.325 241.709Z" fill="#DCE5E5"/>
<path d="M209.736 203.454C209.735 203.453 209.734 203.452 209.733 203.452C206.103 200.956 203.183 199.772 202.491 199.508L181.43 190.204L166.582 179.817C166.439 179.717 166.29 179.633 166.139 179.556V172.826C177.351 166.892 185.474 155.354 187.227 141.693C196.267 140.917 203.401 132.875 203.401 123.096C203.401 118.257 201.654 113.842 198.796 110.523V86.6391C198.797 56.5104 175.675 32 147.255 32H143.266C114.848 32 91.728 56.5104 91.728 86.6377V110.255C88.7291 113.603 86.8828 118.123 86.8828 123.094C86.8828 132.874 94.0166 140.915 103.057 141.691C104.81 155.353 112.933 166.891 124.146 172.825V179.119L108.668 189.945C108.459 189.995 108.25 190.06 108.044 190.151L86.8678 199.506C85.8088 199.908 79.5857 202.443 73.4071 208.629C67.2908 214.752 60 225.768 60 243.484V275.075C60 277.241 61.6556 278.998 63.6993 278.998H107.398C109.441 278.998 111.097 277.243 111.097 275.076C111.097 272.91 109.442 271.154 107.398 271.154H96.0021V242.047C96.0021 239.881 94.3466 238.126 92.3028 238.126C90.2591 238.126 88.6035 239.881 88.6035 242.047V271.154H67.3991V243.485C67.3991 215.233 88.4883 207.209 89.373 206.886C89.4558 206.856 89.5373 206.824 89.6179 206.789L107.258 198.996L126.326 271.155H118.975C116.932 271.155 115.276 272.91 115.276 275.076C115.276 277.243 116.932 278.998 118.975 278.998H131.19C131.194 278.998 131.197 278.999 131.202 278.999C131.207 278.999 131.212 278.998 131.216 278.998H159.082H159.092H159.133C159.138 278.998 159.143 278.999 159.147 278.999C159.151 278.999 159.155 278.998 159.159 278.998H225.658C227.702 278.998 229.358 277.234 229.358 275.069V243.484C229.357 220.403 217.065 208.497 209.736 203.454ZM175.457 195.421L164.314 219.699L150.492 208.915L165.105 192.836C165.916 191.943 166.246 190.749 166.106 189.609C166.126 189.445 166.14 189.279 166.14 189.11V188.905L175.457 195.421ZM152.981 220.594L150.074 228.8H140.111V228.8L136.84 220.524L144.866 214.263L152.981 220.594ZM131.489 189.768C131.523 189.554 131.545 189.335 131.545 189.109V181.271C131.545 181.269 131.545 181.267 131.545 181.265V175.782C134.678 176.655 137.964 177.123 141.352 177.123H148.936C152.324 177.123 155.609 176.655 158.742 175.783V188.532L144.97 203.687L131.489 189.768ZM196.004 123.095C196.003 128.411 192.365 132.834 187.592 133.737V112.451C192.365 113.354 196.004 117.778 196.004 123.095ZM102.693 133.737C97.9198 132.834 94.2815 128.411 94.2815 123.095C94.2815 117.778 97.9194 113.354 102.693 112.45V133.737ZM106.407 100.659C106.402 100.659 106.396 100.659 106.391 100.659C106.264 100.659 106.138 100.666 106.014 100.68C105.975 100.684 105.937 100.693 105.898 100.698C105.814 100.71 105.729 100.721 105.647 100.739C105.594 100.751 105.543 100.768 105.491 100.782C105.425 100.8 105.358 100.814 105.293 100.836C105.233 100.856 105.175 100.881 105.116 100.904C105.062 100.925 105.007 100.943 104.954 100.967C104.887 100.997 104.822 101.033 104.756 101.067C104.715 101.089 104.672 101.108 104.631 101.131C104.567 101.168 104.507 101.21 104.445 101.25C104.405 101.276 104.364 101.299 104.326 101.327C104.267 101.369 104.213 101.416 104.156 101.461C104.118 101.491 104.078 101.519 104.041 101.552C103.99 101.596 103.944 101.644 103.895 101.691C103.856 101.729 103.815 101.765 103.778 101.804C103.733 101.851 103.693 101.902 103.651 101.952C103.614 101.996 103.575 102.037 103.54 102.082C103.5 102.132 103.466 102.185 103.429 102.237C103.395 102.286 103.358 102.333 103.326 102.384C103.294 102.434 103.266 102.488 103.236 102.539C103.204 102.595 103.17 102.649 103.14 102.707C103.114 102.758 103.092 102.812 103.068 102.864C103.04 102.926 103.009 102.986 102.984 103.049C102.963 103.1 102.948 103.154 102.93 103.206C102.906 103.274 102.881 103.34 102.86 103.409C102.844 103.461 102.833 103.517 102.82 103.571C102.802 103.641 102.782 103.712 102.768 103.783C102.756 103.84 102.751 103.9 102.742 103.957C102.731 104.028 102.719 104.099 102.711 104.171C102.705 104.232 102.705 104.294 102.702 104.356C102.699 104.412 102.694 104.467 102.693 104.524C101.461 104.657 100.269 104.927 99.1244 105.316V86.6372C99.1244 60.8358 118.925 39.8437 143.264 39.8437H147.254C171.594 39.8437 191.396 60.8358 191.396 86.6386V105.404C190.179 104.969 188.906 104.668 187.588 104.525C187.588 104.509 187.586 104.493 187.585 104.477C187.583 104.39 187.58 104.304 187.573 104.219C187.568 104.167 187.561 104.117 187.554 104.065C187.545 103.99 187.536 103.916 187.522 103.841C187.511 103.779 187.497 103.718 187.482 103.657C187.469 103.596 187.455 103.536 187.439 103.476C187.42 103.407 187.397 103.339 187.374 103.271C187.357 103.221 187.341 103.171 187.323 103.122C187.295 103.051 187.265 102.981 187.234 102.911C187.214 102.867 187.195 102.823 187.174 102.78C187.141 102.712 187.105 102.647 187.068 102.581C187.044 102.537 187.02 102.493 186.994 102.451C186.957 102.391 186.918 102.333 186.878 102.275C186.847 102.23 186.815 102.184 186.783 102.14C186.744 102.089 186.704 102.04 186.664 101.991C186.624 101.943 186.585 101.897 186.544 101.851C186.505 101.809 186.465 101.769 186.425 101.729C186.378 101.681 186.331 101.635 186.282 101.591C186.241 101.555 186.2 101.52 186.158 101.486C186.105 101.443 186.053 101.4 185.999 101.36C185.954 101.327 185.907 101.296 185.86 101.265C185.807 101.229 185.754 101.194 185.698 101.16C185.644 101.128 185.587 101.099 185.532 101.069C185.481 101.043 185.432 101.016 185.38 100.992C185.314 100.961 185.245 100.934 185.176 100.907C185.131 100.889 185.088 100.871 185.043 100.855C184.966 100.829 184.888 100.807 184.81 100.786C184.777 100.777 184.745 100.764 184.711 100.756C170.234 97.2654 165.866 77.9343 165.825 77.7471C165.504 76.2444 164.382 75.0798 162.958 74.7715C161.534 74.4613 160.072 75.0658 159.219 76.3153C142.766 100.427 106.995 100.659 106.41 100.659C106.41 100.659 106.408 100.659 106.407 100.659ZM110.092 136.143V108.366C119.55 107.75 144.679 104.413 160.843 86.477C163.631 93.4306 169.405 103.585 180.193 107.53V136.143C180.193 154.415 166.171 169.28 148.936 169.28H141.352C124.115 169.28 110.092 154.415 110.092 136.143ZM124.146 188.516V189.11C124.146 189.525 124.209 189.925 124.321 190.3C123.915 191.668 124.229 193.222 125.264 194.291L139.347 208.832L125.417 219.7L114.275 195.422L124.146 188.516ZM130.23 256.854L122.975 229.399C123.033 229.417 123.089 229.44 123.148 229.455C123.441 229.531 123.737 229.569 124.034 229.569C124.815 229.569 125.585 229.306 126.226 228.805L130.71 225.308L133.83 233.204L130.23 256.854ZM135.548 271.156L140.8 236.643H149.486L154.738 271.156H135.548ZM156.445 233.126L159.172 225.425L163.506 228.806C164.147 229.307 164.917 229.569 165.698 229.569C165.994 229.569 166.291 229.531 166.584 229.455C166.891 229.375 167.182 229.25 167.455 229.093L160.079 257.005L156.445 233.126ZM221.959 271.156H200.753V242.049C200.753 239.883 199.097 238.127 197.054 238.127C195.01 238.127 193.354 239.882 193.354 242.049V271.156H164.023L182.986 199.388L199.74 206.789C199.812 206.821 199.898 206.856 199.972 206.882C199.997 206.892 202.47 207.806 205.706 210.032C205.706 210.032 205.707 210.032 205.707 210.032C213.122 215.135 221.959 225.08 221.959 243.486V271.156Z" fill="#DCE5E5"/>
<path d="M149.47 139.726C151.513 139.726 153.169 137.971 153.169 135.805C153.169 133.639 151.513 131.883 149.47 131.883H146.739V122.802C146.739 120.637 145.084 118.881 143.04 118.881C140.997 118.881 139.341 120.637 139.341 122.802V135.805C139.341 137.971 140.996 139.726 143.04 139.726H149.47Z" fill="#DCE5E5"/>
<path d="M254.667 168H203.333C202.714 168 202.121 168.25 201.683 168.696C201.246 169.141 201 169.745 201 170.375V203.625C201 204.255 201.246 204.859 201.683 205.304C202.121 205.75 202.714 206 203.333 206H254.667C255.286 206 255.879 205.75 256.317 205.304C256.754 204.859 257 204.255 257 203.625V170.375C257 169.745 256.754 169.141 256.317 168.696C255.879 168.25 255.286 168 254.667 168ZM229 184.625H233.667V189.375H229V184.625ZM217.333 172.75C218.718 172.75 220.071 173.168 221.222 173.951C222.373 174.734 223.271 175.846 223.8 177.148C224.33 178.45 224.469 179.883 224.199 181.265C223.929 182.647 223.262 183.917 222.283 184.913C221.304 185.91 220.057 186.588 218.699 186.863C217.341 187.138 215.934 186.997 214.655 186.458C213.375 185.918 212.282 185.005 211.513 183.833C210.744 182.662 210.333 181.284 210.333 179.875C210.335 177.986 211.074 176.175 212.386 174.839C213.698 173.503 215.477 172.752 217.333 172.75ZM226.667 203.625H208V194.125C208 192.865 208.492 191.657 209.367 190.766C210.242 189.875 211.429 189.375 212.667 189.375H222C223.238 189.375 224.425 189.875 225.3 190.766C226.175 191.657 226.667 192.865 226.667 194.125V203.625ZM240.667 196.5H229V191.75H240.667V196.5ZM250 189.375H238.333V184.625H250V189.375ZM250 182.25H229V177.5H250V182.25Z" fill="#DCE5E5"/>
</svg>
