<svg width="15" height="16" viewBox="0 0 15 16" fill="none" xmlns="http://www.w3.org/2000/svg">
<path d="M14.6683 14.0765L13.6431 11H12.5181L13.1428 14H2.14334L2.76809 11H1.64309L0.617093 14.0765C0.356843 14.8595 0.818093 15.5 1.64309 15.5H13.6431C14.4681 15.5 14.9293 14.8595 14.6683 14.0765ZM11.3931 4.25C11.3931 3.25544 10.998 2.30161 10.2947 1.59835C9.59148 0.895088 8.63765 0.5 7.64309 0.5C6.64853 0.5 5.6947 0.895088 4.99144 1.59835C4.28818 2.30161 3.89309 3.25544 3.89309 4.25C3.89309 7.83125 7.64309 11.75 7.64309 11.75C7.64309 11.75 11.3931 7.83125 11.3931 4.25ZM5.61809 4.295C5.61809 3.17675 6.52409 2.27075 7.64309 2.27075C8.18006 2.27075 8.69503 2.48406 9.07472 2.86375C9.45441 3.24344 9.66772 3.75841 9.66772 4.29538C9.66772 4.83234 9.45441 5.34731 9.07472 5.727C8.69503 6.10669 8.18006 6.32 7.64309 6.32C7.10603 6.32 6.59096 6.10665 6.2112 5.72689C5.83144 5.34713 5.61809 4.83206 5.61809 4.295Z" fill="#FBD072"/>
</svg>
