<svg width="24" height="23" viewBox="0 0 24 23" fill="none" xmlns="http://www.w3.org/2000/svg">
<path d="M23.6867 0.299674C23.6855 0.298596 23.6843 0.297652 23.6831 0.296574C23.4846 0.108037 23.2111 0 22.9318 0H22.9304C22.6891 0 22.4528 0.0795117 22.2653 0.223666C19.713 2.17732 17.1513 4.19386 14.651 6.21714C14.043 6.70908 13.4346 7.20489 12.8266 7.70343L5.88548 1.05158C5.20007 0.394818 4.08491 0.394908 3.39955 1.05158L0.102973 4.21084C-0.0343242 4.34246 -0.0343242 4.55575 0.102973 4.68733C0.24027 4.81886 0.462879 4.81886 0.600129 4.68733L2.9024 2.48104L3.40551 2.96318L1.10329 5.16947C0.965989 5.3011 0.965989 5.51438 1.10329 5.64596C1.17191 5.71173 1.26191 5.74461 1.35186 5.74461C1.44182 5.74461 1.53182 5.71173 1.60044 5.64596L3.90271 3.43967L4.40582 3.92181L2.10355 6.12811C1.96626 6.25973 1.96626 6.47302 2.10355 6.60459C2.17218 6.67036 2.26218 6.70324 2.35213 6.70324C2.44208 6.70324 2.53208 6.67036 2.60071 6.60459L4.90298 4.39826L5.40609 4.8804L3.10387 7.0867C2.96657 7.21832 2.96657 7.43161 3.10387 7.56318C3.17249 7.62895 3.26249 7.66183 3.35244 7.66183C3.4424 7.66183 3.5324 7.62895 3.60102 7.56318L5.90324 5.35689L6.40635 5.83904L4.10413 8.04533C3.96683 8.17695 3.96683 8.39024 4.10413 8.52181C4.17276 8.58758 4.26276 8.62046 4.35271 8.62046C4.44266 8.62046 4.53266 8.58758 4.60129 8.52181L6.90351 6.31552L7.40662 6.79767L5.1044 9.00396C4.9671 9.13558 4.9671 9.34887 5.1044 9.48045C5.17302 9.54621 5.26302 9.5791 5.35298 9.5791C5.44293 9.5791 5.53293 9.54621 5.60155 9.48045L7.90377 7.27415L8.40688 7.7563L6.10466 9.96259C5.96737 10.0942 5.96737 10.3075 6.10466 10.4391C6.17329 10.5048 6.26329 10.5377 6.35324 10.5377C6.4432 10.5377 6.5332 10.5048 6.60182 10.4391L8.90404 8.23279L9.4072 8.71498L7.10498 10.9213C6.96768 11.0529 6.96768 11.2662 7.10498 11.3978C7.1736 11.4635 7.2636 11.4964 7.35356 11.4964C7.44351 11.4964 7.53351 11.4635 7.60213 11.3978L9.9044 9.19142L10.4252 9.69055C9.34574 10.5915 8.27184 11.4977 7.21002 12.4051C7.20956 12.4051 7.20956 12.4051 7.20956 12.4056C6.89413 12.6744 6.55007 12.9841 6.21065 13.2775C6.00271 13.4216 6.04232 13.675 6.14549 13.7739C6.14549 13.7739 6.14549 13.7743 6.14596 13.7743C6.4844 14.167 6.67143 14.6683 6.67143 15.1866C6.67143 15.7926 6.42815 16.3596 5.98616 16.7827C5.98171 16.787 4.93044 17.7945 4.92585 17.7989C3.39702 19.2981 0.704661 18.275 0.703114 16.1517C0.704051 14.8625 1.79047 13.7978 3.16307 13.7969C3.91068 13.7973 4.60865 14.1163 5.07787 14.671C5.20513 14.8213 5.4388 14.8376 5.58693 14.7088C5.5888 14.7074 5.59021 14.7061 5.59209 14.7043L5.59537 14.7015C5.76004 14.5597 5.74841 14.304 5.56443 14.1777C4.96349 13.5075 4.08927 13.123 3.16541 13.123H3.16072C1.403 13.123 -0.00202735 14.4947 3.51515e-05 16.1517C-0.00151172 17.4002 0.794661 18.5031 1.97249 18.9615C2.67186 19.2329 3.43799 19.2516 4.13005 19.039C3.47043 21.0055 5.00563 23 7.13938 23H7.14313C8.8867 23 10.3077 21.6473 10.3057 19.9696C10.3067 19.1722 9.98606 18.4198 9.40434 17.8501C9.40467 17.8498 10.1222 17.0681 10.1222 17.0681C11.3887 15.7174 12.6416 14.3606 13.8792 13.0005L14.4089 13.5081L12.1067 15.7144C11.9694 15.846 11.9694 16.0593 12.1067 16.1909C12.1754 16.2566 12.2654 16.2895 12.3553 16.2895C12.4453 16.2895 12.5353 16.2566 12.6039 16.1909L14.9062 13.9846L15.4093 14.4667L13.107 16.673C12.9697 16.8046 12.9697 17.0179 13.107 17.1495C13.1757 17.2153 13.2657 17.2482 13.3557 17.2482C13.4456 17.2482 13.5356 17.2153 13.6043 17.1495L15.9065 14.9432L16.4096 15.4253L14.1074 17.6316C13.9701 17.7632 13.9701 17.9765 14.1074 18.1081C14.176 18.1739 14.266 18.2067 14.356 18.2067C14.4459 18.2067 14.5359 18.1739 14.6046 18.1081L16.9068 15.9018L17.4099 16.3839L15.1077 18.5902C14.9704 18.7219 14.9704 18.9352 15.1077 19.0667C15.1763 19.1325 15.2663 19.1654 15.3563 19.1654C15.4462 19.1654 15.5362 19.1325 15.6049 19.0667L17.9071 16.8604L18.4103 17.3425L16.108 19.5488C15.9707 19.6805 15.9707 19.8937 16.108 20.0253C16.1767 20.0911 16.2667 20.124 16.3567 20.124C16.4466 20.124 16.5366 20.0911 16.6053 20.0253L18.9075 17.819L19.4106 18.3011L17.1083 20.5074C16.971 20.639 16.971 20.8523 17.1083 20.9839C17.177 21.0497 17.267 21.0826 17.357 21.0826C17.4469 21.0826 17.5369 21.0497 17.6056 20.9839L19.9078 18.7776L20.4109 19.2597L18.1087 21.466C17.9714 21.5976 17.9714 21.8109 18.1087 21.9425C18.1773 22.0083 18.2673 22.0411 18.3573 22.0411C18.4472 22.0411 18.5372 22.0083 18.6059 21.9425L20.9081 19.7362L21.4112 20.2183L19.109 22.4246C18.9717 22.5562 18.9717 22.7695 19.109 22.9011C19.1776 22.9668 19.2676 22.9997 19.3576 22.9997C19.4475 22.9997 19.5375 22.9668 19.6062 22.9011L22.1567 20.4568C22.1568 20.4567 22.1569 20.4566 22.1571 20.4565C22.1572 20.4564 22.1573 20.4563 22.1574 20.4562L22.9028 19.7418C23.2348 19.4236 23.4177 19.0006 23.4177 18.5506C23.4177 18.1006 23.2348 17.6776 22.9028 17.3594L15.954 10.7006C18.6495 7.68717 21.2626 4.6646 23.7663 1.66166C24.1061 1.25417 24.0718 0.668662 23.6867 0.299674ZM3.3996 2.00455L3.89676 1.52811C4.30794 1.13405 4.97709 1.13405 5.38832 1.52811L12.2915 8.14371C11.8462 8.51036 11.4012 8.878 10.9571 9.24721L3.3996 2.00455ZM22.4055 17.8362C22.6047 18.0271 22.7145 18.2809 22.7145 18.5509C22.7145 18.8209 22.6047 19.0747 22.4055 19.2656L21.9083 19.742C21.676 19.5195 14.8408 12.9689 14.342 12.491C14.7277 12.0654 15.1122 11.6396 15.4948 11.2135L22.4055 17.8362ZM9.79481 16.4083C9.62442 16.2833 9.1701 16.0669 9.09454 15.4522C9.07345 15.2824 8.92392 15.1548 8.74626 15.1548C8.53387 15.1548 8.37201 15.3316 8.3961 15.5313C8.39657 15.5313 8.39657 15.5313 8.39657 15.5313C8.4636 16.0806 8.77485 16.5663 9.25017 16.8632C9.27501 16.8789 9.29985 16.8951 9.32563 16.913C9.08179 17.1797 8.88051 17.4041 8.6497 17.6484C8.58548 17.7167 8.55267 17.8087 8.56017 17.9004C8.5672 17.992 8.61454 18.0783 8.68907 18.1362C9.27909 18.5978 9.6021 19.2621 9.60267 19.9695C9.60168 21.2679 8.5102 22.3252 7.14177 22.3261C5.78924 22.3244 4.68088 21.2798 4.68088 19.9695C4.68248 18.9032 5.38621 18.3322 5.44026 18.2589L6.48323 17.2594C7.05782 16.7087 7.37474 15.9638 7.37474 15.1866C7.37521 14.6188 7.20552 14.0703 6.88495 13.6014C7.1602 13.3602 7.39959 13.1461 7.6776 12.9087L7.67901 12.9069C15.3015 6.39355 22.6144 0.794623 22.7518 0.719199C22.6576 0.809537 8.94079 13.9491 8.87751 14.0174C8.7486 14.1567 8.7622 14.3701 8.90704 14.4931C9.05264 14.6174 9.27562 14.6028 9.40345 14.4648C9.44549 14.4189 23.1486 1.29164 23.249 1.19537C23.2203 1.24384 17.5585 8.11644 9.79481 16.4083Z" fill="white"/>
</svg>
