<svg width="14" height="19" viewBox="0 0 14 19" fill="none" xmlns="http://www.w3.org/2000/svg">
<mask id="path-1-inside-1" fill="white">
<path d="M13.0169 16.7349L13.0013 1.2651C13.0006 0.5676 12.441 0.000564815 11.7541 0.00125889L1.24594 0.0118763C0.559007 0.0125704 0.000581432 0.580735 0.00128619 1.27823L0.0169169 16.748C0.0176217 17.4455 0.577194 18.0126 1.26413 18.0119L11.7723 18.0012C12.4592 18.0006 13.0176 17.4324 13.0169 16.7349ZM1.26352 17.4119C0.902179 17.4122 0.608196 17.1143 0.607826 16.7474L0.592195 1.27764C0.591824 0.910738 0.885204 0.612241 1.24654 0.611876L11.7547 0.601259C12.116 0.600893 12.41 0.898797 12.4104 1.2657L12.426 16.7355C12.4264 17.1024 12.133 17.4009 11.7716 17.4013L1.26352 17.4119Z"/>
</mask>
<path d="M13.0169 16.7349L13.0013 1.2651C13.0006 0.5676 12.441 0.000564815 11.7541 0.00125889L1.24594 0.0118763C0.559007 0.0125704 0.000581432 0.580735 0.00128619 1.27823L0.0169169 16.748C0.0176217 17.4455 0.577194 18.0126 1.26413 18.0119L11.7723 18.0012C12.4592 18.0006 13.0176 17.4324 13.0169 16.7349ZM1.26352 17.4119C0.902179 17.4122 0.608196 17.1143 0.607826 16.7474L0.592195 1.27764C0.591824 0.910738 0.885204 0.612241 1.24654 0.611876L11.7547 0.601259C12.116 0.600893 12.41 0.898797 12.4104 1.2657L12.426 16.7355C12.4264 17.1024 12.133 17.4009 11.7716 17.4013L1.26352 17.4119Z" fill="#D6A763"/>
<path d="M18.0169 16.7298L18.0013 1.26005L8.00128 1.27015L8.01691 16.7399L18.0169 16.7298ZM18.0013 1.26005C17.9979 -2.12663 15.2691 -5.0023 11.749 -4.99874L11.7591 5.00126C9.61294 5.00342 8.00329 3.26183 8.00128 1.27015L18.0013 1.26005ZM11.749 -4.99874L1.24089 -4.98812L1.25099 5.01187L11.7591 5.00126L11.749 -4.99874ZM1.24089 -4.98812C-2.27916 -4.98456 -5.00213 -2.10339 -4.99871 1.28329L5.00128 1.27318C5.0033 3.26486 3.39718 5.00971 1.25099 5.01187L1.24089 -4.98812ZM-4.99871 1.28329L-4.98308 16.7531L5.01691 16.743L5.00128 1.27318L-4.99871 1.28329ZM-4.98308 16.7531C-4.97966 20.1398 -2.25087 23.0154 1.26918 23.0119L1.25907 13.0119C3.40526 13.0097 5.0149 14.7513 5.01691 16.743L-4.98308 16.7531ZM1.26918 23.0119L11.7773 23.0012L11.7672 13.0013L1.25907 13.0119L1.26918 23.0119ZM11.7773 23.0012C15.2974 22.9977 18.0203 20.1165 18.0169 16.7298L8.01691 16.7399C8.0149 14.7483 9.62102 13.0034 11.7672 13.0013L11.7773 23.0012ZM1.25847 12.4119C3.73024 12.4094 5.60548 14.4201 5.60782 16.7424L-4.39217 16.7525C-4.38908 19.8086 -1.92589 22.4151 1.26857 22.4119L1.25847 12.4119ZM5.60782 16.7424L5.59219 1.27259L-4.4078 1.28269L-4.39217 16.7525L5.60782 16.7424ZM5.59219 1.27259C5.59454 3.59486 3.72337 5.60938 1.2516 5.61187L1.24149 -4.38812C-1.95297 -4.38489 -4.41089 -1.77339 -4.4078 1.28269L5.59219 1.27259ZM1.2516 5.61187L11.7597 5.60126L11.7496 -4.39874L1.24149 -4.38812L1.2516 5.61187ZM11.7597 5.60126C9.28795 5.60375 7.41272 3.59303 7.41037 1.27075L17.4104 1.26064C17.4073 -1.79543 14.9441 -4.40197 11.7496 -4.39874L11.7597 5.60126ZM7.41037 1.27075L7.426 16.7405L17.426 16.7304L17.4104 1.26064L7.41037 1.27075ZM7.426 16.7405C7.42366 14.4183 9.29483 12.4038 11.7666 12.4013L11.7767 22.4012C14.9712 22.398 17.4291 19.7865 17.426 16.7304L7.426 16.7405ZM11.7666 12.4013L1.25847 12.4119L1.26857 22.4119L11.7767 22.4012L11.7666 12.4013Z" fill="#D6A763" mask="url(#path-1-inside-1)"/>
<path d="M3.66524 5.61679L3.4304 5.59415L3.66524 5.61679ZM3.66524 5.61679C3.67979 5.62511 3.69435 5.6333 3.7089 5.64137" fill="#D6A763" stroke="#D6A763" stroke-width="5"/>
<mask id="path-4-inside-2" fill="white">
<path d="M9.66171 13.2656L3.06172 13.278C2.89582 13.2783 2.76197 13.4106 2.76227 13.574C2.76258 13.7374 2.89693 13.8692 3.06283 13.8689L9.66281 13.8565C9.82871 13.8562 9.96257 13.7239 9.96226 13.5605C9.96195 13.3971 9.82761 13.2653 9.66171 13.2656Z"/>
</mask>
<path d="M9.66171 13.2656L3.06172 13.278C2.89582 13.2783 2.76197 13.4106 2.76227 13.574C2.76258 13.7374 2.89693 13.8692 3.06283 13.8689L9.66281 13.8565C9.82871 13.8562 9.96257 13.7239 9.96226 13.5605C9.96195 13.3971 9.82761 13.2653 9.66171 13.2656Z" fill="#D6A763"/>
<path d="M9.65233 8.26564L3.05235 8.27801L3.07109 18.278L9.67108 18.2656L9.65233 8.26564ZM3.05235 8.27801C0.19727 8.28336 -2.24334 10.5869 -2.23772 13.5834L7.76226 13.5646C7.76727 16.2344 5.59437 18.2733 3.07109 18.278L3.05235 8.27801ZM-2.23772 13.5834C-2.2321 16.5799 0.217121 18.8743 3.0722 18.8689L3.05345 8.86892C5.57673 8.86419 7.75726 10.8949 7.76226 13.5646L-2.23772 13.5834ZM3.0722 18.8689L9.67219 18.8565L9.65344 8.85655L3.05345 8.86892L3.0722 18.8689ZM9.67219 18.8565C12.5273 18.8512 14.9679 16.5476 14.9623 13.5512L4.96227 13.5699C4.95726 10.9002 7.13017 8.86128 9.65344 8.85655L9.67219 18.8565ZM14.9623 13.5512C14.9566 10.5547 12.5074 8.26029 9.65233 8.26564L9.67108 18.2656C7.1478 18.2704 4.96727 16.2396 4.96227 13.5699L14.9623 13.5512Z" fill="#D6A763" mask="url(#path-4-inside-2)"/>
<mask id="path-6-inside-3" fill="white">
<path d="M9.66512 15.0381L3.06514 15.0505C2.89924 15.0508 2.76538 15.1831 2.76569 15.3465C2.766 15.5099 2.90034 15.6417 3.06624 15.6414L9.66623 15.629C9.83213 15.6287 9.96598 15.4964 9.96568 15.333C9.96537 15.1696 9.83102 15.0378 9.66512 15.0381Z"/>
</mask>
<path d="M9.66512 15.0381L3.06514 15.0505C2.89924 15.0508 2.76538 15.1831 2.76569 15.3465C2.766 15.5099 2.90034 15.6417 3.06624 15.6414L9.66623 15.629C9.83213 15.6287 9.96598 15.4964 9.96568 15.333C9.96537 15.1696 9.83102 15.0378 9.66512 15.0381Z" fill="#D6A763"/>
<path d="M9.65575 10.0381L3.05576 10.0505L3.07451 20.0505L9.6745 20.0381L9.65575 10.0381ZM3.05576 10.0505C0.200688 10.0558 -2.23992 12.3594 -2.2343 15.3559L7.76568 15.3371C7.77069 18.0068 5.59778 20.0457 3.07451 20.0505L3.05576 10.0505ZM-2.2343 15.3559C-2.22868 18.3523 0.220539 20.6467 3.07562 20.6414L3.05687 10.6414C5.58015 10.6367 7.76068 12.6674 7.76568 15.3371L-2.2343 15.3559ZM3.07562 20.6414L9.6756 20.629L9.65686 10.629L3.05687 10.6414L3.07562 20.6414ZM9.6756 20.629C12.5307 20.6236 14.9713 18.3201 14.9657 15.3236L4.96569 15.3424C4.96068 12.6726 7.13358 10.6337 9.65686 10.629L9.6756 20.629ZM14.9657 15.3236C14.9601 12.3271 12.5108 10.0327 9.65575 10.0381L9.6745 20.0381C7.15122 20.0428 4.97069 18.0121 4.96569 15.3424L14.9657 15.3236Z" fill="#D6A763" mask="url(#path-6-inside-3)"/>
</svg>
