<svg width="29" height="27" viewBox="0 0 29 27" fill="none" xmlns="http://www.w3.org/2000/svg">
<path d="M29 13.4997C29 20.9557 22.5085 27 14.5 27C6.49223 27 0 20.9557 0 13.4997C0 6.04433 6.49223 0 14.5 0C22.5085 0 29 6.04433 29 13.4997Z" fill="#DADADA"/>
<path d="M29 13.4549C29 20.9356 22.4024 27 14.2631 27C10.7529 27 7.53089 25.8728 5 23.9894C6.71045 24.6274 8.5797 24.979 10.5389 24.979C18.6783 24.979 25.2759 18.9153 25.2759 11.4345C25.2759 7.17918 23.1412 3.38111 19.8012 0.900024C25.1957 2.9113 29 7.77477 29 13.4549Z" fill="#D0D0D0"/>
<path d="M12.3556 11.8337V10.1131C12.3556 9.35533 11.6957 8.74023 10.8827 8.74023C10.0689 8.74023 9.40967 9.35533 9.40967 10.1131V11.8337C9.40967 12.5922 10.0689 13.2066 10.8827 13.2066C11.6957 13.2066 12.3556 12.5922 12.3556 11.8337Z" fill="#838383"/>
<path d="M18.1488 8.74023C17.3357 8.74023 16.6758 9.35533 16.6758 10.1131V11.8337C16.6758 12.5922 17.3357 13.2066 18.1488 13.2066C18.9626 13.2066 19.6218 12.5922 19.6218 11.8337V10.1131C19.6218 9.35533 18.9626 8.74023 18.1488 8.74023Z" fill="#838383"/>
<path d="M14.4884 16.5897C12.8244 16.5897 11.2861 17.4937 10.5681 18.8936C10.2174 19.5779 10.528 20.3974 11.2623 20.7243C11.9958 21.0513 12.875 20.7617 13.2265 20.0774C13.4576 19.6264 13.9526 19.3355 14.4884 19.3355C15.0517 19.3355 15.5579 19.6479 15.7771 20.1314C16.0149 20.6551 16.5604 20.9702 17.1349 20.9702C17.3259 20.9702 17.5206 20.9349 17.7079 20.8608C18.457 20.5657 18.807 19.7601 18.4904 19.0619C17.8089 17.5602 16.2386 16.5897 14.4884 16.5897Z" fill="#838383"/>
</svg>
