<svg width="17" height="16" viewBox="0 0 17 16" fill="none" xmlns="http://www.w3.org/2000/svg">
<g clip-path="url(#clip0)">
<path d="M6.198 11.7413V14.8333C6.198 15.0493 6.34533 15.2407 6.5635 15.3087C6.61804 15.3253 6.674 15.3333 6.72925 15.3333C6.895 15.3333 7.05508 15.26 7.15708 15.1293L9.07879 12.668L6.198 11.7413Z" fill="#C4C4C4"/>
<path d="M16.7767 0.0918713C16.6138 -0.0167954 16.3998 -0.0314621 16.2228 0.0558712L0.285246 7.8892C0.0968291 7.98187 -0.0143793 8.1712 0.00120403 8.37054C0.0174957 8.57054 0.158454 8.74121 0.358913 8.80587L4.78954 10.2312L14.2253 2.63787L6.92375 10.9172L14.3492 13.3059C14.4045 13.3232 14.4626 13.3325 14.5206 13.3325C14.617 13.3325 14.7126 13.3079 14.7969 13.2599C14.9315 13.1825 15.0228 13.0525 15.0462 12.9065L16.9941 0.573205C17.0232 0.386538 16.9396 0.201205 16.7767 0.0918713Z" fill="#C4C4C4"/>
</g>
<defs>
<clipPath id="clip0">
<rect width="17" height="16" fill="white"/>
</clipPath>
</defs>
</svg>
