<svg width="464" height="384" viewBox="0 0 464 384" fill="none" xmlns="http://www.w3.org/2000/svg">
<path d="M6.73681 204.188C6.73681 204.188 -30.9792 82.027 72.0698 75.894C81.3878 75.339 62.7588 70.488 66.9568 69.541C91.6898 63.967 49.8798 57.215 74.7868 60.141C89.1868 61.835 216.538 88.865 247.654 82.089C280.874 74.854 276.244 53.729 301.854 38.218C319.971 27.245 359.675 40.898 381.719 33.518C413.011 23.044 426.379 -5.31601 444.358 2.19899C492.035 22.125 439.127 139.567 429.148 165.626C419.169 191.685 399.155 212.377 400.692 226.941C402.229 241.505 434.566 278.955 438.841 304.241C441.19 318.048 434.364 341.596 427.984 342.599C380.566 350.221 190.142 337.681 190.142 337.681L79.6088 332.763L20.4458 324.654C20.4458 324.654 22.4708 290.5 22.2738 263.496C22.0698 235.827 6.73681 204.188 6.73681 204.188Z" fill="#707070" fill-opacity="0.5"/>
<path d="M4.16391 317.608C4.16391 317.608 -9.0061 370.477 63.2579 366.882C135.522 363.287 134.663 355.489 180.258 369.282C225.853 383.075 254.245 388.472 289.519 377.676C324.793 366.88 325.651 368.671 370.38 368.671C415.109 368.671 430.424 322.303 431.591 315.971C432.969 308.509 429.748 284.036 423.355 283.961C376.078 283.401 83.2419 281.018 60.1549 287.225C40.3179 292.551 16.4779 310.243 5.01089 314.958" fill="#707070" fill-opacity="0.5"/>
<path opacity="0.27" d="M45.206 270.468L81.6349 251.648L82.262 63.269C82.262 63.269 55.39 65.429 44.814 78.305L45.206 270.468Z" fill="#CBC7D4"/>
<path opacity="0.27" d="M44.814 78.305L45.703 270.22L39.33 273.563C39.33 273.563 40.239 264.831 38.672 245.873C37.23 228.202 22.424 185.322 21.311 168.939C20.528 157.325 20.962 109.923 30.124 95.853C38.582 82.866 44.814 78.305 44.814 78.305Z" fill="#CBC7D4"/>
<path d="M62.5075 121.028C66.6622 120.11 70.4387 122.316 70.9402 125.95C71.4417 129.583 68.482 133.281 64.3268 134.196C60.1716 135.11 56.3963 132.911 55.891 129.279C55.3858 125.647 58.3521 121.947 62.5075 121.028Z" fill="white"/>
<path d="M71.3329 120.225C74.7234 119.477 77.8035 121.275 78.2139 124.242C78.6243 127.208 76.2124 130.219 72.8184 130.97C69.4243 131.721 66.3508 129.919 65.9341 126.951C65.5175 123.984 67.9435 120.973 71.3329 120.225Z" fill="white"/>
<path d="M28.0334 144.302C32.1881 143.384 35.9646 145.59 36.4661 149.224C36.9676 152.857 34.0079 156.555 29.8527 157.47C25.6974 158.384 21.9222 156.185 21.4169 152.553C20.9116 148.921 23.878 145.221 28.0334 144.302Z" fill="white"/>
<path d="M35.685 140.53C39.0755 139.782 42.1555 141.58 42.5659 144.547C42.9763 147.513 40.5645 150.524 37.1704 151.275C33.7763 152.026 30.7028 150.224 30.2862 147.256C29.8696 144.289 32.2955 141.278 35.685 140.53Z" fill="white"/>
<path d="M47.9238 75.2L49.7728 73.9L49.8588 73.846L51.0108 73.118L52.1108 72.489L53.8969 265.92L50.0658 267.931L47.9238 75.2Z" fill="white"/>
<path d="M33.882 221.897L33.456 220.075C33.3063 219.635 33.1873 219.185 33.1 218.728L32.61 217.242L32.167 215.627L81.867 191.889L82.032 197.169L33.882 221.897Z" fill="white"/>
<path d="M21.7927 173.024L21.6517 171.959C21.5577 171.647 21.4518 170.419 21.3698 170.126L21.1697 168.095L20.9897 166.609L82.2727 136.994L82.0887 142.194L21.7927 173.024Z" fill="white"/>
<g opacity="0.19">
<path opacity="0.19" d="M80.4909 198.11C80.4909 198.11 77.0909 197.91 76.6479 199.299C76.2049 200.688 77.4309 219.605 77.9639 220.724C78.4969 221.843 83.9219 222.17 85.4569 222.17C85.4569 222.17 91.1409 221.531 91.4189 221.041C91.6969 220.551 95.5519 200.988 94.2899 198.373C93.0279 195.758 80.6899 198.173 80.6899 198.173" fill="#017DCE"/>
<path opacity="0.19" d="M76.3697 202.558C76.3697 202.558 86.9457 203.583 88.1957 203.133C89.4457 202.683 89.0337 198.676 89.0337 198.676L94.2907 198.376C94.2907 198.376 94.2907 202.229 93.9337 202.685C93.5249 203.312 93.2209 204.001 93.0337 204.725C93.0337 204.953 90.8127 221.341 90.8127 221.341C89.5394 221.607 88.253 221.805 86.9587 221.935C86.4257 221.851 88.3767 208.38 88.3767 207.444C88.3767 206.508 88.3767 204.725 87.8397 204.725C87.3027 204.725 76.9347 205.125 76.8717 203.655C76.7893 203.258 76.6165 202.885 76.3667 202.565" fill="#017DCE"/>
<path opacity="0.19" d="M80.5327 198.536C80.5327 198.536 77.5827 195.916 76.0167 195.678C74.4507 195.44 72.6247 195.188 71.0577 194.878C69.4907 194.568 67.4927 193.68 67.5327 192.523C67.4851 192.056 67.567 191.585 67.7695 191.162C67.9721 190.738 68.2873 190.379 68.6807 190.123C69.4183 189.504 70.3061 189.09 71.2547 188.923C71.9437 188.844 79.0187 191.167 81.9677 196.723L83.1427 198.546L80.5327 198.536Z" fill="#017DCE"/>
<path opacity="0.19" d="M70.3286 192.063C71.7494 192.032 73.1664 192.223 74.5286 192.628C75.7084 193.187 76.8359 193.85 77.8976 194.609L82.3356 198.517" fill="#017DCE"/>
<path opacity="0.19" d="M70.3286 192.063C71.7494 192.032 73.1664 192.223 74.5286 192.628C75.7084 193.187 76.8359 193.85 77.8976 194.609L82.3356 198.517" stroke="white" stroke-width="0.75" stroke-miterlimit="10" stroke-linecap="round"/>
<path opacity="0.19" d="M83.6469 198.388C83.6469 198.388 80.2159 192.494 78.8799 190.835C77.5439 189.176 75.9799 187.279 74.6929 185.546C73.4059 183.813 71.7789 181.326 72.4639 180.306C73.1489 179.286 73.6389 178.592 74.8889 178.82C75.9013 178.969 76.8477 179.411 77.6109 180.093C78.3039 180.658 84.5319 188.171 85.4449 196.803L86.3449 198.551L83.6469 198.388Z" fill="#017DCE"/>
<path opacity="0.19" d="M75.5815 182.311C77.0377 183.411 78.2961 184.751 79.3026 186.273C80.2936 188.086 81.8646 191.33 81.8646 191.33L83.6465 197.516" stroke="white" stroke-width="0.75" stroke-miterlimit="10" stroke-linecap="round"/>
<path opacity="0.19" d="M85.3547 198.655C85.3547 198.655 81.3477 187.655 80.5997 185.481C79.8517 183.307 76.7927 180.033 76.1147 177.814C75.4367 175.595 75.0067 173.981 75.7227 172.762C76.4387 171.543 78.2847 170.533 79.4557 171.276C80.7391 172.342 81.8136 173.636 82.6247 175.094C83.1147 175.926 86.3967 190.868 86.1247 194.315L86.7517 198.728L85.3547 198.655Z" fill="#017DCE"/>
<path opacity="0.19" d="M78.2969 175.378C79.4705 177.267 80.4744 179.255 81.2969 181.321C82.0799 183.797 82.8639 188.521 82.7619 187.759L85.1619 197.947" stroke="white" stroke-width="0.75" stroke-miterlimit="10" stroke-linecap="round"/>
<path opacity="0.19" d="M83.1576 198.595C83.1576 198.595 79.6326 193.509 77.9126 192.523C76.1926 191.537 74.2386 190.423 72.5576 189.363C70.8766 188.303 68.8576 186.505 69.2006 185.426C69.2675 184.963 69.4939 184.538 69.8408 184.224C70.1877 183.91 70.6332 183.727 71.1006 183.707C72.16 183.479 73.2592 183.517 74.3006 183.816C75.0836 184.074 82.4486 189.7 84.3396 196.381L85.2136 198.681L83.1576 198.595Z" fill="#017DCE"/>
<path opacity="0.19" d="M72.4517 186.343C74.0707 187.011 75.6029 187.872 77.0146 188.908C78.1871 189.996 79.2815 191.166 80.2897 192.408L83.6777 198.658" stroke="white" stroke-width="0.75" stroke-miterlimit="10" stroke-linecap="round"/>
<path opacity="0.19" d="M92.3788 198.709C92.3788 198.709 95.5708 196.233 97.2668 195.98C98.9628 195.727 100.93 195.514 102.626 195.212C104.322 194.91 106.484 194.073 106.441 192.963C106.484 192.5 106.389 192.034 106.168 191.625C105.947 191.216 105.61 190.881 105.199 190.663C104.377 190.061 103.421 189.667 102.414 189.514C101.666 189.44 94.0138 191.654 90.8188 196.943L89.5298 198.686L92.3788 198.709Z" fill="#017DCE"/>
<path opacity="0.19" d="M103.425 192.523C101.894 192.493 100.366 192.674 98.8849 193.063C97.6201 193.587 96.4015 194.217 95.2419 194.945L90.9839 198.56" fill="#017DCE"/>
<path opacity="0.19" d="M103.425 192.523C101.894 192.493 100.366 192.674 98.8849 193.063C97.6201 193.587 96.4015 194.217 95.2419 194.945L90.9839 198.56" stroke="white" stroke-width="0.75" stroke-miterlimit="10" stroke-linecap="round"/>
<path opacity="0.19" d="M89.0137 198.566C89.0137 198.566 92.7237 192.94 94.1687 191.355C95.6137 189.77 97.3027 187.955 98.7007 186.303C100.099 184.651 101.854 182.276 101.11 181.296C100.366 180.316 99.8407 179.657 98.4857 179.865C97.4124 179.997 96.3946 180.416 95.5397 181.078C94.7917 181.613 88.0497 188.794 87.0627 197.035L86.0957 198.704L89.0137 198.566Z" fill="#017DCE"/>
<path opacity="0.19" d="M97.7407 183.198C96.1975 184.219 94.8363 185.491 93.7136 186.962C92.6406 188.695 90.9446 191.791 90.9446 191.791L89.0137 197.691" stroke="white" stroke-width="0.75" stroke-miterlimit="10" stroke-linecap="round"/>
<path opacity="0.19" d="M87.1609 198.843C87.1609 198.843 91.497 188.343 92.304 186.258C93.111 184.173 96.4249 181.068 97.1569 178.938C97.8889 176.808 98.357 175.273 97.588 174.114C96.819 172.955 94.819 171.984 93.549 172.678C92.1922 173.673 91.0293 174.909 90.1179 176.323C89.5849 177.123 86.0359 191.384 86.3259 194.683L85.6479 198.898L87.1609 198.843Z" fill="#017DCE"/>
<path opacity="0.19" d="M86.7496 198.71C86.7496 198.71 87.0986 188.463 87.9246 185.13C88.4846 182.921 89.0326 179.187 89.7656 177.082C90.4986 174.977 89.3736 172.209 88.6216 171.045C87.8696 169.881 85.8796 170.104 84.5946 170.792C83.3946 171.446 82.7066 173.56 82.5536 174.692C82.4166 175.722 85.2956 188.092 84.9896 192.616L85.2366 198.777L86.7496 198.71Z" fill="#017DCE"/>
<path opacity="0.19" d="M94.7999 176.586C93.5434 178.37 92.4575 180.269 91.5568 182.257C90.9273 184.272 90.4042 186.318 89.9898 188.388L87.1738 198.388" stroke="white" stroke-width="0.75" stroke-miterlimit="10" stroke-linecap="round"/>
<path opacity="0.19" d="M89.5425 198.763C89.5425 198.763 93.3775 193.905 95.2145 192.963C97.0515 192.021 99.1904 190.982 101.007 189.947C102.824 188.912 105.007 187.218 104.638 186.188C104.534 185.72 104.273 185.302 103.898 185.003C103.524 184.704 103.058 184.542 102.578 184.544C101.432 184.326 100.252 184.36 99.1195 184.644C98.2575 184.892 90.3064 190.26 88.2574 196.644L87.3135 198.844L89.5425 198.763Z" fill="#017DCE"/>
<path opacity="0.19" d="M101.126 187.066C99.3932 187.695 97.7362 188.516 96.1859 189.513C94.9342 190.542 93.7563 191.657 92.6608 192.851L88.9238 198.091" stroke="white" stroke-width="0.75" stroke-miterlimit="10" stroke-linecap="round"/>
<path opacity="0.19" d="M85.9429 172.981C85.9429 172.981 86.6049 181.762 86.2209 184.124C86.0599 185.115 86.1389 191.291 86.1389 191.291L86.0019 198.16" stroke="white" stroke-width="0.75" stroke-miterlimit="10" stroke-linecap="round"/>
</g>
<path d="M193.272 169.068H150.231V211.79H193.272V169.068Z" fill="white"/>
<path d="M170.839 194.035C172.267 194.035 173.424 192.571 173.424 190.766C173.424 188.961 172.267 187.497 170.839 187.497C169.411 187.497 168.254 188.961 168.254 190.766C168.254 192.571 169.411 194.035 170.839 194.035Z" fill="#F5F5FC"/>
<path d="M168.147 210.774C168.147 210.774 169.228 214.374 167.994 215.385C166.76 216.396 159.141 220.194 159.141 220.194C159.062 220.342 159.02 220.506 159.019 220.674C159.018 220.842 159.058 221.007 159.135 221.156C159.212 221.304 159.324 221.432 159.462 221.528C159.599 221.624 159.758 221.684 159.924 221.705C161.124 222.037 176.576 221.774 179.901 221.705C180.155 221.708 180.402 221.626 180.603 221.471C180.804 221.317 180.947 221.099 181.009 220.853C181.087 220.501 180.989 220.115 180.398 219.862C179.376 219.396 175.615 216.806 173.97 215.687C173.712 215.45 173.504 215.163 173.358 214.844C173.212 214.525 173.131 214.181 173.12 213.83C172.932 212.706 172.791 211.463 173.42 211.225C174.399 210.854 168.206 211.339 168.206 211.339" fill="white"/>
<path d="M135.51 164.684L247.468 164.456L247.241 140.777L129.164 141.932L129.093 164.684H135.51Z" fill="#E9EDFA"/>
<path opacity="0.36" d="M192.013 160.825V145.529L243.69 145.753V160.601L192.013 160.825Z" fill="#707070" fill-opacity="0.5" stroke="black"/>
<path opacity="0.34" d="M135.705 160.825V145.529L187.382 145.753V160.601L135.705 160.825Z" fill="#707070" fill-opacity="0.5" stroke="black"/>
<path d="M135.209 148.955H137.955L137.982 161.371L135.205 161.331L135.209 148.955Z" fill="#707070"/>
<path d="M138.005 151.129H139.854L139.921 161.317L137.982 161.372L138.005 151.129Z" fill="#707070" fill-opacity="0.5"/>
<path d="M184.466 148.861H186.076L186.092 161.272L184.462 161.237L184.466 148.861Z" fill="#707070"/>
<path d="M186.119 151.035H187.968L188.035 161.223L186.096 161.273L186.119 151.035Z" fill="#F5F5FC"/>
<path d="M140.003 149.534H141.852L141.919 161.346L139.98 161.405L140.003 149.534Z" fill="#707070"/>
<path d="M141.813 152.372L142.761 151.411L147.561 160.271L146.527 161.331L141.813 152.372Z" fill="#707070" fill-opacity="0.5"/>
<path d="M164.211 161.272H175.759L175.7 159.633L164.211 159.712V161.272Z" fill="#707070" fill-opacity="0.5"/>
<path d="M166.154 159.667H177.706L177.643 158.028L166.154 158.107V159.667Z" fill="#707070" fill-opacity="0.5"/>
<path d="M193.362 148.361H194.984L195 161.426L193.359 161.386L193.362 148.361Z" fill="#707070" fill-opacity="0.5"/>
<path d="M195.018 151.144H196.863L196.93 161.327L194.991 161.381L195.018 151.144Z" fill="#707070"/>
<path d="M240.688 147.796H242.301L242.318 160.207L240.688 160.172V147.796Z" fill="#707070" fill-opacity="0.5"/>
<path d="M242.294 149.792L244.217 149.817L244.291 160.109L242.325 160.144L242.294 149.792Z" fill="#707070"/>
<path d="M238.843 150.827H240.692L240.766 160.202L238.796 160.232L238.843 150.827Z" fill="#707070"/>
<path d="M191.494 149.564H193.343L193.41 161.376L191.471 161.435L191.494 149.564Z" fill="#626262"/>
<path d="M210.656 152.407L211.604 151.446L216.404 160.306L215.37 161.366L210.656 152.407Z" fill="white"/>
<path d="M202.829 161.306H214.381L214.318 159.667L202.829 159.746V161.306Z" fill="white"/>
<path d="M202.195 159.761H213.745L213.682 158.122L202.197 158.201L202.195 159.761Z" fill="#E9EDFA"/>
<path d="M247.363 139.575L247.249 120.601H352.223L352.479 165.938L247.45 167.023L247.36 141.264" fill="#E9EDFA"/>
<path d="M172.598 128.546C172.598 128.546 171.587 128.12 171.505 127.803C171.423 127.486 171.086 125.673 171.756 125.673H177.483C177.483 125.673 178.408 127.59 177.232 128.016C176.056 128.442 177.063 129.185 177.4 129.185C177.737 129.185 178.493 129.185 178.661 129.715C178.829 130.245 178.818 141.415 178.818 141.415H170.326V130.571C170.318 130.272 170.411 129.978 170.592 129.739C170.668 129.635 170.767 129.551 170.881 129.493C170.996 129.434 171.122 129.404 171.251 129.403C172.179 129.397 172.852 129.08 172.598 128.546Z" fill="#E9EDFA"/>
<path d="M173.049 128.331L172.967 128.159L172.792 128.085L172.792 128.085L172.792 128.085L172.792 128.085L172.792 128.085L172.791 128.085L172.784 128.082L172.756 128.07C172.731 128.059 172.694 128.042 172.65 128.021C172.561 127.98 172.443 127.922 172.325 127.856C172.204 127.789 172.097 127.721 172.021 127.661C172.001 127.645 171.986 127.632 171.975 127.622C171.935 127.439 171.857 127.005 171.848 126.608C171.844 126.414 171.857 126.267 171.88 126.173H177.147C177.207 126.339 177.271 126.549 177.304 126.763C177.341 126.993 177.335 127.182 177.292 127.314C177.257 127.421 177.199 127.496 177.061 127.546C176.722 127.669 176.419 127.855 176.268 128.152C176.1 128.485 176.19 128.807 176.322 129.022C176.449 129.228 176.636 129.384 176.803 129.487C176.955 129.581 177.177 129.685 177.4 129.685C177.575 129.685 177.786 129.687 177.966 129.735C178.125 129.776 178.166 129.826 178.179 129.854C178.18 129.863 178.185 129.898 178.192 129.975C178.2 130.077 178.208 130.216 178.216 130.392C178.232 130.742 178.245 131.217 178.256 131.777C178.279 132.895 178.293 134.338 178.302 135.767C178.311 137.195 178.315 138.607 178.317 139.662C178.317 140.179 178.318 140.61 178.318 140.915H170.826V130.571H170.826L170.825 130.558C170.821 130.371 170.879 130.189 170.991 130.04L170.991 130.04L170.995 130.035C171.025 129.994 171.064 129.961 171.108 129.938C171.153 129.915 171.203 129.903 171.253 129.903L171.254 129.903C171.755 129.9 172.257 129.815 172.619 129.605C172.804 129.497 172.992 129.333 173.089 129.09C173.192 128.832 173.161 128.566 173.049 128.331ZM171.955 127.6C171.955 127.6 171.955 127.601 171.956 127.602C171.955 127.601 171.955 127.6 171.955 127.6ZM177.032 125.89C177.032 125.889 177.032 125.889 177.032 125.89L177.032 125.89Z" stroke="#707070" stroke-opacity="0.5"/>
<path d="M177.537 132.839H171.579V137.509H177.537V132.839Z" fill="#707070"/>
<path d="M182.304 128.546C182.304 128.546 181.294 128.12 181.211 127.803C181.128 127.486 180.792 125.673 181.462 125.673H187.189C187.189 125.673 188.114 127.59 186.938 128.016C185.762 128.442 186.769 129.185 187.106 129.185C187.443 129.185 188.199 129.185 188.367 129.715C188.535 130.245 188.524 141.415 188.524 141.415H180.032V130.571C180.024 130.272 180.117 129.978 180.298 129.739C180.374 129.635 180.473 129.551 180.587 129.493C180.701 129.435 180.828 129.404 180.956 129.403C181.912 129.397 182.57 129.08 182.304 128.546Z" fill="black" fill-opacity="0.412"/>
<path d="M187.255 132.839H181.297V137.509H187.255V132.839Z" fill="white"/>
<path d="M192.354 128.412C192.354 128.412 191.343 127.986 191.261 127.669C191.179 127.352 190.842 125.539 191.511 125.539H197.239C197.239 125.539 198.163 127.456 196.988 127.882C195.813 128.308 196.82 129.051 197.156 129.051C197.492 129.051 198.248 129.051 198.416 129.581C198.584 130.111 198.573 141.281 198.573 141.281H190.082V130.437C190.073 130.138 190.167 129.844 190.348 129.605C190.423 129.501 190.522 129.417 190.637 129.359C190.751 129.301 190.877 129.27 191.005 129.269C191.931 129.263 192.604 128.946 192.354 128.412Z" fill="#E9EDFA"/>
<path d="M197.295 132.7H191.337V137.37H197.295V132.7Z" fill="white"/>
<path opacity="0.28" d="M251.474 125.712H298.975V162.164H251.474V125.712Z" fill="#707070" fill-opacity="0.5" stroke="black"/>
<path d="M304.67 147.582C305.838 147.582 306.785 146.385 306.785 144.908C306.785 143.431 305.838 142.234 304.67 142.234C303.502 142.234 302.555 143.431 302.555 144.908C302.555 146.385 303.502 147.582 304.67 147.582Z" fill="#BAC5F4"/>
<path d="M283.365 149.812C283.365 149.812 282.355 149.386 282.272 149.069C282.189 148.752 281.853 146.939 282.523 146.939H288.25C288.25 146.939 289.174 148.856 287.999 149.282C286.824 149.708 287.831 150.451 288.167 150.451C288.503 150.451 289.26 150.451 289.428 150.981C289.596 151.511 289.585 162.681 289.585 162.681H281.093V151.832C281.085 151.533 281.178 151.239 281.359 151C281.435 150.897 281.534 150.812 281.648 150.754C281.762 150.696 281.889 150.665 282.017 150.664C282.934 150.659 283.608 150.341 283.365 149.812Z" fill="white"/>
<path d="M288.293 154.101H282.335V158.771H288.293V154.101Z" fill="#F5F5FC"/>
<path d="M214.129 143.511C212.662 144.09 211.237 144.77 209.865 145.548C209.25 145.914 208.665 146.319 208.028 146.648C207.338 146.993 206.63 147.303 205.908 147.577C203.929 148.385 202.007 149.327 200.156 150.395C200.425 148.314 199.934 146.205 198.774 144.456C198.592 144.217 198.39 143.993 198.169 143.789C197.292 142.976 196.049 142.766 195.187 142.054C195.889 141.116 196.725 140.287 197.668 139.593C198.524 138.836 199.412 138.119 200.332 137.44C202.171 136.082 204.129 134.893 206.182 133.888C207.465 133.205 208.849 132.733 210.282 132.488C210.463 132.447 210.653 132.464 210.824 132.536C210.926 132.613 211.01 132.711 211.072 132.823C211.134 132.935 211.172 133.059 211.183 133.186C211.451 134.429 211.583 135.705 211.811 136.958C211.921 137.602 212.069 138.238 212.256 138.864C212.496 139.604 212.774 140.332 213.087 141.044C213.436 141.867 213.783 142.689 214.129 143.511Z" fill="#FBBEBE"/>
<path d="M172.878 178.646C172.878 181.048 172.166 183.395 170.831 185.392C169.497 187.389 167.601 188.945 165.382 189.865C163.163 190.784 160.722 191.024 158.366 190.556C156.011 190.087 153.847 188.931 152.149 187.233C150.45 185.535 149.294 183.371 148.825 181.016C148.357 178.66 148.597 176.219 149.516 174C150.435 171.781 151.991 169.884 153.988 168.55C155.985 167.215 158.332 166.503 160.734 166.503C162.329 166.503 163.908 166.817 165.381 167.427C166.854 168.037 168.193 168.932 169.321 170.059C170.449 171.187 171.343 172.525 171.953 173.999C172.564 175.472 172.878 177.051 172.878 178.646V178.646Z" fill="#BE6F72"/>
<path d="M156.382 189.351C157.068 190.449 157.644 191.611 158.103 192.821C158.559 194.042 158.64 195.371 158.338 196.639C162.474 194.461 167.397 194.639 171.95 193.534C172.072 193.52 172.184 193.461 172.264 193.368C172.292 193.305 172.306 193.237 172.306 193.168C172.306 193.099 172.292 193.031 172.264 192.968C171.312 189.439 170.946 185.778 171.182 182.131L168.805 183.536C167.765 184.179 166.686 184.758 165.576 185.271C163.985 185.903 162.355 186.432 160.697 186.857C159.397 187.243 156.819 187.742 155.997 188.877C156.146 189.017 156.275 189.176 156.382 189.351Z" fill="#BE6F72"/>
<path d="M149.694 173.018C149.331 173.241 148.922 173.378 148.498 173.419C148.075 173.461 147.647 173.405 147.248 173.257C146.995 173.07 146.795 172.821 146.669 172.533C146.542 172.245 146.493 171.929 146.527 171.617C146.603 170.994 146.758 170.383 146.988 169.799C147.373 168.571 147.582 167.293 148.012 166.071C148.378 164.823 149.173 163.744 150.258 163.026C152.309 161.839 154.963 162.82 157.24 162.162C158.175 161.819 159.078 161.396 159.94 160.896C160.807 160.392 161.821 160.202 162.812 160.358C163.945 160.622 164.782 161.576 165.838 162.058C166.995 162.59 168.378 162.558 169.431 163.265C170.141 163.827 170.702 164.555 171.065 165.385C172.403 167.956 173.459 170.663 174.216 173.461C174.519 174.463 174.692 175.499 174.731 176.545C174.677 177.885 174.438 179.211 174.02 180.485L173.442 182.528C173.259 183.307 172.977 184.06 172.603 184.768C172.222 185.482 171.575 186.017 170.803 186.256C170.318 186.376 169.808 186.329 169.353 186.123C168.898 185.917 168.526 185.564 168.297 185.121C168.087 184.54 167.999 183.923 168.037 183.307C168.016 182.103 167.887 180.903 167.652 179.722C167.575 179.12 167.34 178.549 166.97 178.068C166.325 177.531 165.505 177.253 164.667 177.286C163.829 177.319 163.033 177.661 162.433 178.247C162.011 178.837 161.933 179.666 161.377 180.126C161.127 180.317 160.831 180.438 160.519 180.475C159.882 180.556 159.236 180.421 158.685 180.092C158.134 179.762 157.71 179.257 157.48 178.658C157.303 178.149 157.216 177.517 156.734 177.278C156.467 177.194 156.194 177.133 155.917 177.095C155.096 176.846 154.88 175.805 154.805 174.952C154.718 173.952 155.052 171.976 153.805 171.908C152.469 171.834 150.925 172.607 149.694 173.018Z" fill="#3F3D56"/>
<path d="M152.603 186.181C152.148 186.333 151.768 186.651 151.539 187.072C151.474 187.245 151.462 187.436 151.402 187.614C151.13 188.399 150.07 188.553 149.523 189.177C149.276 189.492 149.11 189.864 149.039 190.258C148.673 191.813 148.791 193.444 149.378 194.93C149.548 195.401 149.81 195.833 150.149 196.202C150.682 196.657 151.345 196.931 152.044 196.985C152.743 197.039 153.44 196.87 154.037 196.502C155.218 195.736 156.175 194.672 156.814 193.418C157.193 192.809 157.51 192.163 157.76 191.49C157.98 190.806 158.136 190.103 158.228 189.39C158.801 186.535 159.067 183.627 159.022 180.716C158.278 180.609 157.52 180.707 156.829 181.001C156.189 181.456 156.366 182.373 156.135 183.038C155.591 184.639 154.003 185.483 152.603 186.181Z" fill="#3F3D56"/>
<path d="M153.107 186.549C152.384 186.593 151.089 185.793 150.364 185.834C149.872 184.973 149.438 184.08 149.064 183.162C149.449 182.609 150.07 182.474 151.009 183.162C151.97 184.106 152.689 185.268 153.107 186.549V186.549Z" fill="#3F3D56"/>
<path d="M164.003 156.094C163.514 156.414 162.922 156.539 162.345 156.445C161.941 156.453 161.545 156.556 161.189 156.745C154.394 159.07 154.127 160.166 154.127 160.166L161.993 157.388C163.506 156.725 163.535 156.958 163.535 156.958C163.891 157.266 164.33 157.463 164.797 157.525C165.264 157.588 165.739 157.513 166.164 157.309C166.164 157.309 168.201 156.345 167.602 155.418C167.003 154.491 164.789 155.687 164.003 156.094ZM167.28 155.921C167.05 156.406 166.661 156.799 166.178 157.034C165.695 157.268 165.146 157.331 164.622 157.212C164.622 157.212 163.6 157.062 164.032 156.3C164.888 155.915 165.789 155.637 166.713 155.473C167.274 155.537 167.274 155.928 167.274 155.928L167.28 155.921Z" fill="#E8E8F0"/>
<path opacity="0.1" d="M164.003 156.094C163.514 156.414 162.922 156.539 162.345 156.445C161.941 156.453 161.545 156.556 161.189 156.745C154.394 159.07 154.127 160.166 154.127 160.166L161.993 157.388C163.506 156.725 163.535 156.958 163.535 156.958C163.891 157.266 164.33 157.463 164.797 157.525C165.264 157.588 165.739 157.513 166.164 157.309C166.164 157.309 168.201 156.345 167.602 155.418C167.003 154.491 164.789 155.687 164.003 156.094ZM167.28 155.921C167.05 156.406 166.661 156.799 166.178 157.034C165.695 157.268 165.146 157.331 164.622 157.212C164.622 157.212 163.6 157.062 164.032 156.3C164.888 155.915 165.789 155.637 166.713 155.473C167.274 155.537 167.274 155.928 167.274 155.928L167.28 155.921Z" fill="black"/>
<path d="M164.435 151.799C164.131 151.78 163.829 151.859 163.573 152.024C163.318 152.189 163.122 152.432 163.014 152.717C162.778 152.998 162.64 153.348 162.621 153.714C162.601 154.08 162.7 154.442 162.904 154.747L160.819 156.819C160.424 156.972 160.084 157.24 159.844 157.59C159.844 157.59 155.26 161.638 155.328 162.006C155.328 162.006 156.076 162.391 160.82 158.068L162.065 156.968C162.15 156.385 162.407 155.841 162.803 155.404C163.198 154.968 163.714 154.658 164.286 154.516C164.286 154.516 164.479 154.601 164.581 154.142C164.69 153.922 164.835 153.722 165.011 153.55C165.266 153.309 165.611 151.755 164.435 151.799ZM164.765 153.193C164.765 153.193 164.135 154.82 163.236 154.35C162.337 153.88 163.211 152.794 163.211 152.794C164.769 151.275 164.765 153.189 164.765 153.189V153.193Z" fill="#E8E8F0"/>
<path opacity="0.1" d="M160.858 157.629C160.995 157.629 161.107 157.518 161.107 157.38C161.107 157.242 160.995 157.131 160.858 157.131C160.72 157.131 160.609 157.242 160.609 157.38C160.609 157.518 160.72 157.629 160.858 157.629Z" fill="black"/>
<path d="M182.61 149.518C181.885 149.136 181.131 148.809 180.357 148.539C179.328 148.247 178.27 148.066 177.202 147.999C173.827 147.678 170.443 147.491 167.048 147.44C166.448 147.4 165.845 147.466 165.267 147.633C164.759 147.828 164.299 148.13 163.918 148.518C163.258 149.149 162.733 149.909 162.376 150.75C162.26 150.96 162.225 151.205 162.276 151.44C162.353 151.664 162.661 151.812 162.837 151.654C162.388 152.016 162.058 152.504 161.891 153.055C161.723 153.607 161.725 154.196 161.896 154.746C161.628 154.886 161.401 155.092 161.237 155.346C161.072 155.599 160.976 155.891 160.957 156.192C162.358 156.453 163.801 156.384 165.171 155.992C165.068 155.977 164.963 155.984 164.863 156.011C164.763 156.039 164.669 156.087 164.589 156.153C164.508 156.219 164.442 156.301 164.395 156.394C164.348 156.487 164.321 156.588 164.315 156.692C164.318 156.903 164.379 157.109 164.491 157.288C164.604 157.466 164.764 157.61 164.953 157.704C165.335 157.885 165.757 157.968 166.179 157.947C167.812 157.947 169.4 157.394 171.029 157.322C172.272 157.412 173.52 157.347 174.747 157.129C176.127 156.701 177.359 155.489 178.781 155.741C179.916 155.941 180.656 156.998 181.397 157.881C182.631 159.248 184.005 160.482 185.497 161.563C186.55 162.518 187.805 163.222 189.169 163.624C189.584 163.737 190.024 163.716 190.426 163.564C190.762 163.384 191.044 163.118 191.243 162.793C192.737 160.673 192.743 158.003 192.652 155.519C192.608 154.249 192.33 154.077 191.152 153.551C189.787 152.938 188.428 152.311 187.073 151.668C185.579 150.965 184.091 150.248 182.61 149.518Z" fill="#FBBEBE"/>
<path d="M198.232 154.275C198.002 154.412 197.759 154.526 197.507 154.616C197.074 154.662 196.637 154.586 196.245 154.398C194.51 153.82 192.583 153.957 190.906 153.241C191.457 156.397 190.738 159.643 188.906 162.271C188.762 162.536 188.561 162.766 188.319 162.946C188.076 163.125 187.797 163.248 187.501 163.308C187.685 163.701 187.946 164.053 188.268 164.343C188.59 164.633 188.967 164.856 189.377 164.998C190.626 165.589 191.933 166.05 193.277 166.374C193.662 166.465 194.133 166.509 194.356 166.181C194.491 165.988 194.549 165.659 194.786 165.67C195.148 166.055 195.029 166.846 195.53 167.019C195.686 167.059 195.85 167.059 196.006 167.019L197.124 166.826C197.46 166.797 197.783 166.686 198.065 166.502C198.242 166.349 198.388 166.163 198.495 165.955C199.661 163.784 200.32 161.376 200.422 158.914C200.554 157.682 200.597 156.443 200.551 155.205C200.472 154.167 199.138 153.853 198.232 154.275Z" fill="#E8E8F0"/>
<path opacity="0.1" d="M198.232 154.275C198.002 154.412 197.759 154.526 197.507 154.616C197.074 154.662 196.637 154.586 196.245 154.398C194.51 153.82 192.583 153.957 190.906 153.241C191.457 156.397 190.738 159.643 188.906 162.271C188.762 162.536 188.561 162.766 188.319 162.946C188.076 163.125 187.797 163.248 187.501 163.308C187.685 163.701 187.946 164.053 188.268 164.343C188.59 164.633 188.967 164.856 189.377 164.998C190.626 165.589 191.933 166.05 193.277 166.374C193.662 166.465 194.133 166.509 194.356 166.181C194.491 165.988 194.549 165.659 194.786 165.67C195.148 166.055 195.029 166.846 195.53 167.019C195.686 167.059 195.85 167.059 196.006 167.019L197.124 166.826C197.46 166.797 197.783 166.686 198.065 166.502C198.242 166.349 198.388 166.163 198.495 165.955C199.661 163.784 200.32 161.376 200.422 158.914C200.554 157.682 200.597 156.443 200.551 155.205C200.472 154.167 199.138 153.853 198.232 154.275Z" fill="black"/>
<path d="M133.615 216.798C133.127 216.044 132.466 215.419 131.687 214.973C131.218 214.784 130.725 214.663 130.222 214.614C127.518 214.172 124.791 213.884 122.055 213.752C121.16 213.642 120.254 213.825 119.472 214.274C119.083 214.609 118.773 215.027 118.565 215.496C118.358 215.966 118.257 216.476 118.272 216.99C118.223 218.209 118.465 219.421 118.979 220.527C119.493 221.633 120.264 222.601 121.227 223.349C122.949 224.497 124.907 225.243 126.956 225.533C128.018 225.751 129.085 225.944 130.156 226.111C131.237 226.237 132.307 226.447 133.356 226.739C135.569 227.448 137.521 229.052 139.842 229.185C139.951 229.202 140.062 229.183 140.16 229.131C140.262 229.049 140.33 228.932 140.353 228.803C140.864 227.003 142.635 222.685 140.353 221.424C139.16 220.767 137.836 220.738 136.668 219.903C135.508 219.018 134.48 217.973 133.615 216.798V216.798Z" fill="#BE6F72"/>
<path d="M114.13 228.762C112.63 227.455 110.556 226.762 109.465 225.1C109.023 224.341 108.698 223.52 108.501 222.664L107.792 220.116C107.737 219.959 107.712 219.794 107.719 219.628C107.773 219.096 108.399 218.844 108.928 218.761C110.29 218.601 111.67 218.742 112.971 219.175C114.273 219.608 115.463 220.322 116.457 221.267C118.432 223.183 119.843 225.604 120.536 228.267C120.589 228.401 120.597 228.548 120.559 228.687C120.492 228.811 120.387 228.909 120.259 228.968C119.217 229.693 118.059 230.235 116.834 230.568C115.693 230.747 114.941 229.46 114.13 228.762Z" fill="#BE6F72"/>
<path d="M180.54 218.055L187.827 224.317C189.257 225.544 189.813 228.488 189.135 231.237L178.8 273.106L164.173 271.562L171.821 223.495C171.821 223.495 178.222 216.136 180.54 218.055Z" fill="#CBC7D4"/>
<path d="M187.643 214.803C187.45 215.097 187.336 215.437 187.313 215.788C187.367 215.988 187.404 216.193 187.425 216.399C187.394 216.799 186.925 217.029 186.525 217.033C186.124 216.981 185.719 216.962 185.315 216.975C184.66 217.087 184.215 217.69 183.65 218.039C182.803 218.423 181.879 218.608 180.95 218.579C179.03 218.825 177.168 219.407 175.45 220.298C174.198 220.727 173.162 221.626 172.559 222.804C171.917 224.539 173.159 226.366 173.438 228.204C173.512 228.822 173.53 229.445 173.492 230.066C173.292 236.546 172.941 243.102 172.571 249.575L101.916 249.658L105.395 243.558C108.787 237.612 112.271 231.558 117.388 227.006C118.147 226.322 119 225.75 119.921 225.306L124.021 228.968C124.349 229.296 124.731 229.567 125.149 229.768C125.953 229.966 126.787 230.021 127.61 229.93C129.197 230.115 130.716 230.683 132.034 231.586C133.046 232.135 134.02 232.753 134.948 233.434C135.492 233.85 136.276 234.111 136.843 234.494L136.71 227.574C136.664 226.949 136.719 226.321 136.874 225.714C137.236 224.558 138.274 223.74 138.769 222.64C138.995 222.14 139.104 221.605 139.293 221.098C139.56 220.446 139.892 219.823 140.284 219.238L142.842 215.129C143.474 214.115 144.105 213.101 144.791 212.124C147.791 207.843 151.832 204.414 155.762 200.973C155.671 199.993 155.897 199.009 156.408 198.167C156.61 197.888 156.778 197.586 156.908 197.267C156.991 196.888 157.015 196.498 156.979 196.111V195.811C157.022 195.181 157.285 194.585 157.723 194.13C158.202 193.688 158.762 193.342 159.371 193.11C162.443 191.736 165.638 190.653 168.912 189.876C169.426 189.71 169.974 189.681 170.502 189.793C170.658 190.293 171.19 190.473 171.722 190.601L172.063 190.68C172.967 190.875 173.81 191.287 174.519 191.88C175.23 192.573 175.824 193.377 176.277 194.26C180.03 200.704 181.759 209.16 187.565 213.84C187.679 213.971 187.749 214.135 187.763 214.309C187.777 214.482 187.735 214.655 187.643 214.803Z" fill="url(#paint0_linear)"/>
<path opacity="0.1" d="M211.319 135.663C209.287 140.129 205.284 144.53 200.057 144.53C199.63 144.53 199.204 144.509 198.779 144.466C198.597 144.227 198.394 144.003 198.174 143.799C197.297 142.986 196.054 142.776 195.192 142.064C195.894 141.126 196.73 140.297 197.673 139.603C198.529 138.846 199.417 138.129 200.337 137.45C202.176 136.092 204.134 134.903 206.187 133.898C207.47 133.215 208.854 132.743 210.287 132.498C210.468 132.457 210.658 132.474 210.829 132.546C210.931 132.623 211.015 132.721 211.077 132.833C211.139 132.945 211.177 133.069 211.188 133.196C211.455 134.425 211.095 134.41 211.319 135.663Z" fill="black"/>
<path d="M200.055 144.141C207.187 144.141 212.969 138.359 212.969 131.227C212.969 124.095 207.187 118.313 200.055 118.313C192.923 118.313 187.141 124.095 187.141 131.227C187.141 138.359 192.923 144.141 200.055 144.141Z" fill="#FBBEBE"/>
<path d="M226.95 174.179C226.74 175.74 226.373 177.277 225.855 178.765C225.662 179.307 225.425 179.835 225.18 180.355C223.787 183.417 222.909 186.687 222.58 190.035C222.551 190.299 222.503 190.56 222.435 190.816C222.074 191.871 221.627 192.894 221.097 193.875C220.631 194.972 220.245 196.101 219.941 197.254C219.831 197.543 219.794 197.855 219.833 198.162C219.947 198.475 220.106 198.769 220.305 199.035C221.161 200.51 220.172 202.312 219.839 203.981C219.799 204.57 219.614 205.14 219.299 205.639C218.943 205.994 218.497 206.244 218.009 206.364C211.278 208.652 204.389 210.446 197.396 211.73C196.364 211.981 195.295 212.042 194.241 211.909C193.715 211.836 193.216 211.629 192.792 211.308C192.369 210.988 192.034 210.564 191.82 210.078C191.658 209.486 191.607 208.869 191.668 208.258C191.707 206.97 191.668 205.675 191.599 204.378C191.375 200.109 190.869 195.824 191.985 191.733C192.318 190.526 192.785 189.362 193.167 188.169C193.814 185.838 194.188 183.441 194.281 181.024C194.383 179.026 194.633 177.038 195.027 175.076C195.234 173.59 195.265 172.086 195.12 170.593C195.082 167.161 196.09 163.799 198.011 160.955C198.377 160.487 198.672 159.967 198.886 159.413C199.054 158.58 199.042 157.722 198.851 156.894C198.57 154.751 198.683 152.575 199.186 150.473C199.344 149.686 199.646 148.936 200.075 148.258C200.591 147.581 201.218 146.998 201.931 146.533C205.926 143.652 210.334 141.393 215.005 139.833C215.435 140.92 215.847 142.19 216.177 143.303C216.221 143.453 216.252 143.644 216.129 143.741C216.006 143.838 215.879 143.785 215.744 143.789C215.604 143.803 215.472 143.86 215.365 143.951C215.257 144.042 215.18 144.164 215.144 144.3C215.077 144.573 215.102 144.86 215.217 145.117C215.535 145.77 216.005 146.337 216.587 146.771L219.32 149.155C219.647 149.461 220.004 149.733 220.386 149.968C220.729 150.161 221.103 150.298 221.456 150.475C222.852 151.264 223.9 152.549 224.394 154.075C224.939 155.563 224.694 157.352 225.404 158.765C227.771 163.446 227.752 168.988 226.95 174.179Z" fill="url(#paint1_linear)"/>
<path d="M216.231 205.843C213.216 205.352 210.294 206.899 207.382 207.843C202.933 209.278 198.034 209.366 193.924 211.619C193.556 211.8 193.223 212.045 192.941 212.343C192.606 212.766 192.397 213.274 192.335 213.81C192.151 214.997 192.376 216.21 192.974 217.252C193.261 217.676 193.52 218.119 193.751 218.576C194.222 219.701 193.908 220.999 193.826 222.23C193.642 224.978 194.688 227.653 194.897 230.399C194.883 232.023 194.995 233.645 195.232 235.252C195.466 236.243 195.906 237.176 196.088 238.178C196.203 239.164 196.258 240.156 196.252 241.149C196.423 243.987 197.691 246.749 197.382 249.571L221.313 249.652C220.426 246.506 219.688 243.252 220.492 240.086C220.771 239.085 221.117 238.104 221.53 237.15C222.976 233.896 224.131 230.521 224.982 227.064C225.832 223.58 225.678 219.926 224.537 216.526C223.145 212.812 220.187 209.726 219.543 205.802C218.438 205.648 217.337 206.021 216.231 205.843Z" fill="url(#paint2_linear)"/>
<path d="M191.061 124.928C191.007 124.799 190.927 124.683 190.827 124.587C190.726 124.49 190.607 124.415 190.476 124.366C190.346 124.317 190.207 124.296 190.068 124.302C189.928 124.309 189.792 124.345 189.667 124.406C189.204 124.728 189.267 125.447 189.151 126.025C188.99 126.584 188.665 127.083 188.219 127.456C187.772 127.829 187.224 128.059 186.645 128.118C186.378 128.181 186.1 128.186 185.83 128.135C185.561 128.083 185.305 127.975 185.08 127.818C184.809 127.559 184.61 127.234 184.502 126.875C183.976 125.311 183.832 123.644 184.083 122.012C184.333 120.381 184.971 118.834 185.942 117.5C186.344 116.897 186.842 116.364 187.417 115.923C189.011 114.767 191.143 114.767 193.117 114.828C193.517 114.871 193.922 114.824 194.302 114.691C194.591 114.539 194.856 114.344 195.088 114.113C197.033 112.514 199.515 111.72 202.027 111.891C204.517 112.073 206.938 112.79 209.127 113.991C210.205 114.497 211.193 115.177 212.051 116.003C214.042 118.052 214.528 121.088 214.919 123.917C215.339 126.97 215.758 130.108 215.05 133.109C214.65 134.809 213.893 136.471 213.982 138.215C212.381 138.672 210.753 139.032 209.109 139.293C208.735 139.407 208.341 139.434 207.955 139.373C207.57 139.311 207.203 139.164 206.883 138.94C206.644 138.685 206.47 138.376 206.374 138.04C205.763 136.234 205.967 134.171 205.044 132.502C204.658 131.821 204.106 131.249 203.44 130.839C202.774 130.428 202.014 130.193 201.233 130.154C200.933 130.114 200.628 130.152 200.347 130.265C200.067 130.378 199.821 130.563 199.633 130.8C199.514 131.054 199.422 131.32 199.359 131.594C199.236 131.906 199.048 132.189 198.808 132.423C198.567 132.657 198.28 132.837 197.964 132.952C197.649 133.066 197.313 133.112 196.978 133.086C196.643 133.061 196.318 132.964 196.024 132.803C195.489 132.369 194.988 131.896 194.524 131.388C193.807 130.89 193.052 130.449 192.267 130.068C189.787 128.53 192.021 126.942 191.061 124.928Z" fill="#615C5C"/>
<path d="M171.731 190.597C170.677 190.934 169.717 191.545 168.691 191.975C166.832 192.583 164.932 193.055 163.005 193.386C161.184 193.873 159.43 194.578 157.779 195.486C157.658 195.552 157.279 195.872 156.971 196.091V195.791C157.013 195.161 157.277 194.565 157.715 194.11C158.194 193.668 158.753 193.322 159.363 193.09C162.438 191.717 165.635 190.636 168.912 189.861C169.425 189.695 169.974 189.666 170.502 189.778C170.667 190.29 171.199 190.468 171.731 190.597Z" fill="#3F3D56"/>
<path opacity="0.1" d="M144.403 240.029C146.477 242.342 148.337 244.867 150.75 246.818C147.965 243.118 143.969 240.65 140.357 237.861C139.625 237.294 138.157 236.491 137.716 235.671C137.016 234.387 138.562 235.299 139.204 235.648C141.173 236.802 142.931 238.284 144.403 240.029V240.029Z" fill="black"/>
<path opacity="0.1" d="M219.028 172.511C218.895 173.34 218.652 174.147 218.305 174.911C217.588 176.854 216.662 178.714 215.543 180.457C214.743 181.635 213.787 182.699 212.951 183.849C212.092 185.069 211.305 186.338 210.592 187.649C209.277 189.978 207.996 192.325 206.749 194.692C206.186 195.843 205.532 196.946 204.793 197.992C204.253 198.683 203.674 199.342 203.058 199.966C201.709 201.389 200.323 202.703 199.116 204.245C198.436 204.945 197.552 205.411 196.591 205.575C196.279 205.679 195.955 205.737 195.627 205.749C195.296 205.726 194.972 205.654 194.663 205.535C193.623 205.218 192.605 204.831 191.617 204.378C191.393 200.109 190.886 195.824 192.002 191.733C192.335 190.526 192.802 189.362 193.184 188.169C193.83 185.838 194.204 183.441 194.298 181.024C194.527 180.54 194.772 180.06 195.009 179.594C196.617 176.417 197.972 172.919 197.553 169.378C197.446 168.739 197.372 168.096 197.331 167.45C197.336 166.658 197.471 165.872 197.731 165.123C198.308 163.355 199.262 161.733 200.526 160.369C201.791 159.005 203.336 157.932 205.056 157.223C205.599 156.969 206.191 156.838 206.791 156.838C207.53 157.027 208.289 157.126 209.052 157.133C211.571 158.289 213.705 160.146 215.199 162.482C216.739 164.799 216.824 167.895 218.499 170.115C218.967 170.82 219.156 171.674 219.028 172.511Z" fill="black"/>
<path d="M163.296 162.05L163.215 161.875L160.065 163.328L159.539 163.571L159.015 163.812L163.456 173.44L163.98 173.197L164.506 172.954L167.656 171.501L167.575 171.327L164.425 172.78L164.344 172.605L167.494 171.152L167.413 170.977L164.263 172.43L164.182 172.255L167.332 170.802L167.253 170.627L164.102 172.08L164.021 171.907L167.172 170.454L167.091 170.279L163.94 171.732L163.859 171.557L167.011 170.104L166.93 169.929L163.78 171.382L163.699 171.207L166.849 169.754L166.768 169.58L163.618 171.033L163.537 170.858L166.687 169.405L166.606 169.23L163.456 170.683L163.375 170.508L166.527 169.055L166.446 168.88L163.294 170.333L163.213 170.16L166.365 168.7L166.284 168.527L163.132 169.98L163.053 169.805L166.203 168.352L166.122 168.177L162.972 169.63L162.891 169.455L166.041 168.002L165.96 167.827L162.81 169.28L162.729 169.107L165.879 167.654L165.8 167.479L162.648 168.932L162.567 168.757L165.718 167.304L165.637 167.129L162.486 168.582L162.407 168.407L165.556 166.956L165.475 166.781L162.325 168.234L162.244 168.059L165.394 166.606L165.313 166.431L162.165 167.875L162.084 167.7L165.234 166.247L165.155 166.072L162.004 167.527L161.923 167.352L165.074 165.899L164.993 165.724L161.841 167.177L161.76 167.002L164.911 165.549L164.83 165.374L161.68 166.827L161.599 166.652L164.749 165.199L164.668 165.026L161.519 166.475L161.438 166.3L164.588 164.847L164.507 164.672L161.357 166.125L161.276 165.95L164.428 164.497L164.347 164.324L161.195 165.775L161.114 165.602L164.266 164.149L164.185 163.974L161.033 165.427L160.954 165.252L164.103 163.799L164.022 163.624L160.872 165.077L160.791 164.902L163.941 163.449L163.86 163.276L160.71 164.729L160.629 164.554L163.779 163.101L163.7 162.926L160.549 164.379L160.468 164.204L163.62 162.751L163.539 162.576L160.388 164.029L160.307 163.856L163.458 162.403L163.377 162.228L160.225 163.675L160.146 163.5L163.296 162.05Z" fill="black"/>
<path opacity="0.1" d="M173.184 183.226C172.8 183.937 172.155 184.471 171.384 184.714C170.9 184.834 170.389 184.787 169.934 184.581C169.479 184.375 169.107 184.022 168.878 183.579C168.668 182.998 168.58 182.381 168.618 181.765C168.597 180.561 168.467 179.361 168.232 178.18C168.155 177.578 167.92 177.007 167.55 176.526C166.905 175.99 166.085 175.711 165.247 175.744C164.409 175.777 163.613 176.119 163.013 176.705C162.591 177.295 162.513 178.124 161.957 178.584C161.708 178.775 161.411 178.896 161.099 178.933C160.463 179.012 159.818 178.876 159.268 178.546C158.719 178.215 158.296 177.71 158.067 177.111C157.89 176.602 157.803 175.97 157.321 175.731C157.054 175.647 156.781 175.586 156.504 175.548C155.683 175.299 155.467 174.258 155.392 173.405C155.305 172.405 155.639 170.429 154.392 170.361C153.062 170.288 151.518 171.061 150.286 171.471C149.923 171.694 149.514 171.831 149.091 171.872C148.667 171.914 148.239 171.858 147.84 171.71C147.587 171.523 147.387 171.274 147.261 170.986C147.134 170.698 147.086 170.382 147.119 170.07C147.195 169.447 147.35 168.836 147.58 168.252C147.904 167.242 148.098 166.193 148.395 165.168C148.255 165.458 148.131 165.756 148.023 166.059C147.595 167.275 147.395 168.565 147.001 169.787C146.769 170.37 146.614 170.982 146.54 171.605C146.507 171.917 146.557 172.233 146.683 172.52C146.81 172.808 147.009 173.058 147.261 173.245C147.66 173.393 148.088 173.449 148.512 173.407C148.935 173.366 149.344 173.229 149.707 173.006C150.939 172.595 152.483 171.822 153.813 171.896C155.056 171.963 154.723 173.939 154.813 174.94C154.888 175.794 155.104 176.835 155.925 177.083C156.202 177.121 156.475 177.182 156.742 177.266C157.224 177.505 157.32 178.137 157.488 178.646C157.717 179.245 158.14 179.75 158.689 180.081C159.239 180.411 159.884 180.547 160.52 180.468C160.832 180.431 161.129 180.31 161.378 180.119C161.939 179.658 162.012 178.829 162.434 178.24C163.034 177.654 163.83 177.312 164.668 177.279C165.506 177.246 166.327 177.524 166.971 178.061C167.341 178.542 167.576 179.113 167.653 179.715C167.888 180.896 168.018 182.096 168.039 183.3C168 183.916 168.088 184.534 168.299 185.114C168.528 185.557 168.9 185.91 169.355 186.116C169.81 186.322 170.321 186.369 170.805 186.249C171.575 186.005 172.221 185.472 172.605 184.761C172.915 184.199 173.153 183.601 173.314 182.98C173.273 183.068 173.231 183.147 173.184 183.226Z" fill="black"/>
<path d="M183.097 181.947C181.576 180.438 180.134 178.851 178.777 177.194C177.411 175.665 176.166 174.033 175.053 172.312C174.495 171.171 173.726 170.147 172.786 169.294C171.968 168.794 171.109 168.362 170.22 168.004C169.607 167.686 169.042 167.283 168.437 166.954C167.117 166.24 165.631 165.89 164.131 165.938C163.819 165.912 163.507 165.962 163.219 166.084C162.931 166.205 162.678 166.396 162.481 166.638C162.371 166.821 162.319 167.038 162.207 167.216C161.862 167.794 161.031 167.958 160.748 168.565C160.27 169.587 161.712 170.525 161.802 171.649C161.747 172.209 161.627 172.761 161.444 173.293C161.403 174.268 161.695 175.229 162.271 176.017C163.302 177.817 164.557 179.789 166.583 180.242C167.3 180.402 168.058 180.35 168.757 180.577C169.321 180.791 169.843 181.102 170.299 181.496C172.202 182.996 173.88 184.763 175.28 186.741C175.931 187.66 176.521 188.62 177.18 189.534C179.272 192.429 182.017 194.789 185.193 196.423L187.558 188.906C187.922 187.749 188.21 186.163 187.173 185.261C185.875 184.095 184.377 183.169 183.097 181.947Z" fill="#FBBEBE"/>
<path d="M208.845 156.175C208.082 156.167 207.323 156.068 206.584 155.88C205.984 155.88 205.392 156.011 204.849 156.265C203.13 156.974 201.585 158.048 200.32 159.412C199.056 160.776 198.102 162.397 197.524 164.165C197.269 164.917 197.137 165.705 197.135 166.499C197.146 167.145 197.281 167.781 197.357 168.427C197.775 171.962 196.42 175.462 194.815 178.643C193.926 180.399 192.924 182.251 193.134 184.208C193.2 184.467 193.167 184.742 193.043 184.979C192.85 185.233 192.434 185.247 192.255 185.515C192.076 185.783 192.239 186.188 192.097 186.49C191.904 186.918 191.276 186.866 190.827 186.714C189.596 186.298 188.455 185.65 187.467 184.806C185.867 185.741 184.152 186.855 183.626 188.632C183.502 189.085 183.417 189.548 183.37 190.016L182.543 196.916C182.42 197.359 182.404 197.825 182.495 198.276C182.587 198.727 182.783 199.15 183.069 199.51C184.258 200.562 186.377 199.2 187.649 200.152C187.953 200.421 188.213 200.737 188.42 201.087C189.81 202.993 192.202 203.832 194.445 204.557C194.754 204.674 195.079 204.746 195.409 204.769C195.737 204.76 196.062 204.702 196.373 204.596C197.333 204.429 198.216 203.964 198.898 203.268C200.107 201.726 201.493 200.411 202.842 198.989C203.457 198.364 204.036 197.705 204.577 197.015C205.316 195.969 205.97 194.866 206.533 193.715C207.778 191.348 209.058 189 210.373 186.672C211.093 185.365 211.888 184.101 212.754 182.886C213.593 181.73 214.545 180.669 215.346 179.494C216.458 177.747 217.384 175.889 218.108 173.949C218.455 173.185 218.699 172.378 218.833 171.549C218.965 170.712 218.772 169.856 218.293 169.157C216.618 166.935 216.535 163.841 214.993 161.524C213.5 159.187 211.366 157.33 208.845 156.175V156.175Z" fill="#E8E8F0"/>
<path d="M163.348 162.84C163.303 162.868 163.265 162.907 163.236 162.952C163.207 162.996 163.189 163.047 163.182 163.1C163.182 163.2 163.261 163.272 163.303 163.358C163.421 163.605 163.232 163.89 163.016 164.058C162.8 164.226 162.538 164.358 162.416 164.607C162.398 164.64 162.39 164.678 162.393 164.715C162.406 164.766 162.436 164.81 162.478 164.842C162.605 164.988 162.77 165.096 162.954 165.154C163.258 165.165 163.554 165.061 163.783 164.861C164.055 164.689 164.345 164.547 164.647 164.437C164.741 164.409 164.829 164.366 164.907 164.308C165.003 164.212 165.063 164.085 165.075 163.95C165.091 163.454 164.917 162.972 164.587 162.601C164.236 162.131 163.65 162.58 163.348 162.84Z" fill="#3F3D56"/>
<path d="M132.669 219.398L114.876 210.316C114.118 209.929 113.19 210.23 112.804 210.988L108.835 218.763C108.448 219.521 108.749 220.448 109.507 220.835L127.3 229.917C128.057 230.304 128.985 230.003 129.372 229.245L133.34 221.47C133.727 220.712 133.426 219.785 132.669 219.398Z" fill="#3F3D56"/>
<path d="M131.934 220.22L114.673 211.41L110.293 219.991L127.554 228.801L131.934 220.22Z" fill="#E8E8F0"/>
<path d="M112.103 215.509C112.156 215.406 112.072 215.257 111.915 215.177C111.759 215.098 111.589 215.117 111.536 215.22C111.484 215.323 111.568 215.472 111.724 215.552C111.881 215.631 112.05 215.612 112.103 215.509Z" fill="#E6E8EC"/>
<path d="M130.978 225.168C131.065 224.998 130.926 224.754 130.668 224.623C130.41 224.491 130.131 224.522 130.045 224.692C129.958 224.861 130.097 225.106 130.354 225.237C130.612 225.369 130.891 225.338 130.978 225.168Z" fill="#E6E8EC"/>
<g opacity="0.1">
<path opacity="0.1" d="M215.044 131.751C214.644 133.451 213.888 135.113 213.976 136.857C212.375 137.314 210.748 137.674 209.103 137.934C208.73 138.048 208.335 138.075 207.949 138.014C207.564 137.952 207.197 137.805 206.877 137.581C206.639 137.326 206.464 137.017 206.368 136.681C205.757 134.875 205.961 132.812 205.038 131.143C204.652 130.462 204.1 129.89 203.434 129.48C202.768 129.069 202.009 128.834 201.227 128.795C200.927 128.755 200.622 128.793 200.342 128.906C200.061 129.019 199.815 129.204 199.627 129.441C199.508 129.695 199.416 129.961 199.353 130.235C199.23 130.547 199.043 130.83 198.802 131.064C198.562 131.298 198.274 131.478 197.959 131.593C197.643 131.707 197.307 131.753 196.972 131.727C196.638 131.702 196.312 131.605 196.018 131.444C195.483 131.01 194.982 130.537 194.518 130.029C193.801 129.531 193.046 129.09 192.261 128.709C191.742 128.444 191.339 127.995 191.131 127.45C190.964 127.947 190.987 128.489 191.196 128.971C191.404 129.452 191.784 129.84 192.261 130.058C193.046 130.439 193.801 130.88 194.518 131.378C194.981 131.887 195.483 132.36 196.018 132.793C196.313 132.954 196.638 133.05 196.972 133.075C197.307 133.101 197.643 133.055 197.958 132.941C198.274 132.826 198.561 132.646 198.802 132.412C199.042 132.178 199.23 131.896 199.353 131.584C199.416 131.31 199.508 131.044 199.627 130.79C199.815 130.553 200.061 130.368 200.342 130.255C200.622 130.142 200.927 130.104 201.227 130.144C202.009 130.183 202.768 130.418 203.434 130.829C204.1 131.239 204.652 131.811 205.038 132.492C205.961 134.161 205.757 136.224 206.368 138.03C206.465 138.37 206.642 138.681 206.885 138.938C207.206 139.16 207.572 139.307 207.958 139.368C208.343 139.429 208.737 139.403 209.111 139.291C210.756 139.031 212.383 138.671 213.984 138.214C213.89 136.47 214.651 134.808 215.052 133.108C215.361 131.717 215.485 130.291 215.42 128.867C215.389 129.838 215.263 130.804 215.044 131.751V131.751Z" fill="black"/>
<path opacity="0.1" d="M191.249 125.467C191.39 124.833 191.322 124.17 191.056 123.578C191.002 123.449 190.922 123.333 190.822 123.237C190.721 123.14 190.602 123.065 190.472 123.016C190.341 122.967 190.202 122.946 190.063 122.952C189.924 122.959 189.787 122.995 189.662 123.056C189.199 123.378 189.262 124.097 189.151 124.675C188.99 125.234 188.666 125.733 188.219 126.106C187.772 126.479 187.224 126.709 186.645 126.768C186.378 126.831 186.1 126.836 185.831 126.785C185.561 126.733 185.305 126.625 185.08 126.468C184.809 126.209 184.61 125.884 184.502 125.525C184.206 124.723 184.026 123.884 183.968 123.031C183.87 124.335 184.052 125.646 184.502 126.874C184.61 127.233 184.809 127.558 185.08 127.817C185.305 127.974 185.561 128.082 185.831 128.134C186.1 128.185 186.378 128.18 186.645 128.117C187.223 128.054 187.768 127.821 188.214 127.449C188.66 127.077 188.986 126.581 189.151 126.024C189.261 125.446 189.186 124.746 189.664 124.415C189.789 124.352 189.925 124.315 190.065 124.307C190.205 124.299 190.345 124.32 190.476 124.37C190.607 124.419 190.726 124.494 190.827 124.592C190.927 124.69 191.006 124.807 191.058 124.937C191.141 125.106 191.205 125.284 191.249 125.467V125.467Z" fill="black"/>
</g>
<path fill-rule="evenodd" clip-rule="evenodd" d="M181.594 270.754H141.383L136.114 335.297H195.972L181.594 270.754Z" fill="#C5CFD6"/>
<path fill-rule="evenodd" clip-rule="evenodd" d="M181.594 270.754H169.225L161.825 335.297H195.972L181.594 270.754Z" fill="black" fill-opacity="0.1"/>
<path fill-rule="evenodd" clip-rule="evenodd" d="M95.54 259.697C91.253 257.123 84.06 260.43 84.064 264.112C84.079 275.128 94.132 327.048 94.657 330.33C95.182 333.612 100.805 334.479 101.132 330.34C101.653 323.756 102.621 300.961 101.653 290.41C101.253 286.055 100.823 281.91 100.399 278.21C105.674 287.737 113.833 301.377 124.875 319.13L130.869 316.391C126.162 300.882 122.303 289.933 119.29 283.544C114.132 272.605 109.295 263.237 107.26 259.937C104.058 254.743 98.487 256.554 95.54 259.697Z" fill="#B28B67"/>
<path fill-rule="evenodd" clip-rule="evenodd" d="M130.441 307.775L109.867 259.037C104.938 251.108 91.1174 260.646 92.7999 265.248C96.6156 275.688 116.023 309.487 117.159 312.597L130.441 307.775Z" fill="#3F3F3F"/>
<path fill-rule="evenodd" clip-rule="evenodd" d="M131.583 313.313C132.551 314.034 133.396 314.908 134.084 315.899C134.733 317.118 135.284 318.387 135.733 319.692L110.308 334.371C108.386 332.569 108.087 331.169 109.409 330.173C110.732 329.177 111.824 328.337 112.687 327.651L121.46 315.562C121.5 315.507 121.551 315.46 121.609 315.424C121.667 315.389 121.732 315.365 121.8 315.354C121.867 315.343 121.936 315.346 122.002 315.362C122.069 315.378 122.131 315.406 122.187 315.446L122.199 315.456L124.022 316.86C125.322 316.813 126.598 316.495 127.768 315.927C128.689 315.286 129.472 314.466 130.071 313.517V313.517C130.15 313.405 130.25 313.309 130.366 313.236C130.482 313.163 130.612 313.113 130.747 313.09C130.882 313.067 131.02 313.071 131.154 313.101C131.288 313.132 131.414 313.189 131.526 313.268C131.545 313.283 131.564 313.298 131.583 313.313Z" fill="#E4E4E4"/>
<path fill-rule="evenodd" clip-rule="evenodd" d="M102.449 327.698C102.926 328.806 103.221 329.984 103.322 331.187C103.274 332.567 103.118 333.941 102.853 335.296H73.4959C72.7325 332.775 73.1729 331.412 74.8169 331.207C76.4609 331.002 77.8275 330.821 78.9169 330.662L92.5619 324.579C92.6243 324.551 92.6915 324.536 92.7598 324.534C92.8281 324.532 92.8961 324.544 92.9599 324.568C93.0237 324.593 93.082 324.629 93.1316 324.676C93.1812 324.723 93.2211 324.78 93.2489 324.842L93.2549 324.856L94.1329 326.989C95.2791 327.597 96.5391 327.959 97.8329 328.054C98.9514 327.959 100.039 327.641 101.033 327.118V327.118C101.157 327.061 101.291 327.029 101.428 327.024C101.565 327.019 101.701 327.041 101.829 327.089C101.957 327.136 102.075 327.209 102.175 327.302C102.275 327.395 102.356 327.507 102.413 327.631C102.426 327.653 102.438 327.675 102.449 327.698Z" fill="#E4E4E4"/>
<path fill-rule="evenodd" clip-rule="evenodd" d="M82.6221 267.857C82.6221 281.685 89.1891 313.941 89.1931 316.986L103.323 316.997C101.256 288.216 100.523 273.67 101.123 273.36C102.023 272.895 138.105 276.96 148.923 276.96C164.523 276.96 170.982 267.12 171.506 248.892H140.598C134.304 249.565 101.475 256.192 89.2841 258.463C84.0641 259.439 82.6221 264.047 82.6221 267.857Z" fill="#3F3F3F"/>
<path fill-rule="evenodd" clip-rule="evenodd" d="M219.93 229.427L203.313 287.737L191.19 330.714H182.348L195.231 229.427H219.93Z" fill="url(#paint3_linear)"/>
<path fill-rule="evenodd" clip-rule="evenodd" d="M224.374 229.427C224.758 259.48 226.069 275.872 226.474 278.603C226.879 281.334 232.979 298.703 244.774 330.714H235.614C220.594 300.006 212.209 282.636 210.46 278.603C208.711 274.571 203.312 258.179 195.181 229.427H224.374Z" fill="url(#paint4_linear)"/>
<path fill-rule="evenodd" clip-rule="evenodd" d="M245.595 338.964L245.138 329.339H235.512C230.948 332.547 224.99 335.144 217.638 337.13V338.963H235.054L241.012 338.046V338.963L245.595 338.964Z" fill="black"/>
<path fill-rule="evenodd" clip-rule="evenodd" d="M192.431 338.964L191.974 329.339H182.348C177.784 332.547 171.826 335.144 164.474 337.13V338.963H181.89L187.848 338.046V338.963L192.431 338.964Z" fill="black"/>
<path d="M401.906 252.217L408.835 252.256L408.888 269.82L401.916 269.735L401.906 252.217Z" fill="white"/>
<path d="M402.265 275.857L407.554 275.903L407.593 296.039L402.272 295.939L402.265 275.857Z" fill="white"/>
<path d="M401.792 226.486L408.721 226.529L408.774 244.093L401.806 244.004L401.792 226.486Z" fill="white"/>
<path opacity="0.1" d="M307.346 228.093C334.017 228.093 355.639 224.612 355.639 220.319C355.639 216.026 334.017 212.545 307.346 212.545C280.674 212.545 259.053 216.026 259.053 220.319C259.053 224.612 280.674 228.093 307.346 228.093Z" fill="white"/>
<path d="M356.764 160.325C357.148 160.139 357.471 159.846 357.691 159.48C357.155 159.314 356.634 159.104 356.133 158.852L356.584 156.889C356.624 156.706 356.628 156.516 356.595 156.331C356.561 156.147 356.491 155.971 356.389 155.813C356.286 155.656 356.153 155.521 355.998 155.415C355.843 155.31 355.668 155.236 355.484 155.199L354.95 155.081C354.579 154.997 354.191 155.062 353.868 155.262C353.545 155.462 353.313 155.78 353.222 156.149L353.122 156.579C352.386 155.786 351.784 154.879 351.338 153.893C351.181 153.596 351.1 153.266 351.101 152.93C351.174 152.535 351.33 152.159 351.561 151.83C352.221 150.625 352.436 149.227 352.17 147.88C351.826 146.698 351.406 145.539 350.914 144.411C350.132 142.104 350.221 139.59 351.165 137.344C351.71 136.059 352.547 134.729 352.195 133.382C351.804 131.882 350.153 131.116 348.74 130.398C347.327 129.68 345.83 128.422 346.124 126.898C346.306 126.444 346.392 125.958 346.378 125.47C346.23 124.842 345.5 124.528 344.864 124.333C343.184 123.719 341.431 123.326 339.65 123.165C338.177 123.062 336.706 123.403 335.428 124.143C335.066 124.342 334.728 124.583 334.423 124.861C334.144 125.15 333.847 125.421 333.532 125.67C332.846 125.918 332.12 126.037 331.391 126.022C330.553 126.099 329.744 126.368 329.026 126.807C328.585 127.04 328.188 127.346 327.85 127.713C327.432 128.16 327.139 128.709 327.001 129.304C326.863 129.9 326.885 130.522 327.065 131.107C327.147 131.334 327.26 131.549 327.4 131.746C326.777 132.768 326.447 133.943 326.448 135.14C326.465 136.785 327.086 138.367 328.192 139.586C329.297 140.805 330.812 141.575 332.448 141.752C332.648 142.511 332.838 143.305 332.987 144.042C332.947 144.078 332.904 144.111 332.86 144.142C332.582 144.275 332.26 144.36 331.974 144.475C331.76 144.559 331.554 144.665 331.36 144.789C329.923 145.563 329.186 147.241 328.593 148.773C329.001 148.699 329.406 148.616 329.809 148.517C329.789 148.567 329.773 148.617 329.759 148.662C329.346 150.075 327.069 157.95 327.069 157.95L327.553 156.91C327.572 157.058 327.548 157.209 327.482 157.343C327.282 157.734 327.666 157.45 328.277 156.886C328.277 156.919 328.285 156.938 328.308 156.939C326.873 159.282 322.353 166.599 320.108 169.568C317.314 169.943 315.279 170.268 315.279 170.268C314.837 170.272 314.401 170.379 314.008 170.582C313.456 170.865 312.991 171.292 312.661 171.817C312.332 172.342 312.149 172.946 312.133 173.566L311.976 178.54C311.347 181.635 310.955 184.774 310.803 187.929C310.785 188.505 310.831 189.081 310.941 189.646C311.129 190.5 311.221 191.372 311.216 192.246C311.208 193.27 311.116 194.292 310.941 195.301C310.949 195.309 310.963 195.317 310.972 195.325C310.953 195.44 310.941 195.502 310.941 195.502C311.499 195.808 312.121 195.98 312.757 196.002C312.506 197.402 311.582 198.829 308.873 198.934C304.915 199.083 304.094 199.777 303.937 200.134C303.903 200.2 303.893 200.276 303.909 200.348C304.116 202.972 310.009 202.669 311.771 202.771C312.031 202.777 312.29 202.754 312.544 202.7C312.701 202.672 312.858 202.636 313.026 202.593C313.448 202.486 313.926 202.335 314.417 202.156C315.011 201.941 315.636 201.685 316.242 201.407C316.542 201.269 316.842 201.126 317.129 200.981C317.32 200.884 317.506 200.786 317.685 200.689C318.4 200.342 319.056 199.886 319.631 199.337C319.661 199.302 319.688 199.266 319.713 199.227L319.737 199.185C319.745 199.171 319.765 199.135 319.778 199.108C319.787 199.09 319.794 199.072 319.8 199.053C319.806 199.034 319.817 199.006 319.825 198.982C319.833 198.958 319.838 198.94 319.844 198.918C319.85 198.896 319.853 198.874 319.858 198.852C319.863 198.83 319.867 198.803 319.871 198.778C319.873 198.76 319.873 198.741 319.871 198.723C319.794 197.713 319.422 196.748 318.8 195.949V192.667C318.8 192.667 319.532 184.945 319.518 181.537C319.539 181.005 319.505 180.473 319.418 179.948C319.376 179.784 319.349 179.617 319.34 179.448C319.341 179.186 319.431 178.933 319.596 178.729C319.761 178.526 319.99 178.386 320.246 178.331C322.087 177.373 326.846 177.764 330.398 178.241C327.309 178.712 320.398 179.526 320.398 180.452V182.652C320.404 183.186 320.609 183.698 320.973 184.088C321.338 184.478 321.834 184.718 322.366 184.761V222.246H324.825V184.773H346.682V222.247H349.141V184.347C349.73 184.045 350.225 183.586 350.572 183.022C350.919 182.458 351.105 181.809 351.109 181.147V180.602L355.687 160.813C356.068 160.703 356.43 160.539 356.764 160.325V160.325ZM347.639 180.3C347.494 179.672 346.474 179.114 344.847 178.681C347.608 177.327 348.191 174.642 348.17 172.556C348.175 171.849 348.117 171.142 347.996 170.445C348.171 170.298 348.304 170.108 348.383 169.893C348.462 169.679 348.484 169.447 348.447 169.222C348.482 168.807 348.392 168.391 348.188 168.028C346.885 165.657 346.223 162.987 346.269 160.282C346.594 160.585 346.968 160.83 347.376 161.006C348.365 161.38 349.42 161.543 350.476 161.487C350.986 161.487 351.497 161.457 352.007 161.418L347.639 180.3ZM330.803 160.567C330.935 160.815 331.015 160.972 331.015 160.972L331.466 160.572C333.622 160.646 334.084 161.689 334.15 162.381C334.144 162.448 334.134 162.515 334.119 162.581L332.256 168.032C329.022 167.532 327.609 168.401 327.21 168.725C326.21 168.819 325.198 168.925 324.199 169.039C326.204 166.431 328.969 162.907 330.803 160.567Z" fill="url(#paint5_linear)"/>
<path d="M325.587 153.713C325.587 153.713 318.262 166.062 316.545 167.702C316.545 167.702 309.22 175.302 312.945 174.769C313.218 174.73 318.578 170.199 318.891 169.457C319.204 168.715 329.339 155.553 329.339 155.553L327.894 154.223L325.587 153.713Z" fill="#F8BDC5"/>
<path d="M345.798 220.331H348.121V183.355H345.798V220.331Z" fill="#40414D"/>
<path d="M322.573 220.331H324.896V183.355H322.573V220.331Z" fill="#40414D"/>
<path d="M320.714 179.868C320.714 181.282 330.368 182.423 336.272 182.423C342.176 182.423 346.727 181.281 346.727 179.868C346.727 178.455 342.173 177.313 336.271 177.313C330.369 177.313 320.714 178.455 320.714 179.868Z" fill="#F6C6CD"/>
<path d="M347.152 184.051H322.363C322.145 184.052 321.93 184.01 321.729 183.928C321.528 183.845 321.345 183.724 321.191 183.571C321.037 183.418 320.915 183.235 320.832 183.035C320.748 182.834 320.706 182.619 320.706 182.402V179.869H349.979V181.224C349.979 181.974 349.681 182.693 349.151 183.223C348.62 183.753 347.901 184.051 347.152 184.051V184.051Z" fill="#40414D"/>
<path d="M347.129 183.613L345.894 183.334L352.047 156.074C352.111 155.79 352.286 155.542 352.533 155.386C352.779 155.231 353.078 155.179 353.362 155.243L354.395 155.477C354.68 155.541 354.927 155.716 355.083 155.962C355.239 156.209 355.29 156.507 355.226 156.792L349.51 182.113C349.394 182.627 349.079 183.074 348.633 183.356C348.187 183.637 347.648 183.73 347.134 183.614L347.129 183.613Z" fill="#40414D"/>
<path d="M318.89 194.04C318.89 194.04 321.235 196.972 320.258 198.145C319.281 199.318 314.403 201.561 312.831 201.468C311.169 201.368 305.607 201.663 305.404 199.123C305.404 199.123 305.013 197.95 310.095 197.755C315.177 197.56 313.611 192.276 313.611 192.276L318.89 194.04Z" fill="#312A41"/>
<path opacity="0.1" d="M346.836 169.41C346.836 169.41 349.181 177.42 342.145 178.792L334.522 178.401C334.522 178.401 323.772 176.251 320.84 177.815C320.84 177.815 319.667 178.01 320.055 179.574C320.443 181.138 319.469 191.692 319.469 191.692V195.215C319.469 195.215 312.823 195.215 312.042 194.43C312.372 192.555 312.372 190.637 312.042 188.762C311.456 186.221 313.019 178.207 313.019 178.207L313.176 173.392C313.187 172.796 313.358 172.214 313.669 171.705C313.981 171.197 314.422 170.78 314.948 170.499C315.318 170.305 315.729 170.202 316.148 170.199C316.148 170.199 329.439 168.049 334.13 168.44C338.821 168.831 346.836 169.41 346.836 169.41Z" fill="black"/>
<path d="M346.836 169.214C346.836 169.214 349.181 177.224 342.145 178.596L334.522 178.205C334.522 178.205 323.772 176.055 320.84 177.619C320.84 177.619 319.667 177.814 320.055 179.378C320.443 180.942 319.471 191.49 319.471 191.49V195.008C319.471 195.008 312.825 195.008 312.044 194.223C312.374 192.348 312.374 190.43 312.044 188.555C311.458 186.014 313.021 178 313.021 178L313.178 173.185C313.189 172.589 313.359 172.007 313.671 171.498C313.982 170.99 314.424 170.573 314.95 170.292C315.32 170.098 315.731 169.995 316.15 169.992C316.15 169.992 329.441 167.842 334.132 168.233C338.823 168.624 346.836 169.214 346.836 169.214Z" fill="#3F3F3F"/>
<path d="M333.581 143.61C333.581 143.61 330.063 147.715 329.672 149.083C329.281 150.451 324.981 153.969 324.981 153.969C324.981 153.969 328.108 156.311 327.527 157.487C326.946 158.663 331.627 153.578 331.627 153.578L337.1 145.568L333.581 143.61Z" fill="url(#paint6_linear)"/>
<path opacity="0.1" d="M333.581 144.081C333.581 144.081 330.063 148.186 329.672 149.554C329.281 150.922 324.981 154.44 324.981 154.44C324.981 154.44 328.108 156.782 327.527 157.958C326.946 159.134 331.627 154.049 331.627 154.049L337.1 146.039L333.581 144.081Z" fill="url(#paint7_linear)"/>
<path d="M331.393 138.918C331.393 138.918 333.152 144.586 333.152 146.736C333.152 148.886 340.579 146.15 340.376 144.977C340.173 143.804 336.076 139.504 335.876 137.753C335.676 136.002 331.393 138.918 331.393 138.918Z" fill="#F8BDC5"/>
<path opacity="0.1" d="M337.266 142.828C337.266 142.828 344.107 141.069 345.084 151.037C346.061 161.005 344.299 162.178 347.234 168.237C350.169 174.296 327.296 169.022 327.296 169.022C327.296 169.022 328.469 167.654 332.182 168.237L333.941 162.96C333.941 162.96 334.527 160.615 331.205 160.615C327.883 160.615 329.446 153.774 329.446 153.774C329.446 153.774 331.205 147.91 332.182 147.324C333.159 146.738 334.91 143.22 337.266 142.828Z" fill="black"/>
<path d="M337.266 142.437C337.266 142.437 344.107 140.678 345.084 150.646C346.061 160.614 344.299 161.787 347.234 167.846C350.169 173.905 327.296 168.631 327.296 168.631C327.296 168.631 328.469 167.263 332.182 167.846L333.941 162.569C333.941 162.569 334.527 160.224 331.205 160.224C327.883 160.224 329.446 153.383 329.446 153.383C329.446 153.383 331.205 147.519 332.182 146.933C333.159 146.347 334.91 142.828 337.266 142.437Z" fill="url(#paint8_linear)"/>
<path d="M328.885 156.383C328.885 156.383 321.56 168.732 319.843 170.372C319.843 170.372 312.518 177.972 316.243 177.439C316.516 177.4 321.876 172.869 322.189 172.128C322.502 171.387 332.637 158.223 332.637 158.223L331.192 156.893L328.885 156.383Z" fill="#F8BDC5"/>
<path opacity="0.1" d="M341.363 151.622L330.998 161.004C330.998 161.004 329.049 157.095 328.463 157.095C327.877 157.095 335.499 145.563 335.499 145.563C335.499 145.563 337.454 143.218 338.626 144.39C339.798 145.562 343.317 144.781 341.363 151.622Z" fill="black"/>
<path d="M341.557 151.231L331.192 160.613C331.192 160.613 329.237 156.704 328.651 156.704C328.065 156.704 335.695 145.172 335.695 145.172C335.695 145.172 337.65 142.827 338.822 143.999C339.994 145.171 343.513 144.39 341.557 151.231Z" fill="url(#paint9_linear)"/>
<path d="M333.152 142.436C336.714 142.436 339.602 139.548 339.602 135.986C339.602 132.424 336.714 129.536 333.152 129.536C329.589 129.536 326.702 132.424 326.702 135.986C326.702 139.548 329.589 142.436 333.152 142.436Z" fill="#F8BDC5"/>
<path opacity="0.1" d="M330.016 133.867C329.427 133.915 328.839 133.766 328.345 133.443C327.851 133.12 327.478 132.641 327.286 132.083C327.112 131.519 327.089 130.919 327.218 130.343C327.347 129.766 327.623 129.234 328.021 128.797C328.835 127.93 329.944 127.399 331.131 127.308C331.846 127.331 332.558 127.204 333.221 126.934C333.591 126.677 333.93 126.378 334.231 126.042C334.876 125.493 335.623 125.078 336.43 124.821C337.237 124.563 338.087 124.469 338.931 124.542C340.616 124.697 342.273 125.078 343.858 125.673C344.458 125.868 345.149 126.158 345.287 126.773C345.299 127.245 345.217 127.715 345.047 128.155C344.771 129.63 346.192 130.842 347.519 131.544C348.846 132.246 350.41 132.984 350.779 134.444C351.11 135.749 350.32 137.035 349.805 138.279C348.914 140.457 348.83 142.882 349.568 145.117C350.035 146.21 350.432 147.332 350.758 148.476C351.009 149.779 350.806 151.129 350.183 152.3C349.964 152.622 349.816 152.987 349.748 153.37C349.746 153.694 349.822 154.015 349.971 154.303C350.537 155.574 351.363 156.712 352.397 157.643C353.43 158.574 354.648 159.279 355.971 159.71C355.714 160.061 355.388 160.355 355.013 160.575C354.638 160.795 354.222 160.935 353.791 160.987C352.348 161.326 350.872 161.504 349.391 161.518C348.392 161.574 347.394 161.413 346.464 161.047C346 160.861 345.589 160.566 345.263 160.187C344.938 159.809 344.708 159.358 344.594 158.872C344.494 158.303 344.605 157.716 344.534 157.144C344.377 155.856 343.342 154.844 342.964 153.606C342.574 152.799 342.423 151.896 342.531 151.006C342.66 150.399 342.665 149.772 342.547 149.163C342.428 148.553 342.187 147.974 341.84 147.46C341.377 147.001 340.801 146.674 340.17 146.51C339.539 146.347 338.877 146.355 338.25 146.532C336.981 146.813 336.325 146.416 335.166 147.003C333.137 148.035 330.972 148.771 328.736 149.189C329.342 147.584 330.104 145.814 331.693 145.165C332.172 145.054 332.616 144.825 332.985 144.499C333.478 143.89 333.142 142.913 333.568 142.256C333.994 141.599 335.007 141.57 335.589 141.023C335.818 140.772 335.976 140.464 336.046 140.131C336.115 139.798 336.093 139.453 335.983 139.131C335.754 138.492 335.4 137.904 334.942 137.403C334.564 136.933 334.177 136.47 333.781 136.015C333.412 135.633 333.104 135.196 332.867 134.721C332.734 134.407 332.759 133.813 332.54 133.564C331.989 132.926 330.69 133.78 330.016 133.867Z" fill="black"/>
<path d="M330.253 133.724C329.664 133.772 329.077 133.623 328.582 133.3C328.088 132.977 327.715 132.498 327.523 131.94C327.35 131.376 327.326 130.776 327.455 130.2C327.584 129.623 327.861 129.091 328.258 128.654C329.072 127.787 330.182 127.256 331.368 127.165C332.083 127.188 332.795 127.061 333.458 126.791C333.828 126.534 334.167 126.235 334.468 125.899C335.113 125.35 335.861 124.935 336.668 124.678C337.474 124.42 338.324 124.326 339.168 124.399C340.853 124.554 342.51 124.935 344.095 125.53C344.695 125.725 345.386 126.015 345.524 126.63C345.536 127.102 345.454 127.572 345.284 128.012C345.008 129.487 346.429 130.699 347.756 131.401C349.083 132.103 350.647 132.841 351.016 134.301C351.347 135.606 350.557 136.892 350.042 138.136C349.151 140.314 349.067 142.739 349.805 144.974C350.272 146.067 350.669 147.189 350.995 148.333C351.246 149.636 351.043 150.986 350.42 152.157C350.201 152.479 350.053 152.844 349.985 153.227C349.983 153.551 350.059 153.872 350.208 154.16C350.774 155.431 351.601 156.569 352.634 157.5C353.668 158.431 354.885 159.136 356.208 159.567C355.951 159.918 355.625 160.212 355.25 160.432C354.875 160.652 354.459 160.792 354.028 160.844C352.585 161.183 351.11 161.361 349.628 161.375C348.63 161.431 347.631 161.27 346.701 160.904C346.238 160.718 345.826 160.423 345.501 160.044C345.175 159.666 344.946 159.215 344.831 158.729C344.731 158.16 344.842 157.573 344.771 157.001C344.614 155.713 343.579 154.701 343.2 153.463C342.81 152.656 342.66 151.753 342.767 150.863C342.896 150.256 342.902 149.629 342.783 149.02C342.664 148.41 342.424 147.831 342.076 147.317C341.613 146.858 341.037 146.531 340.406 146.367C339.776 146.204 339.113 146.212 338.486 146.389C337.217 146.67 336.56 146.273 335.401 146.86C333.373 147.892 331.208 148.628 328.971 149.046C329.577 147.441 330.339 145.671 331.928 145.022C332.408 144.911 332.852 144.682 333.221 144.356C333.714 143.747 333.378 142.77 333.804 142.113C334.23 141.456 335.243 141.427 335.825 140.88C336.055 140.629 336.212 140.321 336.282 139.988C336.351 139.655 336.329 139.31 336.219 138.988C335.99 138.349 335.636 137.761 335.178 137.26C334.8 136.79 334.413 136.327 334.017 135.872C333.653 135.489 333.35 135.053 333.117 134.579C332.983 134.265 333.009 133.671 332.79 133.422C332.226 132.783 330.927 133.636 330.253 133.724Z" fill="url(#paint10_linear)"/>
<g opacity="0.1">
<path opacity="0.1" d="M313.829 193.819C313.815 193.299 313.74 192.783 313.606 192.28L313.706 192.313C313.803 192.809 313.844 193.314 313.829 193.819V193.819Z" fill="white"/>
<path opacity="0.1" d="M312.824 201.071C314.394 201.164 319.274 198.921 320.251 197.748C320.379 197.589 320.458 197.397 320.477 197.194C320.506 197.358 320.5 197.526 320.461 197.688C320.422 197.85 320.351 198.003 320.251 198.136C319.274 199.309 314.396 201.552 312.824 201.459C311.162 201.359 305.6 201.654 305.397 199.114C305.383 199.044 305.392 198.972 305.424 198.908C305.871 201.254 311.205 200.983 312.824 201.071Z" fill="white"/>
</g>
<path d="M271.091 202.318C272.2 201.91 273.379 201.724 274.56 201.773C276.459 201.112 278.234 200.136 279.81 198.885C279.76 197.406 279.798 195.925 279.922 194.45C280.51 188.958 280.142 183.406 278.835 178.04C277.949 175.087 277.488 172.023 277.467 168.94C277.367 169.127 277.31 169.24 277.31 169.24C277.074 165.96 276.312 162.739 275.055 159.701C275.021 159.691 274.987 159.678 274.955 159.663L273.923 157.257C273.842 157.117 273.777 156.968 273.731 156.813L273.574 156.431L273.623 156.411C273.607 156.348 273.59 156.282 273.574 156.211C273.032 153.15 272.651 150.062 272.431 146.961C271.891 145.059 271.827 143.053 272.243 141.12C272.66 139.188 273.545 137.387 274.821 135.876L281.827 129.841C281.792 129.92 281.769 130.003 281.758 130.088L281.816 130.038C281.916 129.755 282.023 129.41 282.13 129.027C281.88 128.85 281.646 128.652 281.43 128.435C280.633 127.683 280.085 126.706 279.859 125.635C279.723 124.794 279.69 123.941 279.759 123.092L279.875 120.183C279.88 119.612 279.938 119.043 280.048 118.483C280.387 117.341 281.079 116.335 282.026 115.611C282.973 114.888 284.124 114.483 285.316 114.455C286.071 114.451 286.827 114.492 287.578 114.576C288.189 114.626 288.803 114.639 289.416 114.615C289.486 114.619 289.556 114.601 289.616 114.563C289.669 114.51 289.7 114.438 289.702 114.363C289.714 114.228 289.698 114.092 289.656 113.963C289.614 113.835 289.546 113.716 289.457 113.614C289.365 113.533 289.258 113.471 289.143 113.432L289.313 113.473C289.229 113.408 289.135 113.357 289.035 113.324C289.649 113.433 290.24 113.645 290.783 113.952C290.932 114.05 291.069 114.166 291.191 114.296C291.514 114.579 291.724 114.97 291.782 115.396C292.07 115.151 292.287 114.832 292.41 114.474C292.446 114.327 292.446 114.174 292.41 114.028C292.45 114.079 292.49 114.132 292.529 114.185C292.53 114.169 292.526 114.152 292.518 114.138C292.961 114.689 293.272 115.334 293.43 116.023C293.489 115.947 293.533 115.86 293.558 115.767C293.584 115.674 293.591 115.577 293.579 115.481C293.614 115.588 293.647 115.696 293.679 115.806C293.693 115.735 293.697 115.661 293.69 115.589C293.962 116.421 294.085 117.294 294.053 118.169C294.053 119.042 293.667 120.401 292.731 120.707C292.682 120.723 292.633 120.736 292.583 120.746C293.108 121.562 293.423 122.496 293.499 123.464C293.575 124.432 293.409 125.403 293.017 126.291C292.625 127.179 292.019 127.956 291.252 128.552C290.486 129.148 289.584 129.544 288.627 129.706C288.612 129.811 288.597 129.922 288.583 130.041H288.545C288.52 130.277 288.499 130.525 288.484 130.784C288.719 131.015 288.977 131.223 289.254 131.403C290.038 131.867 290.913 132.157 291.82 132.253C292.902 132.336 293.954 132.649 294.906 133.17C296.09 133.719 297.056 134.651 297.647 135.815C298.294 137.663 301.847 140.527 304.247 140.883L305.095 140.834L305.156 140.815V140.831L305.363 140.818H305.431V140.831L305.646 140.818C305.646 140.818 305.668 140.918 305.696 141.093C308.333 140.058 310.735 138.505 312.763 136.526C316.463 133.173 321.45 133.833 323.373 134.255C323.438 134.27 323.498 134.304 323.543 134.353C323.589 134.402 323.618 134.464 323.628 134.53C323.637 134.596 323.626 134.664 323.597 134.724C323.567 134.784 323.519 134.834 323.461 134.866C322.665 135.349 321.808 135.725 320.914 135.983C320.914 135.983 322.079 137.189 320.842 137.833C320.693 137.906 320.528 137.936 320.363 137.92C320.199 137.904 320.042 137.843 319.911 137.743C319.311 137.308 317.66 138.294 315.264 138.808C315.264 138.808 308.498 145.808 305.142 146.893C305.064 147.046 304.979 147.195 304.886 147.339L304.679 147.322L304.668 147.339H304.64L304.615 147.559C304.615 147.559 299.393 147.284 297.705 145.389C297.584 145.281 297.473 145.163 297.374 145.036L299.19 167.884H299.173L299.19 168.101H297.855C297.738 170.914 297.858 173.731 298.213 176.524V191.413C298.213 191.413 298.282 192.724 295.56 194.633C292.705 196.62 289.954 198.752 287.318 201.02L286.988 201.306C287.488 205.861 288.537 214.354 289.41 214.671L288.871 214.765C289.799 215.935 292.414 219.145 293.213 219.235C294.191 219.343 294.843 220.865 293.213 221.192C289.958 221.755 286.612 221.425 283.531 220.237C283.222 220.117 282.963 219.897 282.794 219.612C282.626 219.327 282.557 218.994 282.601 218.666L282.915 216.266C282.855 216.299 282.807 216.35 282.777 216.412C282.56 217.064 282.777 215.542 282.777 215.542C281.883 212.668 281.182 209.739 280.677 206.772L277.443 209.557C277.443 209.557 277.377 209.477 277.266 209.332C276.481 211.132 275.066 214.799 275.381 217.491C275.816 221.191 271.681 217.926 272.121 215.752C272.473 213.993 270.904 206.542 270.291 203.763C270.223 203.466 270.267 203.154 270.415 202.888C270.562 202.621 270.803 202.418 271.091 202.318V202.318Z" fill="url(#paint11_linear)"/>
<path d="M304.838 142.021C304.838 142.021 307.916 141.49 312.479 137.352C316.091 134.077 320.96 134.723 322.844 135.134C322.912 135.142 322.976 135.173 323.025 135.221C323.074 135.27 323.106 135.333 323.116 135.401C323.126 135.469 323.113 135.539 323.079 135.599C323.046 135.659 322.993 135.707 322.93 135.734C322.153 136.203 321.318 136.568 320.447 136.821C320.447 136.821 321.584 137.999 320.376 138.629C320.231 138.7 320.069 138.729 319.909 138.714C319.748 138.698 319.595 138.638 319.467 138.541C318.886 138.117 317.267 139.08 314.93 139.581C314.93 139.581 305.804 149.026 303.682 147.434L304.838 142.021Z" fill="#FEC3BE"/>
<path d="M289.13 129.184C289.13 129.184 288.28 132.796 289.13 135.339L285.309 135.87L281.915 134.17V131.948C282.899 129.64 283.3 127.125 283.082 124.626L289.13 129.184Z" fill="#FEC3BE"/>
<path d="M278.306 207.397C278.306 207.397 275.543 212.809 275.972 216.417C276.401 220.025 272.36 216.841 272.789 214.717C273.133 213 271.6 205.724 271.003 203.01C270.937 202.717 270.982 202.41 271.13 202.149C271.278 201.888 271.518 201.691 271.803 201.597C273.08 201.178 275.214 200.655 276.288 201.449C277.882 202.621 278.306 207.397 278.306 207.397Z" fill="#2C2B36"/>
<path d="M288.813 213.339C288.813 213.339 292.425 218.008 293.377 218.115C294.329 218.222 294.969 219.708 293.377 220.025C290.199 220.575 286.931 220.252 283.922 219.092C283.62 218.975 283.366 218.76 283.202 218.481C283.037 218.203 282.971 217.877 283.014 217.556L283.614 213.02L288.813 213.339Z" fill="#22202C"/>
<path d="M294.756 163.78L298.211 164.242C297.736 168.285 297.75 172.37 298.252 176.409V190.947C298.252 190.947 298.32 192.227 295.662 194.088C292.875 196.028 290.189 198.11 287.615 200.325L277.985 208.668C277.985 208.668 274.164 203.999 274.695 201.239C274.695 201.239 281.062 199.222 281.912 195.932C282.399 194.047 284.868 192.477 286.889 191.48C288.159 190.863 289.18 189.83 289.783 188.552C290.385 187.275 290.532 185.83 290.2 184.457C290.082 183.979 289.9 183.52 289.658 183.092C288.089 179.957 286.707 176.733 285.52 173.435L290.189 164.521L294.756 163.78Z" fill="#605D82"/>
<path d="M294.772 163.78L298.227 164.242C297.752 168.285 297.766 172.37 298.268 176.409V190.947C298.268 190.947 298.336 192.227 295.678 194.088C292.892 196.029 290.209 198.112 287.637 200.328L278.007 208.671C278.007 208.671 274.186 204.002 274.717 201.242C274.717 201.242 281.084 199.225 281.934 195.935C282.421 194.05 284.89 192.48 286.911 191.483C288.181 190.866 289.202 189.833 289.805 188.555C290.407 187.278 290.554 185.833 290.222 184.46C290.104 183.982 289.921 183.523 289.68 183.095C288.111 179.96 286.729 176.736 285.542 173.438L290.211 164.524L294.772 163.78Z" fill="#3F3F3F"/>
<path d="M297.768 190.947V190.957C297.768 190.959 297.767 190.96 297.767 190.963C297.766 190.977 297.762 191.011 297.75 191.061C297.726 191.162 297.67 191.336 297.535 191.572C297.265 192.045 296.676 192.779 295.391 193.678C292.592 195.629 289.895 197.722 287.31 199.949L287.309 199.95L278.077 207.948C278.002 207.849 277.916 207.734 277.822 207.604C277.479 207.132 277.027 206.476 276.594 205.738C276.158 204.998 275.748 204.187 275.48 203.405C275.251 202.739 275.137 202.129 275.172 201.616C275.352 201.552 275.605 201.46 275.908 201.341C276.531 201.095 277.372 200.732 278.244 200.262C279.113 199.794 280.026 199.211 280.784 198.522C281.537 197.837 282.171 197.014 282.418 196.06C282.621 195.273 283.26 194.494 284.161 193.765C285.051 193.045 286.137 192.422 287.131 191.932C288.503 191.265 289.606 190.149 290.257 188.769C290.908 187.388 291.067 185.826 290.708 184.342L290.707 184.34C290.579 183.823 290.382 183.325 290.121 182.86C288.597 179.812 287.249 176.679 286.087 173.475L290.538 164.977L294.779 164.285L297.675 164.673C297.253 168.585 297.284 172.534 297.768 176.44V190.947Z" stroke="#707070" stroke-opacity="0.5"/>
<path d="M284.14 214.346C283.983 214.394 283.834 214.444 283.695 214.494L283.699 214.466L283.663 214.355L283.663 214.355L283.663 214.355L283.662 214.354L283.66 214.348L283.653 214.326C283.647 214.306 283.637 214.275 283.624 214.235C283.598 214.155 283.56 214.034 283.512 213.877C283.417 213.563 283.28 213.103 283.119 212.52C282.796 211.353 282.374 209.697 281.979 207.74C281.187 203.822 280.507 198.731 280.926 193.973C281.508 188.556 281.145 183.079 279.853 177.786L279.798 177.561L279.785 177.555C279.775 177.523 279.765 177.488 279.754 177.45C279.697 177.248 279.616 176.955 279.523 176.589C279.336 175.857 279.101 174.839 278.904 173.695C278.508 171.38 278.29 168.644 278.89 166.697C279.129 165.921 279.974 165.324 281.376 164.92C282.747 164.525 284.486 164.364 286.222 164.331C287.95 164.298 289.643 164.393 290.907 164.496C291.491 164.544 291.982 164.594 292.341 164.633C292.217 164.934 292.054 165.337 291.864 165.819C291.426 166.929 290.843 168.464 290.263 170.164C289.683 171.863 289.104 173.732 288.676 175.508C288.252 177.27 287.969 178.973 287.995 180.336L287.994 180.368L287.989 180.499C287.985 180.614 287.979 180.783 287.971 180.999C287.954 181.432 287.93 182.051 287.897 182.801C287.833 184.299 287.737 186.316 287.611 188.388C287.485 190.461 287.33 192.585 287.147 194.3C287.055 195.158 286.958 195.907 286.854 196.493C286.747 197.103 286.644 197.47 286.567 197.616L286.709 197.691C286.642 197.728 286.575 197.78 286.509 197.85L287.021 197.977C287.024 198.008 287.028 198.045 287.032 198.087C286.741 198.099 286.512 197.906 286.512 197.903L286.512 197.91L286.516 197.943L286.528 198.071C286.539 198.184 286.556 198.35 286.578 198.561C286.62 198.983 286.683 199.586 286.762 200.312C286.92 201.762 287.142 203.703 287.402 205.657C287.661 207.61 287.958 209.587 288.264 211.106C288.417 211.863 288.576 212.522 288.738 213.012C288.77 213.11 288.804 213.205 288.839 213.294C288.76 213.309 288.676 213.324 288.588 213.34C287.995 213.451 287.2 213.604 286.397 213.779C285.597 213.953 284.778 214.149 284.14 214.346ZM279.367 177.405C279.442 177.43 279.509 177.464 279.568 177.502L279.367 177.905V177.405Z" fill="#3F3F3F" stroke="#626262"/>
<path d="M288.919 131.944C288.919 131.944 288.283 135.87 281.919 134.173L286.159 166.433C286.159 166.433 298.469 166.857 298.359 165.371L295.816 145.846L288.919 131.944Z" fill="white"/>
<path opacity="0.1" d="M288.76 131.732C289.589 132.548 290.669 133.061 291.826 133.188C292.882 133.271 293.909 133.577 294.838 134.088C295.996 134.62 296.938 135.532 297.508 136.672C298.251 138.794 302.92 142.296 305.046 141.553L304.303 147.92C304.303 147.92 298.255 147.606 297.193 145.267L298.993 167.977H297.408C297.408 167.977 296.558 161.822 295.922 160.548C295.286 159.274 294.012 152.271 293.905 150.572C293.798 148.873 292.205 139.107 290.827 137.413L288.757 132.372L288.76 131.732Z" fill="black"/>
<path opacity="0.1" d="M288.76 132.051C289.707 132.794 290.842 133.261 292.038 133.4C293.094 133.483 294.121 133.789 295.05 134.3C296.208 134.832 297.15 135.743 297.72 136.883C298.463 139.005 303.132 142.507 305.259 141.764L304.516 148.131C304.516 148.131 298.468 147.817 297.406 145.478L299.212 168.186H297.618C297.618 168.186 296.768 162.031 296.132 160.757C295.496 159.483 294.222 152.48 294.115 150.781C294.008 149.082 292.415 139.316 291.037 137.622L288.755 132.687L288.76 132.051Z" fill="black"/>
<path d="M288.76 131.839C289.707 132.582 290.842 133.049 292.038 133.188C293.094 133.271 294.121 133.577 295.05 134.088C296.208 134.62 297.15 135.531 297.72 136.671C298.463 138.793 303.132 142.295 305.259 141.552L304.516 147.919C304.516 147.919 298.468 147.605 297.406 145.266L299.206 167.976H297.618C297.618 167.976 296.768 161.821 296.132 160.547C295.496 159.273 294.222 152.27 294.115 150.571C294.008 148.872 292.415 139.106 291.037 137.412L288.755 132.477L288.76 131.839Z" fill="url(#paint12_linear)"/>
<path opacity="0.1" d="M283.347 127.752C283.383 126.807 283.294 125.861 283.082 124.939L289.13 129.503C289.13 129.503 288.985 130.12 288.876 131.022C288.574 131.071 288.269 131.096 287.964 131.096C285.852 131.095 284.338 129.454 283.347 127.752Z" fill="black"/>
<path d="M287.964 130.779C291.129 130.779 293.695 128.213 293.695 125.048C293.695 121.883 291.129 119.317 287.964 119.317C284.799 119.317 282.233 121.883 282.233 125.048C282.233 128.213 284.799 130.779 287.964 130.779Z" fill="#FEC3BE"/>
<path opacity="0.1" d="M294.217 119.43C294.25 118.463 294.09 117.498 293.746 116.594C293.839 116.736 293.878 116.906 293.856 117.075C293.833 117.243 293.751 117.397 293.625 117.51C293.441 116.525 292.937 115.628 292.191 114.959C292.388 115.02 292.553 115.157 292.65 115.34C292.747 115.522 292.768 115.736 292.709 115.934C292.572 116.327 292.326 116.674 292.001 116.934C291.996 116.629 291.913 116.33 291.76 116.066C291.607 115.802 291.389 115.581 291.126 115.426C290.596 115.125 290.018 114.916 289.419 114.807C289.625 114.88 289.801 115.019 289.919 115.203C290.038 115.387 290.092 115.604 290.074 115.822C290.073 115.859 290.066 115.896 290.051 115.93C290.037 115.965 290.015 115.996 289.989 116.022C289.931 116.059 289.864 116.077 289.796 116.074C289.197 116.098 288.598 116.085 288.002 116.036C287.269 115.953 286.531 115.914 285.794 115.918C284.632 115.945 283.508 116.339 282.584 117.045C281.66 117.75 280.983 118.73 280.651 119.844C280.544 120.389 280.488 120.943 280.483 121.499L280.37 124.339C280.303 125.168 280.337 126.001 280.47 126.822C280.628 127.581 280.952 128.296 281.419 128.915C281.886 129.534 282.484 130.042 283.17 130.403C284.002 129.197 284.076 127.647 284.37 126.21C284.415 125.877 284.538 125.559 284.73 125.283C284.828 125.147 284.967 125.046 285.126 124.992C285.284 124.938 285.456 124.935 285.617 124.983C285.692 125.014 285.759 125.063 285.812 125.125C285.865 125.187 285.902 125.261 285.921 125.341C285.939 125.42 285.938 125.503 285.917 125.582C285.897 125.661 285.858 125.734 285.804 125.795C286.027 126.067 286.467 125.864 286.723 125.622C287.451 124.931 287.953 124.036 288.162 123.054C288.262 122.559 288.369 121.954 288.847 121.783C289.014 121.737 289.189 121.725 289.361 121.748C290.371 121.817 291.951 122.235 292.931 121.914C293.84 121.602 294.217 120.285 294.217 119.43Z" fill="black"/>
<path d="M294.112 119.323C294.145 118.356 293.985 117.391 293.641 116.487C293.734 116.629 293.773 116.799 293.751 116.968C293.728 117.136 293.646 117.29 293.52 117.403C293.337 116.417 292.833 115.519 292.086 114.849C292.283 114.91 292.448 115.047 292.545 115.23C292.642 115.412 292.663 115.626 292.604 115.824C292.467 116.217 292.221 116.564 291.896 116.824C291.891 116.519 291.808 116.22 291.655 115.956C291.502 115.692 291.284 115.471 291.021 115.316C290.491 115.015 289.913 114.806 289.314 114.697C289.52 114.77 289.696 114.909 289.814 115.093C289.933 115.277 289.987 115.494 289.969 115.712C289.968 115.749 289.961 115.786 289.946 115.82C289.932 115.855 289.91 115.886 289.884 115.912C289.826 115.949 289.759 115.967 289.691 115.964C289.093 115.988 288.493 115.975 287.897 115.926C287.164 115.843 286.426 115.804 285.689 115.808C284.527 115.835 283.403 116.229 282.479 116.935C281.555 117.64 280.878 118.62 280.546 119.734C280.439 120.279 280.383 120.833 280.378 121.389L280.265 124.229C280.198 125.058 280.232 125.891 280.365 126.712C280.524 127.469 280.849 128.182 281.316 128.799C281.783 129.416 282.38 129.923 283.065 130.283C283.897 129.077 283.971 127.527 284.265 126.09C284.31 125.757 284.433 125.439 284.625 125.163C284.723 125.027 284.862 124.926 285.021 124.872C285.179 124.818 285.351 124.815 285.512 124.863C285.587 124.894 285.654 124.943 285.707 125.005C285.76 125.067 285.797 125.141 285.816 125.221C285.834 125.3 285.833 125.383 285.813 125.462C285.792 125.541 285.753 125.614 285.699 125.675C285.922 125.947 286.362 125.744 286.618 125.502C287.346 124.811 287.848 123.916 288.057 122.934C288.157 122.439 288.264 121.834 288.742 121.663C288.909 121.617 289.084 121.605 289.256 121.628C290.266 121.697 291.846 122.115 292.826 121.794C293.734 121.503 294.112 120.175 294.112 119.323Z" fill="#504A4B"/>
<path opacity="0.1" d="M305.526 141.548C305.526 141.548 306.376 145.474 304.783 147.915L303.883 147.841L304.375 141.614L305.526 141.548Z" fill="black"/>
<path d="M305.314 141.548C305.314 141.548 306.164 145.474 304.571 147.915L303.671 147.841L304.163 141.614L305.314 141.548Z" fill="url(#paint13_linear)"/>
<path opacity="0.1" d="M282.498 130.831L275.654 136.72C274.407 138.195 273.542 139.953 273.135 141.841C272.728 143.728 272.791 145.687 273.319 147.544C273.319 147.544 274.062 157.306 274.911 157.732C274.911 157.732 277.882 163.675 278.094 169.299C278.094 169.299 282.074 161.289 283.878 166.169C284.321 167.532 285.104 168.759 286.154 169.734C287.204 170.708 288.486 171.399 289.878 171.74L287.539 142.871C287.539 142.871 281.65 132.634 282.498 130.831Z" fill="black"/>
<path d="M282.286 130.831L275.442 136.72C274.196 138.195 273.331 139.953 272.924 141.841C272.517 143.728 272.58 145.687 273.107 147.544C273.107 147.544 273.85 157.306 274.7 157.732C274.7 157.732 277.671 163.675 277.883 169.299C277.883 169.299 282.075 160.862 283.883 165.743C284.333 167.114 285.088 168.365 286.089 169.404C287.09 170.443 288.313 171.242 289.667 171.743L287.327 142.878C287.327 142.878 281.436 132.634 282.286 130.831Z" fill="url(#paint14_linear)"/>
<path d="M279.156 155.715C279.156 155.715 277.456 154.548 274.699 157.732L281.49 170.042L283.772 166.587C283.772 166.587 278.944 157.096 279.156 155.715Z" fill="#FEC3BE"/>
<path opacity="0.1" d="M280.8 156.404C280.8 156.404 277.045 160.622 275.58 159.946L274.223 156.781L279.313 154.6L280.8 156.404Z" fill="black"/>
<path d="M280.8 156.193C280.8 156.193 277.045 160.411 275.58 159.735L274.223 156.577L279.313 154.389L280.8 156.193Z" fill="url(#paint15_linear)"/>
<path opacity="0.1" d="M283.542 165.793C283.542 165.793 281.755 169.457 280.8 169.671L282.179 171.263L284.196 167.442L283.542 165.793Z" fill="black"/>
<path d="M283.649 165.899C283.649 165.899 281.862 169.563 280.907 169.777L282.286 171.369L284.303 167.548L283.649 165.899Z" fill="#707070"/>
<path opacity="0.1" d="M280.27 143.246C280.27 143.246 280.058 150.887 280.906 153.751Z" fill="black"/>
<path opacity="0.1" d="M297.461 144.736C297.461 144.736 296.188 144.312 296.188 143.25Z" fill="black"/>
<path d="M323.116 136.902L314.216 135.464L314.113 136.1L323.014 137.538L323.116 136.902Z" fill="#40414D"/>
<path d="M326.038 137.69C325.49 138.055 324.876 138.307 324.23 138.431C324.068 138.454 323.904 138.454 323.742 138.431C322.93 138.301 322.509 137.903 322.432 137.437C322.401 137.222 322.436 137.003 322.532 136.809C322.752 136.39 323.276 136.146 324.088 136.278C324.337 136.325 324.574 136.418 324.788 136.554C325.265 136.861 325.687 137.244 326.038 137.69V137.69Z" fill="#40414D"/>
<path d="M326.037 137.691C325.489 138.056 324.875 138.308 324.229 138.432C324.2 138.333 324.207 138.227 324.248 138.132C324.334 137.999 324.435 137.876 324.548 137.765C324.641 137.636 324.666 137.423 324.529 137.344C324.496 137.33 324.465 137.314 324.436 137.294C324.354 137.22 324.436 137.088 324.505 137.01C324.654 136.894 324.755 136.726 324.786 136.539C325.264 136.85 325.687 137.24 326.037 137.691V137.691Z" fill="#F8BDC5"/>
<path opacity="0.1" d="M210.346 342.093C237.017 342.093 258.639 341.299 258.639 340.319C258.639 339.339 237.017 338.545 210.346 338.545C183.674 338.545 162.053 339.339 162.053 340.319C162.053 341.299 183.674 342.093 210.346 342.093Z" fill="black"/>
<path opacity="0.16" d="M102.346 334.545C129.018 334.545 150.64 335.339 150.64 336.319C150.64 337.299 129.018 338.093 102.346 338.093C75.6737 338.093 54.0527 337.299 54.0527 336.319C54.0527 335.339 75.6747 334.545 102.346 334.545Z" fill="black"/>
<defs>
<linearGradient id="paint0_linear" x1="144.841" y1="189.726" x2="144.841" y2="249.658" gradientUnits="userSpaceOnUse">
<stop stop-color="#707070"/>
<stop offset="1" stop-color="#D2D2D2"/>
</linearGradient>
<linearGradient id="paint1_linear" x1="209.363" y1="139.833" x2="209.363" y2="211.977" gradientUnits="userSpaceOnUse">
<stop stop-color="#E8E8F0"/>
<stop offset="0.541667" stop-color="#747478"/>
</linearGradient>
<linearGradient id="paint2_linear" x1="193.17" y1="214.573" x2="223.12" y2="238.556" gradientUnits="userSpaceOnUse">
<stop offset="0.9999" stop-color="#FBD072"/>
<stop offset="1" stop-color="#D6A763"/>
</linearGradient>
<linearGradient id="paint3_linear" x1="183.362" y1="249.786" x2="231.509" y2="268.674" gradientUnits="userSpaceOnUse">
<stop stop-color="#FBD072"/>
<stop offset="1" stop-color="#D6A763"/>
</linearGradient>
<linearGradient id="paint4_linear" x1="196.52" y1="249.786" x2="254.337" y2="279.717" gradientUnits="userSpaceOnUse">
<stop stop-color="#FBD072"/>
<stop offset="1" stop-color="#D6A763"/>
</linearGradient>
<linearGradient id="paint5_linear" x1="330.796" y1="222.247" x2="330.796" y2="123.147" gradientUnits="userSpaceOnUse">
<stop stop-color="#808080" stop-opacity="0.251"/>
<stop offset="0.54" stop-color="#808080" stop-opacity="0.122"/>
<stop offset="1" stop-color="#808080" stop-opacity="0.102"/>
</linearGradient>
<linearGradient id="paint6_linear" x1="331.041" y1="143.61" x2="331.041" y2="157.663" gradientUnits="userSpaceOnUse">
<stop stop-color="#707070"/>
<stop offset="1" stop-color="#D2D2D2"/>
</linearGradient>
<linearGradient id="paint7_linear" x1="331.041" y1="144.081" x2="331.041" y2="158.134" gradientUnits="userSpaceOnUse">
<stop stop-color="#707070"/>
<stop offset="1" stop-color="#D2D2D2"/>
</linearGradient>
<linearGradient id="paint8_linear" x1="337.395" y1="142.317" x2="337.395" y2="170.759" gradientUnits="userSpaceOnUse">
<stop stop-color="#707070"/>
<stop offset="1" stop-color="#D2D2D2"/>
</linearGradient>
<linearGradient id="paint9_linear" x1="335.378" y1="143.671" x2="335.378" y2="160.613" gradientUnits="userSpaceOnUse">
<stop stop-color="#707070"/>
<stop offset="1" stop-color="#D2D2D2"/>
</linearGradient>
<linearGradient id="paint10_linear" x1="341.79" y1="124.375" x2="341.79" y2="161.386" gradientUnits="userSpaceOnUse">
<stop stop-color="#241517"/>
<stop offset="1" stop-color="#6C6264"/>
</linearGradient>
<linearGradient id="paint11_linear" x1="283.389" y1="221.459" x2="283.389" y2="113.324" gradientUnits="userSpaceOnUse">
<stop stop-color="#808080" stop-opacity="0.251"/>
<stop offset="0.54" stop-color="#808080" stop-opacity="0.122"/>
<stop offset="1" stop-color="#808080" stop-opacity="0.102"/>
</linearGradient>
<linearGradient id="paint12_linear" x1="297.007" y1="131.839" x2="297.007" y2="167.976" gradientUnits="userSpaceOnUse">
<stop stop-color="#2C3134"/>
<stop offset="1" stop-color="white"/>
</linearGradient>
<linearGradient id="paint13_linear" x1="304.606" y1="141.548" x2="304.606" y2="147.915" gradientUnits="userSpaceOnUse">
<stop stop-color="#2C3134"/>
<stop offset="1" stop-color="white"/>
</linearGradient>
<linearGradient id="paint14_linear" x1="281.163" y1="130.831" x2="281.163" y2="171.743" gradientUnits="userSpaceOnUse">
<stop stop-color="#2C3134"/>
<stop offset="1" stop-color="white"/>
</linearGradient>
<linearGradient id="paint15_linear" x1="277.511" y1="154.389" x2="277.511" y2="159.808" gradientUnits="userSpaceOnUse">
<stop stop-color="#2C3134"/>
<stop offset="1" stop-color="white"/>
</linearGradient>
</defs>
</svg>
