<svg width="515" height="371" viewBox="0 0 515 371" fill="none" xmlns="http://www.w3.org/2000/svg">
<path d="M456.121 309.411C456.121 309.411 541.585 342.057 447.653 354.418C353.721 366.78 319.339 330.955 255.142 332.148C190.944 333.341 116.256 350.971 96.2032 351.671C76.1504 352.371 40.031 352.932 41.6094 340.653C43.1878 328.373 68.868 316.297 69.6673 310.332C70.4666 304.366 45.8388 289.158 41.6943 285.46C37.5497 281.762 32.159 271.122 54.1922 269.654C108.433 264.996 162.951 264.494 217.268 268.151C283.512 272.578 386.424 257.354 410.513 256.513C417.842 256.196 425.183 256.745 432.383 258.151C450.225 261.914 478.768 271.933 454.63 295.491C442.006 307.809 456.121 309.411 456.121 309.411Z" fill="#707070" fill-opacity="0.5"/>
<path d="M1.43584 312.761C1.43584 312.761 -9.42224 216.347 28.5798 187.129C61.6718 161.68 89.1978 146.229 145.296 144.276C201.394 142.323 232.149 142.318 265.632 102.402C299.115 62.4859 344.383 2.17092 395.007 0.144925C443.867 -1.81307 473.721 14.7449 501.766 131.62C529.811 248.495 500.857 308.865 499.947 309.834C499.319 310.529 1.43584 312.761 1.43584 312.761Z" fill="#707070" fill-opacity="0.5"/>
<path opacity="0.04" d="M280.263 254.627C282.792 224.034 273.368 179.265 284.363 173.034C295.22 166.893 298.921 164.886 310.188 152.403C337.654 121.967 374.776 75.9889 416.352 74.4519C456.448 72.9589 480.948 85.5839 503.955 174.679C515.461 219.225 514.782 242.759 513.655 256.824C513.043 264.562 512.431 274.635 512.055 275C511.548 275.527 278.167 280.034 280.263 254.627Z" fill="#017DCE"/>
<path opacity="0.23" d="M187.284 155.872L183.984 311.272C183.984 312.384 186.969 312.018 187.715 312.018H192.192L191.505 156.13L218.173 156.876L206.593 91.4599C206.304 89.8183 205.445 88.3311 204.167 87.26C202.89 86.1888 201.276 85.6021 199.609 85.6029H181.209C179.078 85.597 177.012 86.3416 175.375 87.706C173.738 89.0704 172.633 90.9676 172.255 93.0649L160.981 155.392L187.284 155.872Z" fill="white"/>
<path d="M161.632 151.903L217.005 152.925L218.139 156.857L160.975 155.373L161.632 151.903Z" fill="url(#paint0_linear)"/>
<path opacity="0.2" d="M433.883 161.52L433.428 270.32L502.522 270.507C502.522 270.507 503.022 213.207 500.283 158.337L434.024 157.345L433.883 161.52Z" fill="white"/>
<path opacity="0.2" d="M368.87 175.586L367.034 270.572H426.093L425.675 175.586H368.87Z" fill="white"/>
<path opacity="0.2" d="M283.106 231.324L367.989 231.764L367.034 270.572L283.427 270.542L283.106 231.324Z" fill="white"/>
<path d="M276.115 176.571L276.324 270.771C276.324 270.771 276.839 276.695 282.502 276.949C288.165 277.203 511.387 277.3 511.387 277.3C511.387 277.3 513.379 271.055 512.611 270.794C511.843 270.533 283.428 270.54 283.428 270.54C283.428 270.54 283.495 267.205 283.495 265.071C283.495 262.698 283.368 173.599 283.368 173.599C281.055 174.829 278.626 175.825 276.115 176.571V176.571Z" fill="white"/>
<path d="M281.04 185.928L506.895 187.279L508.089 192.174L281.04 193.263V185.928Z" fill="white"/>
<path d="M344.769 112.573V270.737L350.731 271.2V108.447L344.769 112.573Z" fill="white"/>
<path d="M452.634 80.7489L452.5 270.737L458.007 270.282L458.865 84.4579L452.634 80.7489Z" fill="white"/>
<path d="M350.731 108.446L479.631 109.229L475.923 102.551L358.067 102.491L350.731 108.446Z" fill="white"/>
<path d="M372.459 139.6C379.696 139.6 385.562 133.734 385.562 126.497C385.562 119.26 379.696 113.394 372.459 113.394C365.222 113.394 359.356 119.26 359.356 126.497C359.356 133.734 365.222 139.6 372.459 139.6Z" fill="white"/>
<path d="M385.211 139.3C389.954 139.3 393.799 135.455 393.799 130.712C393.799 125.969 389.954 122.124 385.211 122.124C380.468 122.124 376.623 125.969 376.623 130.712C376.623 135.455 380.468 139.3 385.211 139.3Z" fill="white"/>
<path d="M471.855 151.933C479.227 151.933 485.204 145.956 485.204 138.584C485.204 131.211 479.227 125.235 471.855 125.235C464.482 125.235 458.506 131.211 458.506 138.584C458.506 145.956 464.482 151.933 471.855 151.933Z" fill="white"/>
<path d="M458.103 149.03C462.933 149.03 466.848 145.115 466.848 140.285C466.848 135.455 462.933 131.54 458.103 131.54C453.273 131.54 449.358 135.455 449.358 140.285C449.358 145.115 453.273 149.03 458.103 149.03Z" fill="white"/>
<path opacity="0.07" d="M246.264 237.428C245.464 239.788 242.298 244.415 240.221 247.2C238.144 249.985 231.771 255.839 232.196 262.968C232.621 270.097 236.919 288.46 236.919 290.113C236.919 291.766 235.314 299.555 234.086 301.962C232.858 304.369 232.292 308.662 232.906 308.662C234.067 308.621 235.222 308.463 236.352 308.19C237.391 307.954 238.429 307.718 239.421 307.39C239.846 307.201 239.94 305.832 239.94 305.832C239.973 305.259 239.909 304.684 239.751 304.132C239.464 303.253 239.243 302.353 239.09 301.441C238.854 294.741 238.24 279.206 238.382 278.12C238.618 276.09 236.966 265.846 238.476 260.794C239.986 255.742 246.264 237.428 246.264 237.428Z" fill="black"/>
<path opacity="0.07" d="M230.969 224.682L229.883 233.082C229.883 233.082 230.969 234.829 231.299 233.365C231.629 231.901 233.899 229.165 232.479 227.181C231.848 226.432 231.338 225.589 230.969 224.682Z" fill="black"/>
<path opacity="0.07" d="M261.654 226.995L261.276 231.008L260.804 234.879C260.804 234.879 259.199 236.059 259.246 234.549C259.293 233.039 256.555 230.772 258.632 229.262C260.709 227.752 261.654 226.995 261.654 226.995Z" fill="black"/>
<path d="M254.808 306.163C254.1 303.189 253.864 299.363 253.392 299.271H252.873L247.873 299.318C247.873 299.318 246.834 304.086 246.315 306.069C246.268 306.211 246.173 306.541 246.079 306.777C246.001 307.117 245.97 307.467 245.985 307.816C245.965 308.663 246.179 309.499 246.604 310.232C247.029 310.965 247.648 311.566 248.393 311.97C250.187 312.87 251.556 313.717 253.393 311.97C255.23 310.223 255.516 309.138 254.808 306.163Z" fill="#060606"/>
<path d="M238.993 299.743L232.667 300.073C232.667 300.073 230.167 304.416 226.483 305.455C223.037 306.446 217.325 308.855 219.874 310.223C221.762 311.309 233.942 310.317 236.916 310.553C239.135 310.742 239.749 309.373 239.516 306.399C239.324 304.181 238.993 299.743 238.993 299.743Z" fill="#060606"/>
<path d="M231.396 220.716C231.396 220.716 227.147 255.65 226.864 257.916C226.581 260.182 228.327 271.842 228.327 274.061C228.327 276.28 232.479 300.116 232.479 300.116L239.088 299.833C239.088 299.833 237.766 264.757 237.908 263.058C238.05 261.359 245.273 241.016 245.273 241.016C245.273 241.016 245.792 246.398 245.792 248.097C245.792 249.796 247.775 299.416 247.775 299.416H253.534L261.701 226.337L261.559 224.921L231.396 220.716Z" fill="#3F3F3F"/>
<path d="M250.844 153.255C250.844 153.255 244.518 155.71 243.102 156.276C242.128 156.783 241.349 157.596 240.883 158.589C240.883 158.589 240.175 158.164 240.175 159.344C240.242 160.921 240.594 162.472 241.214 163.923C241.954 165.082 242.631 166.28 243.244 167.511C243.811 168.738 243.622 171.288 243.008 171.665C242.394 172.042 231.724 181.674 231.724 181.674L222.849 209.008L224.029 217.647L225.823 226.147C225.823 226.147 225.445 226.761 226.201 227.469C227.623 229.401 228.947 231.403 230.167 233.469L231.249 225.673L227.617 214.107L226.342 204.382L234.842 187.009L264.3 192.249L267.51 211.18L261.56 227.325L260.521 235.209L265.521 230.819C265.986 230.162 266.367 229.448 266.654 228.695L269.628 220.295L271.849 206.884C271.849 206.884 253.249 173.366 252.305 171.384C251.88 170.484 252.352 168.315 252.588 167.23C252.759 166.266 253.164 165.358 253.768 164.586C254.431 163.774 254.857 162.794 254.998 161.755C254.998 161.047 255.281 158.309 254.573 158.97C254.431 159.159 253.912 158.309 253.673 157.223C253.169 155.637 252.179 154.249 250.844 153.255V153.255Z" fill="url(#paint1_linear)"/>
<path d="M248.435 180.589C248.212 180.787 247.921 180.893 247.623 180.884C247.324 180.876 247.041 180.753 246.83 180.542C246.495 180.044 246.194 179.523 245.93 178.984C245.458 178.04 241.823 172.705 241.823 172.705C241.823 172.705 233.184 174.924 231.815 175.821C230.337 176.698 229.216 178.069 228.652 179.692C228.183 181.344 221.527 200.747 221.196 201.927C220.865 203.107 219.166 204.996 219.969 209.764C220.772 214.532 225.256 226.764 225.728 226.901C226.2 227.038 230.968 224.682 230.968 224.682C230.968 224.682 227.191 209.482 227.191 207.97C227.191 206.458 230.591 202.163 231.959 199.236C233.327 196.309 234.319 193.76 234.792 192.485C235.265 191.21 230.732 217.742 230.732 217.742C230.732 217.742 230.638 222.557 231.532 223.029C232.382 223.454 242.532 227.329 244.892 228.222C245.018 228.258 245.152 228.25 245.273 228.198C245.393 228.147 245.492 228.055 245.553 227.939L247.064 223.639C247.064 223.592 247.111 223.545 247.158 223.592C247.164 223.592 247.17 223.593 247.176 223.595C247.182 223.598 247.187 223.601 247.191 223.605C247.196 223.61 247.199 223.615 247.201 223.621C247.204 223.627 247.205 223.633 247.205 223.639L248.621 228.313C248.657 228.429 248.735 228.527 248.84 228.588C248.945 228.649 249.069 228.669 249.188 228.643L261.698 225.952C261.698 225.952 261.509 202.867 261.745 198.996C261.934 195.219 261.462 193.096 262.17 194.134C262.925 195.267 266.088 205.653 266.088 207.4C266.088 209.147 262.547 224.489 262.547 224.489L267.221 227.089C267.221 227.089 273.547 210.236 273.877 208.017C274.207 205.798 274.349 204.617 273.311 202.399C272.273 200.181 266.511 180.022 266.511 180.022C266.511 180.022 265.944 177.567 261.696 176.293C257.448 175.019 254.284 173.13 253.529 173.177C252.774 173.224 250.413 177.662 249.375 178.984C248.907 179.505 249.002 179.739 248.435 180.589Z" fill="url(#paint2_linear)"/>
<path opacity="0.61" d="M250.795 153.303C250.795 153.303 243.667 155.903 242.203 156.985C241.621 157.364 241.162 157.906 240.884 158.543C240.884 158.543 240.129 158.213 240.176 159.298C240.223 160.383 239.326 157.598 239.09 156.698C238.93 155.752 239 154.782 239.296 153.869C239.592 152.956 240.105 152.129 240.79 151.458C242.726 149.617 244.85 148.248 246.644 148.342C248.4 148.371 250.076 149.084 251.314 150.329C252.73 151.698 253.061 151.604 253.344 151.745C254.365 152.619 255.05 153.821 255.28 155.145C255.347 156.553 255.236 157.964 254.95 159.345C254.866 159.243 254.746 159.177 254.615 159.16C254.484 159.142 254.351 159.175 254.242 159.251C253.864 159.534 253.77 157.646 252.542 155.333C251.645 153.633 250.795 153.303 250.795 153.303Z" fill="#191919"/>
<path opacity="0.07" d="M241.78 172.753C242.063 172.706 240.411 173.131 241.874 172.659C244.374 171.859 243.337 167.136 243.337 167.136C243.492 167.75 243.82 168.307 244.28 168.741C244.74 169.176 245.315 169.471 245.937 169.591C248.297 170.299 248.911 169.78 245.37 171.432C241.829 173.084 243.67 173.651 243.907 175.822" fill="black"/>
<path opacity="0.07" d="M234.699 194.091L230.733 218.167C230.733 218.167 230.78 222.467 231.533 223.077C232.286 223.687 234.833 224.116 235.404 224.54C235.975 224.964 242.104 226.995 240.504 223.549C240.126 222.794 231.865 218.167 235.547 213.305C239.229 208.443 238.568 201.739 236.822 197.065C235.766 194.328 235.284 191.404 235.407 188.473L234.699 194.091Z" fill="black"/>
<path d="M295.189 302.098L291.495 302.937C291.495 302.937 290.595 305.847 290.18 307.414C290.152 307.498 290.068 307.778 290.012 307.946C289.956 308.213 289.928 308.484 289.928 308.757C289.911 309.411 290.075 310.057 290.401 310.625C290.726 311.192 291.202 311.659 291.775 311.975C293.146 312.675 294.21 313.318 295.665 311.975C297.12 310.632 297.372 309.792 296.756 307.47C296.14 305.148 295.189 302.098 295.189 302.098Z" fill="black"/>
<path d="M316.652 306.94C314.162 306.156 313.098 303.078 313.098 303.078L308.089 302.826C308.089 302.826 307.977 305.96 307.837 307.667C307.669 309.934 308.089 310.941 309.6 310.801C311.615 310.633 319.842 311.361 321.129 310.549C322.836 309.514 318.974 307.667 316.652 306.94Z" fill="black"/>
<path d="M287.466 231.413C287.466 231.413 285.591 233.987 285.003 240.927C284.415 247.867 285.731 261.047 286.346 263.593C286.961 266.139 289.424 289.925 290.04 291.688C290.656 293.451 291.495 302.909 291.495 302.909L295.469 303.021C295.469 303.021 296.644 290.653 296.644 287.379C296.644 284.105 298.267 253.128 298.155 250.861C298.043 248.594 298.575 249.322 298.575 249.322C298.575 249.322 302.075 260.431 303.108 262.278C304.141 264.125 305.99 267.735 305.99 267.735C305.99 267.735 306.41 279.348 306.913 286.064C307.416 292.78 307.948 303.357 307.948 303.357L313.293 303.245C313.293 303.245 314.524 285.56 314.524 281.838C314.524 278.116 315.643 269.19 315.643 268.154C315.643 267.118 312.143 249.014 312.143 249.014L309.712 231.385L287.466 231.413Z" fill="#3F3F3F"/>
<path d="M289.647 182.806C289.647 182.806 291.97 173.767 293.788 173.096C300.952 170.438 301.679 165.96 304.729 178.777C307.779 191.594 316.231 206.452 319.841 210.844C324.794 216.86 324.374 220.75 322.611 221.114C320.848 221.478 311.838 223.856 311.138 224.08C310.438 224.304 312.593 230.544 309.571 229.68C307.892 229.204 307.752 221.789 309.851 221.453C310.718 221.313 320.708 219.326 320.651 218.739C320.594 218.152 312.872 207.434 312.872 207.434L307.892 205.081L295.552 198.444L289.652 195.506L289.036 185.684L288.616 183.784L289.623 182.777" fill="url(#paint3_linear)"/>
<path d="M287.053 194.923C287.053 194.923 287.109 195.623 285.43 198.029C284.423 199.484 286.969 198.449 284.814 202.115C281.4 207.907 279.497 214.115 279.245 217.981C279.105 220.36 281.176 219.881 282.045 220.639C282.521 221.059 284.088 220.359 284.452 219.827L285.152 218.596C285.932 217.498 286.651 216.359 287.307 215.182C287.475 214.091 288.538 209.473 288.907 207.822C289.215 206.422 291.677 203.233 293.664 196.657C294.252 194.642 293.664 193.803 293.804 192.879C294.224 189.885 290.026 189.941 289.663 190.979C289.571 191.231 286.381 203.822 286.213 205.501C286.526 207.885 287.176 210.212 288.144 212.413C289.011 213.784 289.991 214.764 289.991 215.967C289.862 218.788 289.373 221.581 288.536 224.278C287.636 226.461 286.353 231.498 286.353 231.498L308.711 231.386C308.711 231.386 307.899 221.786 308.235 218.458C308.235 218.458 309.186 207.629 309.746 206.565C310.306 205.501 316.294 215.24 317.805 217.73C318.421 218.765 309.914 220.584 309.214 221.396C308.514 222.208 309.942 224.474 309.942 224.474C309.942 224.474 324.801 222.655 324.717 220.388C324.633 218.121 316.238 200.66 313.244 197.358C310.25 194.056 309.466 194.168 306.944 195.063C304.422 195.958 303.222 196.77 299.836 197.33C297.361 197.752 294.818 197.297 292.644 196.043C291.446 195.287 287.053 194.923 287.053 194.923Z" fill="url(#paint4_linear)"/>
<path d="M287.053 194.923C287.053 194.923 287.109 195.623 285.43 198.029C284.423 199.484 286.969 198.449 284.814 202.115C281.4 207.907 279.497 214.115 279.245 217.981C279.105 220.36 281.176 219.881 282.045 220.639C282.521 221.059 284.088 220.359 284.452 219.827L285.152 218.596C285.932 217.498 286.651 216.359 287.307 215.182C287.475 214.091 288.538 209.473 288.907 207.822C289.215 206.422 291.677 203.233 293.664 196.657C294.252 194.642 293.664 193.803 293.804 192.879C294.224 189.885 290.026 189.941 289.663 190.979C289.571 191.231 286.381 203.822 286.213 205.501C286.526 207.885 287.176 210.212 288.144 212.413C289.011 213.784 289.991 214.764 289.991 215.967C289.862 218.788 289.373 221.581 288.536 224.278C287.636 226.461 286.353 231.498 286.353 231.498L308.711 231.386C308.711 231.386 307.899 221.786 308.235 218.458C308.235 218.458 309.186 207.629 309.746 206.565C310.306 205.501 316.294 215.24 317.805 217.73C318.421 218.765 309.914 220.584 309.214 221.396C308.514 222.208 309.942 224.474 309.942 224.474C309.942 224.474 324.801 222.655 324.717 220.388C324.633 218.121 316.238 200.66 313.244 197.358C310.25 194.056 309.466 194.168 306.944 195.063C304.422 195.958 303.222 196.77 299.836 197.33C297.361 197.752 294.818 197.297 292.644 196.043C291.446 195.287 287.053 194.923 287.053 194.923Z" fill="url(#paint5_linear)"/>
<path d="M284.007 202.541C284.266 202.185 284.5 201.811 284.707 201.422C284.907 201.058 285.043 200.834 285.127 200.666C286.218 198.819 288.709 194.594 289.101 192.747C289.323 192.014 289.49 191.266 289.601 190.508C289.689 190 289.708 189.482 289.657 188.969C289.517 188.018 287.586 184.044 287.866 183.68C287.894 183.624 288.146 182.505 288.51 182.868C288.93 183.288 291.672 184.799 291.868 185.079C292.396 186.028 292.818 187.032 293.127 188.073C293.327 188.689 293.491 190.48 293.547 190.619C294.135 192.102 293.463 193.219 293.519 194.005C293.51 194.514 293.566 195.022 293.687 195.516C294.079 195.796 294.61 196.048 294.834 195.768C295.058 195.488 294.974 194.705 295.002 193.921C295.197 190.599 294.662 187.276 293.435 184.183C292.484 182.224 290.273 178.391 291.784 176.183C293.295 173.975 296.455 172.234 296.595 171.676C296.735 171.118 296.819 173.803 298.495 174.754C300.171 175.705 302.525 178.254 302.525 178.784C302.812 180.695 302.447 182.647 301.49 184.325C299.89 187.487 298.636 191.545 300.846 194.539C303.056 197.533 308.625 201.759 309.017 202.71C309.409 203.661 309.017 207.887 308.877 210.265C308.737 212.643 313.382 206.207 313.214 203.101C313.046 199.995 313.606 198.652 310.444 193.923C307.282 189.194 305.211 181.023 305.127 179.036C305.043 177.049 304.12 171.593 302.217 169.997C300.314 168.401 300.149 166.919 294.86 167.451C293.563 167.533 292.322 168.008 291.302 168.813C290.282 169.618 289.532 170.714 289.151 171.956C288.257 175.69 287.751 179.507 287.64 183.345C287.584 184.352 288.032 190.509 287.472 192.439C286.912 194.369 284.307 198.484 283.807 200.163" fill="url(#paint6_linear)"/>
<path opacity="0.07" d="M293.481 302.938C293.504 303.02 293.513 303.105 293.509 303.19C293.591 304.277 293.357 305.366 292.837 306.324C291.998 307.611 293.984 310.438 293.984 311.137C293.959 311.317 293.899 311.49 293.806 311.645C293.714 311.801 293.591 311.937 293.444 312.044C293.298 312.151 293.131 312.228 292.955 312.269C292.778 312.31 292.595 312.315 292.417 312.284C291.941 312.11 291.504 311.843 291.132 311.499C290.76 311.156 290.46 310.741 290.249 310.281C290.038 309.82 289.921 309.322 289.904 308.816C289.887 308.309 289.97 307.805 290.15 307.331C290.57 306.016 290.822 304.868 291.073 304.141C291.213 303.777 291.325 303.413 291.437 303.05C291.46 302.884 291.469 302.717 291.465 302.55C291.437 302.326 291.437 302.074 291.409 301.822C291.269 300.563 285.952 261.303 285.756 259.792C285.588 258.449 284.805 250.138 284.889 245.269C284.838 244.861 284.828 244.448 284.861 244.038C284.886 243.777 284.895 243.516 284.889 243.254C284.917 242.806 284.945 242.354 285.001 241.911C284.943 241.597 284.943 241.274 285.001 240.96C285.029 240.372 285.001 240.037 285.057 239.673C285.494 236.883 286.274 234.157 287.38 231.558L287.548 230.97C287.927 229.164 288.404 227.38 288.975 225.625C289.367 224.786 291.075 216.475 290.934 215.551C290.793 214.627 289.003 212.277 289.003 212.277L289.255 211.018C289.255 211.018 289.815 209.171 290.374 207.604C290.822 206.404 292.249 203.211 292.837 201.84C293.592 200.397 294.131 198.851 294.437 197.251C294.577 196.132 294.689 196.607 295.193 196.831C295.921 197.111 295.949 196.747 295.977 196.047C296.004 193.871 295.92 191.694 295.725 189.527C295.501 187.82 293.738 185.078 292.983 183.399C292.538 182.52 292.179 181.6 291.91 180.652C291.668 179.883 291.64 179.064 291.827 178.281C292.014 177.497 292.41 176.779 292.973 176.203C294.499 174.882 296.098 173.649 297.763 172.509C297.763 172.509 296.112 175.867 296.784 177.014C297.875 178.777 297.344 181.014 297.344 181.799C297.344 182.584 296.477 184.541 297.008 186.528C297.931 190.028 296.336 192.013 296.924 194.391C297.288 195.846 297.512 196.322 297.148 197.609C296.784 198.896 293.174 208.663 295.16 214.344C297.146 220.025 298.07 224.054 294.88 227.468C291.69 230.882 294.628 233.932 294.68 236.339C294.82 242.271 291.938 241.628 291.77 245.322C291.602 249.016 292.414 251.674 292.47 253.605C292.61 259.957 292.526 261.216 292.19 263.705C291.854 266.194 290.147 270.925 292.05 280.215C293.953 289.505 293.673 290.345 293.477 295.606C293.34 298.048 293.341 300.496 293.481 302.938V302.938Z" fill="black"/>
<path d="M288.137 180.931C288.903 180.396 289.707 179.919 290.544 179.504C291.579 179.084 292.055 180.623 292.335 181.323C292.615 182.023 294.014 186.332 294.07 186.668C294.098 186.808 293.87 186.78 293.147 187.34C293.035 187.424 292.839 187.368 292.615 186.864C292.432 186.395 292.12 185.987 291.715 185.689C291.547 185.605 288.915 184.682 288.889 184.933C289.144 185.876 289.461 186.802 289.84 187.703C289.868 187.787 290.316 188.71 290.232 188.878C290.204 188.906 290.26 188.878 290.26 188.878C290.26 188.878 289.784 189.046 289.644 188.878C289.504 188.71 288.161 184.373 287.657 182.722C287.545 182.358 287.293 181.855 287.545 181.631L288.137 180.931Z" fill="#EFEFEF"/>
<path d="M385.288 289.063C384.585 288.905 383.943 288.543 383.444 288.023L381.505 287.771C381.505 287.771 380.905 289.599 381.552 289.978C382.199 290.357 386.092 290.467 386.092 289.978C386.092 289.489 386.029 289.094 385.288 289.063Z" fill="black"/>
<path d="M372.096 288.999C371.536 288.541 371.124 287.927 370.914 287.234L369.29 286.146C369.29 286.146 367.919 287.517 368.344 288.132C368.769 288.747 372.174 290.622 372.395 290.181C372.616 289.74 372.742 289.377 372.096 288.999Z" fill="black"/>
<path d="M374.996 236.951C374.996 236.951 376.855 233.01 379.855 235.06C382.855 237.11 382.913 239.804 382.014 241.097C381.65 241.548 381.405 242.083 381.3 242.652C381.195 243.222 381.234 243.809 381.414 244.36C381.463 244.502 381.564 244.621 381.698 244.691L386.758 247.528L388.776 249.435L393.628 243.316C393.891 242.981 394.226 242.708 394.608 242.518C394.989 242.328 395.408 242.225 395.835 242.216C396.55 242.166 397.263 242.331 397.884 242.689C397.884 242.689 398.042 243.319 396.308 243.789L394.574 244.262L390.155 252.146C389.689 252.295 389.192 252.316 388.715 252.208C388.239 252.1 387.8 251.866 387.444 251.531C386.215 250.512 385.066 249.4 384.008 248.205L383.855 266.49L384.391 271.723L384.17 274.816C384.186 275.1 384.06 278.158 384.044 278.441L383.697 283.17L383.271 287.962L381.506 287.741L381.206 284.273L380.512 271.805L380.433 260.535L377.375 267.597L377.485 271.711L374.965 279.525C374.859 279.85 374.728 280.167 374.571 280.471L370.961 287.28L369.255 286.225L371.194 281.307C371.394 280.881 372.408 277.619 372.534 277.161L373.827 271.045L379.438 249.655L376.62 251.09C376.62 251.09 374.555 255.708 374.24 256.181C373.925 256.654 370.155 261.416 370 262.045C369.788 262.94 369.233 263.715 368.455 264.204C367.667 264.519 366.248 265.039 368.297 262.045C369.905 259.696 370.93 257.947 371.308 257.316C371.406 257.142 371.496 256.963 371.576 256.78L373.704 251.421L377.093 245.983L377.55 245.652L378.512 244.895C378.573 244.847 378.622 244.784 378.652 244.713C378.682 244.641 378.694 244.562 378.685 244.485C378.579 243.759 378.194 243.104 377.613 242.657C376.51 241.774 374.271 240.104 374.996 236.951Z" fill="url(#paint7_linear)"/>
<path d="M375.658 260.816L373.767 271.061L377.55 271.849L379.914 263.337L380.481 271.837H384.437L384.8 258.612L375.658 260.816Z" fill="#3F3F3F"/>
<path d="M373.625 251.532C373.625 251.532 374.839 247.15 377.282 245.7C377.534 245.558 377.976 245.1 378.007 245.369C378.054 245.842 378.322 246.945 379.426 246.945C379.722 246.954 380.017 246.902 380.293 246.792C380.568 246.683 380.818 246.518 381.028 246.309C381.237 246.099 381.402 245.849 381.511 245.574C381.621 245.298 381.673 245.003 381.664 244.707C381.664 244.471 382.641 244.518 383.492 244.66C384.307 244.764 385.063 245.142 385.636 245.732L387.244 247.986L385.744 249.641L385.271 249.893L384.798 258.625C382.684 259.578 380.461 260.266 378.178 260.674C377.341 260.774 376.499 260.826 375.656 260.832L376.286 251.847L373.625 251.532Z" fill="url(#paint8_linear)"/>
<path d="M376.084 239.726C376.635 239.065 377.237 238.449 377.884 237.882C378.798 237.125 379.271 236.682 379.271 236.682C379.821 237.096 380.406 237.46 381.021 237.77C381.521 237.943 382.282 238.259 382.282 238.259C382.282 238.259 382.708 236.84 381.651 236.667C380.594 236.494 377.427 235.343 376.765 235.847C375.918 236.564 375.254 237.471 374.826 238.495C374.772 238.807 374.788 239.127 374.873 239.432C374.957 239.737 375.108 240.02 375.315 240.26C375.457 240.355 375.063 239.551 375.283 239.393C375.438 239.253 376.084 239.726 376.084 239.726Z" fill="#615C5C"/>
<path d="M374.824 238.496L384.702 236.179C384.702 236.179 384.891 235.722 384.529 235.706C383.641 235.897 382.767 236.145 381.912 236.447C381.593 235.608 381.022 234.888 380.278 234.386C379.533 233.885 378.652 233.626 377.755 233.646C377.755 233.646 377.881 233.362 377.708 233.346C377.345 233.383 376.989 233.472 376.652 233.61C376.589 233.673 376.778 233.862 376.684 233.941C375.871 234.342 375.233 235.027 374.891 235.866C374.548 236.705 374.524 237.641 374.824 238.496V238.496Z" fill="black"/>
<path opacity="0.07" d="M381.727 241.428C381.411 241.832 381.014 242.165 380.561 242.405C380.041 242.578 380.34 242.594 380.561 243.24C380.67 243.582 380.83 243.906 381.034 244.202C381.034 244.202 381.317 241.664 381.727 241.428Z" fill="black"/>
<path opacity="0.07" d="M376.683 233.957C376.683 233.957 377.124 234.383 376.841 235.502C376.558 236.621 376.463 236.968 376.699 237.393C376.935 237.818 376.762 238.055 376.762 238.055L374.824 238.512C374.504 237.658 374.518 236.715 374.863 235.871C375.207 235.027 375.857 234.343 376.683 233.957V233.957Z" fill="black"/>
<path opacity="0.07" d="M376.289 251.832C376.636 251.326 376.868 250.75 376.967 250.145C376.823 251.152 376.86 252.177 377.077 253.171C377.471 254.605 377.014 255.851 377.818 256.355C378.622 256.859 377.991 258.578 378.165 259.318C378.22 259.536 378.325 259.739 378.473 259.908C378.621 260.078 378.807 260.211 379.016 260.295C379.016 260.295 378.906 260.689 377.534 260.752C376.162 260.815 375.658 260.815 375.658 260.815L376.289 251.832Z" fill="black"/>
<path d="M416.932 288.21C416.308 288.857 415.519 289.321 414.651 289.553C413.818 289.586 413.71 289.885 413.71 290.399C413.71 290.913 417.331 290.814 418.51 290.615C419.343 290.482 418.763 288.243 418.763 288.243L416.932 288.21Z" fill="black"/>
<path d="M428.429 287.978L426.781 288.127C426.187 288.785 425.432 289.276 424.59 289.553C423.757 289.653 423.558 289.984 423.59 290.498C423.622 291.012 427.718 290.664 428.424 290.233C429.13 289.802 428.429 287.978 428.429 287.978Z" fill="black"/>
<path d="M425.171 236.032C424.845 239.399 424.519 239.316 423.487 240.494C422.98 241.075 422.147 241.788 422.057 242.534C422.05 242.617 422.064 242.7 422.099 242.776C422.135 242.852 422.189 242.917 422.257 242.965L423.343 243.765L423.796 244.08C423.831 244.109 423.862 244.142 423.887 244.18L427.653 249.836L427.671 249.853L430.007 253.933C430.048 254.149 430.044 254.371 429.994 254.586C429.944 254.8 429.849 255.001 429.717 255.177C428.594 256.272 426.005 257.433 426.386 258.527C427.635 262.143 426.621 261.297 425.897 260.716C425.396 259.963 425.034 259.126 424.829 258.245C424.648 257.582 428.088 254.43 427.729 253.933C427.403 253.469 424.85 250.102 424.452 249.571C424.416 249.519 424.365 249.479 424.307 249.455L421.899 248.311C421.811 248.27 421.711 248.262 421.617 248.29C421.524 248.317 421.444 248.378 421.392 248.46C421.352 248.525 421.34 248.602 421.356 248.676L425.039 268.291V268.308L425.691 273.549V273.58C425.709 274.21 426.017 277.196 426.091 277.793C426.272 278.987 426.58 279.568 426.815 280.679L428.339 287.597C428.375 287.797 428.556 288.31 428.339 288.343L427.09 288.36C426.909 288.377 426.728 288.045 426.674 287.879L424.012 280.465C423.48 279.361 423.032 278.219 422.672 277.048C422.31 275.34 421.966 273.399 421.803 272.648L421.024 268.568C421.013 268.5 421.022 268.431 421.051 268.369C421.08 268.306 421.128 268.255 421.187 268.22L423.233 267.026C423.309 266.988 423.367 266.921 423.394 266.84C423.421 266.76 423.415 266.671 423.378 266.595L421.115 261.603C421.067 261.516 420.989 261.45 420.896 261.416C420.802 261.383 420.7 261.385 420.608 261.421C420.539 261.448 420.481 261.496 420.441 261.559C420.402 261.622 420.385 261.695 420.391 261.769L421.061 267.823V267.889L420.661 272.4V272.433L419.575 278.433V278.466L418.775 287.953C418.757 288.135 418.721 288.534 418.54 288.534L417.2 288.584C416.983 288.584 416.892 288.136 416.892 287.937L416.856 283.127V283.11L416.603 279.743V279.71C416.521 278.656 416.521 277.596 416.603 276.542C416.657 275.132 416.784 274.336 416.803 274.087L416.93 270.156V270.106L416.26 265.744V247.46C416.259 247.412 416.248 247.364 416.228 247.321C416.208 247.277 416.18 247.237 416.144 247.205C416.109 247.172 416.067 247.147 416.022 247.131C415.976 247.115 415.928 247.109 415.88 247.112C415.82 247.11 415.761 247.122 415.707 247.148C415.654 247.174 415.607 247.213 415.572 247.261C414.67 248.442 413.624 249.507 412.458 250.429C411.878 250.961 411.154 251.309 410.376 251.429C410.314 251.431 410.252 251.419 410.195 251.393C410.139 251.367 410.089 251.328 410.05 251.28L404.259 243.88C404.216 243.831 404.163 243.792 404.104 243.767C404.044 243.741 403.98 243.729 403.915 243.731L403.046 243.814H402.973C402.095 243.73 401.235 243.516 400.42 243.18C400.388 243.173 400.358 243.16 400.332 243.14C400.306 243.121 400.285 243.096 400.269 243.067C400.254 243.039 400.245 243.007 400.243 242.975C400.241 242.943 400.245 242.91 400.257 242.88C400.277 242.834 400.308 242.794 400.348 242.764C401.058 242.308 401.877 242.05 402.72 242.018C403.698 242.036 404.66 242.262 405.544 242.681C405.587 242.698 405.625 242.727 405.653 242.764L410.433 248.287C410.497 248.36 410.586 248.407 410.683 248.419C410.78 248.431 410.877 248.408 410.958 248.353C410.99 248.334 411.016 248.305 411.03 248.27L412.93 245.782C412.959 245.735 413.004 245.7 413.057 245.682L418.67 242.73C418.816 242.656 418.931 242.533 418.996 242.382C419.196 241.868 419.412 241.354 418.58 239.882C418.042 238.603 417.963 237.177 418.356 235.846C418.75 234.515 419.592 233.361 420.739 232.58C421.427 232.132 421.083 232.912 421.662 232.912C422.34 232.959 422.991 233.2 423.536 233.606C424.082 234.013 424.499 234.567 424.739 235.203" fill="#FABFAB"/>
<path d="M418.689 242.782C418.69 243.105 418.757 243.424 418.886 243.72C419.014 244.016 419.203 244.283 419.438 244.503C419.674 244.724 419.953 244.894 420.257 245.003C420.561 245.112 420.884 245.158 421.206 245.137C422.455 245.137 422.745 243.959 422.817 243.478C422.853 243.196 423.342 243.678 423.632 243.826C426.402 245.352 427.76 249.963 427.76 249.963L424.773 250.278L424.393 257.095L428.669 268.573C428.685 268.618 428.691 268.665 428.688 268.713C428.684 268.76 428.671 268.806 428.649 268.848C428.627 268.89 428.597 268.927 428.56 268.957C428.522 268.987 428.48 269.008 428.434 269.021C428.375 269.036 428.314 269.041 428.253 269.038C426.587 268.838 422.025 268.338 421.192 268.872C419.056 270.199 413.642 269.618 413.642 269.121C413.642 268.391 416.195 256.151 416.195 256.151L414.669 248.206L414.234 247.891L412.569 246.315L414.253 243.844C414.911 243.215 415.756 242.819 416.661 242.716C417.117 242.653 417.576 242.614 418.037 242.6C418.417 242.633 418.689 242.666 418.689 242.782" fill="url(#paint9_linear)"/>
<path d="M424.682 239.232C424.611 239.256 424.535 239.258 424.464 239.237C424.392 239.216 424.328 239.174 424.282 239.116C423.576 238.27 420.715 234.837 420.607 234.621C420.48 234.372 418.507 236.528 418.199 237.341C417.837 238.32 417.746 235.799 417.583 235.417C417.42 235.035 416.067 236.993 415.357 237.159C414.647 237.325 414.434 236.91 413.963 237.673C413.691 238.137 414.216 234.837 416.027 233.742C417.204 233.029 417.527 234.87 417.527 234.87C418.214 234.012 419.081 233.316 420.067 232.83C421.515 232.1 422.91 232.05 424.756 233.63C425.8 234.562 426.485 235.829 426.693 237.213C426.657 238.026 427.562 237.329 427.725 237.163C427.888 236.997 429.463 237.379 429.192 238.589C428.921 239.799 428.866 239.733 427.892 240.447C427.36 240.814 426.9 241.274 426.534 241.807V238.735C426.51 238.403 425.46 238.967 424.682 239.232Z" fill="#615C5C"/>
<path opacity="0.07" d="M420.608 241.289C420.608 241.289 421.908 242.035 422.563 241.256C422.979 240.742 421.803 242.334 422.002 242.964C422.201 243.594 420.608 241.289 420.608 241.289Z" fill="black"/>
<path opacity="0.07" d="M423.106 247.293L424.754 250.278L424.374 257.095L428.647 268.572C428.647 268.572 429.534 269.153 427.036 268.904C424.538 268.655 422.926 268.572 422.129 268.572C421.332 268.572 419.449 267.842 422.31 265.305C423.469 264.277 423.197 263.497 422.401 260.81C421.605 258.123 424.101 258.604 422.401 256.382C420.701 254.16 424.808 251.058 423.106 247.293Z" fill="black"/>
<path opacity="0.24" d="M270.239 314.341C308.899 314.341 340.239 312.998 340.239 311.341C340.239 309.684 308.899 308.341 270.239 308.341C231.579 308.341 200.239 309.684 200.239 311.341C200.239 312.998 231.579 314.341 270.239 314.341Z" fill="#2E2626"/>
<path opacity="0.11" d="M398.239 292.341C421.987 292.341 441.239 291.669 441.239 290.841C441.239 290.013 421.987 289.341 398.239 289.341C374.491 289.341 355.239 290.013 355.239 290.841C355.239 291.669 374.491 292.341 398.239 292.341Z" fill="#2E2626"/>
<defs>
<linearGradient id="paint0_linear" x1="162.518" y1="152.899" x2="163.082" y2="159.779" gradientUnits="userSpaceOnUse">
<stop stop-color="#FBD072"/>
<stop offset="1" stop-color="#D6A763"/>
</linearGradient>
<linearGradient id="paint1_linear" x1="498.572" y1="752.748" x2="547.572" y2="752.748" gradientUnits="userSpaceOnUse">
<stop stop-color="#FBBEBE"/>
<stop offset="0.41" stop-color="#F89453"/>
<stop offset="0.71" stop-color="#F8C548"/>
<stop offset="1" stop-color="#F89C51"/>
</linearGradient>
<linearGradient id="paint2_linear" x1="246.937" y1="172.705" x2="246.937" y2="228.654" gradientUnits="userSpaceOnUse">
<stop stop-color="#2C3134"/>
<stop offset="1" stop-color="white"/>
</linearGradient>
<linearGradient id="paint3_linear" x1="581.903" y1="443.682" x2="617.111" y2="443.682" gradientUnits="userSpaceOnUse">
<stop stop-color="#FBBEBE"/>
<stop offset="0.5" stop-color="#F8C548"/>
<stop offset="1" stop-color="#F89C51"/>
</linearGradient>
<linearGradient id="paint4_linear" x1="301.977" y1="190.334" x2="301.977" y2="231.498" gradientUnits="userSpaceOnUse">
<stop stop-color="#017DCE"/>
<stop offset="1" stop-color="white"/>
</linearGradient>
<linearGradient id="paint5_linear" x1="301.977" y1="190.334" x2="301.977" y2="231.498" gradientUnits="userSpaceOnUse">
<stop stop-color="#707070"/>
<stop offset="1" stop-color="#D2D2D2"/>
</linearGradient>
<linearGradient id="paint6_linear" x1="298.512" y1="167.341" x2="298.512" y2="210.781" gradientUnits="userSpaceOnUse">
<stop/>
<stop offset="1" stop-color="#ACACAC"/>
</linearGradient>
<linearGradient id="paint7_linear" x1="510.922" y1="438.491" x2="541.571" y2="438.491" gradientUnits="userSpaceOnUse">
<stop stop-color="#FABFAB"/>
<stop offset="0.5" stop-color="#F8C548"/>
<stop offset="1" stop-color="#F89C51"/>
</linearGradient>
<linearGradient id="paint8_linear" x1="380.434" y1="244.542" x2="380.434" y2="260.832" gradientUnits="userSpaceOnUse">
<stop stop-color="#2C3134"/>
<stop offset="1" stop-color="white"/>
</linearGradient>
<linearGradient id="paint9_linear" x1="420.629" y1="242.6" x2="420.629" y2="269.686" gradientUnits="userSpaceOnUse">
<stop stop-color="#2C3134"/>
<stop offset="1" stop-color="white"/>
</linearGradient>
</defs>
</svg>
