<svg width="24" height="22" viewBox="0 0 24 22" fill="none" xmlns="http://www.w3.org/2000/svg">
<path d="M11.3343 1.63779C11.5438 0.992871 12.4562 0.992876 12.6657 1.63779L14.2701 6.57548C14.578 7.52313 15.4611 8.16475 16.4575 8.16475H21.6493C22.3274 8.16475 22.6094 9.03248 22.0608 9.43106L17.8605 12.4827C17.0544 13.0684 16.7171 14.1065 17.025 15.0542L18.6293 19.9919C18.8389 20.6368 18.1008 21.1731 17.5522 20.7745L13.3519 17.7229C12.5458 17.1372 11.4542 17.1372 10.6481 17.7229L6.44784 20.7745C5.89924 21.1731 5.16111 20.6368 5.37065 19.9919L6.97501 15.0542C7.28292 14.1065 6.9456 13.0684 6.13948 12.4827L1.93923 9.43106C1.39063 9.03248 1.67257 8.16475 2.35068 8.16475H7.54247C8.53889 8.16475 9.422 7.52314 9.72991 6.57548L11.3343 1.63779Z" stroke="#B9B9B9" stroke-width="1.6"/>
</svg>
