<svg width="13" height="20" viewBox="0 0 13 20" fill="none" xmlns="http://www.w3.org/2000/svg">
<path d="M12.3567 0.59379C11.9281 0.197784 11.4201 0 10.8333 0H2.16681C1.57985 0 1.07211 0.197948 0.643277 0.59379C0.214446 0.989413 0 1.45826 0 1.9999V18C0 18.5416 0.214446 19.0104 0.643277 19.4061C1.07211 19.802 1.57985 20 2.16681 20H10.8333C11.42 20 11.9281 19.8018 12.3566 19.4061C12.7855 19.0104 13 18.5416 13 18V1.9999C13 1.45826 12.7858 0.989632 12.3567 0.59379ZM5.14592 1.9999H7.8545C8.03509 1.9999 8.12515 2.08325 8.12515 2.24994C8.12515 2.41659 8.03503 2.50005 7.8545 2.50005H5.14592C4.96538 2.50005 4.87509 2.41659 4.87509 2.24994C4.87503 2.08325 4.96533 1.9999 5.14592 1.9999ZM7.45673 18.8829C7.19136 19.1274 6.87263 19.2499 6.50012 19.2499C6.12779 19.2499 5.80905 19.1274 5.5438 18.8829C5.27854 18.6378 5.14592 18.3435 5.14592 18C5.14592 17.6561 5.27872 17.3619 5.5438 17.1171C5.80888 16.8725 6.12785 16.7496 6.50012 16.7496C6.87269 16.7496 7.19142 16.8725 7.45673 17.1171C7.72193 17.3619 7.85444 17.6561 7.85444 18C7.85444 18.3438 7.72175 18.6379 7.45673 18.8829ZM11.3753 15.5001C11.3753 15.6353 11.3217 15.7529 11.2144 15.8517C11.1069 15.9506 10.9802 15.9998 10.8337 15.9998H2.16681C2.02013 15.9998 1.89319 15.9504 1.786 15.8517C1.6788 15.7529 1.62521 15.6353 1.62521 15.5001V4.50016C1.62521 4.36477 1.67874 4.24749 1.786 4.14865C1.89325 4.04987 2.02013 4.00012 2.16681 4.00012H10.8333C10.9802 4.00012 11.107 4.04965 11.2144 4.14865C11.3217 4.24754 11.375 4.36477 11.375 4.50016V15.5001H11.3753V15.5001Z" fill="#D6A763"/>
</svg>
