<svg width="23" height="26" viewBox="0 0 23 26" fill="none" xmlns="http://www.w3.org/2000/svg">
<path d="M22.853 18.9939C22.8291 18.9177 22.7841 18.8498 22.7232 18.7981C22.6623 18.7464 22.5881 18.713 22.509 18.7019L19.2039 18.238L17.7289 15.3569C17.6897 15.2919 17.6343 15.2382 17.5682 15.2009C17.502 15.1636 17.4273 15.144 17.3514 15.144C17.2754 15.144 17.2008 15.1636 17.1347 15.2009C17.0686 15.2382 17.0132 15.2919 16.9739 15.3569L15.4959 18.238L12.196 18.7019C12.1165 18.7126 12.0416 18.7459 11.9803 18.7976C11.919 18.8493 11.8738 18.9173 11.8499 18.9939C11.8258 19.0702 11.8238 19.152 11.8439 19.2295C11.8641 19.307 11.9057 19.377 11.9639 19.4319L14.3459 21.6699L13.7829 24.8259C13.77 24.9038 13.7787 24.9837 13.8082 25.0569C13.8376 25.1301 13.8867 25.1938 13.9499 25.241C14.0136 25.2877 14.0889 25.316 14.1677 25.3225C14.2464 25.329 14.3254 25.3137 14.3959 25.2781L17.3539 23.7781L20.3129 25.2781C20.3832 25.3145 20.4624 25.3303 20.5413 25.3237C20.6202 25.3172 20.6956 25.2884 20.759 25.241C20.8222 25.1938 20.8712 25.1301 20.9005 25.0569C20.9297 24.9837 20.9382 24.9037 20.925 24.8259L20.363 21.6699L22.744 19.4319C22.8021 19.3769 22.8435 19.3068 22.8633 19.2292C22.8832 19.1517 22.8806 19.07 22.8559 18.9939H22.853ZM19.6089 21.208C19.5575 21.2564 19.5191 21.317 19.4969 21.384C19.4747 21.4511 19.4696 21.5225 19.482 21.592L19.9339 24.135L17.5419 22.9241C17.4825 22.8938 17.4167 22.8779 17.3499 22.8779C17.2832 22.8779 17.2174 22.8938 17.1579 22.9241L14.7659 24.135L15.218 21.592C15.2308 21.5226 15.2259 21.4511 15.2039 21.384C15.1819 21.3169 15.1434 21.2564 15.092 21.208L13.192 19.4189L15.836 19.05C15.9037 19.0409 15.9681 19.0153 16.0237 18.9756C16.0793 18.9358 16.1244 18.8832 16.155 18.822L17.3549 16.4839L18.555 18.822C18.5856 18.8833 18.6308 18.9361 18.6866 18.9758C18.7424 19.0156 18.807 19.0411 18.8749 19.05L21.5179 19.4189L19.6089 21.208Z" fill="white"/>
<path d="M2.90002 7.9729H8.42505C8.53763 7.9729 8.64561 7.92824 8.72522 7.84863C8.80483 7.76902 8.84949 7.66117 8.84949 7.54858C8.84949 7.436 8.80483 7.3279 8.72522 7.24829C8.64561 7.16868 8.53763 7.12402 8.42505 7.12402H2.90002C2.78744 7.12402 2.67946 7.16868 2.59985 7.24829C2.52024 7.3279 2.47546 7.436 2.47546 7.54858C2.47546 7.66117 2.52024 7.76902 2.59985 7.84863C2.67946 7.92824 2.78744 7.9729 2.90002 7.9729Z" fill="white"/>
<path d="M2.90002 19.8721C2.78757 19.8721 2.67974 19.9166 2.60022 19.9961C2.5207 20.0756 2.47595 20.1834 2.47595 20.2959C2.47595 20.4084 2.5207 20.5162 2.60022 20.5957C2.67974 20.6752 2.78757 20.72 2.90002 20.72H8.92102C9.03347 20.72 9.14131 20.6752 9.22083 20.5957C9.30034 20.5162 9.34497 20.4084 9.34497 20.2959C9.34497 20.1834 9.30034 20.0756 9.22083 19.9961C9.14131 19.9166 9.03347 19.8721 8.92102 19.8721H2.90002Z" fill="white"/>
<path d="M15.226 9.67407H2.90002C2.78744 9.67407 2.67946 9.71873 2.59985 9.79834C2.52024 9.87795 2.47546 9.9858 2.47546 10.0984C2.47546 10.211 2.52024 10.3191 2.59985 10.3987C2.67946 10.4783 2.78744 10.5229 2.90002 10.5229H15.224C15.3366 10.5229 15.4446 10.4783 15.5242 10.3987C15.6038 10.3191 15.6486 10.211 15.6486 10.0984C15.6486 9.9858 15.6038 9.87795 15.5242 9.79834C15.4446 9.71873 15.3366 9.67407 15.224 9.67407H15.226Z" fill="white"/>
<path d="M11.9 15.2C11.9003 15.1443 11.8896 15.0893 11.8685 15.0378C11.8475 14.9864 11.8164 14.9394 11.7772 14.8999C11.738 14.8604 11.6914 14.8291 11.64 14.8076C11.5887 14.7862 11.5337 14.775 11.478 14.7749H2.90002C2.79074 14.7802 2.68765 14.8275 2.61218 14.9067C2.53671 14.986 2.49463 15.091 2.49463 15.2004C2.49463 15.3098 2.53671 15.4152 2.61218 15.4944C2.68765 15.5736 2.79074 15.6207 2.90002 15.626H11.472C11.5277 15.6257 11.5828 15.6146 11.6342 15.593C11.6855 15.5715 11.7321 15.54 11.7712 15.5005C11.8104 15.4609 11.8415 15.4138 11.8625 15.3623C11.8836 15.3108 11.8943 15.2556 11.894 15.2H11.9Z" fill="white"/>
<path d="M10.623 17.7471C10.6228 17.6343 10.5778 17.5262 10.4979 17.4465C10.4181 17.3669 10.3098 17.322 10.197 17.322H2.89697C2.78426 17.322 2.67614 17.3668 2.59644 17.4465C2.51673 17.5262 2.47205 17.6344 2.47205 17.7471C2.47205 17.8598 2.51673 17.9679 2.59644 18.0476C2.67614 18.1273 2.78426 18.1721 2.89697 18.1721H10.197C10.3098 18.1721 10.4181 18.1273 10.4979 18.0476C10.5778 17.9679 10.6228 17.8599 10.623 17.7471Z" fill="white"/>
<path d="M2.90002 13.073H8.85095C8.96023 13.0677 9.06333 13.0206 9.13879 12.9414C9.21426 12.8622 9.25635 12.7569 9.25635 12.6475C9.25635 12.5381 9.21426 12.433 9.13879 12.3538C9.06333 12.2745 8.96023 12.2272 8.85095 12.2219H2.90002C2.79074 12.2272 2.68765 12.2745 2.61218 12.3538C2.53671 12.433 2.49463 12.5381 2.49463 12.6475C2.49463 12.7569 2.53671 12.8622 2.61218 12.9414C2.68765 13.0206 2.79074 13.0677 2.90002 13.073Z" fill="white"/>
<path d="M11.474 24.1211H0.850953V3.72095H3.82398V4.57104C3.82398 4.68385 3.86869 4.79196 3.94837 4.87183C4.02804 4.95169 4.13622 4.99681 4.24902 4.99707H14.021C14.0769 4.9972 14.1324 4.98622 14.1841 4.96484C14.2358 4.94347 14.2826 4.91216 14.3221 4.87256C14.3616 4.83296 14.3929 4.78587 14.4142 4.73413C14.4354 4.68239 14.4463 4.62698 14.446 4.57104V3.72095H17.422V12.2209C17.422 12.3334 17.4666 12.4412 17.5461 12.5208C17.6257 12.6003 17.7335 12.645 17.8459 12.645C17.9584 12.645 18.0664 12.6003 18.1459 12.5208C18.2254 12.4412 18.27 12.3334 18.27 12.2209V3.30005C18.2703 3.24433 18.2595 3.189 18.2384 3.13745C18.2173 3.0859 18.1862 3.039 18.1469 2.99951C18.1075 2.96002 18.0607 2.92885 18.0093 2.90747C17.9578 2.88609 17.9028 2.875 17.847 2.875H14.447V2.02393C14.4472 1.96808 14.4362 1.91271 14.4149 1.86108C14.3936 1.80946 14.3622 1.76264 14.3228 1.72314C14.2833 1.68365 14.2364 1.65242 14.1848 1.6311C14.1332 1.60979 14.0778 1.59899 14.022 1.59912H11.475V0.750977C11.4747 0.638076 11.4298 0.529785 11.35 0.449951C11.2701 0.370118 11.1619 0.325215 11.049 0.324951H7.22498C7.16908 0.324951 7.11376 0.336001 7.06213 0.357422C7.01051 0.378843 6.96355 0.41038 6.92407 0.449951C6.8846 0.489522 6.85333 0.536456 6.83203 0.588135C6.81073 0.639814 6.79992 0.695081 6.80005 0.750977V1.59912H4.25C4.13737 1.59939 4.02948 1.64423 3.94983 1.72388C3.87018 1.80352 3.82522 1.91129 3.82495 2.02393V2.875H0.42505C0.369201 2.87487 0.313831 2.88567 0.262208 2.90698C0.210585 2.92829 0.163638 2.95978 0.124147 2.99927C0.0846555 3.03876 0.0534172 3.08558 0.0321057 3.13721C0.0107941 3.18883 -0.000130695 3.2442 1.17981e-06 3.30005V24.5459C5.57015e-07 24.6016 0.0109671 24.6568 0.0323498 24.7083C0.0537325 24.7597 0.0851437 24.8064 0.124635 24.8457C0.164126 24.885 0.210901 24.9161 0.262452 24.9373C0.314004 24.9584 0.369333 24.9693 0.42505 24.969H11.474C11.5865 24.969 11.6943 24.9242 11.7738 24.8447C11.8533 24.7652 11.898 24.6574 11.898 24.5449C11.898 24.4325 11.8533 24.3246 11.7738 24.2451C11.6943 24.1656 11.5865 24.1211 11.474 24.1211ZM7.64697 1.17603H10.623V2.87598H7.64697V1.17603ZM4.67395 2.44995H6.79895V3.30005C6.79882 3.35585 6.80973 3.41108 6.83106 3.46265C6.85238 3.51421 6.88371 3.56093 6.92322 3.60034C6.96272 3.63975 7.00966 3.67118 7.06128 3.69238C7.1129 3.71358 7.1682 3.72439 7.224 3.72412H11.048C11.1038 3.72425 11.1591 3.71338 11.2107 3.69214C11.2623 3.6709 11.3092 3.63971 11.3488 3.60034C11.3883 3.56097 11.4198 3.51416 11.4413 3.46265C11.4628 3.41113 11.4739 3.35586 11.474 3.30005V2.44995H13.598V4.1499H4.67395V2.44995Z" fill="white"/>
</svg>
