<svg width="254" height="139" viewBox="0 0 254 139" fill="none" xmlns="http://www.w3.org/2000/svg">
<path d="M160.659 102.143H157.396V86.9143C157.396 83.2634 154.469 80.2932 150.871 80.2932H146.452L141.93 72.0434C141.241 70.7826 139.929 70 138.507 70C137.844 70 137.186 70.1735 136.606 70.5005L119.251 80.293H99.8664C96.2684 80.293 93.3413 83.2632 93.3413 86.9141V132.379C93.3413 136.03 96.2684 139 99.8664 139H150.871C154.469 139 157.396 136.03 157.396 132.379V119.027H160.659V102.143ZM150.871 82.9415C152.881 82.9415 154.522 84.4908 154.743 86.4732H149.839L147.904 82.9415H150.871ZM137.875 72.8152C138.487 72.467 139.311 72.7105 139.649 73.3291L146.853 86.4719H113.671L137.875 72.8152ZM154.786 132.379C154.786 134.569 153.029 136.351 150.871 136.351H99.8664C97.7079 136.351 95.9512 134.569 95.9512 132.379V86.9143C95.9512 84.724 97.7079 82.9415 99.8664 82.9415H114.558L108.299 86.4734H100.682C99.9604 86.4734 99.3771 87.0666 99.3771 87.7976C99.3771 88.5287 99.9604 89.1219 100.682 89.1219H103.605H151.29H154.786V102.144H145.242C140.81 102.144 137.203 105.804 137.203 110.301V110.871C137.203 115.368 140.811 119.028 145.242 119.028H154.786V132.379ZM158.048 116.378H157.396H145.242C142.249 116.378 139.813 113.907 139.813 110.869V110.3C139.813 107.262 142.248 104.791 145.242 104.791H157.396H158.048V116.378ZM149.24 110.693C149.24 112.309 147.95 113.617 146.358 113.617C144.766 113.617 143.477 112.309 143.477 110.693C143.477 109.078 144.766 107.77 146.358 107.77C147.95 107.769 149.24 109.079 149.24 110.693Z" fill="white"/>
<path d="M34.5756 86.557L33.3602 86.9519C33.2575 86.9856 33.1492 86.9988 33.0415 86.9905C32.9338 86.9822 32.8287 86.9527 32.7325 86.9036C32.6362 86.8546 32.5506 86.7869 32.4805 86.7047C32.4105 86.6224 32.3575 86.527 32.3245 86.4241L31.9292 85.2078C31.809 84.8053 31.5401 84.4636 31.1771 84.2521C30.8141 84.0407 30.3843 83.9752 29.9748 84.0691C29.7649 84.126 29.5687 84.2248 29.398 84.3595C29.2273 84.4943 29.0857 84.6622 28.9817 84.8533C28.8777 85.0443 28.8135 85.2543 28.7929 85.4709C28.7723 85.6874 28.7958 85.9058 28.862 86.1129L29.2853 87.4158C29.3191 87.5185 29.3322 87.6268 29.324 87.7345C29.3157 87.8422 29.2862 87.9473 29.2371 88.0435C29.188 88.1398 29.1204 88.2254 29.0381 88.2955C28.9558 88.3655 28.8605 88.4185 28.7576 88.4515L27.5422 88.8464C27.1404 88.9663 26.7992 89.2344 26.5875 89.5963C26.3758 89.9583 26.3095 90.3871 26.402 90.7961C26.4589 91.006 26.5577 91.2023 26.6924 91.373C26.8272 91.5437 26.9951 91.6853 27.1861 91.7893C27.3771 91.8933 27.5872 91.9575 27.8037 91.978C28.0202 91.9986 28.2387 91.9751 28.4458 91.9089L29.7487 91.4856C29.8513 91.4518 29.9597 91.4387 30.0674 91.447C30.1751 91.4553 30.2802 91.4848 30.3764 91.5338C30.4727 91.5829 30.5583 91.6505 30.6283 91.7328C30.6984 91.8151 30.7514 91.9104 30.7844 92.0133L31.1793 93.2287C31.299 93.6319 31.5678 93.9744 31.9311 94.1865C32.2943 94.3986 32.7247 94.4643 33.1347 94.3702C33.3446 94.3134 33.5408 94.2146 33.7115 94.0798C33.8822 93.9451 34.0238 93.7771 34.1278 93.5861C34.2318 93.3951 34.296 93.185 34.3166 92.9685C34.3372 92.752 34.3137 92.5336 34.2475 92.3264L33.8248 91.0254C33.791 90.9228 33.7779 90.8145 33.7862 90.7068C33.7944 90.599 33.824 90.494 33.873 90.3977C33.9221 90.3014 33.9897 90.2158 34.072 90.1458C34.1543 90.0758 34.2496 90.0227 34.3525 89.9897L35.6554 89.5664C35.8619 89.4982 36.0524 89.3888 36.2155 89.2449C36.3785 89.101 36.5108 88.9256 36.6042 88.7292C36.6975 88.5327 36.7502 88.3195 36.7589 88.1022C36.7676 87.8848 36.7322 87.668 36.6548 87.4648C36.4827 87.0824 36.1746 86.7776 35.7903 86.6098C35.406 86.442 34.973 86.4231 34.5756 86.557Z" fill="#FEEB72"/>
<path d="M252.164 80.9321L251.561 80.7704C251.459 80.743 251.371 80.6759 251.318 80.584C251.265 80.4921 251.251 80.3829 251.278 80.2804L251.44 79.6767C251.498 79.4799 251.478 79.2688 251.385 79.0861C251.292 78.9033 251.134 78.7627 250.941 78.6927C250.84 78.6602 250.734 78.6485 250.628 78.6582C250.522 78.668 250.42 78.699 250.327 78.7495C250.233 78.8 250.151 78.8688 250.085 78.9519C250.019 79.0349 249.971 79.1305 249.943 79.2328L249.77 79.8781C249.756 79.9288 249.733 79.9764 249.701 80.0181C249.669 80.0597 249.629 80.0947 249.584 80.121C249.538 80.1472 249.488 80.1643 249.436 80.1711C249.384 80.178 249.331 80.1745 249.28 80.1609L248.676 79.999C248.48 79.9419 248.27 79.9612 248.087 80.0532C247.905 80.1451 247.764 80.3028 247.693 80.4944C247.661 80.5954 247.649 80.7018 247.659 80.8074C247.669 80.913 247.7 81.0156 247.75 81.1088C247.801 81.2021 247.869 81.2842 247.952 81.3501C248.036 81.416 248.131 81.4645 248.233 81.4924L248.879 81.6655C248.929 81.6791 248.977 81.7025 249.019 81.7345C249.06 81.7665 249.095 81.8064 249.122 81.8519C249.148 81.8974 249.165 81.9476 249.172 81.9997C249.179 82.0518 249.175 82.1047 249.161 82.1555L249 82.7582C248.942 82.955 248.961 83.1664 249.053 83.3496C249.145 83.5328 249.304 83.6741 249.496 83.7446C249.597 83.7771 249.704 83.7888 249.809 83.7791C249.915 83.7693 250.018 83.7383 250.111 83.6878C250.204 83.6373 250.286 83.5685 250.352 83.4854C250.418 83.4024 250.466 83.3068 250.494 83.2045L250.667 82.5612C250.694 82.4587 250.761 82.3713 250.853 82.3183C250.945 82.2652 251.054 82.2509 251.157 82.2784L251.802 82.4514C251.905 82.4783 252.012 82.4842 252.117 82.4687C252.222 82.4531 252.322 82.4165 252.413 82.361C252.503 82.3055 252.581 82.2322 252.642 82.1457C252.704 82.0591 252.747 81.9611 252.769 81.8574C252.801 81.6556 252.757 81.4492 252.645 81.2782C252.533 81.1072 252.362 80.9839 252.164 80.9321Z" fill="#F98585"/>
<path d="M46.4021 55.9243L45.6131 55.4688C45.5464 55.4306 45.4879 55.3795 45.441 55.3186C45.3941 55.2577 45.3597 55.1881 45.3397 55.1138C45.3198 55.0395 45.3148 54.9621 45.325 54.8858C45.3352 54.8096 45.3603 54.7361 45.399 54.6697L45.8565 53.8773C46.0118 53.6217 46.0642 53.3166 46.0028 53.0239C45.9415 52.7312 45.7712 52.4728 45.5264 52.301C45.3966 52.2179 45.2513 52.1617 45.0993 52.1359C44.9473 52.1101 44.7916 52.1153 44.6416 52.151C44.4916 52.1868 44.3504 52.2524 44.2264 52.344C44.1023 52.4355 43.998 52.5512 43.9197 52.684L43.4317 53.5292C43.3934 53.5959 43.3424 53.6545 43.2815 53.7014C43.2205 53.7483 43.1509 53.7827 43.0767 53.8026C43.0024 53.8225 42.9249 53.8275 42.8487 53.8173C42.7725 53.8072 42.699 53.782 42.6325 53.7433L41.8401 53.2858C41.5846 53.1305 41.2795 53.0782 40.9868 53.1395C40.6941 53.2008 40.4356 53.3711 40.2639 53.616C40.1806 53.746 40.1244 53.8915 40.0987 54.0438C40.0729 54.1961 40.0782 54.352 40.1142 54.5022C40.1502 54.6523 40.2162 54.7937 40.3082 54.9178C40.4001 55.0418 40.5162 55.1461 40.6494 55.2242L41.4947 55.7122C41.5614 55.7504 41.6199 55.8015 41.6668 55.8624C41.7137 55.9233 41.7481 55.9929 41.768 56.0672C41.7879 56.1415 41.7929 56.2189 41.7828 56.2952C41.7726 56.3714 41.7475 56.4448 41.7088 56.5113L41.2513 57.3037C41.096 57.5591 41.0436 57.864 41.1048 58.1566C41.1659 58.4492 41.336 58.7076 41.5805 58.8795C41.7106 58.9628 41.8561 59.019 42.0084 59.0447C42.1606 59.0704 42.3166 59.0651 42.4667 59.0291C42.6169 58.9931 42.7583 58.9271 42.8823 58.8352C43.0064 58.7432 43.1106 58.6271 43.1888 58.4939L43.6753 57.6513C43.7135 57.5846 43.7645 57.526 43.8255 57.4791C43.8864 57.4322 43.956 57.3978 44.0303 57.3779C44.1045 57.358 44.182 57.353 44.2582 57.3632C44.3345 57.3733 44.4079 57.3985 44.4744 57.4372L45.3196 57.9252C45.4539 58.0015 45.6022 58.0499 45.7556 58.0675C45.909 58.0851 46.0645 58.0715 46.2125 58.0276C46.3606 57.9837 46.4982 57.9103 46.6173 57.8119C46.7363 57.7135 46.8342 57.5921 46.9052 57.4549C47.0262 57.1828 47.0417 56.8755 46.9487 56.5926C46.8557 56.3098 46.6609 56.0715 46.4021 55.9243Z" fill="#2EE2B1"/>
<path d="M205.256 13.564L203.885 12.9822C203.769 12.9334 203.663 12.8621 203.575 12.7722C203.486 12.6824 203.416 12.576 203.369 12.459C203.322 12.342 203.298 12.2169 203.299 12.0907C203.301 11.9646 203.327 11.8399 203.377 11.724L203.961 10.349C204.163 9.90198 204.188 9.39462 204.03 8.92991C203.872 8.4652 203.544 8.07797 203.111 7.84683C202.883 7.7363 202.634 7.67308 202.381 7.66097C202.128 7.64887 201.875 7.68812 201.637 7.77639C201.399 7.86465 201.182 8.00009 200.998 8.17455C200.814 8.34902 200.667 8.55891 200.566 8.7916L199.941 10.2652C199.892 10.3815 199.82 10.487 199.731 10.5757C199.641 10.6643 199.534 10.7342 199.417 10.7815C199.3 10.8287 199.175 10.8523 199.049 10.851C198.923 10.8496 198.798 10.8233 198.682 10.7735L197.307 10.1897C196.86 9.98707 196.353 9.96213 195.888 10.12C195.424 10.2778 195.036 10.6065 194.805 11.0395C194.695 11.2677 194.631 11.5159 194.619 11.7692C194.607 12.0225 194.646 12.2756 194.735 12.5133C194.823 12.7511 194.958 12.9685 195.133 13.1525C195.307 13.3365 195.517 13.4833 195.75 13.5841L197.224 14.2097C197.34 14.2585 197.445 14.3299 197.534 14.4197C197.623 14.5095 197.693 14.616 197.74 14.7329C197.787 14.8499 197.811 14.9751 197.809 15.1012C197.808 15.2274 197.782 15.352 197.732 15.4679L197.15 16.8384C196.947 17.2855 196.921 17.7932 197.079 18.2583C197.237 18.7235 197.566 19.1111 197.999 19.3424C198.227 19.453 198.476 19.5162 198.729 19.5282C198.983 19.5403 199.236 19.5009 199.474 19.4124C199.712 19.324 199.929 19.1883 200.113 19.0136C200.297 18.8389 200.444 18.6287 200.544 18.3957L201.17 16.9221C201.219 16.8058 201.29 16.7003 201.38 16.6117C201.47 16.5231 201.576 16.4531 201.693 16.4059C201.81 16.3586 201.935 16.335 202.062 16.3364C202.188 16.3377 202.312 16.3641 202.428 16.4139L203.902 17.0395C204.136 17.1372 204.388 17.1865 204.641 17.1844C204.895 17.1823 205.146 17.1288 205.378 17.0273C205.611 16.9257 205.82 16.7781 205.994 16.5934C206.168 16.4087 206.303 16.1907 206.391 15.9525C206.531 15.4845 206.492 14.9812 206.282 14.54C206.073 14.0988 205.707 13.751 205.256 13.564Z" fill="#FEEB72"/>
<path d="M195.237 106.704L194.926 106.876C194.9 106.891 194.871 106.9 194.841 106.904C194.811 106.907 194.781 106.905 194.752 106.896C194.724 106.888 194.697 106.874 194.673 106.855C194.65 106.837 194.63 106.814 194.616 106.787L194.444 106.477C194.389 106.374 194.298 106.296 194.188 106.258C194.078 106.22 193.958 106.226 193.852 106.273C193.798 106.299 193.75 106.337 193.71 106.382C193.671 106.427 193.641 106.48 193.623 106.537C193.605 106.595 193.598 106.655 193.603 106.715C193.609 106.774 193.626 106.833 193.655 106.885L193.839 107.218C193.854 107.244 193.863 107.273 193.866 107.303C193.87 107.333 193.867 107.363 193.859 107.392C193.851 107.42 193.837 107.447 193.818 107.471C193.799 107.494 193.776 107.514 193.75 107.528L193.439 107.7C193.337 107.755 193.259 107.846 193.221 107.956C193.183 108.066 193.188 108.186 193.236 108.292C193.262 108.347 193.3 108.395 193.345 108.434C193.391 108.474 193.444 108.503 193.502 108.521C193.56 108.54 193.62 108.546 193.68 108.54C193.74 108.534 193.799 108.516 193.852 108.487L194.181 108.305C194.207 108.29 194.236 108.281 194.265 108.278C194.295 108.274 194.325 108.277 194.354 108.285C194.383 108.293 194.41 108.307 194.433 108.326C194.457 108.345 194.476 108.368 194.491 108.394L194.663 108.705C194.717 108.808 194.808 108.887 194.918 108.926C195.029 108.964 195.149 108.96 195.256 108.912C195.31 108.886 195.359 108.848 195.398 108.803C195.437 108.757 195.467 108.703 195.485 108.646C195.503 108.588 195.51 108.528 195.504 108.468C195.498 108.408 195.48 108.349 195.451 108.296L195.267 107.964C195.252 107.938 195.243 107.909 195.239 107.879C195.236 107.849 195.238 107.819 195.247 107.79C195.255 107.761 195.269 107.734 195.288 107.711C195.306 107.688 195.329 107.668 195.356 107.654L195.688 107.469C195.741 107.44 195.787 107.4 195.824 107.352C195.861 107.304 195.887 107.249 195.902 107.191C195.917 107.132 195.92 107.072 195.911 107.012C195.902 106.952 195.881 106.895 195.849 106.844C195.783 106.749 195.683 106.682 195.57 106.656C195.457 106.63 195.338 106.647 195.237 106.704Z" fill="#D1DCFC"/>
<path d="M67.1392 72.2998L66.6403 72.1847C66.5982 72.1751 66.5583 72.1572 66.5231 72.1322C66.4878 72.1071 66.4579 72.0753 66.435 72.0387C66.4121 72.002 66.3966 71.9612 66.3895 71.9185C66.3825 71.8758 66.3839 71.8322 66.3938 71.7901L66.5092 71.2902C66.5511 71.1277 66.5298 70.9552 66.4496 70.8077C66.3693 70.6603 66.2361 70.5487 66.0768 70.4956C65.9931 70.4719 65.9054 70.4653 65.8191 70.4763C65.7327 70.4873 65.6495 70.5157 65.5744 70.5597C65.4993 70.6038 65.4339 70.6626 65.3822 70.7325C65.3304 70.8025 65.2933 70.8822 65.2732 70.9669L65.1497 71.5019C65.1401 71.544 65.1223 71.5839 65.0972 71.6191C65.0722 71.6544 65.0404 71.6843 65.0037 71.7072C64.967 71.7301 64.9262 71.7456 64.8835 71.7526C64.8409 71.7597 64.7972 71.7583 64.7551 71.7484L64.2524 71.6323C64.0898 71.5904 63.9174 71.6117 63.7699 71.6919C63.6224 71.7722 63.5108 71.9054 63.4577 72.0647C63.434 72.1484 63.4274 72.2361 63.4384 72.3224C63.4494 72.4088 63.4778 72.492 63.5219 72.5671C63.5659 72.6422 63.6247 72.7076 63.6947 72.7593C63.7646 72.8111 63.8444 72.8482 63.929 72.8683L64.464 72.9918C64.5061 73.0014 64.546 73.0192 64.5812 73.0443C64.6165 73.0693 64.6464 73.1011 64.6693 73.1378C64.6922 73.1745 64.7077 73.2153 64.7148 73.258C64.7218 73.3006 64.7204 73.3443 64.7105 73.3864L64.5954 73.8852C64.5534 74.0478 64.5747 74.2203 64.655 74.3677C64.7352 74.5152 64.8684 74.6268 65.0277 74.6799C65.1114 74.7036 65.1991 74.7102 65.2855 74.6992C65.3718 74.6882 65.455 74.6598 65.5301 74.6157C65.6052 74.5717 65.6706 74.5129 65.7223 74.4429C65.7741 74.373 65.8112 74.2932 65.8313 74.2086L65.9539 73.6775C65.9635 73.6354 65.9813 73.5955 66.0064 73.5603C66.0315 73.525 66.0632 73.4951 66.0999 73.4722C66.1366 73.4493 66.1774 73.4338 66.2201 73.4267C66.2627 73.4197 66.3064 73.4211 66.3485 73.431L66.8834 73.5545C66.9684 73.5735 67.0563 73.5751 67.1419 73.5593C67.2274 73.5434 67.3089 73.5104 67.3814 73.4622C67.4539 73.4141 67.5159 73.3517 67.5637 73.2789C67.6114 73.2061 67.644 73.1245 67.6593 73.0388C67.6788 72.8732 67.6366 72.7062 67.5406 72.5698C67.4446 72.4335 67.3017 72.3373 67.1392 72.2998Z" fill="#E8EEFF"/>
<path d="M143.134 28.5128L142.704 29.0444C142.668 29.0895 142.623 29.1271 142.572 29.1548C142.521 29.1825 142.466 29.1999 142.408 29.2059C142.351 29.212 142.292 29.2066 142.237 29.19C142.181 29.1735 142.13 29.1461 142.085 29.1095L141.551 28.6771C141.38 28.5325 141.16 28.4584 140.936 28.4696C140.712 28.4809 140.5 28.5768 140.344 28.7379C140.267 28.8247 140.208 28.9261 140.172 29.0361C140.135 29.1461 140.121 29.2624 140.13 29.378C140.139 29.4936 140.172 29.6061 140.225 29.7089C140.279 29.8116 140.353 29.9025 140.443 29.976L141.013 30.4379C141.058 30.4741 141.096 30.5189 141.124 30.5697C141.151 30.6205 141.169 30.6763 141.175 30.7338C141.181 30.7913 141.175 30.8495 141.159 30.9049C141.142 30.9604 141.115 31.012 141.078 31.0568L140.643 31.5946C140.498 31.7661 140.424 31.9861 140.435 32.2102C140.447 32.4343 140.542 32.6457 140.704 32.8019C140.79 32.8787 140.892 32.9373 141.002 32.9741C141.112 33.0108 141.228 33.025 141.344 33.0158C141.459 33.0066 141.572 32.9741 141.674 32.9204C141.777 32.8666 141.868 32.7927 141.942 32.703L142.404 32.1326C142.44 32.0875 142.485 32.0499 142.535 32.0222C142.586 31.9945 142.642 31.9771 142.699 31.9711C142.757 31.965 142.815 31.9704 142.871 31.987C142.926 32.0035 142.978 32.0309 143.022 32.0675L143.555 32.4986C143.726 32.6432 143.946 32.7174 144.17 32.7061C144.394 32.6948 144.606 32.599 144.762 32.4379C144.839 32.351 144.897 32.2496 144.934 32.1396C144.971 32.0296 144.985 31.9134 144.976 31.7978C144.967 31.6822 144.934 31.5696 144.881 31.4669C144.827 31.3641 144.753 31.2732 144.663 31.1997L144.098 30.7422C144.053 30.706 144.016 30.6612 143.988 30.6104C143.96 30.5597 143.943 30.5039 143.937 30.4463C143.931 30.3888 143.936 30.3306 143.953 30.2752C143.969 30.2198 143.997 30.1682 144.033 30.1234L144.495 29.5529C144.568 29.4624 144.621 29.3581 144.652 29.2465C144.683 29.1348 144.692 29.0179 144.677 28.9029C144.662 28.7879 144.624 28.6772 144.565 28.5772C144.506 28.4773 144.428 28.3903 144.334 28.3213C144.147 28.1975 143.919 28.1486 143.697 28.184C143.475 28.2195 143.274 28.3368 143.134 28.5128Z" fill="#E8EEFF"/>
<path d="M105.14 2.29984L104.641 2.18467C104.599 2.17507 104.559 2.15723 104.524 2.13217C104.489 2.10711 104.459 2.07534 104.436 2.03866C104.413 2.00199 104.398 1.96115 104.391 1.91849C104.383 1.87583 104.385 1.8322 104.395 1.79009L104.51 1.29024C104.552 1.12766 104.531 0.955228 104.451 0.807744C104.37 0.66026 104.237 0.548712 104.078 0.495621C103.994 0.471855 103.906 0.465283 103.82 0.476303C103.734 0.487322 103.65 0.515704 103.575 0.559739C103.5 0.603775 103.435 0.662552 103.383 0.732531C103.331 0.802509 103.294 0.882242 103.274 0.966926L103.151 1.50185C103.141 1.54402 103.123 1.58387 103.098 1.61911C103.073 1.65435 103.041 1.68429 103.005 1.70721C102.968 1.73012 102.927 1.74556 102.885 1.75263C102.842 1.7597 102.798 1.75827 102.756 1.74841L102.253 1.63234C102.091 1.59039 101.918 1.61169 101.771 1.69193C101.623 1.77217 101.512 1.90538 101.459 2.06467C101.435 2.14841 101.428 2.23609 101.439 2.32243C101.45 2.40877 101.479 2.49199 101.523 2.56708C101.567 2.64216 101.626 2.70756 101.696 2.75932C101.766 2.81109 101.845 2.84815 101.93 2.86829L102.465 2.99178C102.507 3.00138 102.547 3.01922 102.582 3.04428C102.617 3.06934 102.647 3.10112 102.67 3.13779C102.693 3.17446 102.709 3.2153 102.716 3.25796C102.723 3.30062 102.721 3.34426 102.712 3.38636L102.596 3.88524C102.554 4.04781 102.576 4.22025 102.656 4.36773C102.736 4.51522 102.869 4.62677 103.029 4.67986C103.112 4.70362 103.2 4.7102 103.286 4.69918C103.373 4.68816 103.456 4.65977 103.531 4.61574C103.606 4.5717 103.672 4.51293 103.723 4.44295C103.775 4.37297 103.812 4.29324 103.832 4.20855L103.955 3.67752C103.964 3.63536 103.982 3.59551 104.007 3.56027C104.032 3.52502 104.064 3.49508 104.101 3.47217C104.138 3.44925 104.178 3.43382 104.221 3.42675C104.264 3.41967 104.307 3.42111 104.349 3.43096L104.884 3.55446C104.969 3.57349 105.057 3.57513 105.143 3.55928C105.228 3.54343 105.31 3.51042 105.382 3.46224C105.455 3.41405 105.517 3.3517 105.565 3.27892C105.612 3.20615 105.645 3.12446 105.66 3.03878C105.68 2.87318 105.638 2.7062 105.542 2.56984C105.446 2.43348 105.303 2.33734 105.14 2.29984Z" fill="#E8EEFF"/>
<path d="M67.1392 97.2998L66.6403 97.1847C66.5982 97.1751 66.5583 97.1572 66.5231 97.1322C66.4878 97.1071 66.4579 97.0753 66.435 97.0387C66.4121 97.002 66.3966 96.9612 66.3895 96.9185C66.3825 96.8758 66.3839 96.8322 66.3938 96.7901L66.5092 96.2902C66.5511 96.1277 66.5298 95.9552 66.4496 95.8077C66.3693 95.6603 66.2361 95.5487 66.0768 95.4956C65.9931 95.4719 65.9054 95.4653 65.8191 95.4763C65.7327 95.4873 65.6495 95.5157 65.5744 95.5597C65.4993 95.6038 65.4339 95.6626 65.3822 95.7325C65.3304 95.8025 65.2933 95.8822 65.2732 95.9669L65.1497 96.5019C65.1401 96.544 65.1223 96.5839 65.0972 96.6191C65.0722 96.6544 65.0404 96.6843 65.0037 96.7072C64.967 96.7301 64.9262 96.7456 64.8835 96.7526C64.8409 96.7597 64.7972 96.7583 64.7551 96.7484L64.2524 96.6323C64.0898 96.5904 63.9174 96.6117 63.7699 96.6919C63.6224 96.7722 63.5108 96.9054 63.4577 97.0647C63.434 97.1484 63.4274 97.2361 63.4384 97.3224C63.4494 97.4088 63.4778 97.492 63.5219 97.5671C63.5659 97.6422 63.6247 97.7076 63.6947 97.7593C63.7646 97.8111 63.8444 97.8482 63.929 97.8683L64.464 97.9918C64.5061 98.0014 64.546 98.0192 64.5812 98.0443C64.6165 98.0693 64.6464 98.1011 64.6693 98.1378C64.6922 98.1745 64.7077 98.2153 64.7148 98.258C64.7218 98.3006 64.7204 98.3443 64.7105 98.3864L64.5954 98.8852C64.5534 99.0478 64.5747 99.2203 64.655 99.3677C64.7352 99.5152 64.8684 99.6268 65.0277 99.6799C65.1114 99.7036 65.1991 99.7102 65.2855 99.6992C65.3718 99.6882 65.455 99.6598 65.5301 99.6157C65.6052 99.5717 65.6706 99.5129 65.7223 99.4429C65.7741 99.373 65.8112 99.2932 65.8313 99.2086L65.9539 98.6775C65.9635 98.6354 65.9813 98.5955 66.0064 98.5603C66.0315 98.525 66.0632 98.4951 66.0999 98.4722C66.1366 98.4493 66.1774 98.4338 66.2201 98.4267C66.2627 98.4197 66.3064 98.4211 66.3485 98.431L66.8834 98.5545C66.9684 98.5735 67.0563 98.5751 67.1419 98.5593C67.2274 98.5434 67.3089 98.5104 67.3814 98.4622C67.4539 98.4141 67.5159 98.3517 67.5637 98.2789C67.6114 98.2061 67.644 98.1245 67.6593 98.0388C67.6788 97.8732 67.6366 97.7062 67.5406 97.5698C67.4446 97.4335 67.3017 97.3373 67.1392 97.2998Z" fill="#D1DCFC"/>
<path d="M5.1392 57.2998L4.64032 57.1847C4.59815 57.1751 4.55831 57.1572 4.52306 57.1322C4.48782 57.1071 4.45788 57.0753 4.43497 57.0387C4.41205 57.002 4.39661 56.9612 4.38954 56.9185C4.38247 56.8758 4.3839 56.8322 4.39376 56.7901L4.50916 56.2902C4.55111 56.1277 4.52981 55.9552 4.44957 55.8077C4.36932 55.6603 4.23611 55.5487 4.07683 55.4956C3.99309 55.4719 3.90541 55.4653 3.81907 55.4763C3.73272 55.4873 3.6495 55.5157 3.57442 55.5597C3.49934 55.6038 3.43394 55.6626 3.38218 55.7325C3.33041 55.8025 3.29335 55.8822 3.27321 55.9669L3.14971 56.5019C3.14012 56.544 3.12227 56.5839 3.09722 56.6191C3.07216 56.6544 3.04038 56.6843 3.00371 56.7072C2.96704 56.7301 2.9262 56.7456 2.88354 56.7526C2.84088 56.7597 2.79724 56.7583 2.75514 56.7484L2.25236 56.6323C2.08979 56.5904 1.91735 56.6117 1.76987 56.6919C1.62238 56.7722 1.51083 56.9054 1.45774 57.0647C1.43398 57.1484 1.42741 57.2361 1.43843 57.3224C1.44944 57.4088 1.47783 57.492 1.52186 57.5671C1.5659 57.6422 1.62467 57.7076 1.69465 57.7593C1.76463 57.8111 1.84436 57.8482 1.92905 57.8683L2.46398 57.9918C2.50614 58.0014 2.54599 58.0192 2.58123 58.0443C2.61647 58.0693 2.64641 58.1011 2.66933 58.1378C2.69224 58.1745 2.70768 58.2153 2.71475 58.258C2.72183 58.3006 2.72039 58.3443 2.71054 58.3864L2.59536 58.8852C2.55341 59.0478 2.57471 59.2203 2.65495 59.3677C2.7352 59.5152 2.86841 59.6268 3.02769 59.6799C3.11143 59.7036 3.19911 59.7102 3.28545 59.6992C3.3718 59.6882 3.45502 59.6598 3.5301 59.6157C3.60519 59.5717 3.67058 59.5129 3.72234 59.4429C3.77411 59.373 3.81118 59.2932 3.83131 59.2086L3.95391 58.6775C3.96351 58.6354 3.98135 58.5955 4.0064 58.5603C4.03146 58.525 4.06324 58.4951 4.09991 58.4722C4.13658 58.4493 4.17742 58.4338 4.22008 58.4267C4.26274 58.4197 4.30638 58.4211 4.34848 58.431L4.88341 58.5545C4.96835 58.5735 5.05626 58.5751 5.14185 58.5593C5.22744 58.5434 5.30894 58.5104 5.38143 58.4622C5.45392 58.4141 5.51591 58.3517 5.56367 58.2789C5.61142 58.2061 5.64395 58.1245 5.6593 58.0388C5.67883 57.8732 5.63655 57.7062 5.54057 57.5698C5.4446 57.4335 5.30167 57.3373 5.1392 57.2998Z" fill="#E8EEFF"/>
<path d="M40.1358 32.9253L39.5727 32.7953C39.5249 32.7845 39.4798 32.7644 39.4399 32.7361C39.4 32.7078 39.3661 32.6719 39.3402 32.6304C39.3142 32.5889 39.2968 32.5427 39.2888 32.4944C39.2809 32.4461 39.2826 32.3967 39.2939 32.3491L39.4241 31.785C39.4705 31.6011 39.4453 31.4064 39.3538 31.2403C39.2622 31.0742 39.111 30.949 38.9308 30.8901C38.8364 30.8633 38.7376 30.8559 38.6403 30.8682C38.543 30.8805 38.4492 30.9123 38.3645 30.9618C38.2797 31.0112 38.2059 31.0772 38.1473 31.1559C38.0887 31.2345 38.0466 31.3242 38.0234 31.4195L37.884 32.0236C37.8732 32.0714 37.8531 32.1165 37.8248 32.1564C37.7965 32.1963 37.7606 32.2302 37.7191 32.2561C37.6776 32.2821 37.6313 32.2995 37.5831 32.3074C37.5348 32.3154 37.4854 32.3137 37.4378 32.3024L36.8736 32.1722C36.6897 32.1258 36.4951 32.151 36.329 32.2425C36.1629 32.3341 36.0377 32.4852 35.9787 32.6655C35.9519 32.7601 35.9445 32.8592 35.957 32.9567C35.9694 33.0542 36.0015 33.1483 36.0512 33.2331C36.1009 33.3179 36.1673 33.3918 36.2464 33.4503C36.3254 33.5088 36.4155 33.5507 36.5111 33.5735L37.1152 33.713C37.163 33.7237 37.2081 33.7439 37.248 33.7722C37.2879 33.8005 37.3218 33.8364 37.3477 33.8779C37.3737 33.9194 37.3911 33.9656 37.399 34.0139C37.407 34.0622 37.4053 34.1115 37.394 34.1591L37.2638 34.7233C37.2163 34.9077 37.2407 35.1032 37.3322 35.2701C37.4237 35.4371 37.5753 35.5629 37.7562 35.6221C37.8508 35.6489 37.9499 35.6564 38.0474 35.6439C38.1449 35.6314 38.239 35.5994 38.3238 35.5497C38.4086 35.4999 38.4825 35.4335 38.541 35.3545C38.5995 35.2755 38.6414 35.1854 38.6642 35.0897L38.8037 34.4856C38.8144 34.4379 38.8346 34.3928 38.8629 34.3529C38.8912 34.313 38.9271 34.2791 38.9686 34.2531C39.0101 34.2272 39.0563 34.2098 39.1046 34.2018C39.1529 34.1939 39.2022 34.1956 39.2498 34.2068L39.854 34.3463C39.9499 34.3678 40.0492 34.3696 40.1459 34.3516C40.2426 34.3337 40.3347 34.2964 40.4166 34.2419C40.4985 34.1875 40.5685 34.1171 40.6224 34.0348C40.6764 33.9526 40.7132 33.8604 40.7305 33.7636C40.7532 33.5749 40.7048 33.3846 40.5949 33.2297C40.485 33.0747 40.3213 32.9662 40.1358 32.9253Z" fill="#E8EEFF"/>
<path d="M186.249 73.4106C186.87 73.4106 187.374 72.907 187.374 72.2856C187.374 71.6643 186.87 71.1606 186.249 71.1606C185.627 71.1606 185.124 71.6643 185.124 72.2856C185.124 72.907 185.627 73.4106 186.249 73.4106Z" stroke="#E8EEFF" stroke-width="0.75"/>
<path d="M178.249 82.4106C178.87 82.4106 179.374 81.907 179.374 81.2856C179.374 80.6643 178.87 80.1606 178.249 80.1606C177.627 80.1606 177.124 80.6643 177.124 81.2856C177.124 81.907 177.627 82.4106 178.249 82.4106Z" stroke="#D1DCFC" stroke-width="0.75"/>
<path d="M86.2485 55.7856C89.2861 55.7856 91.7485 53.3232 91.7485 50.2856C91.7485 47.2481 89.2861 44.7856 86.2485 44.7856C83.211 44.7856 80.7485 47.2481 80.7485 50.2856C80.7485 53.3232 83.211 55.7856 86.2485 55.7856Z" fill="white"/>
<path d="M86.2485 54.7856C88.7338 54.7856 90.7485 52.7709 90.7485 50.2856C90.7485 47.8004 88.7338 45.7856 86.2485 45.7856C83.7633 45.7856 81.7485 47.8004 81.7485 50.2856C81.7485 52.7709 83.7633 54.7856 86.2485 54.7856Z" stroke="#F98585" stroke-width="2"/>
<path d="M173.249 53.0356C174.767 53.0356 175.999 51.8044 175.999 50.2856C175.999 48.7669 174.767 47.5356 173.249 47.5356C171.73 47.5356 170.499 48.7669 170.499 50.2856C170.499 51.8044 171.73 53.0356 173.249 53.0356Z" stroke="#FEEB72" stroke-width="1.5"/>
<path d="M229.505 57.7586L234.989 53.1673L236.24 60.209L229.505 57.7586Z" stroke="#2EE2B1" stroke-width="1.75" stroke-miterlimit="10" stroke-linecap="round"/>
<path d="M207.556 83.6436L207.85 80.3366L210.571 82.2376L207.556 83.6436Z" stroke="#E8EDFC" stroke-width="0.75" stroke-miterlimit="10" stroke-linecap="round"/>
</svg>
