<svg width="47" height="46" viewBox="0 0 47 46" fill="none" xmlns="http://www.w3.org/2000/svg">
<path d="M23.744 45.568C36.3273 45.568 46.528 35.3673 46.528 22.784C46.528 10.2007 36.3273 0 23.744 0C11.1608 0 0.960022 10.2007 0.960022 22.784C0.960022 35.3673 11.1608 45.568 23.744 45.568Z" fill="#FBD072"/>
<g opacity="0.5">
<path opacity="0.5" d="M33.635 16.3278L32.426 16.1009C32.409 16.0659 32.381 16.0359 32.38 16.0009C32.32 14.8799 32.27 14.8498 31.129 14.8518C26.285 14.8568 21.442 14.8518 16.598 14.8518C16.2948 14.8408 15.9926 14.8922 15.71 15.0028C15.4538 15.1198 15.2432 15.318 15.111 15.5668C14.9789 15.8156 14.9325 16.101 14.979 16.3788C15.0642 16.6942 15.2531 16.9718 15.5152 17.1668C15.7773 17.3618 16.0975 17.4629 16.424 17.4539C18.657 17.4599 20.889 17.4539 23.124 17.4539H32.145C32.4469 17.4084 32.7553 17.4343 33.0454 17.5296C33.3355 17.6248 33.5992 17.7867 33.8154 18.0022C34.0316 18.2178 34.1943 18.481 34.2905 18.7707C34.3866 19.0605 34.4135 19.3688 34.369 19.6708C34.374 20.8208 34.369 21.9709 34.369 23.1779C34.14 23.1899 33.95 23.2069 33.761 23.2079C32.483 23.2079 31.204 23.1999 29.926 23.2079C29.4717 23.1954 29.0267 23.3387 28.6649 23.6139C28.3032 23.889 28.0463 24.2797 27.937 24.7209C27.831 25.1446 27.8743 25.592 28.0595 25.9876C28.2448 26.3832 28.5607 26.7029 28.954 26.8928C29.3005 27.0378 29.6725 27.1119 30.048 27.1108C31.29 27.1368 32.533 27.1209 33.775 27.1229C33.951 27.1229 34.126 27.1389 34.319 27.1479C34.319 28.3679 34.387 29.5538 34.297 30.7278C34.2366 31.1634 34.0162 31.5608 33.6789 31.8429C33.3416 32.1249 32.9114 32.2714 32.472 32.2538C27.272 32.2628 22.064 32.2709 16.861 32.2479C16.0097 32.2118 15.2051 31.8485 14.615 31.2336C14.025 30.6188 13.6951 29.8 13.694 28.9478C13.772 24.8978 13.707 20.8479 13.727 16.7949C13.7071 16.2406 13.7947 15.6877 13.985 15.1668C14.244 14.6249 14.6677 14.1789 15.1957 13.8926C15.7236 13.6062 16.3286 13.4943 16.924 13.5728C20.813 13.5558 24.703 13.5668 28.592 13.5668C29.528 13.5668 30.465 13.5668 31.401 13.5668C31.703 13.5253 32.0105 13.5539 32.2996 13.6505C32.5887 13.747 32.8517 13.9089 33.0682 14.1235C33.2847 14.3381 33.4487 14.5997 33.5477 14.888C33.6467 15.1763 33.678 15.4835 33.639 15.7859C33.635 15.9609 33.635 16.1218 33.635 16.3278Z" fill="#313131"/>
<path opacity="0.5" d="M16.986 15.5479H31.133V16.7769H30.57C26.3033 16.7769 22.0367 16.7769 17.77 16.7769C16.87 16.7769 16.948 16.9218 16.945 15.9378C16.949 15.8178 16.972 15.6929 16.986 15.5479Z" fill="#313131"/>
<path opacity="0.5" d="M30.478 26.443C30.229 26.4372 29.9874 26.3576 29.7836 26.2144C29.5798 26.0712 29.4231 25.8708 29.3332 25.6385C29.2433 25.4062 29.2244 25.1525 29.2788 24.9095C29.3331 24.6664 29.4584 24.4449 29.6386 24.2731C29.8189 24.1012 30.0461 23.9867 30.2915 23.9439C30.5368 23.9012 30.7894 23.9323 31.0171 24.0331C31.2448 24.1339 31.4375 24.3 31.5709 24.5104C31.7042 24.7208 31.7721 24.966 31.766 25.215C31.7647 25.381 31.73 25.545 31.664 25.6973C31.5981 25.8496 31.5022 25.9871 31.382 26.1017C31.2619 26.2162 31.12 26.3055 30.9647 26.3641C30.8094 26.4227 30.6439 26.4495 30.478 26.443Z" fill="#313131"/>
</g>
</svg>
